<svg width="112" height="112" viewBox="0 0 112 112" fill="none" xmlns="http://www.w3.org/2000/svg">
<circle cx="56" cy="56" r="56" fill="url(#paint0_linear_3645_6530)"/>
<path d="M85.8812 81.3183C82.2457 79.689 78.2119 79.5986 73.1889 81.0289C68.3968 82.3939 63.3704 84.9416 58.0495 87.6382C52.4439 90.4786 46.6493 93.4144 40.6119 95.2127C36.7555 96.3603 33.1217 96.934 29.652 96.934C28.1707 96.934 26.7212 96.8287 25.2968 96.6196C33.8331 103.077 44.4667 106.909 55.9974 106.909C71.2925 106.909 85.0108 100.168 94.3439 89.4984C91.9972 85.5321 89.1602 82.787 85.8829 81.3183H85.8812Z" fill="white"/>
<path d="M20.3725 65.1288C33.4598 68.7521 46.2777 60.8531 58.6755 53.2133C64.7446 49.4729 70.4757 45.9416 76.2084 43.7351C82.9973 41.1222 88.8438 40.8411 94.0811 42.8753C99.2263 44.8743 103.516 49.0647 106.909 55.3813C106.777 44.5949 103.289 34.6183 97.4387 26.4432C96.4077 25.0029 95.1172 23.765 93.6275 22.8082C90.0389 20.5047 86.3515 19.1347 82.6039 18.7198C71.1418 17.4485 61.3217 25.1852 51.8246 32.6678C44.1687 38.6983 36.8677 44.4511 29.3256 44.4511C27.8276 44.4511 26.3211 44.2252 24.7997 43.7284C19.5841 42.0272 15.3947 37.3734 12.3065 29.8691C7.9212 37.1693 5.31678 45.6555 5.09082 54.7322C9.63683 60.0836 14.7737 63.5797 20.3725 65.1304V65.1288Z" fill="white"/>
<path d="M92.019 48.1781C88.1073 46.6592 83.7337 46.9352 78.2521 49.0446C73.0115 51.0604 67.498 54.4595 61.6615 58.0561C51.1484 64.5349 39.4838 71.7213 27.081 71.723C24.3712 71.723 21.6278 71.3801 18.8527 70.6123C14.1008 69.2974 9.66528 66.8585 5.60133 63.3372C6.83491 71.8953 10.1959 79.7659 15.1369 86.3936C17.5806 88.1752 20.1616 89.475 22.8664 90.2762C33.8365 93.5315 44.8366 87.9577 55.4769 82.5662C61.0489 79.7425 66.3113 77.076 71.6289 75.5605C77.9257 73.7655 83.3504 73.9512 88.2094 76.1292C92.014 77.8338 95.3063 80.7144 98.0463 84.7242C101.595 79.5418 104.209 73.6718 105.647 67.3553C102.46 56.9052 97.8806 50.4565 92.0207 48.1798L92.019 48.1781Z" fill="white"/>
<defs>
<linearGradient id="paint0_linear_3645_6530" x1="56" y1="0" x2="56" y2="112" gradientUnits="userSpaceOnUse">
<stop stop-color="#0ABDD3"/>
<stop offset="1" stop-color="#DBCDBC"/>
</linearGradient>
</defs>
</svg>
