<svg width="245" height="37" viewBox="0 0 245 37" fill="none" xmlns="http://www.w3.org/2000/svg">
<path d="M18.1871 8.40314C15.4658 8.40314 14.3364 9.37814 14.3364 10.6245C14.3364 14.7457 30.317 13.821 30.317 24.8275C30.317 32.2556 24.1391 36.3717 15.4133 36.3717C8.38959 36.3717 2.77902 34.0397 0 29.9739L7.0815 23.0332C8.66801 25.7974 11.841 27.9636 15.7495 27.9636C18.5233 27.9636 20.0573 27.1494 20.0573 25.5763C20.0573 20.8068 4.13438 22.214 4.13438 11.3181C4.13438 4.17644 10.3123 0 18.9225 0C25.4945 0 30.7636 2.54808 32.8071 6.34256L25.3841 12.4137C24.1916 10.2476 21.7016 8.40314 18.1871 8.40314Z" fill="white"/>
<path d="M92.7635 0.814242L75.3697 35.5626H63.5812L62.1103 12.4138L52.7068 35.5626H41.3753L36.0957 0.814242H46.408L49.0137 23.8525L57.9706 0.814242H70.5524L71.913 23.7972L82.3934 0.814242H92.7635Z" fill="white"/>
<path d="M121.552 0.814242L120.133 8.8907H105.345L104.436 14.1477H116.96L115.542 22.1689H103.018L102.109 27.6973H116.897L115.479 35.5576H91.3398L97.4127 0.814242H121.552Z" fill="white"/>
<path d="M136.004 0.814242L131.412 27.1595H147.903L146.432 35.5626H120.596L126.653 0.814242H136.004Z" fill="white"/>
<path d="M165.811 0.814242L161.22 27.1595H177.71L176.239 35.5626H150.403L156.46 0.814242H165.811Z" fill="white"/>
<path d="M194.437 24.1792L192.456 35.5626H183.105L185.086 24.1792L175.735 0.814242H185.369L191.038 15.4494L201.466 0.814242H211.72L194.437 24.1792Z" fill="white"/>
<path d="M224.859 37C215.418 37 207.57 31.1198 207.57 20.827C207.57 9.58928 216.569 1.76411 227.711 1.76411C237.152 1.76411 245 7.64429 245 17.9371C245 29.592 236.001 37 224.853 37H224.859ZM226.892 10.4286C221.733 10.4286 217.394 14.1577 217.394 20.2993C217.394 24.5511 220.031 28.3355 225.683 28.3355C230.79 28.3355 235.176 24.6064 235.176 18.4096C235.176 14.1577 232.487 10.4286 226.886 10.4286H226.892Z" fill="white"/>
</svg>
