<svg width="118" height="118" viewBox="0 0 118 118" fill="none" xmlns="http://www.w3.org/2000/svg">
<circle cx="59" cy="59" r="57.5" fill="black" stroke="url(#paint0_linear_10136_14183)" stroke-width="3"/>
<path d="M88.8802 84.3185C85.2448 82.6892 81.2109 82.5989 76.1879 84.0291C71.3958 85.3942 66.3694 87.9419 61.0485 90.6385C55.443 93.4789 49.6483 96.4147 43.611 98.213C39.7546 99.3605 36.1208 99.9343 32.651 99.9343C31.1697 99.9343 29.7202 99.8289 28.2958 99.6198C36.8321 106.077 47.4657 109.909 58.9964 109.909C74.2915 109.909 88.0098 103.168 97.3429 92.4986C94.9962 88.5324 92.1592 85.7873 88.8819 84.3185H88.8802Z" fill="white"/>
<path d="M23.3715 68.129C36.4589 71.7523 49.2767 63.8533 61.6745 56.2135C67.7436 52.4731 73.4747 48.9418 79.2074 46.7354C85.9963 44.1224 91.8428 43.8414 97.0801 45.8755C102.225 47.8745 106.515 52.065 109.908 58.3815C109.776 47.5952 106.288 37.6185 100.438 29.4434C99.4067 28.0031 98.1162 26.7653 96.6265 25.8084C93.0379 23.5049 89.3506 22.1349 85.6029 21.72C74.1408 20.4487 64.3207 28.1855 54.8237 35.668C47.1678 41.6985 39.8667 47.4513 32.3246 47.4513C30.8266 47.4513 29.3202 47.2255 27.7987 46.7287C22.5832 45.0274 18.3937 40.3736 15.3055 32.8694C10.9202 40.1695 8.31581 48.6558 8.08984 57.7325C12.6359 63.0838 17.7727 66.58 23.3715 68.1307V68.129Z" fill="white"/>
<path d="M95.018 51.1784C91.1064 49.6594 86.7327 49.9355 81.2511 52.0449C76.0105 54.0606 70.497 57.4598 64.6605 61.0563C54.1475 67.5352 42.4828 74.7216 30.0801 74.7233C27.3702 74.7233 24.6269 74.3803 21.8517 73.6125C17.0998 72.2977 12.6643 69.8587 8.60035 66.3374C9.83393 74.8956 13.1949 82.7662 18.1359 89.3939C20.5796 91.1754 23.1606 92.4752 25.8655 93.2765C36.8355 96.5318 47.8356 90.958 58.4759 85.5665C64.0479 82.7427 69.3103 80.0763 74.6279 78.5607C80.9247 76.7658 86.3495 76.9515 91.2085 79.1295C95.013 80.8341 98.3053 83.7147 101.045 87.7244C104.594 82.542 107.208 76.6721 108.646 70.3555C105.459 59.9054 100.88 53.4567 95.0197 51.18L95.018 51.1784Z" fill="white"/>
<defs>
<linearGradient id="paint0_linear_10136_14183" x1="3" y1="59" x2="115" y2="59" gradientUnits="userSpaceOnUse">
<stop stop-color="#05BCD3"/>
<stop offset="0.7" stop-color="#DBCDBC"/>
</linearGradient>
</defs>
</svg>
