<svg width="22" height="16" viewBox="0 0 22 16" fill="none" xmlns="http://www.w3.org/2000/svg">
<path d="M1.83027 5.10034L3.45076 4.69035M5.2741 14.5901L3.79351 14.9646M2.33857 4.97188L4.56295 4.40883C5.40001 4.19564 6.23241 4.82702 6.41427 5.80825L7.58009 12.1384C7.76196 13.1197 7.22335 14.0954 6.3863 14.3086L4.16191 14.8717M19.8725 5.10034L18.252 4.69035M16.4287 14.5901L17.9093 14.9646M19.3619 4.97188L17.1375 4.40883C16.3004 4.19564 15.468 4.82702 15.2862 5.80825L14.1203 12.1384C13.9385 13.1197 14.4771 14.0954 15.3141 14.3086L17.5385 14.8717M16.2072 4.44983C15.0869 3.35588 13.969 2.26194 12.8488 1.16799C12.8014 1.11437 12.0982 0.366304 10.7684 0.350217C9.38445 0.334129 8.6429 1.12778 8.60684 1.16799C7.48663 2.26194 6.36867 3.35588 5.24846 4.44983M7.35393 13.4859C7.57543 13.8686 7.91818 14.3086 8.4428 14.6749C9.26121 15.2461 10.1053 15.3472 10.5996 15.35H11.1055C11.4413 15.35 12.36 15.3035 13.2623 14.6749C13.7753 14.3168 14.1157 13.8877 14.3372 13.5078M1.57834 5.16433L2.33727 4.97214C3.17808 4.75922 4.00693 5.38562 4.18857 6.37125L5.35491 12.7003C5.53655 13.6859 5.00218 14.6575 4.16138 14.8705L3.40245 15.0626C2.56164 15.2756 1.73279 14.6492 1.55115 13.6635L0.384808 7.33449C0.203173 6.34886 0.737537 5.37725 1.57834 5.16433ZM18.2963 15.0636L17.5374 14.8714C16.6965 14.6585 16.1622 13.6869 16.3438 12.7013L17.5102 6.37222C17.6918 5.3866 18.5206 4.76019 19.3615 4.97311L20.1204 5.1653C20.9612 5.37822 21.4956 6.34983 21.3139 7.33546L20.1476 13.6645C19.9659 14.6501 19.1371 15.2765 18.2963 15.0636Z" stroke="black" stroke-width="0.7" stroke-miterlimit="10"/>
</svg>
