<?xml version="1.0" encoding="UTF-8"?>
<!--Generator: Custom SF Symbol – Foxhunt-->
<!DOCTYPE svg
PUBLIC "-//W3C//DTD SVG 1.1//EN"
       "http://www.w3.org/Graphics/SVG/1.1/DTD/svg11.dtd">
<svg version="1.1" xmlns="http://www.w3.org/2000/svg" xmlns:xlink="http://www.w3.org/1999/xlink" viewBox="0 0 3300 2200">
 <!--glyph: "co.swellyo.profile", point size: 100.0, template writer version: "138.0.0"-->
 <style>.monochrome-0 {-sfsymbols-motion-group:0;-sfsymbols-layer-tags:-a1b2c3d4e5f60001}

.multicolor-0:tintColor {-sfsymbols-motion-group:0;-sfsymbols-layer-tags:-a1b2c3d4e5f60001}

.hierarchical-0:primary {-sfsymbols-motion-group:0;-sfsymbols-layer-tags:-a1b2c3d4e5f60001}

.SFSymbolsPreviewWireframe {fill:none;opacity:1.0;stroke:black;stroke-width:0.5}
</style>
 <g id="Notes">
  <rect height="2200" id="artboard" style="fill:white;opacity:1" width="3300" x="0" y="0"/>
  <line style="fill:none;stroke:black;opacity:1;stroke-width:0.5;" x1="263" x2="3036" y1="292" y2="292"/>
  <text style="stroke:none;fill:black;font-family:sans-serif;font-size:13;font-weight:bold;" transform="matrix(1 0 0 1 263 322)">Weight/Scale Variations</text>
  <text style="stroke:none;fill:black;font-family:sans-serif;font-size:13;text-anchor:middle;" transform="matrix(1 0 0 1 559.711 322)">Ultralight</text>
  <text style="stroke:none;fill:black;font-family:sans-serif;font-size:13;text-anchor:middle;" transform="matrix(1 0 0 1 1449.84 322)">Regular</text>
  <text style="stroke:none;fill:black;font-family:sans-serif;font-size:13;text-anchor:middle;" transform="matrix(1 0 0 1 2933.4 322)">Black</text>
  <line style="fill:none;stroke:black;opacity:1;stroke-width:0.5;" x1="263" x2="3036" y1="1903" y2="1903"/>
  <text id="template-version" style="stroke:none;fill:black;font-family:sans-serif;font-size:13;text-anchor:end;" transform="matrix(1 0 0 1 3036 1933)">Template v.6.0</text>
  <text style="stroke:none;fill:black;font-family:sans-serif;font-size:13;text-anchor:end;" transform="matrix(1 0 0 1 3036 1951)">Requires Xcode 16 or greater</text>
  <text id="descriptive-name" style="stroke:none;fill:black;font-family:sans-serif;font-size:13;text-anchor:end;" transform="matrix(1 0 0 1 3036 1969)">Generated from co.swellyo.profile</text>
  <text style="stroke:none;fill:black;font-family:sans-serif;font-size:13;text-anchor:end;" transform="matrix(1 0 0 1 3036 1987)">Typeset at 100.0 points</text>
  <text style="stroke:none;fill:black;font-family:sans-serif;font-size:13;" transform="matrix(1 0 0 1 263 726)">Small</text>
  <text style="stroke:none;fill:black;font-family:sans-serif;font-size:13;" transform="matrix(1 0 0 1 263 1156)">Medium</text>
  <text style="stroke:none;fill:black;font-family:sans-serif;font-size:13;" transform="matrix(1 0 0 1 263 1586)">Large</text>
 </g>
 <g id="Guides">
  <g id="H-reference" style="fill:#27AAE1;stroke:none;" transform="matrix(1 0 0 1 339 696)">
   <path d="M0.993654 0L3.63775 0L29.3281-67.1323L30.0303-67.1323L30.0303-70.459L28.1226-70.459ZM11.6885-24.4799L46.9815-24.4799L46.2315-26.7285L12.4385-26.7285ZM55.1196 0L57.7637 0L30.6382-70.459L29.4326-70.459L29.4326-67.1323Z"/>
  </g>
  <line id="Baseline-S" style="fill:none;stroke:#27AAE1;opacity:1;stroke-width:0.5;" x1="263" x2="3036" y1="696" y2="696"/>
  <line id="Capline-S" style="fill:none;stroke:#27AAE1;opacity:1;stroke-width:0.5;" x1="263" x2="3036" y1="625.541" y2="625.541"/>
  <g id="H-reference" style="fill:#27AAE1;stroke:none;" transform="matrix(1 0 0 1 339 1126)">
   <path d="M0.993654 0L3.63775 0L29.3281-67.1323L30.0303-67.1323L30.0303-70.459L28.1226-70.459ZM11.6885-24.4799L46.9815-24.4799L46.2315-26.7285L12.4385-26.7285ZM55.1196 0L57.7637 0L30.6382-70.459L29.4326-70.459L29.4326-67.1323Z"/>
  </g>
  <line id="Baseline-M" style="fill:none;stroke:#27AAE1;opacity:1;stroke-width:0.5;" x1="263" x2="3036" y1="1126" y2="1126"/>
  <line id="Capline-M" style="fill:none;stroke:#27AAE1;opacity:1;stroke-width:0.5;" x1="263" x2="3036" y1="1055.54" y2="1055.54"/>
  <g id="H-reference" style="fill:#27AAE1;stroke:none;" transform="matrix(1 0 0 1 339 1556)">
   <path d="M0.993654 0L3.63775 0L29.3281-67.1323L30.0303-67.1323L30.0303-70.459L28.1226-70.459ZM11.6885-24.4799L46.9815-24.4799L46.2315-26.7285L12.4385-26.7285ZM55.1196 0L57.7637 0L30.6382-70.459L29.4326-70.459L29.4326-67.1323Z"/>
  </g>
  <line id="Baseline-L" style="fill:none;stroke:#27AAE1;opacity:1;stroke-width:0.5;" x1="263" x2="3036" y1="1556" y2="1556"/>
  <line id="Capline-L" style="fill:none;stroke:#27AAE1;opacity:1;stroke-width:0.5;" x1="263" x2="3036" y1="1485.54" y2="1485.54"/>
  <line id="left-margin-Ultralight-S" style="fill:none;stroke:#00AEEF;stroke-width:0.5;opacity:1.0;" x1="515.423" x2="515.423" y1="600.785" y2="720.121"/>
  <line id="right-margin-Ultralight-S" style="fill:none;stroke:#00AEEF;stroke-width:0.5;opacity:1.0;" x1="604" x2="604" y1="600.785" y2="720.121"/>
  <line id="left-margin-Regular-S" style="fill:none;stroke:#00AEEF;stroke-width:0.5;opacity:1.0;" x1="1405.56" x2="1405.56" y1="600.785" y2="720.121"/>
  <line id="right-margin-Regular-S" style="fill:none;stroke:#00AEEF;stroke-width:0.5;opacity:1.0;" x1="1494.13" x2="1494.13" y1="600.785" y2="720.121"/>
  <line id="left-margin-Black-S" style="fill:none;stroke:#00AEEF;stroke-width:0.5;opacity:1.0;" x1="2889.11" x2="2889.11" y1="600.785" y2="720.121"/>
  <line id="right-margin-Black-S" style="fill:none;stroke:#00AEEF;stroke-width:0.5;opacity:1.0;" x1="2977.69" x2="2977.69" y1="600.785" y2="720.121"/>
 </g>
 <g id="Symbols">
  <g id="Black-S" transform="matrix(1 0 0 1 2889.11 696)">
   <path class="monochrome-0 multicolor-0:tintColor hierarchical-0:primary SFSymbolsPreviewWireframe" fill-rule="evenodd" d="M61.785 -49.246L61.782 -49.554L61.781 -49.588L61.772 -49.895L61.771 -49.928L61.757 -50.233L61.755 -50.267L61.734 -50.571L61.732 -50.604L61.706 -50.906L61.702 -50.939L61.671 -51.240L61.667 -51.273L61.629 -51.572L61.625 -51.605L61.582 -51.902L61.577 -51.935L61.528 -52.230L61.523 -52.263L61.469 -52.556L61.463 -52.588L61.403 -52.880L61.396 -52.912L61.332 -53.202L61.324 -53.234L61.254 -53.521L61.246 -53.553L61.171 -53.838L61.162 -53.870L61.082 -54.153L61.073 -54.185L60.987 -54.466L60.978 -54.497L60.887 -54.776L60.877 -54.807L60.781 -55.083L60.770 -55.114L60.670 -55.388L60.658 -55.419L60.553 -55.690L60.541 -55.721L60.431 -55.990L60.418 -56.020L60.303 -56.286L60.290 -56.316L60.170 -56.580L60.157 -56.609L60.032 -56.871L60.018 -56.900L59.889 -57.159L59.874 -57.187L59.741 -57.443L59.726 -57.472L59.588 -57.725L59.572 -57.753L59.429 -58.004L59.413 -58.031L59.266 -58.279L59.249 -58.306L59.098 -58.551L59.081 -58.578L58.925 -58.819L58.908 -58.846L58.748 -59.085L58.730 -59.111L58.566 -59.346L58.547 -59.372L58.379 -59.605L58.360 -59.630L58.187 -59.859L58.168 -59.884L57.992 -60.110L57.972 -60.135L57.791 -60.357L57.771 -60.382L57.587 -60.601L57.566 -60.625L57.378 -60.841L57.357 -60.864L57.165 -61.077L57.143 -61.100L56.947 -61.309L56.926 -61.331L56.726 -61.536L56.704 -61.559L56.500 -61.760L56.478 -61.782L56.271 -61.980L56.248 -62.002L56.037 -62.196L56.014 -62.217L55.800 -62.407L55.776 -62.428L55.559 -62.614L55.534 -62.635L55.314 -62.817L55.289 -62.837L55.065 -63.016L55.040 -63.035L54.812 -63.210L54.787 -63.229L54.556 -63.399L54.531 -63.418L54.297 -63.584L54.271 -63.602L54.034 -63.764L54.007 -63.782L53.767 -63.940L53.740 -63.957L53.497 -64.111L53.470 -64.128L53.224 -64.277L53.196 -64.293L52.947 -64.438L52.919 -64.454L52.668 -64.594L52.639 -64.610L52.385 -64.746L52.356 -64.761L52.099 -64.892L52.070 -64.906L51.810 -65.033L51.780 -65.047L51.518 -65.169L51.488 -65.182L51.223 -65.300L51.193 -65.312L50.925 -65.425L50.895 -65.437L50.625 -65.545L50.594 -65.557L50.321 -65.660L50.291 -65.671L50.016 -65.769L49.985 -65.780L49.707 -65.873L49.676 -65.883L49.396 -65.971L49.365 -65.980L49.083 -66.063L49.051 -66.072L48.767 -66.150L48.735 -66.158L48.449 -66.231L48.416 -66.238L48.128 -66.306L48.096 -66.313L47.805 -66.375L47.773 -66.381L47.481 -66.438L47.448 -66.444L47.154 -66.495L47.121 -66.501L46.825 -66.546L46.792 -66.551L46.494 -66.591L46.461 -66.595L46.161 -66.630L46.128 -66.633L45.827 -66.662L45.793 -66.665L45.491 -66.688L45.457 -66.691L45.153 -66.708L45.119 -66.710L44.813 -66.722L44.780 -66.723L44.472 -66.728L44.439 -66.729L44.130 -66.729L44.097 -66.728L43.789 -66.723L43.756 -66.722L43.450 -66.710L43.416 -66.708L43.112 -66.691L43.078 -66.688L42.775 -66.665L42.742 -66.662L42.441 -66.633L42.407 -66.630L42.108 -66.595L42.075 -66.591L41.777 -66.551L41.744 -66.546L41.448 -66.500L41.415 -66.495L41.121 -66.444L41.088 -66.438L40.796 -66.381L40.763 -66.375L40.473 -66.313L40.440 -66.306L40.152 -66.238L40.120 -66.230L39.833 -66.158L39.801 -66.150L39.517 -66.072L39.486 -66.063L39.203 -65.980L39.172 -65.970L38.892 -65.883L38.861 -65.872L38.583 -65.779L38.552 -65.769L38.277 -65.671L38.247 -65.660L37.974 -65.557L37.943 -65.545L37.673 -65.437L37.643 -65.425L37.375 -65.312L37.345 -65.299L37.080 -65.182L37.050 -65.169L36.787 -65.047L36.758 -65.033L36.498 -64.906L36.469 -64.892L36.212 -64.760L36.183 -64.745L35.929 -64.609L35.900 -64.594L35.649 -64.454L35.621 -64.438L35.372 -64.293L35.344 -64.277L35.098 -64.127L35.071 -64.111L34.828 -63.957L34.801 -63.940L34.561 -63.782L34.534 -63.764L34.297 -63.602L34.271 -63.584L34.038 -63.418L34.012 -63.399L33.781 -63.228L33.756 -63.209L33.528 -63.035L33.503 -63.015L33.279 -62.837L33.255 -62.817L33.034 -62.634L33.010 -62.614L32.792 -62.428L32.768 -62.407L32.554 -62.217L32.531 -62.195L32.320 -62.001L32.297 -61.980L32.091 -61.782L32.068 -61.760L31.865 -61.559L31.842 -61.536L31.643 -61.331L31.621 -61.308L31.425 -61.099L31.404 -61.076L31.212 -60.864L31.191 -60.840L31.002 -60.625L30.982 -60.601L30.797 -60.381L30.777 -60.357L30.597 -60.135L30.577 -60.110L30.400 -59.884L30.381 -59.859L30.209 -59.630L30.190 -59.604L30.022 -59.372L30.003 -59.346L29.839 -59.110L29.821 -59.084L29.661 -58.846L29.644 -58.819L29.488 -58.577L29.471 -58.550L29.319 -58.306L29.303 -58.278L29.156 -58.031L29.140 -58.003L28.997 -57.753L28.982 -57.725L28.843 -57.471L28.828 -57.443L28.695 -57.187L28.680 -57.158L28.551 -56.900L28.537 -56.870L28.413 -56.609L28.399 -56.580L28.279 -56.316L28.266 -56.286L28.151 -56.019L28.139 -55.989L28.028 -55.720L28.016 -55.690L27.911 -55.418L27.900 -55.388L27.799 -55.114L27.788 -55.083L27.693 -54.807L27.682 -54.776L27.592 -54.497L27.582 -54.466L27.497 -54.185L27.487 -54.153L27.407 -53.870L27.399 -53.838L27.323 -53.553L27.315 -53.521L27.246 -53.234L27.238 -53.201L27.173 -52.912L27.167 -52.880L27.107 -52.588L27.101 -52.556L27.047 -52.262L27.041 -52.230L26.993 -51.934L26.988 -51.901L26.945 -51.605L26.941 -51.571L26.903 -51.273L26.899 -51.240L26.868 -50.939L26.864 -50.906L26.838 -50.604L26.836 -50.570L26.815 -50.267L26.813 -50.233L26.799 -49.928L26.797 -49.895L26.789 -49.588L26.788 -49.554L26.785 -49.246L26.785 -49.213L26.788 -48.905L26.789 -48.871L26.797 -48.564L26.799 -48.531L26.813 -48.226L26.815 -48.192L26.836 -47.889L26.838 -47.855L26.864 -47.553L26.868 -47.520L26.899 -47.219L26.903 -47.186L26.941 -46.888L26.945 -46.854L26.988 -46.558L26.993 -46.525L27.041 -46.229L27.047 -46.197L27.101 -45.903L27.107 -45.871L27.167 -45.579L27.173 -45.547L27.238 -45.258L27.246 -45.225L27.315 -44.938L27.323 -44.906L27.399 -44.621L27.407 -44.589L27.487 -44.306L27.497 -44.274L27.582 -43.993L27.592 -43.962L27.682 -43.683L27.693 -43.652L27.788 -43.376L27.799 -43.345L27.900 -43.071L27.911 -43.041L28.016 -42.769L28.028 -42.739L28.139 -42.470L28.151 -42.440L28.266 -42.173L28.279 -42.143L28.399 -41.879L28.413 -41.850L28.537 -41.589L28.551 -41.559L28.680 -41.301L28.695 -41.272L28.828 -41.016L28.843 -40.988L28.982 -40.734L28.997 -40.706L29.140 -40.456L29.156 -40.428L29.303 -40.181L29.319 -40.153L29.471 -39.909L29.488 -39.882L29.644 -39.640L29.661 -39.613L29.821 -39.375L29.839 -39.349L30.003 -39.113L30.022 -39.087L30.190 -38.855L30.209 -38.829L30.381 -38.600L30.400 -38.575L30.577 -38.349L30.597 -38.324L30.777 -38.102L30.797 -38.078L30.982 -37.858L31.002 -37.834L31.191 -37.619L31.212 -37.595L31.404 -37.383L31.425 -37.360L31.621 -37.151L31.643 -37.128L31.842 -36.923L31.865 -36.900L32.068 -36.699L32.091 -36.677L32.297 -36.479L32.320 -36.458L32.531 -36.264L32.554 -36.242L32.768 -36.052L32.792 -36.031L33.010 -35.845L33.034 -35.825L33.255 -35.642L33.279 -35.622L33.503 -35.444L33.528 -35.424L33.756 -35.250L33.781 -35.231L34.012 -35.060L34.038 -35.041L34.271 -34.875L34.297 -34.857L34.534 -34.695L34.561 -34.677L34.801 -34.519L34.828 -34.502L35.071 -34.348L35.098 -34.332L35.344 -34.182L35.372 -34.166L35.621 -34.021L35.649 -34.005L35.900 -33.865L35.929 -33.850L36.183 -33.714L36.212 -33.699L36.469 -33.567L36.498 -33.553L36.758 -33.426L36.787 -33.412L37.050 -33.290L37.080 -33.277L37.345 -33.160L37.375 -33.147L37.643 -33.034L37.673 -33.022L37.943 -32.914L37.974 -32.902L38.247 -32.799L38.277 -32.788L38.552 -32.690L38.583 -32.680L38.861 -32.587L38.892 -32.576L39.172 -32.489L39.203 -32.479L39.486 -32.396L39.517 -32.387L39.801 -32.309L39.833 -32.301L40.120 -32.229L40.152 -32.221L40.440 -32.153L40.473 -32.146L40.763 -32.084L40.796 -32.078L41.088 -32.021L41.121 -32.015L41.415 -31.964L41.448 -31.959L41.744 -31.913L41.777 -31.908L42.075 -31.868L42.108 -31.864L42.407 -31.829L42.441 -31.826L42.742 -31.797L42.775 -31.794L43.078 -31.771L43.112 -31.768L43.416 -31.751L43.450 -31.749L43.756 -31.737L43.789 -31.736L44.097 -31.731L44.130 -31.730L44.439 -31.730L44.472 -31.731L44.780 -31.736L44.813 -31.737L45.119 -31.749L45.153 -31.751L45.457 -31.768L45.491 -31.771L45.793 -31.794L45.827 -31.797L46.128 -31.826L46.161 -31.829L46.461 -31.864L46.494 -31.868L46.792 -31.908L46.825 -31.913L47.121 -31.958L47.154 -31.964L47.448 -32.015L47.481 -32.021L47.773 -32.078L47.805 -32.084L48.096 -32.146L48.128 -32.153L48.416 -32.221L48.449 -32.228L48.735 -32.301L48.767 -32.309L49.051 -32.387L49.083 -32.396L49.365 -32.479L49.396 -32.488L49.676 -32.576L49.707 -32.586L49.985 -32.679L50.016 -32.690L50.291 -32.788L50.321 -32.799L50.594 -32.902L50.625 -32.914L50.895 -33.022L50.925 -33.034L51.193 -33.147L51.223 -33.159L51.488 -33.277L51.518 -33.290L51.780 -33.412L51.810 -33.426L52.070 -33.553L52.099 -33.567L52.356 -33.698L52.385 -33.713L52.639 -33.849L52.668 -33.865L52.919 -34.005L52.947 -34.021L53.196 -34.166L53.224 -34.182L53.470 -34.331L53.497 -34.348L53.740 -34.502L53.767 -34.519L54.007 -34.677L54.034 -34.695L54.271 -34.857L54.297 -34.875L54.531 -35.041L54.556 -35.060L54.787 -35.230L54.812 -35.249L55.040 -35.424L55.065 -35.443L55.289 -35.622L55.314 -35.642L55.534 -35.824L55.559 -35.845L55.776 -36.031L55.800 -36.052L56.014 -36.242L56.037 -36.263L56.248 -36.457L56.271 -36.479L56.478 -36.677L56.500 -36.699L56.704 -36.900L56.726 -36.923L56.926 -37.128L56.947 -37.150L57.143 -37.359L57.165 -37.382L57.357 -37.595L57.378 -37.618L57.566 -37.834L57.587 -37.858L57.771 -38.077L57.791 -38.102L57.972 -38.324L57.992 -38.349L58.168 -38.575L58.187 -38.600L58.360 -38.829L58.379 -38.854L58.547 -39.087L58.566 -39.113L58.730 -39.348L58.748 -39.374L58.908 -39.613L58.925 -39.640L59.081 -39.881L59.098 -39.908L59.249 -40.153L59.266 -40.180L59.413 -40.428L59.429 -40.455L59.572 -40.706L59.588 -40.734L59.726 -40.987L59.741 -41.016L59.874 -41.272L59.889 -41.300L60.018 -41.559L60.032 -41.588L60.157 -41.850L60.170 -41.879L60.290 -42.143L60.303 -42.173L60.418 -42.439L60.431 -42.469L60.541 -42.738L60.553 -42.769L60.658 -43.040L60.670 -43.071L60.770 -43.345L60.781 -43.376L60.877 -43.652L60.887 -43.683L60.978 -43.962L60.987 -43.993L61.073 -44.274L61.082 -44.306L61.162 -44.589L61.171 -44.621L61.246 -44.906L61.254 -44.938L61.324 -45.225L61.332 -45.257L61.396 -45.547L61.403 -45.579L61.463 -45.871L61.469 -45.903L61.523 -46.196L61.528 -46.229L61.577 -46.524L61.582 -46.557L61.625 -46.854L61.629 -46.887L61.667 -47.186L61.671 -47.219L61.702 -47.520L61.706 -47.553L61.732 -47.855L61.734 -47.888L61.755 -48.192L61.757 -48.226L61.771 -48.531L61.772 -48.564L61.781 -48.871L61.782 -48.905L61.785 -49.213L61.784 -49.229L61.785 -49.246ZM58.274 -48.682L58.261 -48.410L58.243 -48.140L58.220 -47.871L58.192 -47.604L58.158 -47.339L58.120 -47.075L58.077 -46.812L58.029 -46.552L57.977 -46.293L57.919 -46.036L57.857 -45.781L57.791 -45.528L57.719 -45.276L57.644 -45.027L57.563 -44.779L57.478 -44.534L57.389 -44.291L57.296 -44.049L57.198 -43.810L57.096 -43.573L56.989 -43.339L56.879 -43.107L56.764 -42.877L56.645 -42.649L56.523 -42.424L56.396 -42.202L56.265 -41.981L56.131 -41.764L55.992 -41.549L55.850 -41.337L55.704 -41.128L55.554 -40.921L55.401 -40.717L55.244 -40.517L55.083 -40.319L54.919 -40.124L54.752 -39.932L54.581 -39.743L54.406 -39.558L54.229 -39.375L54.048 -39.196L53.864 -39.020L53.677 -38.847L53.486 -38.678L53.293 -38.512L53.097 -38.350L52.897 -38.191L52.695 -38.036L52.490 -37.885L52.282 -37.737L52.071 -37.593L51.858 -37.452L51.641 -37.316L51.423 -37.183L51.201 -37.054L50.977 -36.930L50.751 -36.809L50.522 -36.692L50.291 -36.580L50.058 -36.471L49.822 -36.367L49.584 -36.267L49.344 -36.171L49.102 -36.080L48.857 -35.993L48.611 -35.910L48.363 -35.832L48.112 -35.759L47.860 -35.690L47.606 -35.625L47.349 -35.566L47.092 -35.511L46.832 -35.460L46.571 -35.415L46.308 -35.374L46.043 -35.339L45.777 -35.308L45.509 -35.282L45.239 -35.262L44.968 -35.246L44.696 -35.235L44.422 -35.230L44.147 -35.230L43.873 -35.236L43.601 -35.246L43.330 -35.262L43.060 -35.282L42.792 -35.308L42.526 -35.339L42.261 -35.374L41.998 -35.415L41.736 -35.461L41.477 -35.511L41.219 -35.566L40.963 -35.626L40.708 -35.690L40.456 -35.759L40.206 -35.832L39.957 -35.911L39.711 -35.993L39.466 -36.080L39.224 -36.171L38.984 -36.267L38.746 -36.367L38.510 -36.471L38.277 -36.580L38.046 -36.692L37.817 -36.809L37.591 -36.930L37.367 -37.055L37.145 -37.183L36.927 -37.316L36.711 -37.453L36.497 -37.593L36.286 -37.737L36.079 -37.885L35.873 -38.036L35.671 -38.192L35.472 -38.350L35.275 -38.513L35.082 -38.678L34.892 -38.847L34.705 -39.020L34.520 -39.196L34.340 -39.375L34.162 -39.558L33.988 -39.743L33.817 -39.932L33.650 -40.124L33.486 -40.319L33.325 -40.517L33.168 -40.718L33.015 -40.921L32.865 -41.128L32.719 -41.337L32.577 -41.549L32.439 -41.764L32.304 -41.981L32.173 -42.202L32.047 -42.424L31.924 -42.649L31.805 -42.877L31.691 -43.107L31.580 -43.339L31.474 -43.573L31.372 -43.810L31.274 -44.049L31.180 -44.291L31.091 -44.534L31.006 -44.779L30.926 -45.027L30.850 -45.276L30.779 -45.528L30.712 -45.781L30.650 -46.036L30.593 -46.293L30.540 -46.552L30.493 -46.812L30.450 -47.075L30.411 -47.339L30.378 -47.604L30.350 -47.871L30.327 -48.140L30.309 -48.410L30.296 -48.682L30.288 -48.955L30.285 -49.230L30.288 -49.504L30.296 -49.777L30.309 -50.049L30.327 -50.319L30.350 -50.588L30.378 -50.855L30.411 -51.120L30.450 -51.384L30.493 -51.647L30.540 -51.907L30.593 -52.166L30.650 -52.423L30.712 -52.678L30.779 -52.931L30.850 -53.183L30.926 -53.432L31.006 -53.680L31.091 -53.925L31.180 -54.168L31.274 -54.410L31.372 -54.649L31.474 -54.886L31.580 -55.120L31.691 -55.352L31.805 -55.582L31.924 -55.810L32.047 -56.035L32.173 -56.257L32.304 -56.478L32.439 -56.695L32.577 -56.910L32.719 -57.122L32.865 -57.331L33.015 -57.538L33.168 -57.741L33.325 -57.942L33.486 -58.140L33.650 -58.335L33.817 -58.527L33.988 -58.716L34.162 -58.901L34.340 -59.084L34.520 -59.263L34.705 -59.439L34.892 -59.612L35.082 -59.781L35.275 -59.946L35.472 -60.109L35.671 -60.267L35.873 -60.423L36.079 -60.574L36.286 -60.722L36.497 -60.866L36.711 -61.006L36.927 -61.143L37.145 -61.276L37.367 -61.404L37.591 -61.529L37.817 -61.650L38.046 -61.767L38.277 -61.879L38.510 -61.988L38.746 -62.092L38.984 -62.192L39.224 -62.288L39.466 -62.379L39.711 -62.466L39.957 -62.548L40.206 -62.627L40.456 -62.700L40.708 -62.769L40.963 -62.833L41.219 -62.893L41.477 -62.948L41.736 -62.998L41.998 -63.044L42.261 -63.085L42.526 -63.120L42.792 -63.151L43.060 -63.177L43.330 -63.197L43.601 -63.213L43.873 -63.223L44.147 -63.229L44.422 -63.229L44.696 -63.224L44.968 -63.213L45.239 -63.197L45.509 -63.177L45.777 -63.151L46.043 -63.120L46.308 -63.085L46.571 -63.044L46.832 -62.999L47.092 -62.948L47.349 -62.893L47.606 -62.834L47.860 -62.769L48.112 -62.700L48.363 -62.627L48.611 -62.549L48.857 -62.466L49.102 -62.379L49.344 -62.288L49.584 -62.192L49.822 -62.092L50.058 -61.988L50.291 -61.879L50.522 -61.767L50.751 -61.650L50.977 -61.529L51.201 -61.405L51.423 -61.276L51.641 -61.143L51.858 -61.007L52.071 -60.866L52.282 -60.722L52.490 -60.574L52.695 -60.423L52.897 -60.268L53.097 -60.109L53.293 -59.947L53.486 -59.781L53.677 -59.612L53.864 -59.439L54.048 -59.263L54.229 -59.084L54.406 -58.901L54.581 -58.716L54.752 -58.527L54.919 -58.335L55.083 -58.140L55.244 -57.942L55.401 -57.742L55.554 -57.538L55.704 -57.331L55.850 -57.122L55.992 -56.910L56.131 -56.695L56.265 -56.478L56.396 -56.257L56.523 -56.035L56.645 -55.810L56.764 -55.582L56.879 -55.352L56.989 -55.120L57.096 -54.886L57.198 -54.649L57.296 -54.410L57.389 -54.168L57.478 -53.925L57.563 -53.680L57.644 -53.432L57.719 -53.183L57.791 -52.931L57.857 -52.678L57.919 -52.423L57.977 -52.166L58.029 -51.907L58.077 -51.647L58.120 -51.384L58.158 -51.120L58.192 -50.855L58.220 -50.588L58.243 -50.319L58.261 -50.049L58.274 -49.777L58.282 -49.504L58.285 -49.230L58.282 -48.955L58.274 -48.682ZM14.451 -4.691L14.649 -4.895L14.849 -5.097L15.049 -5.298L15.250 -5.498L15.453 -5.696L15.657 -5.893L15.861 -6.089L16.067 -6.283L16.274 -6.476L16.482 -6.667L16.691 -6.857L16.901 -7.046L17.113 -7.233L17.325 -7.419L17.538 -7.603L17.752 -7.786L17.968 -7.967L18.184 -8.147L18.401 -8.326L18.620 -8.503L18.839 -8.678L19.060 -8.852L19.281 -9.025L19.504 -9.196L19.727 -9.365L19.951 -9.533L20.177 -9.700L20.403 -9.865L20.630 -10.029L20.858 -10.191L21.088 -10.351L21.318 -10.510L21.549 -10.667L21.781 -10.823L22.014 -10.977L22.248 -11.130L22.482 -11.281L22.718 -11.431L22.954 -11.579L23.192 -11.725L23.430 -11.870L23.669 -12.013L23.909 -12.154L24.150 -12.294L24.392 -12.433L24.635 -12.569L24.878 -12.704L25.123 -12.838L25.368 -12.969L25.614 -13.099L25.861 -13.228L26.108 -13.355L26.357 -13.480L26.606 -13.603L26.856 -13.725L27.107 -13.845L27.359 -13.963L27.612 -14.080L27.865 -14.195L28.119 -14.308L28.374 -14.419L28.629 -14.529L28.886 -14.637L29.143 -14.743L29.401 -14.848L29.659 -14.951L29.919 -15.052L30.179 -15.151L30.439 -15.248L30.701 -15.344L30.963 -15.438L31.226 -15.530L31.490 -15.621L31.754 -15.709L32.019 -15.796L32.285 -15.881L32.551 -15.964L32.818 -16.045L33.086 -16.125L33.354 -16.202L33.623 -16.278L33.893 -16.352L34.164 -16.424L34.435 -16.494L34.706 -16.563L34.979 -16.629L35.251 -16.694L35.525 -16.756L35.799 -16.817L36.074 -16.876L36.349 -16.933L36.625 -16.988L36.902 -17.041L37.179 -17.093L37.457 -17.142L37.735 -17.189L38.014 -17.235L38.293 -17.278L38.573 -17.320L38.854 -17.359L39.135 -17.397L39.417 -17.432L39.699 -17.466L39.982 -17.498L40.265 -17.527L40.549 -17.555L40.833 -17.581L41.118 -17.604L41.404 -17.626L41.690 -17.646L41.976 -17.663L42.263 -17.679L42.550 -17.692L42.838 -17.703L43.127 -17.713L43.415 -17.720L43.705 -17.725L43.995 -17.728L44.285 -17.729L44.575 -17.728L44.865 -17.725L45.154 -17.720L45.443 -17.713L45.731 -17.703L46.019 -17.692L46.307 -17.679L46.594 -17.663L46.880 -17.646L47.166 -17.626L47.451 -17.604L47.736 -17.581L48.021 -17.555L48.304 -17.527L48.588 -17.498L48.871 -17.466L49.153 -17.432L49.434 -17.397L49.716 -17.359L49.996 -17.320L50.276 -17.278L50.556 -17.235L50.834 -17.189L51.113 -17.142L51.390 -17.093L51.668 -17.041L51.944 -16.988L52.220 -16.933L52.495 -16.876L52.770 -16.817L53.044 -16.756L53.318 -16.694L53.591 -16.629L53.863 -16.563L54.135 -16.494L54.406 -16.424L54.676 -16.352L54.946 -16.278L55.215 -16.202L55.483 -16.125L55.751 -16.045L56.018 -15.964L56.284 -15.881L56.550 -15.796L56.815 -15.709L57.079 -15.621L57.343 -15.530L57.606 -15.438L57.868 -15.344L58.129 -15.249L58.390 -15.151L58.650 -15.052L58.909 -14.951L59.168 -14.848L59.426 -14.743L59.683 -14.637L59.939 -14.529L60.195 -14.419L60.450 -14.308L60.704 -14.195L60.957 -14.080L61.209 -13.963L61.461 -13.845L61.712 -13.725L61.962 -13.603L62.211 -13.480L62.460 -13.355L62.708 -13.228L62.954 -13.099L63.200 -12.969L63.446 -12.838L63.690 -12.704L63.934 -12.569L64.176 -12.433L64.418 -12.294L64.659 -12.154L64.899 -12.013L65.138 -11.870L65.377 -11.725L65.614 -11.579L65.850 -11.431L66.086 -11.281L66.321 -11.130L66.555 -10.977L66.788 -10.823L67.020 -10.667L67.251 -10.510L67.481 -10.351L67.710 -10.191L67.938 -10.029L68.166 -9.865L68.392 -9.700L68.617 -9.533L68.842 -9.365L69.065 -9.196L69.287 -9.025L69.509 -8.852L69.729 -8.678L69.949 -8.503L70.167 -8.326L70.385 -8.147L70.601 -7.967L70.817 -7.786L71.031 -7.603L71.244 -7.419L71.457 -7.233L71.668 -7.046L71.878 -6.857L72.087 -6.667L72.295 -6.476L72.502 -6.283L72.708 -6.089L72.913 -5.893L73.117 -5.696L73.319 -5.498L73.521 -5.298L73.721 -5.097L73.921 -4.894L74.119 -4.691L74.316 -4.485L74.515 -4.275L74.625 -4.169L74.744 -4.073L74.870 -3.987L75.004 -3.913L75.143 -3.851L75.288 -3.802L75.436 -3.765L75.587 -3.741L75.739 -3.730L75.892 -3.733L76.043 -3.749L76.193 -3.778L76.340 -3.820L76.483 -3.875L76.620 -3.941L76.751 -4.020L76.874 -4.110L76.989 -4.210L77.096 -4.320L77.192 -4.438L77.277 -4.565L77.351 -4.698L77.413 -4.838L77.463 -4.982L77.500 -5.130L77.524 -5.281L77.534 -5.433L77.532 -5.586L77.516 -5.738L77.487 -5.888L77.445 -6.035L77.390 -6.177L77.323 -6.314L77.244 -6.445L77.155 -6.569L77.055 -6.684L76.851 -6.898L76.844 -6.906L76.639 -7.119L76.632 -7.127L76.426 -7.338L76.419 -7.346L76.212 -7.556L76.204 -7.564L75.996 -7.772L75.988 -7.780L75.779 -7.987L75.772 -7.995L75.561 -8.201L75.553 -8.209L75.342 -8.413L75.334 -8.421L75.121 -8.624L75.114 -8.631L74.900 -8.833L74.892 -8.840L74.677 -9.040L74.669 -9.048L74.453 -9.247L74.445 -9.254L74.228 -9.451L74.219 -9.459L74.001 -9.655L73.993 -9.662L73.774 -9.856L73.765 -9.863L73.545 -10.056L73.536 -10.064L73.315 -10.255L73.306 -10.262L73.084 -10.452L73.075 -10.459L72.852 -10.648L72.843 -10.655L72.618 -10.842L72.610 -10.849L72.384 -11.034L72.375 -11.041L72.148 -11.225L72.139 -11.232L71.911 -11.415L71.903 -11.422L71.673 -11.603L71.665 -11.610L71.434 -11.789L71.426 -11.796L71.194 -11.974L71.186 -11.980L70.953 -12.157L70.944 -12.163L70.711 -12.338L70.702 -12.345L70.468 -12.518L70.459 -12.525L70.223 -12.696L70.214 -12.703L69.978 -12.873L69.968 -12.880L69.731 -13.048L69.722 -13.055L69.483 -13.221L69.474 -13.228L69.235 -13.393L69.225 -13.400L68.985 -13.563L68.976 -13.570L68.734 -13.732L68.725 -13.738L68.482 -13.899L68.473 -13.905L68.230 -14.064L68.220 -14.070L67.976 -14.227L67.966 -14.233L67.721 -14.389L67.711 -14.395L67.465 -14.549L67.455 -14.555L67.208 -14.707L67.198 -14.713L66.950 -14.864L66.940 -14.870L66.691 -15.019L66.681 -15.025L66.431 -15.172L66.421 -15.178L66.171 -15.324L66.161 -15.330L65.909 -15.474L65.899 -15.479L65.646 -15.622L65.636 -15.627L65.382 -15.768L65.372 -15.774L65.117 -15.913L65.107 -15.918L64.852 -16.055L64.842 -16.061L64.585 -16.196L64.575 -16.202L64.318 -16.336L64.307 -16.341L64.049 -16.473L64.039 -16.478L63.780 -16.609L63.769 -16.614L63.510 -16.742L63.499 -16.748L63.238 -16.875L63.228 -16.880L62.966 -17.005L62.956 -17.010L62.693 -17.133L62.682 -17.138L62.419 -17.260L62.409 -17.265L62.144 -17.384L62.134 -17.389L61.869 -17.507L61.858 -17.512L61.592 -17.628L61.581 -17.633L61.315 -17.748L61.304 -17.752L61.037 -17.865L61.026 -17.869L60.757 -17.980L60.746 -17.985L60.477 -18.094L60.466 -18.098L60.197 -18.205L60.186 -18.210L59.915 -18.315L59.904 -18.320L59.633 -18.423L59.621 -18.427L59.349 -18.529L59.338 -18.533L59.065 -18.633L59.054 -18.637L58.780 -18.735L58.769 -18.739L58.495 -18.835L58.483 -18.839L58.208 -18.934L58.197 -18.938L57.921 -19.030L57.909 -19.034L57.633 -19.124L57.621 -19.128L57.344 -19.217L57.332 -19.220L57.054 -19.307L57.043 -19.311L56.764 -19.395L56.752 -19.399L56.473 -19.482L56.461 -19.485L56.181 -19.566L56.169 -19.570L55.888 -19.649L55.877 -19.652L55.595 -19.729L55.583 -19.732L55.301 -19.808L55.289 -19.811L55.006 -19.884L54.994 -19.887L54.711 -19.958L54.699 -19.961L54.415 -20.031L54.403 -20.034L54.118 -20.101L54.106 -20.104L53.820 -20.169L53.808 -20.172L53.522 -20.236L53.510 -20.238L53.223 -20.300L53.211 -20.302L52.923 -20.362L52.911 -20.364L52.623 -20.422L52.611 -20.424L52.322 -20.480L52.310 -20.482L52.021 -20.535L52.008 -20.538L51.718 -20.589L51.706 -20.591L51.416 -20.641L51.403 -20.643L51.112 -20.690L51.100 -20.692L50.808 -20.738L50.796 -20.739L50.503 -20.783L50.491 -20.785L50.198 -20.826L50.186 -20.828L49.892 -20.867L49.880 -20.868L49.586 -20.906L49.573 -20.907L49.278 -20.942L49.266 -20.944L48.971 -20.977L48.958 -20.978L48.663 -21.009L48.650 -21.010L48.354 -21.039L48.341 -21.040L48.044 -21.067L48.032 -21.068L47.734 -21.093L47.722 -21.094L47.424 -21.116L47.411 -21.117L47.113 -21.138L47.100 -21.139L46.801 -21.157L46.789 -21.158L46.489 -21.174L46.477 -21.174L46.177 -21.189L46.164 -21.189L45.864 -21.201L45.851 -21.201L45.550 -21.211L45.538 -21.212L45.236 -21.219L45.224 -21.219L44.922 -21.225L44.909 -21.225L44.607 -21.228L44.594 -21.228L44.291 -21.229L44.279 -21.229L43.976 -21.228L43.963 -21.228L43.661 -21.225L43.648 -21.225L43.346 -21.219L43.333 -21.219L43.032 -21.212L43.019 -21.211L42.718 -21.201L42.706 -21.201L42.405 -21.189L42.393 -21.189L42.093 -21.174L42.080 -21.174L41.781 -21.158L41.768 -21.157L41.469 -21.139L41.457 -21.138L41.158 -21.117L41.146 -21.116L40.848 -21.094L40.835 -21.093L40.538 -21.068L40.525 -21.067L40.228 -21.040L40.216 -21.039L39.920 -21.010L39.907 -21.009L39.611 -20.978L39.599 -20.977L39.304 -20.944L39.291 -20.942L38.996 -20.907L38.984 -20.906L38.690 -20.868L38.677 -20.867L38.384 -20.828L38.372 -20.826L38.079 -20.785L38.066 -20.783L37.774 -20.739L37.761 -20.738L37.470 -20.692L37.457 -20.690L37.166 -20.643L37.154 -20.641L36.863 -20.591L36.851 -20.589L36.561 -20.538L36.549 -20.535L36.259 -20.482L36.247 -20.480L35.958 -20.424L35.946 -20.422L35.658 -20.364L35.646 -20.362L35.358 -20.302L35.346 -20.300L35.059 -20.238L35.047 -20.235L34.761 -20.172L34.749 -20.169L34.463 -20.104L34.451 -20.101L34.167 -20.034L34.155 -20.031L33.870 -19.961L33.858 -19.958L33.575 -19.887L33.563 -19.884L33.280 -19.811L33.268 -19.808L32.986 -19.732L32.974 -19.729L32.692 -19.652L32.681 -19.649L32.400 -19.570L32.388 -19.566L32.108 -19.485L32.096 -19.482L31.817 -19.399L31.805 -19.395L31.526 -19.311L31.515 -19.307L31.237 -19.220L31.225 -19.217L30.948 -19.128L30.936 -19.124L30.660 -19.034L30.648 -19.030L30.372 -18.937L30.361 -18.934L30.086 -18.839L30.074 -18.835L29.800 -18.739L29.789 -18.735L29.515 -18.637L29.504 -18.633L29.231 -18.533L29.219 -18.529L28.947 -18.427L28.936 -18.423L28.665 -18.320L28.654 -18.315L28.383 -18.210L28.372 -18.205L28.102 -18.098L28.091 -18.094L27.822 -17.985L27.811 -17.980L27.543 -17.869L27.532 -17.865L27.265 -17.752L27.254 -17.747L26.987 -17.633L26.976 -17.628L26.711 -17.512L26.700 -17.507L26.435 -17.389L26.424 -17.384L26.160 -17.265L26.149 -17.260L25.886 -17.138L25.875 -17.133L25.613 -17.010L25.602 -17.005L25.341 -16.880L25.330 -16.874L25.070 -16.748L25.059 -16.742L24.799 -16.614L24.789 -16.609L24.530 -16.478L24.519 -16.473L24.261 -16.341L24.251 -16.335L23.994 -16.202L23.983 -16.196L23.727 -16.061L23.717 -16.055L23.461 -15.918L23.451 -15.912L23.196 -15.774L23.186 -15.768L22.933 -15.627L22.922 -15.622L22.670 -15.479L22.660 -15.474L22.408 -15.330L22.398 -15.324L22.147 -15.178L22.137 -15.172L21.887 -15.025L21.877 -15.019L21.628 -14.870L21.618 -14.864L21.370 -14.713L21.360 -14.707L21.113 -14.555L21.103 -14.549L20.857 -14.395L20.847 -14.389L20.602 -14.233L20.593 -14.227L20.348 -14.070L20.339 -14.064L20.095 -13.905L20.086 -13.899L19.844 -13.738L19.834 -13.732L19.593 -13.570L19.583 -13.563L19.343 -13.400L19.334 -13.393L19.094 -13.228L19.085 -13.221L18.847 -13.054L18.837 -13.048L18.600 -12.880L18.591 -12.873L18.354 -12.703L18.345 -12.696L18.110 -12.525L18.101 -12.518L17.866 -12.345L17.858 -12.338L17.624 -12.163L17.615 -12.157L17.383 -11.980L17.374 -11.974L17.143 -11.796L17.134 -11.789L16.904 -11.609L16.895 -11.603L16.666 -11.422L16.657 -11.415L16.429 -11.232L16.421 -11.225L16.194 -11.041L16.185 -11.034L15.959 -10.849L15.950 -10.842L15.726 -10.655L15.717 -10.648L15.493 -10.459L15.485 -10.452L15.262 -10.262L15.254 -10.255L15.032 -10.063L15.024 -10.056L14.804 -9.863L14.795 -9.856L14.576 -9.662L14.568 -9.654L14.349 -9.458L14.341 -9.451L14.124 -9.254L14.116 -9.246L13.900 -9.048L13.892 -9.040L13.677 -8.840L13.669 -8.833L13.456 -8.631L13.448 -8.623L13.235 -8.420L13.227 -8.413L13.016 -8.208L13.008 -8.201L12.798 -7.995L12.790 -7.987L12.581 -7.780L12.573 -7.772L12.365 -7.563L12.358 -7.556L12.151 -7.346L12.143 -7.338L11.938 -7.126L11.930 -7.119L11.726 -6.906L11.718 -6.898L11.515 -6.684L11.415 -6.568L11.325 -6.445L11.247 -6.314L11.180 -6.177L11.125 -6.034L11.083 -5.887L11.054 -5.738L11.038 -5.586L11.036 -5.433L11.046 -5.281L11.070 -5.130L11.107 -4.982L11.157 -4.838L11.219 -4.698L11.293 -4.565L11.379 -4.438L11.475 -4.319L11.581 -4.210L11.696 -4.110L11.820 -4.020L11.950 -3.941L12.088 -3.874L12.230 -3.820L12.377 -3.778L12.527 -3.749L12.679 -3.733L12.831 -3.730L12.984 -3.741L13.134 -3.765L13.283 -3.802L13.427 -3.851L13.566 -3.914L13.700 -3.988L13.826 -4.073L13.945 -4.169L14.055 -4.275L14.254 -4.486L14.451 -4.691Z"/>
  </g>
  <g id="Regular-S" transform="matrix(1 0 0 1 1405.56 696)">
   <path class="monochrome-0 multicolor-0:tintColor hierarchical-0:primary SFSymbolsPreviewWireframe" fill-rule="evenodd" d="M61.785 -49.246L61.782 -49.554L61.781 -49.588L61.772 -49.895L61.771 -49.928L61.757 -50.233L61.755 -50.267L61.734 -50.571L61.732 -50.604L61.706 -50.906L61.702 -50.939L61.671 -51.240L61.667 -51.273L61.629 -51.572L61.625 -51.605L61.582 -51.902L61.577 -51.935L61.528 -52.230L61.523 -52.263L61.469 -52.556L61.463 -52.588L61.403 -52.880L61.396 -52.912L61.332 -53.202L61.324 -53.234L61.254 -53.521L61.246 -53.553L61.171 -53.838L61.162 -53.870L61.082 -54.153L61.073 -54.185L60.987 -54.466L60.978 -54.497L60.887 -54.776L60.877 -54.807L60.781 -55.083L60.770 -55.114L60.670 -55.388L60.658 -55.419L60.553 -55.690L60.541 -55.721L60.431 -55.990L60.418 -56.020L60.303 -56.286L60.290 -56.316L60.170 -56.580L60.157 -56.609L60.032 -56.871L60.018 -56.900L59.889 -57.159L59.874 -57.187L59.741 -57.443L59.726 -57.472L59.588 -57.725L59.572 -57.753L59.429 -58.004L59.413 -58.031L59.266 -58.279L59.249 -58.306L59.098 -58.551L59.081 -58.578L58.925 -58.819L58.908 -58.846L58.748 -59.085L58.730 -59.111L58.566 -59.346L58.547 -59.372L58.379 -59.605L58.360 -59.630L58.187 -59.859L58.168 -59.884L57.992 -60.110L57.972 -60.135L57.791 -60.357L57.771 -60.382L57.587 -60.601L57.566 -60.625L57.378 -60.841L57.357 -60.864L57.165 -61.077L57.143 -61.100L56.947 -61.309L56.926 -61.331L56.726 -61.536L56.704 -61.559L56.500 -61.760L56.478 -61.782L56.271 -61.980L56.248 -62.002L56.037 -62.196L56.014 -62.217L55.800 -62.407L55.776 -62.428L55.559 -62.614L55.534 -62.635L55.314 -62.817L55.289 -62.837L55.065 -63.016L55.040 -63.035L54.812 -63.210L54.787 -63.229L54.556 -63.399L54.531 -63.418L54.297 -63.584L54.271 -63.602L54.034 -63.764L54.007 -63.782L53.767 -63.940L53.740 -63.957L53.497 -64.111L53.470 -64.128L53.224 -64.277L53.196 -64.293L52.947 -64.438L52.919 -64.454L52.668 -64.594L52.639 -64.610L52.385 -64.746L52.356 -64.761L52.099 -64.892L52.070 -64.906L51.810 -65.033L51.780 -65.047L51.518 -65.169L51.488 -65.182L51.223 -65.300L51.193 -65.312L50.925 -65.425L50.895 -65.437L50.625 -65.545L50.594 -65.557L50.321 -65.660L50.291 -65.671L50.016 -65.769L49.985 -65.780L49.707 -65.873L49.676 -65.883L49.396 -65.971L49.365 -65.980L49.083 -66.063L49.051 -66.072L48.767 -66.150L48.735 -66.158L48.449 -66.231L48.416 -66.238L48.128 -66.306L48.096 -66.313L47.805 -66.375L47.773 -66.381L47.481 -66.438L47.448 -66.444L47.154 -66.495L47.121 -66.501L46.825 -66.546L46.792 -66.551L46.494 -66.591L46.461 -66.595L46.161 -66.630L46.128 -66.633L45.827 -66.662L45.793 -66.665L45.491 -66.688L45.457 -66.691L45.153 -66.708L45.119 -66.710L44.813 -66.722L44.780 -66.723L44.472 -66.728L44.439 -66.729L44.130 -66.729L44.097 -66.728L43.789 -66.723L43.756 -66.722L43.450 -66.710L43.416 -66.708L43.112 -66.691L43.078 -66.688L42.775 -66.665L42.742 -66.662L42.441 -66.633L42.407 -66.630L42.108 -66.595L42.075 -66.591L41.777 -66.551L41.744 -66.546L41.448 -66.500L41.415 -66.495L41.121 -66.444L41.088 -66.438L40.796 -66.381L40.763 -66.375L40.473 -66.313L40.440 -66.306L40.152 -66.238L40.120 -66.230L39.833 -66.158L39.801 -66.150L39.517 -66.072L39.486 -66.063L39.203 -65.980L39.172 -65.970L38.892 -65.883L38.861 -65.872L38.583 -65.779L38.552 -65.769L38.277 -65.671L38.247 -65.660L37.974 -65.557L37.943 -65.545L37.673 -65.437L37.643 -65.425L37.375 -65.312L37.345 -65.299L37.080 -65.182L37.050 -65.169L36.787 -65.047L36.758 -65.033L36.498 -64.906L36.469 -64.892L36.212 -64.760L36.183 -64.745L35.929 -64.609L35.900 -64.594L35.649 -64.454L35.621 -64.438L35.372 -64.293L35.344 -64.277L35.098 -64.127L35.071 -64.111L34.828 -63.957L34.801 -63.940L34.561 -63.782L34.534 -63.764L34.297 -63.602L34.271 -63.584L34.038 -63.418L34.012 -63.399L33.781 -63.228L33.756 -63.209L33.528 -63.035L33.503 -63.015L33.279 -62.837L33.255 -62.817L33.034 -62.634L33.010 -62.614L32.792 -62.428L32.768 -62.407L32.554 -62.217L32.531 -62.195L32.320 -62.001L32.297 -61.980L32.091 -61.782L32.068 -61.760L31.865 -61.559L31.842 -61.536L31.643 -61.331L31.621 -61.308L31.425 -61.099L31.404 -61.076L31.212 -60.864L31.191 -60.840L31.002 -60.625L30.982 -60.601L30.797 -60.381L30.777 -60.357L30.597 -60.135L30.577 -60.110L30.400 -59.884L30.381 -59.859L30.209 -59.630L30.190 -59.604L30.022 -59.372L30.003 -59.346L29.839 -59.110L29.821 -59.084L29.661 -58.846L29.644 -58.819L29.488 -58.577L29.471 -58.550L29.319 -58.306L29.303 -58.278L29.156 -58.031L29.140 -58.003L28.997 -57.753L28.982 -57.725L28.843 -57.471L28.828 -57.443L28.695 -57.187L28.680 -57.158L28.551 -56.900L28.537 -56.870L28.413 -56.609L28.399 -56.580L28.279 -56.316L28.266 -56.286L28.151 -56.019L28.139 -55.989L28.028 -55.720L28.016 -55.690L27.911 -55.418L27.900 -55.388L27.799 -55.114L27.788 -55.083L27.693 -54.807L27.682 -54.776L27.592 -54.497L27.582 -54.466L27.497 -54.185L27.487 -54.153L27.407 -53.870L27.399 -53.838L27.323 -53.553L27.315 -53.521L27.246 -53.234L27.238 -53.201L27.173 -52.912L27.167 -52.880L27.107 -52.588L27.101 -52.556L27.047 -52.262L27.041 -52.230L26.993 -51.934L26.988 -51.901L26.945 -51.605L26.941 -51.571L26.903 -51.273L26.899 -51.240L26.868 -50.939L26.864 -50.906L26.838 -50.604L26.836 -50.570L26.815 -50.267L26.813 -50.233L26.799 -49.928L26.797 -49.895L26.789 -49.588L26.788 -49.554L26.785 -49.246L26.785 -49.213L26.788 -48.905L26.789 -48.871L26.797 -48.564L26.799 -48.531L26.813 -48.226L26.815 -48.192L26.836 -47.889L26.838 -47.855L26.864 -47.553L26.868 -47.520L26.899 -47.219L26.903 -47.186L26.941 -46.888L26.945 -46.854L26.988 -46.558L26.993 -46.525L27.041 -46.229L27.047 -46.197L27.101 -45.903L27.107 -45.871L27.167 -45.579L27.173 -45.547L27.238 -45.258L27.246 -45.225L27.315 -44.938L27.323 -44.906L27.399 -44.621L27.407 -44.589L27.487 -44.306L27.497 -44.274L27.582 -43.993L27.592 -43.962L27.682 -43.683L27.693 -43.652L27.788 -43.376L27.799 -43.345L27.900 -43.071L27.911 -43.041L28.016 -42.769L28.028 -42.739L28.139 -42.470L28.151 -42.440L28.266 -42.173L28.279 -42.143L28.399 -41.879L28.413 -41.850L28.537 -41.589L28.551 -41.559L28.680 -41.301L28.695 -41.272L28.828 -41.016L28.843 -40.988L28.982 -40.734L28.997 -40.706L29.140 -40.456L29.156 -40.428L29.303 -40.181L29.319 -40.153L29.471 -39.909L29.488 -39.882L29.644 -39.640L29.661 -39.613L29.821 -39.375L29.839 -39.349L30.003 -39.113L30.022 -39.087L30.190 -38.855L30.209 -38.829L30.381 -38.600L30.400 -38.575L30.577 -38.349L30.597 -38.324L30.777 -38.102L30.797 -38.078L30.982 -37.858L31.002 -37.834L31.191 -37.619L31.212 -37.595L31.404 -37.383L31.425 -37.360L31.621 -37.151L31.643 -37.128L31.842 -36.923L31.865 -36.900L32.068 -36.699L32.091 -36.677L32.297 -36.479L32.320 -36.458L32.531 -36.264L32.554 -36.242L32.768 -36.052L32.792 -36.031L33.010 -35.845L33.034 -35.825L33.255 -35.642L33.279 -35.622L33.503 -35.444L33.528 -35.424L33.756 -35.250L33.781 -35.231L34.012 -35.060L34.038 -35.041L34.271 -34.875L34.297 -34.857L34.534 -34.695L34.561 -34.677L34.801 -34.519L34.828 -34.502L35.071 -34.348L35.098 -34.332L35.344 -34.182L35.372 -34.166L35.621 -34.021L35.649 -34.005L35.900 -33.865L35.929 -33.850L36.183 -33.714L36.212 -33.699L36.469 -33.567L36.498 -33.553L36.758 -33.426L36.787 -33.412L37.050 -33.290L37.080 -33.277L37.345 -33.160L37.375 -33.147L37.643 -33.034L37.673 -33.022L37.943 -32.914L37.974 -32.902L38.247 -32.799L38.277 -32.788L38.552 -32.690L38.583 -32.680L38.861 -32.587L38.892 -32.576L39.172 -32.489L39.203 -32.479L39.486 -32.396L39.517 -32.387L39.801 -32.309L39.833 -32.301L40.120 -32.229L40.152 -32.221L40.440 -32.153L40.473 -32.146L40.763 -32.084L40.796 -32.078L41.088 -32.021L41.121 -32.015L41.415 -31.964L41.448 -31.959L41.744 -31.913L41.777 -31.908L42.075 -31.868L42.108 -31.864L42.407 -31.829L42.441 -31.826L42.742 -31.797L42.775 -31.794L43.078 -31.771L43.112 -31.768L43.416 -31.751L43.450 -31.749L43.756 -31.737L43.789 -31.736L44.097 -31.731L44.130 -31.730L44.439 -31.730L44.472 -31.731L44.780 -31.736L44.813 -31.737L45.119 -31.749L45.153 -31.751L45.457 -31.768L45.491 -31.771L45.793 -31.794L45.827 -31.797L46.128 -31.826L46.161 -31.829L46.461 -31.864L46.494 -31.868L46.792 -31.908L46.825 -31.913L47.121 -31.958L47.154 -31.964L47.448 -32.015L47.481 -32.021L47.773 -32.078L47.805 -32.084L48.096 -32.146L48.128 -32.153L48.416 -32.221L48.449 -32.228L48.735 -32.301L48.767 -32.309L49.051 -32.387L49.083 -32.396L49.365 -32.479L49.396 -32.488L49.676 -32.576L49.707 -32.586L49.985 -32.679L50.016 -32.690L50.291 -32.788L50.321 -32.799L50.594 -32.902L50.625 -32.914L50.895 -33.022L50.925 -33.034L51.193 -33.147L51.223 -33.159L51.488 -33.277L51.518 -33.290L51.780 -33.412L51.810 -33.426L52.070 -33.553L52.099 -33.567L52.356 -33.698L52.385 -33.713L52.639 -33.849L52.668 -33.865L52.919 -34.005L52.947 -34.021L53.196 -34.166L53.224 -34.182L53.470 -34.331L53.497 -34.348L53.740 -34.502L53.767 -34.519L54.007 -34.677L54.034 -34.695L54.271 -34.857L54.297 -34.875L54.531 -35.041L54.556 -35.060L54.787 -35.230L54.812 -35.249L55.040 -35.424L55.065 -35.443L55.289 -35.622L55.314 -35.642L55.534 -35.824L55.559 -35.845L55.776 -36.031L55.800 -36.052L56.014 -36.242L56.037 -36.263L56.248 -36.457L56.271 -36.479L56.478 -36.677L56.500 -36.699L56.704 -36.900L56.726 -36.923L56.926 -37.128L56.947 -37.150L57.143 -37.359L57.165 -37.382L57.357 -37.595L57.378 -37.618L57.566 -37.834L57.587 -37.858L57.771 -38.077L57.791 -38.102L57.972 -38.324L57.992 -38.349L58.168 -38.575L58.187 -38.600L58.360 -38.829L58.379 -38.854L58.547 -39.087L58.566 -39.113L58.730 -39.348L58.748 -39.374L58.908 -39.613L58.925 -39.640L59.081 -39.881L59.098 -39.908L59.249 -40.153L59.266 -40.180L59.413 -40.428L59.429 -40.455L59.572 -40.706L59.588 -40.734L59.726 -40.987L59.741 -41.016L59.874 -41.272L59.889 -41.300L60.018 -41.559L60.032 -41.588L60.157 -41.850L60.170 -41.879L60.290 -42.143L60.303 -42.173L60.418 -42.439L60.431 -42.469L60.541 -42.738L60.553 -42.769L60.658 -43.040L60.670 -43.071L60.770 -43.345L60.781 -43.376L60.877 -43.652L60.887 -43.683L60.978 -43.962L60.987 -43.993L61.073 -44.274L61.082 -44.306L61.162 -44.589L61.171 -44.621L61.246 -44.906L61.254 -44.938L61.324 -45.225L61.332 -45.257L61.396 -45.547L61.403 -45.579L61.463 -45.871L61.469 -45.903L61.523 -46.196L61.528 -46.229L61.577 -46.524L61.582 -46.557L61.625 -46.854L61.629 -46.887L61.667 -47.186L61.671 -47.219L61.702 -47.520L61.706 -47.553L61.732 -47.855L61.734 -47.888L61.755 -48.192L61.757 -48.226L61.771 -48.531L61.772 -48.564L61.781 -48.871L61.782 -48.905L61.785 -49.213L61.784 -49.229L61.785 -49.246ZM58.274 -48.682L58.261 -48.410L58.243 -48.140L58.220 -47.871L58.192 -47.604L58.158 -47.339L58.120 -47.075L58.077 -46.812L58.029 -46.552L57.977 -46.293L57.919 -46.036L57.857 -45.781L57.791 -45.528L57.719 -45.276L57.644 -45.027L57.563 -44.779L57.478 -44.534L57.389 -44.291L57.296 -44.049L57.198 -43.810L57.096 -43.573L56.989 -43.339L56.879 -43.107L56.764 -42.877L56.645 -42.649L56.523 -42.424L56.396 -42.202L56.265 -41.981L56.131 -41.764L55.992 -41.549L55.850 -41.337L55.704 -41.128L55.554 -40.921L55.401 -40.717L55.244 -40.517L55.083 -40.319L54.919 -40.124L54.752 -39.932L54.581 -39.743L54.406 -39.558L54.229 -39.375L54.048 -39.196L53.864 -39.020L53.677 -38.847L53.486 -38.678L53.293 -38.512L53.097 -38.350L52.897 -38.191L52.695 -38.036L52.490 -37.885L52.282 -37.737L52.071 -37.593L51.858 -37.452L51.641 -37.316L51.423 -37.183L51.201 -37.054L50.977 -36.930L50.751 -36.809L50.522 -36.692L50.291 -36.580L50.058 -36.471L49.822 -36.367L49.584 -36.267L49.344 -36.171L49.102 -36.080L48.857 -35.993L48.611 -35.910L48.363 -35.832L48.112 -35.759L47.860 -35.690L47.606 -35.625L47.349 -35.566L47.092 -35.511L46.832 -35.460L46.571 -35.415L46.308 -35.374L46.043 -35.339L45.777 -35.308L45.509 -35.282L45.239 -35.262L44.968 -35.246L44.696 -35.235L44.422 -35.230L44.147 -35.230L43.873 -35.236L43.601 -35.246L43.330 -35.262L43.060 -35.282L42.792 -35.308L42.526 -35.339L42.261 -35.374L41.998 -35.415L41.736 -35.461L41.477 -35.511L41.219 -35.566L40.963 -35.626L40.708 -35.690L40.456 -35.759L40.206 -35.832L39.957 -35.911L39.711 -35.993L39.466 -36.080L39.224 -36.171L38.984 -36.267L38.746 -36.367L38.510 -36.471L38.277 -36.580L38.046 -36.692L37.817 -36.809L37.591 -36.930L37.367 -37.055L37.145 -37.183L36.927 -37.316L36.711 -37.453L36.497 -37.593L36.286 -37.737L36.079 -37.885L35.873 -38.036L35.671 -38.192L35.472 -38.350L35.275 -38.513L35.082 -38.678L34.892 -38.847L34.705 -39.020L34.520 -39.196L34.340 -39.375L34.162 -39.558L33.988 -39.743L33.817 -39.932L33.650 -40.124L33.486 -40.319L33.325 -40.517L33.168 -40.718L33.015 -40.921L32.865 -41.128L32.719 -41.337L32.577 -41.549L32.439 -41.764L32.304 -41.981L32.173 -42.202L32.047 -42.424L31.924 -42.649L31.805 -42.877L31.691 -43.107L31.580 -43.339L31.474 -43.573L31.372 -43.810L31.274 -44.049L31.180 -44.291L31.091 -44.534L31.006 -44.779L30.926 -45.027L30.850 -45.276L30.779 -45.528L30.712 -45.781L30.650 -46.036L30.593 -46.293L30.540 -46.552L30.493 -46.812L30.450 -47.075L30.411 -47.339L30.378 -47.604L30.350 -47.871L30.327 -48.140L30.309 -48.410L30.296 -48.682L30.288 -48.955L30.285 -49.230L30.288 -49.504L30.296 -49.777L30.309 -50.049L30.327 -50.319L30.350 -50.588L30.378 -50.855L30.411 -51.120L30.450 -51.384L30.493 -51.647L30.540 -51.907L30.593 -52.166L30.650 -52.423L30.712 -52.678L30.779 -52.931L30.850 -53.183L30.926 -53.432L31.006 -53.680L31.091 -53.925L31.180 -54.168L31.274 -54.410L31.372 -54.649L31.474 -54.886L31.580 -55.120L31.691 -55.352L31.805 -55.582L31.924 -55.810L32.047 -56.035L32.173 -56.257L32.304 -56.478L32.439 -56.695L32.577 -56.910L32.719 -57.122L32.865 -57.331L33.015 -57.538L33.168 -57.741L33.325 -57.942L33.486 -58.140L33.650 -58.335L33.817 -58.527L33.988 -58.716L34.162 -58.901L34.340 -59.084L34.520 -59.263L34.705 -59.439L34.892 -59.612L35.082 -59.781L35.275 -59.946L35.472 -60.109L35.671 -60.267L35.873 -60.423L36.079 -60.574L36.286 -60.722L36.497 -60.866L36.711 -61.006L36.927 -61.143L37.145 -61.276L37.367 -61.404L37.591 -61.529L37.817 -61.650L38.046 -61.767L38.277 -61.879L38.510 -61.988L38.746 -62.092L38.984 -62.192L39.224 -62.288L39.466 -62.379L39.711 -62.466L39.957 -62.548L40.206 -62.627L40.456 -62.700L40.708 -62.769L40.963 -62.833L41.219 -62.893L41.477 -62.948L41.736 -62.998L41.998 -63.044L42.261 -63.085L42.526 -63.120L42.792 -63.151L43.060 -63.177L43.330 -63.197L43.601 -63.213L43.873 -63.223L44.147 -63.229L44.422 -63.229L44.696 -63.224L44.968 -63.213L45.239 -63.197L45.509 -63.177L45.777 -63.151L46.043 -63.120L46.308 -63.085L46.571 -63.044L46.832 -62.999L47.092 -62.948L47.349 -62.893L47.606 -62.834L47.860 -62.769L48.112 -62.700L48.363 -62.627L48.611 -62.549L48.857 -62.466L49.102 -62.379L49.344 -62.288L49.584 -62.192L49.822 -62.092L50.058 -61.988L50.291 -61.879L50.522 -61.767L50.751 -61.650L50.977 -61.529L51.201 -61.405L51.423 -61.276L51.641 -61.143L51.858 -61.007L52.071 -60.866L52.282 -60.722L52.490 -60.574L52.695 -60.423L52.897 -60.268L53.097 -60.109L53.293 -59.947L53.486 -59.781L53.677 -59.612L53.864 -59.439L54.048 -59.263L54.229 -59.084L54.406 -58.901L54.581 -58.716L54.752 -58.527L54.919 -58.335L55.083 -58.140L55.244 -57.942L55.401 -57.742L55.554 -57.538L55.704 -57.331L55.850 -57.122L55.992 -56.910L56.131 -56.695L56.265 -56.478L56.396 -56.257L56.523 -56.035L56.645 -55.810L56.764 -55.582L56.879 -55.352L56.989 -55.120L57.096 -54.886L57.198 -54.649L57.296 -54.410L57.389 -54.168L57.478 -53.925L57.563 -53.680L57.644 -53.432L57.719 -53.183L57.791 -52.931L57.857 -52.678L57.919 -52.423L57.977 -52.166L58.029 -51.907L58.077 -51.647L58.120 -51.384L58.158 -51.120L58.192 -50.855L58.220 -50.588L58.243 -50.319L58.261 -50.049L58.274 -49.777L58.282 -49.504L58.285 -49.230L58.282 -48.955L58.274 -48.682ZM14.451 -4.691L14.649 -4.895L14.849 -5.097L15.049 -5.298L15.250 -5.498L15.453 -5.696L15.657 -5.893L15.861 -6.089L16.067 -6.283L16.274 -6.476L16.482 -6.667L16.691 -6.857L16.901 -7.046L17.113 -7.233L17.325 -7.419L17.538 -7.603L17.752 -7.786L17.968 -7.967L18.184 -8.147L18.401 -8.326L18.620 -8.503L18.839 -8.678L19.060 -8.852L19.281 -9.025L19.504 -9.196L19.727 -9.365L19.951 -9.533L20.177 -9.700L20.403 -9.865L20.630 -10.029L20.858 -10.191L21.088 -10.351L21.318 -10.510L21.549 -10.667L21.781 -10.823L22.014 -10.977L22.248 -11.130L22.482 -11.281L22.718 -11.431L22.954 -11.579L23.192 -11.725L23.430 -11.870L23.669 -12.013L23.909 -12.154L24.150 -12.294L24.392 -12.433L24.635 -12.569L24.878 -12.704L25.123 -12.838L25.368 -12.969L25.614 -13.099L25.861 -13.228L26.108 -13.355L26.357 -13.480L26.606 -13.603L26.856 -13.725L27.107 -13.845L27.359 -13.963L27.612 -14.080L27.865 -14.195L28.119 -14.308L28.374 -14.419L28.629 -14.529L28.886 -14.637L29.143 -14.743L29.401 -14.848L29.659 -14.951L29.919 -15.052L30.179 -15.151L30.439 -15.248L30.701 -15.344L30.963 -15.438L31.226 -15.530L31.490 -15.621L31.754 -15.709L32.019 -15.796L32.285 -15.881L32.551 -15.964L32.818 -16.045L33.086 -16.125L33.354 -16.202L33.623 -16.278L33.893 -16.352L34.164 -16.424L34.435 -16.494L34.706 -16.563L34.979 -16.629L35.251 -16.694L35.525 -16.756L35.799 -16.817L36.074 -16.876L36.349 -16.933L36.625 -16.988L36.902 -17.041L37.179 -17.093L37.457 -17.142L37.735 -17.189L38.014 -17.235L38.293 -17.278L38.573 -17.320L38.854 -17.359L39.135 -17.397L39.417 -17.432L39.699 -17.466L39.982 -17.498L40.265 -17.527L40.549 -17.555L40.833 -17.581L41.118 -17.604L41.404 -17.626L41.690 -17.646L41.976 -17.663L42.263 -17.679L42.550 -17.692L42.838 -17.703L43.127 -17.713L43.415 -17.720L43.705 -17.725L43.995 -17.728L44.285 -17.729L44.575 -17.728L44.865 -17.725L45.154 -17.720L45.443 -17.713L45.731 -17.703L46.019 -17.692L46.307 -17.679L46.594 -17.663L46.880 -17.646L47.166 -17.626L47.451 -17.604L47.736 -17.581L48.021 -17.555L48.304 -17.527L48.588 -17.498L48.871 -17.466L49.153 -17.432L49.434 -17.397L49.716 -17.359L49.996 -17.320L50.276 -17.278L50.556 -17.235L50.834 -17.189L51.113 -17.142L51.390 -17.093L51.668 -17.041L51.944 -16.988L52.220 -16.933L52.495 -16.876L52.770 -16.817L53.044 -16.756L53.318 -16.694L53.591 -16.629L53.863 -16.563L54.135 -16.494L54.406 -16.424L54.676 -16.352L54.946 -16.278L55.215 -16.202L55.483 -16.125L55.751 -16.045L56.018 -15.964L56.284 -15.881L56.550 -15.796L56.815 -15.709L57.079 -15.621L57.343 -15.530L57.606 -15.438L57.868 -15.344L58.129 -15.249L58.390 -15.151L58.650 -15.052L58.909 -14.951L59.168 -14.848L59.426 -14.743L59.683 -14.637L59.939 -14.529L60.195 -14.419L60.450 -14.308L60.704 -14.195L60.957 -14.080L61.209 -13.963L61.461 -13.845L61.712 -13.725L61.962 -13.603L62.211 -13.480L62.460 -13.355L62.708 -13.228L62.954 -13.099L63.200 -12.969L63.446 -12.838L63.690 -12.704L63.934 -12.569L64.176 -12.433L64.418 -12.294L64.659 -12.154L64.899 -12.013L65.138 -11.870L65.377 -11.725L65.614 -11.579L65.850 -11.431L66.086 -11.281L66.321 -11.130L66.555 -10.977L66.788 -10.823L67.020 -10.667L67.251 -10.510L67.481 -10.351L67.710 -10.191L67.938 -10.029L68.166 -9.865L68.392 -9.700L68.617 -9.533L68.842 -9.365L69.065 -9.196L69.287 -9.025L69.509 -8.852L69.729 -8.678L69.949 -8.503L70.167 -8.326L70.385 -8.147L70.601 -7.967L70.817 -7.786L71.031 -7.603L71.244 -7.419L71.457 -7.233L71.668 -7.046L71.878 -6.857L72.087 -6.667L72.295 -6.476L72.502 -6.283L72.708 -6.089L72.913 -5.893L73.117 -5.696L73.319 -5.498L73.521 -5.298L73.721 -5.097L73.921 -4.894L74.119 -4.691L74.316 -4.485L74.515 -4.275L74.625 -4.169L74.744 -4.073L74.870 -3.987L75.004 -3.913L75.143 -3.851L75.288 -3.802L75.436 -3.765L75.587 -3.741L75.739 -3.730L75.892 -3.733L76.043 -3.749L76.193 -3.778L76.340 -3.820L76.483 -3.875L76.620 -3.941L76.751 -4.020L76.874 -4.110L76.989 -4.210L77.096 -4.320L77.192 -4.438L77.277 -4.565L77.351 -4.698L77.413 -4.838L77.463 -4.982L77.500 -5.130L77.524 -5.281L77.534 -5.433L77.532 -5.586L77.516 -5.738L77.487 -5.888L77.445 -6.035L77.390 -6.177L77.323 -6.314L77.244 -6.445L77.155 -6.569L77.055 -6.684L76.851 -6.898L76.844 -6.906L76.639 -7.119L76.632 -7.127L76.426 -7.338L76.419 -7.346L76.212 -7.556L76.204 -7.564L75.996 -7.772L75.988 -7.780L75.779 -7.987L75.772 -7.995L75.561 -8.201L75.553 -8.209L75.342 -8.413L75.334 -8.421L75.121 -8.624L75.114 -8.631L74.900 -8.833L74.892 -8.840L74.677 -9.040L74.669 -9.048L74.453 -9.247L74.445 -9.254L74.228 -9.451L74.219 -9.459L74.001 -9.655L73.993 -9.662L73.774 -9.856L73.765 -9.863L73.545 -10.056L73.536 -10.064L73.315 -10.255L73.306 -10.262L73.084 -10.452L73.075 -10.459L72.852 -10.648L72.843 -10.655L72.618 -10.842L72.610 -10.849L72.384 -11.034L72.375 -11.041L72.148 -11.225L72.139 -11.232L71.911 -11.415L71.903 -11.422L71.673 -11.603L71.665 -11.610L71.434 -11.789L71.426 -11.796L71.194 -11.974L71.186 -11.980L70.953 -12.157L70.944 -12.163L70.711 -12.338L70.702 -12.345L70.468 -12.518L70.459 -12.525L70.223 -12.696L70.214 -12.703L69.978 -12.873L69.968 -12.880L69.731 -13.048L69.722 -13.055L69.483 -13.221L69.474 -13.228L69.235 -13.393L69.225 -13.400L68.985 -13.563L68.976 -13.570L68.734 -13.732L68.725 -13.738L68.482 -13.899L68.473 -13.905L68.230 -14.064L68.220 -14.070L67.976 -14.227L67.966 -14.233L67.721 -14.389L67.711 -14.395L67.465 -14.549L67.455 -14.555L67.208 -14.707L67.198 -14.713L66.950 -14.864L66.940 -14.870L66.691 -15.019L66.681 -15.025L66.431 -15.172L66.421 -15.178L66.171 -15.324L66.161 -15.330L65.909 -15.474L65.899 -15.479L65.646 -15.622L65.636 -15.627L65.382 -15.768L65.372 -15.774L65.117 -15.913L65.107 -15.918L64.852 -16.055L64.842 -16.061L64.585 -16.196L64.575 -16.202L64.318 -16.336L64.307 -16.341L64.049 -16.473L64.039 -16.478L63.780 -16.609L63.769 -16.614L63.510 -16.742L63.499 -16.748L63.238 -16.875L63.228 -16.880L62.966 -17.005L62.956 -17.010L62.693 -17.133L62.682 -17.138L62.419 -17.260L62.409 -17.265L62.144 -17.384L62.134 -17.389L61.869 -17.507L61.858 -17.512L61.592 -17.628L61.581 -17.633L61.315 -17.748L61.304 -17.752L61.037 -17.865L61.026 -17.869L60.757 -17.980L60.746 -17.985L60.477 -18.094L60.466 -18.098L60.197 -18.205L60.186 -18.210L59.915 -18.315L59.904 -18.320L59.633 -18.423L59.621 -18.427L59.349 -18.529L59.338 -18.533L59.065 -18.633L59.054 -18.637L58.780 -18.735L58.769 -18.739L58.495 -18.835L58.483 -18.839L58.208 -18.934L58.197 -18.938L57.921 -19.030L57.909 -19.034L57.633 -19.124L57.621 -19.128L57.344 -19.217L57.332 -19.220L57.054 -19.307L57.043 -19.311L56.764 -19.395L56.752 -19.399L56.473 -19.482L56.461 -19.485L56.181 -19.566L56.169 -19.570L55.888 -19.649L55.877 -19.652L55.595 -19.729L55.583 -19.732L55.301 -19.808L55.289 -19.811L55.006 -19.884L54.994 -19.887L54.711 -19.958L54.699 -19.961L54.415 -20.031L54.403 -20.034L54.118 -20.101L54.106 -20.104L53.820 -20.169L53.808 -20.172L53.522 -20.236L53.510 -20.238L53.223 -20.300L53.211 -20.302L52.923 -20.362L52.911 -20.364L52.623 -20.422L52.611 -20.424L52.322 -20.480L52.310 -20.482L52.021 -20.535L52.008 -20.538L51.718 -20.589L51.706 -20.591L51.416 -20.641L51.403 -20.643L51.112 -20.690L51.100 -20.692L50.808 -20.738L50.796 -20.739L50.503 -20.783L50.491 -20.785L50.198 -20.826L50.186 -20.828L49.892 -20.867L49.880 -20.868L49.586 -20.906L49.573 -20.907L49.278 -20.942L49.266 -20.944L48.971 -20.977L48.958 -20.978L48.663 -21.009L48.650 -21.010L48.354 -21.039L48.341 -21.040L48.044 -21.067L48.032 -21.068L47.734 -21.093L47.722 -21.094L47.424 -21.116L47.411 -21.117L47.113 -21.138L47.100 -21.139L46.801 -21.157L46.789 -21.158L46.489 -21.174L46.477 -21.174L46.177 -21.189L46.164 -21.189L45.864 -21.201L45.851 -21.201L45.550 -21.211L45.538 -21.212L45.236 -21.219L45.224 -21.219L44.922 -21.225L44.909 -21.225L44.607 -21.228L44.594 -21.228L44.291 -21.229L44.279 -21.229L43.976 -21.228L43.963 -21.228L43.661 -21.225L43.648 -21.225L43.346 -21.219L43.333 -21.219L43.032 -21.212L43.019 -21.211L42.718 -21.201L42.706 -21.201L42.405 -21.189L42.393 -21.189L42.093 -21.174L42.080 -21.174L41.781 -21.158L41.768 -21.157L41.469 -21.139L41.457 -21.138L41.158 -21.117L41.146 -21.116L40.848 -21.094L40.835 -21.093L40.538 -21.068L40.525 -21.067L40.228 -21.040L40.216 -21.039L39.920 -21.010L39.907 -21.009L39.611 -20.978L39.599 -20.977L39.304 -20.944L39.291 -20.942L38.996 -20.907L38.984 -20.906L38.690 -20.868L38.677 -20.867L38.384 -20.828L38.372 -20.826L38.079 -20.785L38.066 -20.783L37.774 -20.739L37.761 -20.738L37.470 -20.692L37.457 -20.690L37.166 -20.643L37.154 -20.641L36.863 -20.591L36.851 -20.589L36.561 -20.538L36.549 -20.535L36.259 -20.482L36.247 -20.480L35.958 -20.424L35.946 -20.422L35.658 -20.364L35.646 -20.362L35.358 -20.302L35.346 -20.300L35.059 -20.238L35.047 -20.235L34.761 -20.172L34.749 -20.169L34.463 -20.104L34.451 -20.101L34.167 -20.034L34.155 -20.031L33.870 -19.961L33.858 -19.958L33.575 -19.887L33.563 -19.884L33.280 -19.811L33.268 -19.808L32.986 -19.732L32.974 -19.729L32.692 -19.652L32.681 -19.649L32.400 -19.570L32.388 -19.566L32.108 -19.485L32.096 -19.482L31.817 -19.399L31.805 -19.395L31.526 -19.311L31.515 -19.307L31.237 -19.220L31.225 -19.217L30.948 -19.128L30.936 -19.124L30.660 -19.034L30.648 -19.030L30.372 -18.937L30.361 -18.934L30.086 -18.839L30.074 -18.835L29.800 -18.739L29.789 -18.735L29.515 -18.637L29.504 -18.633L29.231 -18.533L29.219 -18.529L28.947 -18.427L28.936 -18.423L28.665 -18.320L28.654 -18.315L28.383 -18.210L28.372 -18.205L28.102 -18.098L28.091 -18.094L27.822 -17.985L27.811 -17.980L27.543 -17.869L27.532 -17.865L27.265 -17.752L27.254 -17.747L26.987 -17.633L26.976 -17.628L26.711 -17.512L26.700 -17.507L26.435 -17.389L26.424 -17.384L26.160 -17.265L26.149 -17.260L25.886 -17.138L25.875 -17.133L25.613 -17.010L25.602 -17.005L25.341 -16.880L25.330 -16.874L25.070 -16.748L25.059 -16.742L24.799 -16.614L24.789 -16.609L24.530 -16.478L24.519 -16.473L24.261 -16.341L24.251 -16.335L23.994 -16.202L23.983 -16.196L23.727 -16.061L23.717 -16.055L23.461 -15.918L23.451 -15.912L23.196 -15.774L23.186 -15.768L22.933 -15.627L22.922 -15.622L22.670 -15.479L22.660 -15.474L22.408 -15.330L22.398 -15.324L22.147 -15.178L22.137 -15.172L21.887 -15.025L21.877 -15.019L21.628 -14.870L21.618 -14.864L21.370 -14.713L21.360 -14.707L21.113 -14.555L21.103 -14.549L20.857 -14.395L20.847 -14.389L20.602 -14.233L20.593 -14.227L20.348 -14.070L20.339 -14.064L20.095 -13.905L20.086 -13.899L19.844 -13.738L19.834 -13.732L19.593 -13.570L19.583 -13.563L19.343 -13.400L19.334 -13.393L19.094 -13.228L19.085 -13.221L18.847 -13.054L18.837 -13.048L18.600 -12.880L18.591 -12.873L18.354 -12.703L18.345 -12.696L18.110 -12.525L18.101 -12.518L17.866 -12.345L17.858 -12.338L17.624 -12.163L17.615 -12.157L17.383 -11.980L17.374 -11.974L17.143 -11.796L17.134 -11.789L16.904 -11.609L16.895 -11.603L16.666 -11.422L16.657 -11.415L16.429 -11.232L16.421 -11.225L16.194 -11.041L16.185 -11.034L15.959 -10.849L15.950 -10.842L15.726 -10.655L15.717 -10.648L15.493 -10.459L15.485 -10.452L15.262 -10.262L15.254 -10.255L15.032 -10.063L15.024 -10.056L14.804 -9.863L14.795 -9.856L14.576 -9.662L14.568 -9.654L14.349 -9.458L14.341 -9.451L14.124 -9.254L14.116 -9.246L13.900 -9.048L13.892 -9.040L13.677 -8.840L13.669 -8.833L13.456 -8.631L13.448 -8.623L13.235 -8.420L13.227 -8.413L13.016 -8.208L13.008 -8.201L12.798 -7.995L12.790 -7.987L12.581 -7.780L12.573 -7.772L12.365 -7.563L12.358 -7.556L12.151 -7.346L12.143 -7.338L11.938 -7.126L11.930 -7.119L11.726 -6.906L11.718 -6.898L11.515 -6.684L11.415 -6.568L11.325 -6.445L11.247 -6.314L11.180 -6.177L11.125 -6.034L11.083 -5.887L11.054 -5.738L11.038 -5.586L11.036 -5.433L11.046 -5.281L11.070 -5.130L11.107 -4.982L11.157 -4.838L11.219 -4.698L11.293 -4.565L11.379 -4.438L11.475 -4.319L11.581 -4.210L11.696 -4.110L11.820 -4.020L11.950 -3.941L12.088 -3.874L12.230 -3.820L12.377 -3.778L12.527 -3.749L12.679 -3.733L12.831 -3.730L12.984 -3.741L13.134 -3.765L13.283 -3.802L13.427 -3.851L13.566 -3.914L13.700 -3.988L13.826 -4.073L13.945 -4.169L14.055 -4.275L14.254 -4.486L14.451 -4.691Z"/>
  </g>
  <g id="Ultralight-S" transform="matrix(1 0 0 1 515.423 696)">
   <path class="monochrome-0 multicolor-0:tintColor hierarchical-0:primary SFSymbolsPreviewWireframe" fill-rule="evenodd" d="M61.785 -49.246L61.782 -49.554L61.781 -49.588L61.772 -49.895L61.771 -49.928L61.757 -50.233L61.755 -50.267L61.734 -50.571L61.732 -50.604L61.706 -50.906L61.702 -50.939L61.671 -51.240L61.667 -51.273L61.629 -51.572L61.625 -51.605L61.582 -51.902L61.577 -51.935L61.528 -52.230L61.523 -52.263L61.469 -52.556L61.463 -52.588L61.403 -52.880L61.396 -52.912L61.332 -53.202L61.324 -53.234L61.254 -53.521L61.246 -53.553L61.171 -53.838L61.162 -53.870L61.082 -54.153L61.073 -54.185L60.987 -54.466L60.978 -54.497L60.887 -54.776L60.877 -54.807L60.781 -55.083L60.770 -55.114L60.670 -55.388L60.658 -55.419L60.553 -55.690L60.541 -55.721L60.431 -55.990L60.418 -56.020L60.303 -56.286L60.290 -56.316L60.170 -56.580L60.157 -56.609L60.032 -56.871L60.018 -56.900L59.889 -57.159L59.874 -57.187L59.741 -57.443L59.726 -57.472L59.588 -57.725L59.572 -57.753L59.429 -58.004L59.413 -58.031L59.266 -58.279L59.249 -58.306L59.098 -58.551L59.081 -58.578L58.925 -58.819L58.908 -58.846L58.748 -59.085L58.730 -59.111L58.566 -59.346L58.547 -59.372L58.379 -59.605L58.360 -59.630L58.187 -59.859L58.168 -59.884L57.992 -60.110L57.972 -60.135L57.791 -60.357L57.771 -60.382L57.587 -60.601L57.566 -60.625L57.378 -60.841L57.357 -60.864L57.165 -61.077L57.143 -61.100L56.947 -61.309L56.926 -61.331L56.726 -61.536L56.704 -61.559L56.500 -61.760L56.478 -61.782L56.271 -61.980L56.248 -62.002L56.037 -62.196L56.014 -62.217L55.800 -62.407L55.776 -62.428L55.559 -62.614L55.534 -62.635L55.314 -62.817L55.289 -62.837L55.065 -63.016L55.040 -63.035L54.812 -63.210L54.787 -63.229L54.556 -63.399L54.531 -63.418L54.297 -63.584L54.271 -63.602L54.034 -63.764L54.007 -63.782L53.767 -63.940L53.740 -63.957L53.497 -64.111L53.470 -64.128L53.224 -64.277L53.196 -64.293L52.947 -64.438L52.919 -64.454L52.668 -64.594L52.639 -64.610L52.385 -64.746L52.356 -64.761L52.099 -64.892L52.070 -64.906L51.810 -65.033L51.780 -65.047L51.518 -65.169L51.488 -65.182L51.223 -65.300L51.193 -65.312L50.925 -65.425L50.895 -65.437L50.625 -65.545L50.594 -65.557L50.321 -65.660L50.291 -65.671L50.016 -65.769L49.985 -65.780L49.707 -65.873L49.676 -65.883L49.396 -65.971L49.365 -65.980L49.083 -66.063L49.051 -66.072L48.767 -66.150L48.735 -66.158L48.449 -66.231L48.416 -66.238L48.128 -66.306L48.096 -66.313L47.805 -66.375L47.773 -66.381L47.481 -66.438L47.448 -66.444L47.154 -66.495L47.121 -66.501L46.825 -66.546L46.792 -66.551L46.494 -66.591L46.461 -66.595L46.161 -66.630L46.128 -66.633L45.827 -66.662L45.793 -66.665L45.491 -66.688L45.457 -66.691L45.153 -66.708L45.119 -66.710L44.813 -66.722L44.780 -66.723L44.472 -66.728L44.439 -66.729L44.130 -66.729L44.097 -66.728L43.789 -66.723L43.756 -66.722L43.450 -66.710L43.416 -66.708L43.112 -66.691L43.078 -66.688L42.775 -66.665L42.742 -66.662L42.441 -66.633L42.407 -66.630L42.108 -66.595L42.075 -66.591L41.777 -66.551L41.744 -66.546L41.448 -66.500L41.415 -66.495L41.121 -66.444L41.088 -66.438L40.796 -66.381L40.763 -66.375L40.473 -66.313L40.440 -66.306L40.152 -66.238L40.120 -66.230L39.833 -66.158L39.801 -66.150L39.517 -66.072L39.486 -66.063L39.203 -65.980L39.172 -65.970L38.892 -65.883L38.861 -65.872L38.583 -65.779L38.552 -65.769L38.277 -65.671L38.247 -65.660L37.974 -65.557L37.943 -65.545L37.673 -65.437L37.643 -65.425L37.375 -65.312L37.345 -65.299L37.080 -65.182L37.050 -65.169L36.787 -65.047L36.758 -65.033L36.498 -64.906L36.469 -64.892L36.212 -64.760L36.183 -64.745L35.929 -64.609L35.900 -64.594L35.649 -64.454L35.621 -64.438L35.372 -64.293L35.344 -64.277L35.098 -64.127L35.071 -64.111L34.828 -63.957L34.801 -63.940L34.561 -63.782L34.534 -63.764L34.297 -63.602L34.271 -63.584L34.038 -63.418L34.012 -63.399L33.781 -63.228L33.756 -63.209L33.528 -63.035L33.503 -63.015L33.279 -62.837L33.255 -62.817L33.034 -62.634L33.010 -62.614L32.792 -62.428L32.768 -62.407L32.554 -62.217L32.531 -62.195L32.320 -62.001L32.297 -61.980L32.091 -61.782L32.068 -61.760L31.865 -61.559L31.842 -61.536L31.643 -61.331L31.621 -61.308L31.425 -61.099L31.404 -61.076L31.212 -60.864L31.191 -60.840L31.002 -60.625L30.982 -60.601L30.797 -60.381L30.777 -60.357L30.597 -60.135L30.577 -60.110L30.400 -59.884L30.381 -59.859L30.209 -59.630L30.190 -59.604L30.022 -59.372L30.003 -59.346L29.839 -59.110L29.821 -59.084L29.661 -58.846L29.644 -58.819L29.488 -58.577L29.471 -58.550L29.319 -58.306L29.303 -58.278L29.156 -58.031L29.140 -58.003L28.997 -57.753L28.982 -57.725L28.843 -57.471L28.828 -57.443L28.695 -57.187L28.680 -57.158L28.551 -56.900L28.537 -56.870L28.413 -56.609L28.399 -56.580L28.279 -56.316L28.266 -56.286L28.151 -56.019L28.139 -55.989L28.028 -55.720L28.016 -55.690L27.911 -55.418L27.900 -55.388L27.799 -55.114L27.788 -55.083L27.693 -54.807L27.682 -54.776L27.592 -54.497L27.582 -54.466L27.497 -54.185L27.487 -54.153L27.407 -53.870L27.399 -53.838L27.323 -53.553L27.315 -53.521L27.246 -53.234L27.238 -53.201L27.173 -52.912L27.167 -52.880L27.107 -52.588L27.101 -52.556L27.047 -52.262L27.041 -52.230L26.993 -51.934L26.988 -51.901L26.945 -51.605L26.941 -51.571L26.903 -51.273L26.899 -51.240L26.868 -50.939L26.864 -50.906L26.838 -50.604L26.836 -50.570L26.815 -50.267L26.813 -50.233L26.799 -49.928L26.797 -49.895L26.789 -49.588L26.788 -49.554L26.785 -49.246L26.785 -49.213L26.788 -48.905L26.789 -48.871L26.797 -48.564L26.799 -48.531L26.813 -48.226L26.815 -48.192L26.836 -47.889L26.838 -47.855L26.864 -47.553L26.868 -47.520L26.899 -47.219L26.903 -47.186L26.941 -46.888L26.945 -46.854L26.988 -46.558L26.993 -46.525L27.041 -46.229L27.047 -46.197L27.101 -45.903L27.107 -45.871L27.167 -45.579L27.173 -45.547L27.238 -45.258L27.246 -45.225L27.315 -44.938L27.323 -44.906L27.399 -44.621L27.407 -44.589L27.487 -44.306L27.497 -44.274L27.582 -43.993L27.592 -43.962L27.682 -43.683L27.693 -43.652L27.788 -43.376L27.799 -43.345L27.900 -43.071L27.911 -43.041L28.016 -42.769L28.028 -42.739L28.139 -42.470L28.151 -42.440L28.266 -42.173L28.279 -42.143L28.399 -41.879L28.413 -41.850L28.537 -41.589L28.551 -41.559L28.680 -41.301L28.695 -41.272L28.828 -41.016L28.843 -40.988L28.982 -40.734L28.997 -40.706L29.140 -40.456L29.156 -40.428L29.303 -40.181L29.319 -40.153L29.471 -39.909L29.488 -39.882L29.644 -39.640L29.661 -39.613L29.821 -39.375L29.839 -39.349L30.003 -39.113L30.022 -39.087L30.190 -38.855L30.209 -38.829L30.381 -38.600L30.400 -38.575L30.577 -38.349L30.597 -38.324L30.777 -38.102L30.797 -38.078L30.982 -37.858L31.002 -37.834L31.191 -37.619L31.212 -37.595L31.404 -37.383L31.425 -37.360L31.621 -37.151L31.643 -37.128L31.842 -36.923L31.865 -36.900L32.068 -36.699L32.091 -36.677L32.297 -36.479L32.320 -36.458L32.531 -36.264L32.554 -36.242L32.768 -36.052L32.792 -36.031L33.010 -35.845L33.034 -35.825L33.255 -35.642L33.279 -35.622L33.503 -35.444L33.528 -35.424L33.756 -35.250L33.781 -35.231L34.012 -35.060L34.038 -35.041L34.271 -34.875L34.297 -34.857L34.534 -34.695L34.561 -34.677L34.801 -34.519L34.828 -34.502L35.071 -34.348L35.098 -34.332L35.344 -34.182L35.372 -34.166L35.621 -34.021L35.649 -34.005L35.900 -33.865L35.929 -33.850L36.183 -33.714L36.212 -33.699L36.469 -33.567L36.498 -33.553L36.758 -33.426L36.787 -33.412L37.050 -33.290L37.080 -33.277L37.345 -33.160L37.375 -33.147L37.643 -33.034L37.673 -33.022L37.943 -32.914L37.974 -32.902L38.247 -32.799L38.277 -32.788L38.552 -32.690L38.583 -32.680L38.861 -32.587L38.892 -32.576L39.172 -32.489L39.203 -32.479L39.486 -32.396L39.517 -32.387L39.801 -32.309L39.833 -32.301L40.120 -32.229L40.152 -32.221L40.440 -32.153L40.473 -32.146L40.763 -32.084L40.796 -32.078L41.088 -32.021L41.121 -32.015L41.415 -31.964L41.448 -31.959L41.744 -31.913L41.777 -31.908L42.075 -31.868L42.108 -31.864L42.407 -31.829L42.441 -31.826L42.742 -31.797L42.775 -31.794L43.078 -31.771L43.112 -31.768L43.416 -31.751L43.450 -31.749L43.756 -31.737L43.789 -31.736L44.097 -31.731L44.130 -31.730L44.439 -31.730L44.472 -31.731L44.780 -31.736L44.813 -31.737L45.119 -31.749L45.153 -31.751L45.457 -31.768L45.491 -31.771L45.793 -31.794L45.827 -31.797L46.128 -31.826L46.161 -31.829L46.461 -31.864L46.494 -31.868L46.792 -31.908L46.825 -31.913L47.121 -31.958L47.154 -31.964L47.448 -32.015L47.481 -32.021L47.773 -32.078L47.805 -32.084L48.096 -32.146L48.128 -32.153L48.416 -32.221L48.449 -32.228L48.735 -32.301L48.767 -32.309L49.051 -32.387L49.083 -32.396L49.365 -32.479L49.396 -32.488L49.676 -32.576L49.707 -32.586L49.985 -32.679L50.016 -32.690L50.291 -32.788L50.321 -32.799L50.594 -32.902L50.625 -32.914L50.895 -33.022L50.925 -33.034L51.193 -33.147L51.223 -33.159L51.488 -33.277L51.518 -33.290L51.780 -33.412L51.810 -33.426L52.070 -33.553L52.099 -33.567L52.356 -33.698L52.385 -33.713L52.639 -33.849L52.668 -33.865L52.919 -34.005L52.947 -34.021L53.196 -34.166L53.224 -34.182L53.470 -34.331L53.497 -34.348L53.740 -34.502L53.767 -34.519L54.007 -34.677L54.034 -34.695L54.271 -34.857L54.297 -34.875L54.531 -35.041L54.556 -35.060L54.787 -35.230L54.812 -35.249L55.040 -35.424L55.065 -35.443L55.289 -35.622L55.314 -35.642L55.534 -35.824L55.559 -35.845L55.776 -36.031L55.800 -36.052L56.014 -36.242L56.037 -36.263L56.248 -36.457L56.271 -36.479L56.478 -36.677L56.500 -36.699L56.704 -36.900L56.726 -36.923L56.926 -37.128L56.947 -37.150L57.143 -37.359L57.165 -37.382L57.357 -37.595L57.378 -37.618L57.566 -37.834L57.587 -37.858L57.771 -38.077L57.791 -38.102L57.972 -38.324L57.992 -38.349L58.168 -38.575L58.187 -38.600L58.360 -38.829L58.379 -38.854L58.547 -39.087L58.566 -39.113L58.730 -39.348L58.748 -39.374L58.908 -39.613L58.925 -39.640L59.081 -39.881L59.098 -39.908L59.249 -40.153L59.266 -40.180L59.413 -40.428L59.429 -40.455L59.572 -40.706L59.588 -40.734L59.726 -40.987L59.741 -41.016L59.874 -41.272L59.889 -41.300L60.018 -41.559L60.032 -41.588L60.157 -41.850L60.170 -41.879L60.290 -42.143L60.303 -42.173L60.418 -42.439L60.431 -42.469L60.541 -42.738L60.553 -42.769L60.658 -43.040L60.670 -43.071L60.770 -43.345L60.781 -43.376L60.877 -43.652L60.887 -43.683L60.978 -43.962L60.987 -43.993L61.073 -44.274L61.082 -44.306L61.162 -44.589L61.171 -44.621L61.246 -44.906L61.254 -44.938L61.324 -45.225L61.332 -45.257L61.396 -45.547L61.403 -45.579L61.463 -45.871L61.469 -45.903L61.523 -46.196L61.528 -46.229L61.577 -46.524L61.582 -46.557L61.625 -46.854L61.629 -46.887L61.667 -47.186L61.671 -47.219L61.702 -47.520L61.706 -47.553L61.732 -47.855L61.734 -47.888L61.755 -48.192L61.757 -48.226L61.771 -48.531L61.772 -48.564L61.781 -48.871L61.782 -48.905L61.785 -49.213L61.784 -49.229L61.785 -49.246ZM58.274 -48.682L58.261 -48.410L58.243 -48.140L58.220 -47.871L58.192 -47.604L58.158 -47.339L58.120 -47.075L58.077 -46.812L58.029 -46.552L57.977 -46.293L57.919 -46.036L57.857 -45.781L57.791 -45.528L57.719 -45.276L57.644 -45.027L57.563 -44.779L57.478 -44.534L57.389 -44.291L57.296 -44.049L57.198 -43.810L57.096 -43.573L56.989 -43.339L56.879 -43.107L56.764 -42.877L56.645 -42.649L56.523 -42.424L56.396 -42.202L56.265 -41.981L56.131 -41.764L55.992 -41.549L55.850 -41.337L55.704 -41.128L55.554 -40.921L55.401 -40.717L55.244 -40.517L55.083 -40.319L54.919 -40.124L54.752 -39.932L54.581 -39.743L54.406 -39.558L54.229 -39.375L54.048 -39.196L53.864 -39.020L53.677 -38.847L53.486 -38.678L53.293 -38.512L53.097 -38.350L52.897 -38.191L52.695 -38.036L52.490 -37.885L52.282 -37.737L52.071 -37.593L51.858 -37.452L51.641 -37.316L51.423 -37.183L51.201 -37.054L50.977 -36.930L50.751 -36.809L50.522 -36.692L50.291 -36.580L50.058 -36.471L49.822 -36.367L49.584 -36.267L49.344 -36.171L49.102 -36.080L48.857 -35.993L48.611 -35.910L48.363 -35.832L48.112 -35.759L47.860 -35.690L47.606 -35.625L47.349 -35.566L47.092 -35.511L46.832 -35.460L46.571 -35.415L46.308 -35.374L46.043 -35.339L45.777 -35.308L45.509 -35.282L45.239 -35.262L44.968 -35.246L44.696 -35.235L44.422 -35.230L44.147 -35.230L43.873 -35.236L43.601 -35.246L43.330 -35.262L43.060 -35.282L42.792 -35.308L42.526 -35.339L42.261 -35.374L41.998 -35.415L41.736 -35.461L41.477 -35.511L41.219 -35.566L40.963 -35.626L40.708 -35.690L40.456 -35.759L40.206 -35.832L39.957 -35.911L39.711 -35.993L39.466 -36.080L39.224 -36.171L38.984 -36.267L38.746 -36.367L38.510 -36.471L38.277 -36.580L38.046 -36.692L37.817 -36.809L37.591 -36.930L37.367 -37.055L37.145 -37.183L36.927 -37.316L36.711 -37.453L36.497 -37.593L36.286 -37.737L36.079 -37.885L35.873 -38.036L35.671 -38.192L35.472 -38.350L35.275 -38.513L35.082 -38.678L34.892 -38.847L34.705 -39.020L34.520 -39.196L34.340 -39.375L34.162 -39.558L33.988 -39.743L33.817 -39.932L33.650 -40.124L33.486 -40.319L33.325 -40.517L33.168 -40.718L33.015 -40.921L32.865 -41.128L32.719 -41.337L32.577 -41.549L32.439 -41.764L32.304 -41.981L32.173 -42.202L32.047 -42.424L31.924 -42.649L31.805 -42.877L31.691 -43.107L31.580 -43.339L31.474 -43.573L31.372 -43.810L31.274 -44.049L31.180 -44.291L31.091 -44.534L31.006 -44.779L30.926 -45.027L30.850 -45.276L30.779 -45.528L30.712 -45.781L30.650 -46.036L30.593 -46.293L30.540 -46.552L30.493 -46.812L30.450 -47.075L30.411 -47.339L30.378 -47.604L30.350 -47.871L30.327 -48.140L30.309 -48.410L30.296 -48.682L30.288 -48.955L30.285 -49.230L30.288 -49.504L30.296 -49.777L30.309 -50.049L30.327 -50.319L30.350 -50.588L30.378 -50.855L30.411 -51.120L30.450 -51.384L30.493 -51.647L30.540 -51.907L30.593 -52.166L30.650 -52.423L30.712 -52.678L30.779 -52.931L30.850 -53.183L30.926 -53.432L31.006 -53.680L31.091 -53.925L31.180 -54.168L31.274 -54.410L31.372 -54.649L31.474 -54.886L31.580 -55.120L31.691 -55.352L31.805 -55.582L31.924 -55.810L32.047 -56.035L32.173 -56.257L32.304 -56.478L32.439 -56.695L32.577 -56.910L32.719 -57.122L32.865 -57.331L33.015 -57.538L33.168 -57.741L33.325 -57.942L33.486 -58.140L33.650 -58.335L33.817 -58.527L33.988 -58.716L34.162 -58.901L34.340 -59.084L34.520 -59.263L34.705 -59.439L34.892 -59.612L35.082 -59.781L35.275 -59.946L35.472 -60.109L35.671 -60.267L35.873 -60.423L36.079 -60.574L36.286 -60.722L36.497 -60.866L36.711 -61.006L36.927 -61.143L37.145 -61.276L37.367 -61.404L37.591 -61.529L37.817 -61.650L38.046 -61.767L38.277 -61.879L38.510 -61.988L38.746 -62.092L38.984 -62.192L39.224 -62.288L39.466 -62.379L39.711 -62.466L39.957 -62.548L40.206 -62.627L40.456 -62.700L40.708 -62.769L40.963 -62.833L41.219 -62.893L41.477 -62.948L41.736 -62.998L41.998 -63.044L42.261 -63.085L42.526 -63.120L42.792 -63.151L43.060 -63.177L43.330 -63.197L43.601 -63.213L43.873 -63.223L44.147 -63.229L44.422 -63.229L44.696 -63.224L44.968 -63.213L45.239 -63.197L45.509 -63.177L45.777 -63.151L46.043 -63.120L46.308 -63.085L46.571 -63.044L46.832 -62.999L47.092 -62.948L47.349 -62.893L47.606 -62.834L47.860 -62.769L48.112 -62.700L48.363 -62.627L48.611 -62.549L48.857 -62.466L49.102 -62.379L49.344 -62.288L49.584 -62.192L49.822 -62.092L50.058 -61.988L50.291 -61.879L50.522 -61.767L50.751 -61.650L50.977 -61.529L51.201 -61.405L51.423 -61.276L51.641 -61.143L51.858 -61.007L52.071 -60.866L52.282 -60.722L52.490 -60.574L52.695 -60.423L52.897 -60.268L53.097 -60.109L53.293 -59.947L53.486 -59.781L53.677 -59.612L53.864 -59.439L54.048 -59.263L54.229 -59.084L54.406 -58.901L54.581 -58.716L54.752 -58.527L54.919 -58.335L55.083 -58.140L55.244 -57.942L55.401 -57.742L55.554 -57.538L55.704 -57.331L55.850 -57.122L55.992 -56.910L56.131 -56.695L56.265 -56.478L56.396 -56.257L56.523 -56.035L56.645 -55.810L56.764 -55.582L56.879 -55.352L56.989 -55.120L57.096 -54.886L57.198 -54.649L57.296 -54.410L57.389 -54.168L57.478 -53.925L57.563 -53.680L57.644 -53.432L57.719 -53.183L57.791 -52.931L57.857 -52.678L57.919 -52.423L57.977 -52.166L58.029 -51.907L58.077 -51.647L58.120 -51.384L58.158 -51.120L58.192 -50.855L58.220 -50.588L58.243 -50.319L58.261 -50.049L58.274 -49.777L58.282 -49.504L58.285 -49.230L58.282 -48.955L58.274 -48.682ZM14.451 -4.691L14.649 -4.895L14.849 -5.097L15.049 -5.298L15.250 -5.498L15.453 -5.696L15.657 -5.893L15.861 -6.089L16.067 -6.283L16.274 -6.476L16.482 -6.667L16.691 -6.857L16.901 -7.046L17.113 -7.233L17.325 -7.419L17.538 -7.603L17.752 -7.786L17.968 -7.967L18.184 -8.147L18.401 -8.326L18.620 -8.503L18.839 -8.678L19.060 -8.852L19.281 -9.025L19.504 -9.196L19.727 -9.365L19.951 -9.533L20.177 -9.700L20.403 -9.865L20.630 -10.029L20.858 -10.191L21.088 -10.351L21.318 -10.510L21.549 -10.667L21.781 -10.823L22.014 -10.977L22.248 -11.130L22.482 -11.281L22.718 -11.431L22.954 -11.579L23.192 -11.725L23.430 -11.870L23.669 -12.013L23.909 -12.154L24.150 -12.294L24.392 -12.433L24.635 -12.569L24.878 -12.704L25.123 -12.838L25.368 -12.969L25.614 -13.099L25.861 -13.228L26.108 -13.355L26.357 -13.480L26.606 -13.603L26.856 -13.725L27.107 -13.845L27.359 -13.963L27.612 -14.080L27.865 -14.195L28.119 -14.308L28.374 -14.419L28.629 -14.529L28.886 -14.637L29.143 -14.743L29.401 -14.848L29.659 -14.951L29.919 -15.052L30.179 -15.151L30.439 -15.248L30.701 -15.344L30.963 -15.438L31.226 -15.530L31.490 -15.621L31.754 -15.709L32.019 -15.796L32.285 -15.881L32.551 -15.964L32.818 -16.045L33.086 -16.125L33.354 -16.202L33.623 -16.278L33.893 -16.352L34.164 -16.424L34.435 -16.494L34.706 -16.563L34.979 -16.629L35.251 -16.694L35.525 -16.756L35.799 -16.817L36.074 -16.876L36.349 -16.933L36.625 -16.988L36.902 -17.041L37.179 -17.093L37.457 -17.142L37.735 -17.189L38.014 -17.235L38.293 -17.278L38.573 -17.320L38.854 -17.359L39.135 -17.397L39.417 -17.432L39.699 -17.466L39.982 -17.498L40.265 -17.527L40.549 -17.555L40.833 -17.581L41.118 -17.604L41.404 -17.626L41.690 -17.646L41.976 -17.663L42.263 -17.679L42.550 -17.692L42.838 -17.703L43.127 -17.713L43.415 -17.720L43.705 -17.725L43.995 -17.728L44.285 -17.729L44.575 -17.728L44.865 -17.725L45.154 -17.720L45.443 -17.713L45.731 -17.703L46.019 -17.692L46.307 -17.679L46.594 -17.663L46.880 -17.646L47.166 -17.626L47.451 -17.604L47.736 -17.581L48.021 -17.555L48.304 -17.527L48.588 -17.498L48.871 -17.466L49.153 -17.432L49.434 -17.397L49.716 -17.359L49.996 -17.320L50.276 -17.278L50.556 -17.235L50.834 -17.189L51.113 -17.142L51.390 -17.093L51.668 -17.041L51.944 -16.988L52.220 -16.933L52.495 -16.876L52.770 -16.817L53.044 -16.756L53.318 -16.694L53.591 -16.629L53.863 -16.563L54.135 -16.494L54.406 -16.424L54.676 -16.352L54.946 -16.278L55.215 -16.202L55.483 -16.125L55.751 -16.045L56.018 -15.964L56.284 -15.881L56.550 -15.796L56.815 -15.709L57.079 -15.621L57.343 -15.530L57.606 -15.438L57.868 -15.344L58.129 -15.249L58.390 -15.151L58.650 -15.052L58.909 -14.951L59.168 -14.848L59.426 -14.743L59.683 -14.637L59.939 -14.529L60.195 -14.419L60.450 -14.308L60.704 -14.195L60.957 -14.080L61.209 -13.963L61.461 -13.845L61.712 -13.725L61.962 -13.603L62.211 -13.480L62.460 -13.355L62.708 -13.228L62.954 -13.099L63.200 -12.969L63.446 -12.838L63.690 -12.704L63.934 -12.569L64.176 -12.433L64.418 -12.294L64.659 -12.154L64.899 -12.013L65.138 -11.870L65.377 -11.725L65.614 -11.579L65.850 -11.431L66.086 -11.281L66.321 -11.130L66.555 -10.977L66.788 -10.823L67.020 -10.667L67.251 -10.510L67.481 -10.351L67.710 -10.191L67.938 -10.029L68.166 -9.865L68.392 -9.700L68.617 -9.533L68.842 -9.365L69.065 -9.196L69.287 -9.025L69.509 -8.852L69.729 -8.678L69.949 -8.503L70.167 -8.326L70.385 -8.147L70.601 -7.967L70.817 -7.786L71.031 -7.603L71.244 -7.419L71.457 -7.233L71.668 -7.046L71.878 -6.857L72.087 -6.667L72.295 -6.476L72.502 -6.283L72.708 -6.089L72.913 -5.893L73.117 -5.696L73.319 -5.498L73.521 -5.298L73.721 -5.097L73.921 -4.894L74.119 -4.691L74.316 -4.485L74.515 -4.275L74.625 -4.169L74.744 -4.073L74.870 -3.987L75.004 -3.913L75.143 -3.851L75.288 -3.802L75.436 -3.765L75.587 -3.741L75.739 -3.730L75.892 -3.733L76.043 -3.749L76.193 -3.778L76.340 -3.820L76.483 -3.875L76.620 -3.941L76.751 -4.020L76.874 -4.110L76.989 -4.210L77.096 -4.320L77.192 -4.438L77.277 -4.565L77.351 -4.698L77.413 -4.838L77.463 -4.982L77.500 -5.130L77.524 -5.281L77.534 -5.433L77.532 -5.586L77.516 -5.738L77.487 -5.888L77.445 -6.035L77.390 -6.177L77.323 -6.314L77.244 -6.445L77.155 -6.569L77.055 -6.684L76.851 -6.898L76.844 -6.906L76.639 -7.119L76.632 -7.127L76.426 -7.338L76.419 -7.346L76.212 -7.556L76.204 -7.564L75.996 -7.772L75.988 -7.780L75.779 -7.987L75.772 -7.995L75.561 -8.201L75.553 -8.209L75.342 -8.413L75.334 -8.421L75.121 -8.624L75.114 -8.631L74.900 -8.833L74.892 -8.840L74.677 -9.040L74.669 -9.048L74.453 -9.247L74.445 -9.254L74.228 -9.451L74.219 -9.459L74.001 -9.655L73.993 -9.662L73.774 -9.856L73.765 -9.863L73.545 -10.056L73.536 -10.064L73.315 -10.255L73.306 -10.262L73.084 -10.452L73.075 -10.459L72.852 -10.648L72.843 -10.655L72.618 -10.842L72.610 -10.849L72.384 -11.034L72.375 -11.041L72.148 -11.225L72.139 -11.232L71.911 -11.415L71.903 -11.422L71.673 -11.603L71.665 -11.610L71.434 -11.789L71.426 -11.796L71.194 -11.974L71.186 -11.980L70.953 -12.157L70.944 -12.163L70.711 -12.338L70.702 -12.345L70.468 -12.518L70.459 -12.525L70.223 -12.696L70.214 -12.703L69.978 -12.873L69.968 -12.880L69.731 -13.048L69.722 -13.055L69.483 -13.221L69.474 -13.228L69.235 -13.393L69.225 -13.400L68.985 -13.563L68.976 -13.570L68.734 -13.732L68.725 -13.738L68.482 -13.899L68.473 -13.905L68.230 -14.064L68.220 -14.070L67.976 -14.227L67.966 -14.233L67.721 -14.389L67.711 -14.395L67.465 -14.549L67.455 -14.555L67.208 -14.707L67.198 -14.713L66.950 -14.864L66.940 -14.870L66.691 -15.019L66.681 -15.025L66.431 -15.172L66.421 -15.178L66.171 -15.324L66.161 -15.330L65.909 -15.474L65.899 -15.479L65.646 -15.622L65.636 -15.627L65.382 -15.768L65.372 -15.774L65.117 -15.913L65.107 -15.918L64.852 -16.055L64.842 -16.061L64.585 -16.196L64.575 -16.202L64.318 -16.336L64.307 -16.341L64.049 -16.473L64.039 -16.478L63.780 -16.609L63.769 -16.614L63.510 -16.742L63.499 -16.748L63.238 -16.875L63.228 -16.880L62.966 -17.005L62.956 -17.010L62.693 -17.133L62.682 -17.138L62.419 -17.260L62.409 -17.265L62.144 -17.384L62.134 -17.389L61.869 -17.507L61.858 -17.512L61.592 -17.628L61.581 -17.633L61.315 -17.748L61.304 -17.752L61.037 -17.865L61.026 -17.869L60.757 -17.980L60.746 -17.985L60.477 -18.094L60.466 -18.098L60.197 -18.205L60.186 -18.210L59.915 -18.315L59.904 -18.320L59.633 -18.423L59.621 -18.427L59.349 -18.529L59.338 -18.533L59.065 -18.633L59.054 -18.637L58.780 -18.735L58.769 -18.739L58.495 -18.835L58.483 -18.839L58.208 -18.934L58.197 -18.938L57.921 -19.030L57.909 -19.034L57.633 -19.124L57.621 -19.128L57.344 -19.217L57.332 -19.220L57.054 -19.307L57.043 -19.311L56.764 -19.395L56.752 -19.399L56.473 -19.482L56.461 -19.485L56.181 -19.566L56.169 -19.570L55.888 -19.649L55.877 -19.652L55.595 -19.729L55.583 -19.732L55.301 -19.808L55.289 -19.811L55.006 -19.884L54.994 -19.887L54.711 -19.958L54.699 -19.961L54.415 -20.031L54.403 -20.034L54.118 -20.101L54.106 -20.104L53.820 -20.169L53.808 -20.172L53.522 -20.236L53.510 -20.238L53.223 -20.300L53.211 -20.302L52.923 -20.362L52.911 -20.364L52.623 -20.422L52.611 -20.424L52.322 -20.480L52.310 -20.482L52.021 -20.535L52.008 -20.538L51.718 -20.589L51.706 -20.591L51.416 -20.641L51.403 -20.643L51.112 -20.690L51.100 -20.692L50.808 -20.738L50.796 -20.739L50.503 -20.783L50.491 -20.785L50.198 -20.826L50.186 -20.828L49.892 -20.867L49.880 -20.868L49.586 -20.906L49.573 -20.907L49.278 -20.942L49.266 -20.944L48.971 -20.977L48.958 -20.978L48.663 -21.009L48.650 -21.010L48.354 -21.039L48.341 -21.040L48.044 -21.067L48.032 -21.068L47.734 -21.093L47.722 -21.094L47.424 -21.116L47.411 -21.117L47.113 -21.138L47.100 -21.139L46.801 -21.157L46.789 -21.158L46.489 -21.174L46.477 -21.174L46.177 -21.189L46.164 -21.189L45.864 -21.201L45.851 -21.201L45.550 -21.211L45.538 -21.212L45.236 -21.219L45.224 -21.219L44.922 -21.225L44.909 -21.225L44.607 -21.228L44.594 -21.228L44.291 -21.229L44.279 -21.229L43.976 -21.228L43.963 -21.228L43.661 -21.225L43.648 -21.225L43.346 -21.219L43.333 -21.219L43.032 -21.212L43.019 -21.211L42.718 -21.201L42.706 -21.201L42.405 -21.189L42.393 -21.189L42.093 -21.174L42.080 -21.174L41.781 -21.158L41.768 -21.157L41.469 -21.139L41.457 -21.138L41.158 -21.117L41.146 -21.116L40.848 -21.094L40.835 -21.093L40.538 -21.068L40.525 -21.067L40.228 -21.040L40.216 -21.039L39.920 -21.010L39.907 -21.009L39.611 -20.978L39.599 -20.977L39.304 -20.944L39.291 -20.942L38.996 -20.907L38.984 -20.906L38.690 -20.868L38.677 -20.867L38.384 -20.828L38.372 -20.826L38.079 -20.785L38.066 -20.783L37.774 -20.739L37.761 -20.738L37.470 -20.692L37.457 -20.690L37.166 -20.643L37.154 -20.641L36.863 -20.591L36.851 -20.589L36.561 -20.538L36.549 -20.535L36.259 -20.482L36.247 -20.480L35.958 -20.424L35.946 -20.422L35.658 -20.364L35.646 -20.362L35.358 -20.302L35.346 -20.300L35.059 -20.238L35.047 -20.235L34.761 -20.172L34.749 -20.169L34.463 -20.104L34.451 -20.101L34.167 -20.034L34.155 -20.031L33.870 -19.961L33.858 -19.958L33.575 -19.887L33.563 -19.884L33.280 -19.811L33.268 -19.808L32.986 -19.732L32.974 -19.729L32.692 -19.652L32.681 -19.649L32.400 -19.570L32.388 -19.566L32.108 -19.485L32.096 -19.482L31.817 -19.399L31.805 -19.395L31.526 -19.311L31.515 -19.307L31.237 -19.220L31.225 -19.217L30.948 -19.128L30.936 -19.124L30.660 -19.034L30.648 -19.030L30.372 -18.937L30.361 -18.934L30.086 -18.839L30.074 -18.835L29.800 -18.739L29.789 -18.735L29.515 -18.637L29.504 -18.633L29.231 -18.533L29.219 -18.529L28.947 -18.427L28.936 -18.423L28.665 -18.320L28.654 -18.315L28.383 -18.210L28.372 -18.205L28.102 -18.098L28.091 -18.094L27.822 -17.985L27.811 -17.980L27.543 -17.869L27.532 -17.865L27.265 -17.752L27.254 -17.747L26.987 -17.633L26.976 -17.628L26.711 -17.512L26.700 -17.507L26.435 -17.389L26.424 -17.384L26.160 -17.265L26.149 -17.260L25.886 -17.138L25.875 -17.133L25.613 -17.010L25.602 -17.005L25.341 -16.880L25.330 -16.874L25.070 -16.748L25.059 -16.742L24.799 -16.614L24.789 -16.609L24.530 -16.478L24.519 -16.473L24.261 -16.341L24.251 -16.335L23.994 -16.202L23.983 -16.196L23.727 -16.061L23.717 -16.055L23.461 -15.918L23.451 -15.912L23.196 -15.774L23.186 -15.768L22.933 -15.627L22.922 -15.622L22.670 -15.479L22.660 -15.474L22.408 -15.330L22.398 -15.324L22.147 -15.178L22.137 -15.172L21.887 -15.025L21.877 -15.019L21.628 -14.870L21.618 -14.864L21.370 -14.713L21.360 -14.707L21.113 -14.555L21.103 -14.549L20.857 -14.395L20.847 -14.389L20.602 -14.233L20.593 -14.227L20.348 -14.070L20.339 -14.064L20.095 -13.905L20.086 -13.899L19.844 -13.738L19.834 -13.732L19.593 -13.570L19.583 -13.563L19.343 -13.400L19.334 -13.393L19.094 -13.228L19.085 -13.221L18.847 -13.054L18.837 -13.048L18.600 -12.880L18.591 -12.873L18.354 -12.703L18.345 -12.696L18.110 -12.525L18.101 -12.518L17.866 -12.345L17.858 -12.338L17.624 -12.163L17.615 -12.157L17.383 -11.980L17.374 -11.974L17.143 -11.796L17.134 -11.789L16.904 -11.609L16.895 -11.603L16.666 -11.422L16.657 -11.415L16.429 -11.232L16.421 -11.225L16.194 -11.041L16.185 -11.034L15.959 -10.849L15.950 -10.842L15.726 -10.655L15.717 -10.648L15.493 -10.459L15.485 -10.452L15.262 -10.262L15.254 -10.255L15.032 -10.063L15.024 -10.056L14.804 -9.863L14.795 -9.856L14.576 -9.662L14.568 -9.654L14.349 -9.458L14.341 -9.451L14.124 -9.254L14.116 -9.246L13.900 -9.048L13.892 -9.040L13.677 -8.840L13.669 -8.833L13.456 -8.631L13.448 -8.623L13.235 -8.420L13.227 -8.413L13.016 -8.208L13.008 -8.201L12.798 -7.995L12.790 -7.987L12.581 -7.780L12.573 -7.772L12.365 -7.563L12.358 -7.556L12.151 -7.346L12.143 -7.338L11.938 -7.126L11.930 -7.119L11.726 -6.906L11.718 -6.898L11.515 -6.684L11.415 -6.568L11.325 -6.445L11.247 -6.314L11.180 -6.177L11.125 -6.034L11.083 -5.887L11.054 -5.738L11.038 -5.586L11.036 -5.433L11.046 -5.281L11.070 -5.130L11.107 -4.982L11.157 -4.838L11.219 -4.698L11.293 -4.565L11.379 -4.438L11.475 -4.319L11.581 -4.210L11.696 -4.110L11.820 -4.020L11.950 -3.941L12.088 -3.874L12.230 -3.820L12.377 -3.778L12.527 -3.749L12.679 -3.733L12.831 -3.730L12.984 -3.741L13.134 -3.765L13.283 -3.802L13.427 -3.851L13.566 -3.914L13.700 -3.988L13.826 -4.073L13.945 -4.169L14.055 -4.275L14.254 -4.486L14.451 -4.691Z"/>
  </g>
 </g>
</svg>
