<?xml version="1.0" encoding="UTF-8"?>
<!--Generator: Custom SF Symbol – Foxhunt-->
<!DOCTYPE svg
PUBLIC "-//W3C//DTD SVG 1.1//EN"
       "http://www.w3.org/Graphics/SVG/1.1/DTD/svg11.dtd">
<svg version="1.1" xmlns="http://www.w3.org/2000/svg" xmlns:xlink="http://www.w3.org/1999/xlink" viewBox="0 0 3300 2200">
 <!--glyph: "co.swellyo.lineup", point size: 100.0, template writer version: "138.0.0"-->
 <style>.monochrome-0 {-sfsymbols-motion-group:0;-sfsymbols-layer-tags:-a1b2c3d4e5f60001}

.multicolor-0:tintColor {-sfsymbols-motion-group:0;-sfsymbols-layer-tags:-a1b2c3d4e5f60001}

.hierarchical-0:primary {-sfsymbols-motion-group:0;-sfsymbols-layer-tags:-a1b2c3d4e5f60001}

.SFSymbolsPreviewWireframe {fill:none;opacity:1.0;stroke:black;stroke-width:0.5}
</style>
 <g id="Notes">
  <rect height="2200" id="artboard" style="fill:white;opacity:1" width="3300" x="0" y="0"/>
  <line style="fill:none;stroke:black;opacity:1;stroke-width:0.5;" x1="263" x2="3036" y1="292" y2="292"/>
  <text style="stroke:none;fill:black;font-family:sans-serif;font-size:13;font-weight:bold;" transform="matrix(1 0 0 1 263 322)">Weight/Scale Variations</text>
  <text style="stroke:none;fill:black;font-family:sans-serif;font-size:13;text-anchor:middle;" transform="matrix(1 0 0 1 559.711 322)">Ultralight</text>
  <text style="stroke:none;fill:black;font-family:sans-serif;font-size:13;text-anchor:middle;" transform="matrix(1 0 0 1 1449.84 322)">Regular</text>
  <text style="stroke:none;fill:black;font-family:sans-serif;font-size:13;text-anchor:middle;" transform="matrix(1 0 0 1 2933.4 322)">Black</text>
  <line style="fill:none;stroke:black;opacity:1;stroke-width:0.5;" x1="263" x2="3036" y1="1903" y2="1903"/>
  <text id="template-version" style="stroke:none;fill:black;font-family:sans-serif;font-size:13;text-anchor:end;" transform="matrix(1 0 0 1 3036 1933)">Template v.6.0</text>
  <text style="stroke:none;fill:black;font-family:sans-serif;font-size:13;text-anchor:end;" transform="matrix(1 0 0 1 3036 1951)">Requires Xcode 16 or greater</text>
  <text id="descriptive-name" style="stroke:none;fill:black;font-family:sans-serif;font-size:13;text-anchor:end;" transform="matrix(1 0 0 1 3036 1969)">Generated from co.swellyo.lineup</text>
  <text style="stroke:none;fill:black;font-family:sans-serif;font-size:13;text-anchor:end;" transform="matrix(1 0 0 1 3036 1987)">Typeset at 100.0 points</text>
  <text style="stroke:none;fill:black;font-family:sans-serif;font-size:13;" transform="matrix(1 0 0 1 263 726)">Small</text>
  <text style="stroke:none;fill:black;font-family:sans-serif;font-size:13;" transform="matrix(1 0 0 1 263 1156)">Medium</text>
  <text style="stroke:none;fill:black;font-family:sans-serif;font-size:13;" transform="matrix(1 0 0 1 263 1586)">Large</text>
 </g>
 <g id="Guides">
  <g id="H-reference" style="fill:#27AAE1;stroke:none;" transform="matrix(1 0 0 1 339 696)">
   <path d="M0.993654 0L3.63775 0L29.3281-67.1323L30.0303-67.1323L30.0303-70.459L28.1226-70.459ZM11.6885-24.4799L46.9815-24.4799L46.2315-26.7285L12.4385-26.7285ZM55.1196 0L57.7637 0L30.6382-70.459L29.4326-70.459L29.4326-67.1323Z"/>
  </g>
  <line id="Baseline-S" style="fill:none;stroke:#27AAE1;opacity:1;stroke-width:0.5;" x1="263" x2="3036" y1="696" y2="696"/>
  <line id="Capline-S" style="fill:none;stroke:#27AAE1;opacity:1;stroke-width:0.5;" x1="263" x2="3036" y1="625.541" y2="625.541"/>
  <g id="H-reference" style="fill:#27AAE1;stroke:none;" transform="matrix(1 0 0 1 339 1126)">
   <path d="M0.993654 0L3.63775 0L29.3281-67.1323L30.0303-67.1323L30.0303-70.459L28.1226-70.459ZM11.6885-24.4799L46.9815-24.4799L46.2315-26.7285L12.4385-26.7285ZM55.1196 0L57.7637 0L30.6382-70.459L29.4326-70.459L29.4326-67.1323Z"/>
  </g>
  <line id="Baseline-M" style="fill:none;stroke:#27AAE1;opacity:1;stroke-width:0.5;" x1="263" x2="3036" y1="1126" y2="1126"/>
  <line id="Capline-M" style="fill:none;stroke:#27AAE1;opacity:1;stroke-width:0.5;" x1="263" x2="3036" y1="1055.54" y2="1055.54"/>
  <g id="H-reference" style="fill:#27AAE1;stroke:none;" transform="matrix(1 0 0 1 339 1556)">
   <path d="M0.993654 0L3.63775 0L29.3281-67.1323L30.0303-67.1323L30.0303-70.459L28.1226-70.459ZM11.6885-24.4799L46.9815-24.4799L46.2315-26.7285L12.4385-26.7285ZM55.1196 0L57.7637 0L30.6382-70.459L29.4326-70.459L29.4326-67.1323Z"/>
  </g>
  <line id="Baseline-L" style="fill:none;stroke:#27AAE1;opacity:1;stroke-width:0.5;" x1="263" x2="3036" y1="1556" y2="1556"/>
  <line id="Capline-L" style="fill:none;stroke:#27AAE1;opacity:1;stroke-width:0.5;" x1="263" x2="3036" y1="1485.54" y2="1485.54"/>
  <line id="left-margin-Ultralight-S" style="fill:none;stroke:#00AEEF;stroke-width:0.5;opacity:1.0;" x1="515.423" x2="515.423" y1="600.785" y2="720.121"/>
  <line id="right-margin-Ultralight-S" style="fill:none;stroke:#00AEEF;stroke-width:0.5;opacity:1.0;" x1="604" x2="604" y1="600.785" y2="720.121"/>
  <line id="left-margin-Regular-S" style="fill:none;stroke:#00AEEF;stroke-width:0.5;opacity:1.0;" x1="1405.56" x2="1405.56" y1="600.785" y2="720.121"/>
  <line id="right-margin-Regular-S" style="fill:none;stroke:#00AEEF;stroke-width:0.5;opacity:1.0;" x1="1494.13" x2="1494.13" y1="600.785" y2="720.121"/>
  <line id="left-margin-Black-S" style="fill:none;stroke:#00AEEF;stroke-width:0.5;opacity:1.0;" x1="2889.11" x2="2889.11" y1="600.785" y2="720.121"/>
  <line id="right-margin-Black-S" style="fill:none;stroke:#00AEEF;stroke-width:0.5;opacity:1.0;" x1="2977.69" x2="2977.69" y1="600.785" y2="720.121"/>
 </g>
 <g id="Symbols">
  <g id="Black-S" transform="matrix(1 0 0 1 2889.11 696)">
   <path class="monochrome-0 multicolor-0:tintColor hierarchical-0:primary SFSymbolsPreviewWireframe" fill-rule="evenodd" d="M37.982 -27.926L38.088 -27.653L38.300 -27.108L38.406 -26.836L38.512 -26.563L38.618 -26.291L38.724 -26.018L38.830 -25.746L38.936 -25.473L39.042 -25.201L39.148 -24.928L39.254 -24.656L39.360 -24.383L39.466 -24.111L39.572 -23.838L39.678 -23.566L39.784 -23.293L39.996 -22.748L40.102 -22.476L40.313 -21.931L40.419 -21.658L40.631 -21.113L40.737 -20.841L40.843 -20.568L40.949 -20.296L41.055 -20.023L41.161 -19.751L41.267 -19.478L41.373 -19.206L41.479 -18.933L41.585 -18.661L41.691 -18.388L41.797 -18.116L41.903 -17.843L42.009 -17.571L42.115 -17.298L42.327 -16.753L42.433 -16.481L42.645 -15.936L42.751 -15.663L42.857 -15.391L42.963 -15.118L43.069 -14.846L43.175 -14.573L43.281 -14.301L43.387 -14.028L43.493 -13.756L43.599 -13.483L43.705 -13.211L43.811 -12.938L43.916 -12.666L44.022 -12.393L44.128 -12.121L44.234 -11.848L44.340 -11.576L44.446 -11.303L44.552 -11.031L44.658 -10.758L44.764 -10.486L44.870 -10.213L44.976 -9.941L45.082 -9.668L45.188 -9.396L45.294 -9.123L45.506 -8.578L45.612 -8.306L45.824 -7.761L45.930 -7.488L46.036 -7.216L46.142 -6.943L46.248 -6.671L46.354 -6.398L46.460 -6.126L46.566 -5.853L46.672 -5.581L46.778 -5.308L46.884 -5.036L46.990 -4.763L47.110 -4.453L47.283 -4.011L47.285 -4.006L47.445 -3.598L47.449 -3.588L47.599 -3.213L47.605 -3.197L47.747 -2.854L47.757 -2.830L47.891 -2.519L47.906 -2.484L48.034 -2.204L48.056 -2.157L48.179 -1.906L48.212 -1.843L48.332 -1.623L48.379 -1.541L48.498 -1.348L48.567 -1.245L48.685 -1.080L48.785 -0.954L48.905 -0.816L49.047 -0.670L49.169 -0.559L49.264 -0.478L49.364 -0.405L49.491 -0.319L49.618 -0.240L49.752 -0.172L49.990 -0.064L50.119 -0.012L50.252 0.031L50.534 0.107L50.676 0.140L50.820 0.160L51.108 0.189L51.253 0.198L51.398 0.194L51.687 0.175L51.831 0.160L51.974 0.132L52.258 0.065L52.398 0.026L52.535 -0.025L52.803 -0.138L52.934 -0.200L53.060 -0.273L53.188 -0.353L53.294 -0.426L53.394 -0.506L53.517 -0.612L53.670 -0.761L53.790 -0.893L53.897 -1.024L54.016 -1.183L54.091 -1.291L54.209 -1.477L54.260 -1.563L54.380 -1.778L54.416 -1.844L54.538 -2.089L54.563 -2.139L54.690 -2.413L54.706 -2.450L54.839 -2.754L54.850 -2.781L54.990 -3.117L54.998 -3.135L55.146 -3.503L55.151 -3.514L55.309 -3.915L55.312 -3.921L55.482 -4.355L55.618 -4.704L55.724 -4.976L55.830 -5.248L55.937 -5.521L56.043 -5.793L56.149 -6.065L56.255 -6.338L56.362 -6.610L56.468 -6.883L56.574 -7.155L56.681 -7.427L56.787 -7.700L56.893 -7.972L56.999 -8.244L57.106 -8.517L57.212 -8.789L57.318 -9.062L57.425 -9.334L57.531 -9.606L57.637 -9.879L57.743 -10.151L57.850 -10.423L57.956 -10.696L58.062 -10.968L58.169 -11.240L58.275 -11.513L58.381 -11.785L58.488 -12.058L58.594 -12.330L58.700 -12.602L58.806 -12.875L58.913 -13.147L59.019 -13.419L59.125 -13.692L59.232 -13.964L59.338 -14.237L59.444 -14.509L59.550 -14.781L59.657 -15.054L59.763 -15.326L59.869 -15.598L59.976 -15.871L60.082 -16.143L60.188 -16.416L60.294 -16.688L60.401 -16.960L60.507 -17.233L60.613 -17.505L60.720 -17.777L60.826 -18.050L60.932 -18.322L61.039 -18.595L61.145 -18.867L61.251 -19.139L61.357 -19.412L61.464 -19.684L61.570 -19.956L61.676 -20.229L61.783 -20.501L61.889 -20.774L61.995 -21.046L62.101 -21.318L62.208 -21.591L62.314 -21.863L62.420 -22.135L62.527 -22.408L62.633 -22.680L62.739 -22.953L62.845 -23.225L62.952 -23.497L63.058 -23.770L63.164 -24.042L63.377 -24.587L63.483 -24.859L63.590 -25.131L63.696 -25.404L63.802 -25.676L63.908 -25.949L64.015 -26.221L64.121 -26.493L64.227 -26.766L64.334 -27.038L64.440 -27.310L64.546 -27.583L64.652 -27.855L64.759 -28.128L64.865 -28.400L64.971 -28.672L65.078 -28.945L65.184 -29.217L65.290 -29.489L65.396 -29.762L65.503 -30.034L65.609 -30.307L65.715 -30.579L65.822 -30.851L65.928 -31.124L66.034 -31.396L66.141 -31.668L66.247 -31.941L66.353 -32.213L66.459 -32.486L66.566 -32.758L66.672 -33.030L66.778 -33.303L66.885 -33.575L66.991 -33.847L67.097 -34.120L67.203 -34.392L67.310 -34.665L67.416 -34.937L67.522 -35.209L67.629 -35.482L67.735 -35.754L67.841 -36.026L67.947 -36.299L68.054 -36.571L68.160 -36.844L68.266 -37.116L68.373 -37.388L68.479 -37.661L68.585 -37.933L68.691 -38.205L68.798 -38.478L68.904 -38.750L69.010 -39.023L69.117 -39.295L69.223 -39.567L69.329 -39.840L69.436 -40.112L69.542 -40.384L69.648 -40.657L69.754 -40.929L69.861 -41.201L69.967 -41.474L70.073 -41.746L70.180 -42.019L70.286 -42.291L70.392 -42.563L70.498 -42.836L70.605 -43.108L70.711 -43.380L70.817 -43.653L70.924 -43.925L71.030 -44.198L71.136 -44.470L71.242 -44.742L71.349 -45.015L71.455 -45.287L71.561 -45.559L71.668 -45.832L71.774 -46.104L71.880 -46.377L71.987 -46.649L72.093 -46.921L72.199 -47.194L72.305 -47.466L72.412 -47.738L72.624 -48.283L72.731 -48.556L72.837 -48.828L72.943 -49.100L73.049 -49.373L73.156 -49.645L73.262 -49.917L73.368 -50.190L73.475 -50.462L73.581 -50.735L73.687 -51.007L73.793 -51.279L73.900 -51.552L74.006 -51.824L74.112 -52.096L74.219 -52.369L74.325 -52.641L74.431 -52.914L74.538 -53.186L74.644 -53.458L74.750 -53.731L74.856 -54.003L74.963 -54.275L75.069 -54.548L75.175 -54.820L75.282 -55.092L75.388 -55.365L75.494 -55.637L75.600 -55.910L75.707 -56.182L75.813 -56.454L75.919 -56.727L76.026 -56.999L76.132 -57.271L76.238 -57.544L76.344 -57.816L76.451 -58.089L76.557 -58.361L76.663 -58.633L76.770 -58.906L76.876 -59.178L76.982 -59.450L77.089 -59.723L77.195 -59.995L77.301 -60.268L77.407 -60.540L77.514 -60.812L77.620 -61.085L77.726 -61.357L77.833 -61.629L77.939 -61.902L78.045 -62.174L78.151 -62.447L78.258 -62.719L78.364 -62.991L78.470 -63.264L78.577 -63.536L78.724 -63.913L78.725 -63.916L78.888 -64.336L78.891 -64.345L79.039 -64.731L79.045 -64.747L79.176 -65.100L79.185 -65.126L79.299 -65.449L79.312 -65.487L79.409 -65.781L79.425 -65.836L79.504 -66.103L79.524 -66.180L79.583 -66.423L79.605 -66.527L79.645 -66.748L79.664 -66.889L79.684 -67.088L79.692 -67.272L79.690 -67.453L79.686 -67.568L79.673 -67.682L79.650 -67.846L79.624 -67.991L79.585 -68.132L79.524 -68.326L79.478 -68.453L79.423 -68.576L79.292 -68.839L79.221 -68.967L79.140 -69.088L78.969 -69.323L78.879 -69.437L78.780 -69.543L78.573 -69.746L78.465 -69.843L78.350 -69.931L78.111 -70.097L77.988 -70.176L77.859 -70.244L77.593 -70.370L77.467 -70.424L77.338 -70.467L77.158 -70.520L77.020 -70.555L76.879 -70.578L76.713 -70.599L76.489 -70.612L76.306 -70.611L76.128 -70.601L75.926 -70.579L75.790 -70.559L75.566 -70.517L75.466 -70.495L75.220 -70.434L75.146 -70.413L74.875 -70.333L74.823 -70.317L74.525 -70.218L74.489 -70.206L74.162 -70.089L74.138 -70.081L73.781 -69.948L73.766 -69.942L73.376 -69.793L73.368 -69.789L72.944 -69.625L72.942 -69.624L72.584 -69.484L70.405 -68.634L70.133 -68.528L69.861 -68.421L69.588 -68.315L66.320 -67.039L66.047 -66.933L65.775 -66.827L65.503 -66.721L63.868 -66.083L63.596 -65.977L63.324 -65.870L63.051 -65.764L62.779 -65.658L62.506 -65.551L62.234 -65.445L61.962 -65.339L61.689 -65.233L61.417 -65.126L61.145 -65.020L60.872 -64.914L60.600 -64.807L60.327 -64.701L60.055 -64.595L59.783 -64.488L59.510 -64.382L59.238 -64.276L58.966 -64.170L58.693 -64.063L58.421 -63.957L58.148 -63.851L56.242 -63.107L55.970 -63.000L55.697 -62.894L55.425 -62.788L52.429 -61.619L52.156 -61.512L49.705 -60.556L49.433 -60.449L49.160 -60.343L48.888 -60.237L46.436 -59.280L46.164 -59.174L45.892 -59.068L45.619 -58.961L43.168 -58.005L42.896 -57.898L42.623 -57.792L42.079 -57.580L41.806 -57.473L41.534 -57.367L41.261 -57.261L40.989 -57.154L40.717 -57.048L40.444 -56.942L40.172 -56.836L39.627 -56.623L39.355 -56.517L39.082 -56.410L38.810 -56.304L38.538 -56.198L38.265 -56.091L37.993 -55.985L37.721 -55.879L37.448 -55.773L35.814 -55.135L35.542 -55.029L31.728 -53.540L31.456 -53.434L29.005 -52.478L28.732 -52.371L28.460 -52.265L28.187 -52.159L27.915 -52.052L27.643 -51.946L25.191 -50.989L24.919 -50.883L22.468 -49.927L22.195 -49.820L21.923 -49.714L21.651 -49.608L21.378 -49.501L21.106 -49.395L20.833 -49.289L20.561 -49.183L20.289 -49.076L20.016 -48.970L19.744 -48.864L19.472 -48.757L19.199 -48.651L18.927 -48.545L18.654 -48.438L18.382 -48.332L18.110 -48.226L17.837 -48.120L17.565 -48.013L17.293 -47.907L17.020 -47.801L16.748 -47.694L16.475 -47.588L16.203 -47.482L15.931 -47.376L15.658 -47.269L15.114 -47.057L14.841 -46.950L14.569 -46.844L13.752 -46.525L13.384 -46.382L13.382 -46.381L12.952 -46.212L12.945 -46.210L12.548 -46.053L12.536 -46.048L12.172 -45.900L12.153 -45.892L11.821 -45.753L11.793 -45.742L11.492 -45.610L11.454 -45.592L11.184 -45.466L11.132 -45.440L10.891 -45.318L10.823 -45.281L10.611 -45.161L10.523 -45.108L10.339 -44.989L10.229 -44.912L10.073 -44.793L9.940 -44.681L9.810 -44.560L9.661 -44.402L9.557 -44.278L9.474 -44.171L9.400 -44.057L9.316 -43.917L9.249 -43.794L9.192 -43.666L9.082 -43.392L9.034 -43.254L8.997 -43.112L8.936 -42.828L8.911 -42.684L8.898 -42.540L8.885 -42.250L8.884 -42.106L8.895 -41.961L8.930 -41.673L8.953 -41.529L8.988 -41.388L9.071 -41.108L9.115 -40.978L9.168 -40.852L9.273 -40.631L9.344 -40.497L9.425 -40.370L9.514 -40.244L9.588 -40.147L9.668 -40.056L9.783 -39.934L9.927 -39.797L10.068 -39.678L10.191 -39.582L10.359 -39.464L10.460 -39.398L10.656 -39.279L10.735 -39.234L10.960 -39.113L11.020 -39.082L11.274 -38.958L11.320 -38.937L11.603 -38.809L11.637 -38.794L11.951 -38.659L11.975 -38.650L12.321 -38.507L12.337 -38.501L12.715 -38.350L12.725 -38.346L13.136 -38.185L13.141 -38.183L13.586 -38.009L13.875 -37.897L14.148 -37.791L14.420 -37.685L14.693 -37.579L14.965 -37.473L15.238 -37.367L15.510 -37.261L15.783 -37.155L16.055 -37.049L16.328 -36.943L16.600 -36.837L16.873 -36.731L17.145 -36.626L17.418 -36.520L17.690 -36.414L17.963 -36.308L18.235 -36.202L18.508 -36.096L18.780 -35.990L19.053 -35.884L19.325 -35.778L19.598 -35.672L19.870 -35.566L20.143 -35.460L20.415 -35.354L20.688 -35.248L20.960 -35.142L21.505 -34.930L21.778 -34.824L22.050 -34.718L22.323 -34.612L22.595 -34.506L22.868 -34.400L23.140 -34.294L23.413 -34.188L23.685 -34.082L23.958 -33.976L24.230 -33.870L24.503 -33.764L24.775 -33.658L25.048 -33.552L25.320 -33.446L25.593 -33.340L25.865 -33.234L26.410 -33.023L26.683 -32.917L26.955 -32.811L27.228 -32.705L27.500 -32.599L27.773 -32.493L28.045 -32.387L28.318 -32.281L28.590 -32.175L28.863 -32.069L29.135 -31.963L29.408 -31.857L29.680 -31.751L29.953 -31.645L30.225 -31.539L30.498 -31.433L30.770 -31.327L31.043 -31.221L31.315 -31.115L31.588 -31.009L31.860 -30.903L32.133 -30.797L32.405 -30.691L32.678 -30.585L32.950 -30.479L33.223 -30.373L33.495 -30.267L34.040 -30.055L34.313 -29.949L34.585 -29.843L34.858 -29.737L35.130 -29.632L35.403 -29.526L35.675 -29.420L35.948 -29.314L36.220 -29.208L36.493 -29.102L36.765 -28.996L37.038 -28.890L37.320 -28.780L37.613 -28.663L37.703 -28.623L37.754 -28.508L37.878 -28.194L37.982 -27.926ZM41.128 -29.574L41.336 -29.781L41.544 -29.989L41.751 -30.197L41.959 -30.404L42.167 -30.612L42.374 -30.819L42.790 -31.235L42.997 -31.442L43.205 -31.650L43.412 -31.858L43.620 -32.065L43.828 -32.273L44.035 -32.480L44.243 -32.688L44.451 -32.896L44.658 -33.103L44.866 -33.311L45.073 -33.519L45.489 -33.934L45.696 -34.141L45.904 -34.349L46.112 -34.557L46.319 -34.764L46.527 -34.972L46.734 -35.180L46.942 -35.387L47.150 -35.595L47.357 -35.802L47.773 -36.218L47.980 -36.425L48.188 -36.633L48.395 -36.841L48.603 -37.048L48.811 -37.256L49.018 -37.463L49.226 -37.671L49.434 -37.879L49.641 -38.086L49.849 -38.294L50.056 -38.502L50.472 -38.917L50.679 -39.124L50.887 -39.332L51.095 -39.540L51.302 -39.747L51.510 -39.955L51.717 -40.163L51.925 -40.370L52.133 -40.578L52.340 -40.785L52.756 -41.201L52.963 -41.408L53.171 -41.616L53.378 -41.824L53.586 -42.031L53.794 -42.239L54.001 -42.447L54.209 -42.654L54.417 -42.862L54.624 -43.069L55.040 -43.485L55.247 -43.692L55.455 -43.900L55.662 -44.108L55.870 -44.315L56.078 -44.523L56.285 -44.730L56.493 -44.938L56.701 -45.146L56.908 -45.353L57.323 -45.769L57.531 -45.976L57.739 -46.184L57.946 -46.391L58.154 -46.599L58.362 -46.807L58.569 -47.014L58.777 -47.222L58.984 -47.430L59.192 -47.637L59.607 -48.052L59.815 -48.260L60.023 -48.468L60.230 -48.675L60.438 -48.883L60.645 -49.091L60.853 -49.298L61.061 -49.506L61.268 -49.713L61.476 -49.921L61.684 -50.129L61.891 -50.336L62.099 -50.544L62.306 -50.752L62.722 -51.167L62.929 -51.374L63.137 -51.582L63.345 -51.790L63.552 -51.997L63.760 -52.205L63.967 -52.413L64.175 -52.620L64.383 -52.828L64.590 -53.035L65.006 -53.451L65.213 -53.658L65.421 -53.866L65.628 -54.074L65.836 -54.281L66.044 -54.489L66.251 -54.697L66.459 -54.904L66.667 -55.112L66.874 -55.319L67.290 -55.735L67.497 -55.942L67.705 -56.150L67.912 -56.358L68.120 -56.565L68.328 -56.773L68.535 -56.980L68.743 -57.188L68.951 -57.396L69.158 -57.603L69.573 -58.019L69.989 -58.434L70.404 -58.849L70.612 -59.057L70.819 -59.264L71.027 -59.472L71.234 -59.680L71.442 -59.887L71.650 -60.095L71.857 -60.302L72.065 -60.510L72.273 -60.718L72.688 -61.133L72.895 -61.341L73.103 -61.548L73.311 -61.756L73.518 -61.963L73.726 -62.171L73.934 -62.379L74.141 -62.586L74.349 -62.794L74.556 -63.002L74.646 -63.091L74.572 -62.902L74.466 -62.629L74.359 -62.357L74.253 -62.085L74.147 -61.812L74.041 -61.540L73.934 -61.268L73.828 -60.995L73.722 -60.723L73.615 -60.450L73.509 -60.178L73.403 -59.906L73.297 -59.633L73.190 -59.361L73.084 -59.089L72.978 -58.816L72.871 -58.544L72.765 -58.271L72.659 -57.999L72.553 -57.727L72.446 -57.454L72.340 -57.182L72.234 -56.910L72.127 -56.637L72.021 -56.365L71.915 -56.093L71.808 -55.820L71.702 -55.548L71.596 -55.275L71.490 -55.003L71.383 -54.731L71.277 -54.458L71.171 -54.186L71.064 -53.914L70.958 -53.641L70.852 -53.369L70.746 -53.096L70.639 -52.824L70.533 -52.552L70.427 -52.279L70.320 -52.007L70.214 -51.735L70.108 -51.462L70.002 -51.190L69.895 -50.917L69.789 -50.645L69.683 -50.373L69.576 -50.100L69.470 -49.828L69.364 -49.556L69.151 -49.011L69.045 -48.738L68.939 -48.466L68.832 -48.194L68.726 -47.921L68.620 -47.649L68.513 -47.377L68.407 -47.104L68.301 -46.832L68.195 -46.559L68.088 -46.287L67.982 -46.015L67.876 -45.742L67.769 -45.470L67.663 -45.198L67.557 -44.925L67.451 -44.653L67.344 -44.380L67.238 -44.108L67.132 -43.836L67.025 -43.563L66.919 -43.291L66.813 -43.019L66.706 -42.746L66.600 -42.474L66.494 -42.202L66.388 -41.929L66.281 -41.657L66.175 -41.384L66.069 -41.112L65.962 -40.840L65.856 -40.567L65.750 -40.295L65.644 -40.023L65.537 -39.750L65.431 -39.478L65.325 -39.205L65.218 -38.933L65.112 -38.661L65.006 -38.388L64.900 -38.116L64.793 -37.844L64.687 -37.571L64.581 -37.299L64.474 -37.026L64.368 -36.754L64.262 -36.482L64.155 -36.209L64.049 -35.937L63.943 -35.665L63.837 -35.392L63.730 -35.120L63.624 -34.847L63.518 -34.575L63.411 -34.303L63.305 -34.030L63.199 -33.758L63.093 -33.486L62.986 -33.213L62.880 -32.941L62.774 -32.668L62.667 -32.396L62.561 -32.124L62.455 -31.851L62.349 -31.579L62.242 -31.307L62.136 -31.034L62.030 -30.762L61.923 -30.489L61.817 -30.217L61.711 -29.945L61.604 -29.672L61.498 -29.400L61.392 -29.128L61.286 -28.855L61.179 -28.583L61.073 -28.310L60.967 -28.038L60.860 -27.766L60.754 -27.493L60.648 -27.221L60.542 -26.949L60.435 -26.676L60.329 -26.404L60.223 -26.132L60.116 -25.859L59.904 -25.314L59.798 -25.042L59.691 -24.770L59.585 -24.497L59.479 -24.225L59.372 -23.953L59.266 -23.680L59.160 -23.408L59.053 -23.135L58.947 -22.863L58.841 -22.591L58.735 -22.318L58.628 -22.046L58.522 -21.774L58.416 -21.501L58.309 -21.229L58.203 -20.956L58.097 -20.684L57.991 -20.412L57.884 -20.139L57.778 -19.867L57.672 -19.595L57.565 -19.322L57.459 -19.050L57.353 -18.777L57.247 -18.505L57.140 -18.233L57.034 -17.960L56.928 -17.688L56.821 -17.416L56.715 -17.143L56.609 -16.871L56.502 -16.598L56.396 -16.326L56.290 -16.054L56.184 -15.781L56.077 -15.509L55.971 -15.237L55.865 -14.964L55.758 -14.692L55.652 -14.419L55.546 -14.147L55.440 -13.875L55.333 -13.602L55.227 -13.330L55.121 -13.058L55.014 -12.785L54.908 -12.513L54.802 -12.241L54.696 -11.968L54.589 -11.696L54.483 -11.423L54.377 -11.151L54.270 -10.879L54.164 -10.606L54.058 -10.334L53.952 -10.062L53.845 -9.789L53.739 -9.517L53.633 -9.244L53.526 -8.972L53.420 -8.700L53.314 -8.427L53.207 -8.155L53.101 -7.883L52.995 -7.610L52.889 -7.338L52.782 -7.065L52.676 -6.793L52.570 -6.521L52.463 -6.248L52.357 -5.976L52.222 -5.630L52.054 -5.199L51.898 -4.807L51.756 -4.454L51.625 -4.140L51.506 -3.867L51.399 -3.637L51.314 -3.466L51.304 -3.484L51.208 -3.680L51.099 -3.919L50.978 -4.200L50.845 -4.522L50.700 -4.883L50.543 -5.284L50.372 -5.722L50.252 -6.032L50.146 -6.305L50.040 -6.577L49.934 -6.850L49.828 -7.122L49.722 -7.395L49.616 -7.667L49.510 -7.940L49.404 -8.212L49.298 -8.485L49.192 -8.757L49.086 -9.030L48.874 -9.575L48.768 -9.847L48.556 -10.392L48.450 -10.664L48.344 -10.937L48.238 -11.209L48.132 -11.482L48.026 -11.754L47.920 -12.027L47.814 -12.299L47.708 -12.572L47.602 -12.844L47.496 -13.117L47.390 -13.389L47.284 -13.662L47.178 -13.934L47.073 -14.207L46.967 -14.479L46.861 -14.752L46.755 -15.024L46.649 -15.297L46.543 -15.569L46.437 -15.842L46.331 -16.114L46.225 -16.387L46.119 -16.659L46.013 -16.932L45.907 -17.204L45.695 -17.749L45.589 -18.022L45.377 -18.567L45.271 -18.839L45.165 -19.112L45.059 -19.384L44.953 -19.657L44.847 -19.929L44.741 -20.202L44.635 -20.474L44.529 -20.747L44.423 -21.019L44.317 -21.292L44.211 -21.564L44.105 -21.837L43.999 -22.109L43.893 -22.382L43.681 -22.927L43.575 -23.199L43.364 -23.744L43.258 -24.017L43.046 -24.562L42.940 -24.834L42.834 -25.107L42.728 -25.379L42.622 -25.652L42.516 -25.924L42.410 -26.197L42.304 -26.469L42.198 -26.742L42.092 -27.014L41.986 -27.287L41.880 -27.559L41.774 -27.832L41.668 -28.104L41.562 -28.377L41.350 -28.922L41.244 -29.194L41.138 -29.467L41.136 -29.471L41.135 -29.475L41.105 -29.550L41.128 -29.574ZM72.082 -65.476L71.874 -65.269L71.666 -65.061L71.459 -64.854L71.251 -64.646L71.043 -64.438L70.836 -64.231L70.628 -64.023L70.421 -63.815L70.213 -63.608L69.798 -63.193L69.590 -62.985L69.382 -62.777L69.175 -62.570L68.967 -62.362L68.760 -62.154L68.552 -61.947L68.344 -61.739L68.137 -61.532L67.929 -61.324L67.514 -60.909L67.099 -60.493L66.683 -60.078L66.476 -59.871L66.268 -59.663L66.060 -59.455L65.853 -59.248L65.645 -59.040L65.438 -58.832L65.230 -58.625L65.022 -58.417L64.815 -58.210L64.399 -57.794L64.192 -57.587L63.984 -57.379L63.777 -57.171L63.569 -56.964L63.361 -56.756L63.154 -56.548L62.946 -56.341L62.738 -56.133L62.531 -55.926L62.115 -55.510L61.908 -55.303L61.700 -55.095L61.493 -54.887L61.285 -54.680L61.077 -54.472L60.870 -54.265L60.662 -54.057L60.454 -53.849L60.247 -53.642L59.832 -53.226L59.624 -53.019L59.416 -52.811L59.209 -52.604L59.001 -52.396L58.793 -52.188L58.586 -51.981L58.378 -51.773L58.171 -51.565L57.963 -51.358L57.755 -51.150L57.548 -50.943L57.340 -50.735L57.132 -50.527L56.717 -50.112L56.510 -49.904L56.302 -49.697L56.094 -49.489L55.887 -49.282L55.679 -49.074L55.471 -48.866L55.264 -48.659L55.056 -48.451L54.849 -48.243L54.433 -47.828L54.226 -47.621L54.018 -47.413L53.810 -47.205L53.603 -46.998L53.395 -46.790L53.188 -46.582L52.980 -46.375L52.772 -46.167L52.565 -45.960L52.149 -45.544L51.942 -45.337L51.734 -45.129L51.527 -44.921L51.319 -44.714L51.111 -44.506L50.904 -44.298L50.696 -44.091L50.488 -43.883L50.281 -43.676L49.865 -43.260L49.658 -43.053L49.450 -42.845L49.243 -42.637L49.035 -42.430L48.827 -42.222L48.620 -42.015L48.412 -41.807L48.204 -41.599L47.997 -41.392L47.582 -40.976L47.374 -40.769L47.166 -40.561L46.959 -40.354L46.751 -40.146L46.543 -39.938L46.336 -39.731L46.128 -39.523L45.921 -39.315L45.713 -39.108L45.505 -38.900L45.298 -38.693L44.882 -38.277L44.675 -38.070L44.467 -37.862L44.260 -37.654L44.052 -37.447L43.844 -37.239L43.637 -37.032L43.429 -36.824L43.221 -36.616L43.014 -36.409L42.599 -35.993L42.391 -35.786L42.183 -35.578L41.976 -35.371L41.768 -35.163L41.560 -34.955L41.353 -34.748L41.145 -34.540L40.938 -34.332L40.730 -34.125L40.522 -33.917L40.315 -33.710L39.899 -33.294L39.692 -33.087L39.484 -32.879L39.277 -32.671L39.069 -32.464L38.861 -32.256L38.654 -32.048L38.630 -32.025L38.606 -32.035L38.594 -32.040L38.306 -32.152L38.034 -32.258L37.761 -32.364L37.489 -32.470L37.216 -32.576L36.944 -32.682L36.671 -32.788L36.399 -32.894L36.126 -33.000L35.854 -33.105L35.581 -33.211L35.309 -33.317L34.764 -33.529L34.491 -33.635L34.219 -33.741L33.946 -33.847L33.674 -33.953L33.401 -34.059L33.129 -34.165L32.856 -34.271L32.584 -34.377L32.311 -34.483L32.039 -34.589L31.766 -34.695L31.494 -34.801L31.221 -34.907L30.949 -35.013L30.676 -35.119L30.404 -35.225L30.131 -35.331L29.859 -35.437L29.586 -35.543L29.314 -35.649L29.041 -35.755L28.769 -35.861L28.496 -35.967L28.224 -36.073L27.951 -36.179L27.679 -36.285L27.134 -36.497L26.861 -36.602L26.589 -36.708L26.316 -36.814L26.044 -36.920L25.771 -37.026L25.499 -37.132L25.226 -37.238L24.954 -37.344L24.681 -37.450L24.409 -37.556L24.136 -37.662L23.864 -37.768L23.591 -37.874L23.319 -37.980L23.046 -38.086L22.774 -38.192L22.229 -38.404L21.956 -38.510L21.684 -38.616L21.411 -38.722L21.139 -38.828L20.866 -38.934L20.594 -39.040L20.321 -39.146L20.049 -39.252L19.776 -39.358L19.504 -39.464L19.231 -39.570L18.959 -39.676L18.686 -39.782L18.414 -39.888L18.141 -39.994L17.869 -40.099L17.596 -40.205L17.324 -40.311L17.051 -40.417L16.779 -40.523L16.506 -40.629L16.234 -40.735L15.961 -40.841L15.689 -40.947L15.416 -41.053L15.144 -41.159L14.856 -41.271L14.413 -41.444L14.008 -41.602L13.642 -41.749L13.316 -41.883L13.030 -42.005L12.785 -42.115L12.585 -42.213L12.547 -42.234L12.693 -42.308L12.918 -42.413L13.186 -42.531L13.495 -42.660L13.844 -42.801L14.231 -42.955L14.658 -43.122L15.024 -43.265L15.841 -43.584L16.114 -43.690L16.386 -43.796L16.931 -44.009L17.203 -44.115L17.475 -44.221L17.748 -44.328L18.020 -44.434L18.293 -44.540L18.565 -44.647L18.837 -44.753L19.110 -44.859L19.382 -44.965L19.654 -45.072L19.927 -45.178L20.199 -45.284L20.472 -45.391L20.744 -45.497L21.016 -45.603L21.289 -45.709L21.561 -45.816L21.833 -45.922L22.106 -46.028L22.378 -46.135L22.651 -46.241L22.923 -46.347L23.195 -46.453L23.468 -46.560L23.740 -46.666L26.191 -47.623L26.464 -47.729L28.915 -48.686L29.188 -48.792L29.460 -48.898L29.732 -49.004L30.005 -49.111L30.277 -49.217L32.728 -50.174L33.001 -50.280L36.814 -51.768L37.086 -51.874L38.721 -52.512L38.993 -52.618L39.265 -52.725L39.538 -52.831L39.810 -52.937L40.082 -53.044L40.355 -53.150L40.627 -53.256L40.900 -53.362L41.444 -53.575L41.717 -53.681L41.989 -53.788L42.261 -53.894L42.534 -54.000L42.806 -54.106L43.079 -54.213L43.351 -54.319L43.896 -54.532L44.168 -54.638L44.440 -54.744L46.892 -55.701L47.164 -55.807L47.436 -55.913L47.709 -56.020L50.160 -56.976L50.433 -57.083L50.705 -57.189L50.977 -57.295L53.429 -58.252L53.701 -58.358L56.697 -59.527L56.970 -59.634L57.242 -59.740L57.514 -59.846L59.421 -60.590L59.693 -60.697L59.966 -60.803L60.238 -60.909L60.510 -61.015L60.783 -61.122L61.055 -61.228L61.328 -61.334L61.600 -61.441L61.872 -61.547L62.145 -61.653L62.417 -61.759L62.689 -61.866L62.962 -61.972L63.234 -62.078L63.506 -62.185L63.779 -62.291L64.051 -62.397L64.324 -62.503L64.596 -62.610L64.868 -62.716L65.141 -62.822L66.775 -63.460L67.047 -63.566L67.320 -63.673L67.592 -63.779L70.861 -65.054L71.133 -65.161L71.405 -65.267L71.678 -65.373L72.171 -65.566L72.082 -65.476Z"/>
  </g>
  <g id="Regular-S" transform="matrix(1 0 0 1 1405.56 696)">
   <path class="monochrome-0 multicolor-0:tintColor hierarchical-0:primary SFSymbolsPreviewWireframe" fill-rule="evenodd" d="M37.982 -27.926L38.088 -27.653L38.300 -27.108L38.406 -26.836L38.512 -26.563L38.618 -26.291L38.724 -26.018L38.830 -25.746L38.936 -25.473L39.042 -25.201L39.148 -24.928L39.254 -24.656L39.360 -24.383L39.466 -24.111L39.572 -23.838L39.678 -23.566L39.784 -23.293L39.996 -22.748L40.102 -22.476L40.313 -21.931L40.419 -21.658L40.631 -21.113L40.737 -20.841L40.843 -20.568L40.949 -20.296L41.055 -20.023L41.161 -19.751L41.267 -19.478L41.373 -19.206L41.479 -18.933L41.585 -18.661L41.691 -18.388L41.797 -18.116L41.903 -17.843L42.009 -17.571L42.115 -17.298L42.327 -16.753L42.433 -16.481L42.645 -15.936L42.751 -15.663L42.857 -15.391L42.963 -15.118L43.069 -14.846L43.175 -14.573L43.281 -14.301L43.387 -14.028L43.493 -13.756L43.599 -13.483L43.705 -13.211L43.811 -12.938L43.916 -12.666L44.022 -12.393L44.128 -12.121L44.234 -11.848L44.340 -11.576L44.446 -11.303L44.552 -11.031L44.658 -10.758L44.764 -10.486L44.870 -10.213L44.976 -9.941L45.082 -9.668L45.188 -9.396L45.294 -9.123L45.506 -8.578L45.612 -8.306L45.824 -7.761L45.930 -7.488L46.036 -7.216L46.142 -6.943L46.248 -6.671L46.354 -6.398L46.460 -6.126L46.566 -5.853L46.672 -5.581L46.778 -5.308L46.884 -5.036L46.990 -4.763L47.110 -4.453L47.283 -4.011L47.285 -4.006L47.445 -3.598L47.449 -3.588L47.599 -3.213L47.605 -3.197L47.747 -2.854L47.757 -2.830L47.891 -2.519L47.906 -2.484L48.034 -2.204L48.056 -2.157L48.179 -1.906L48.212 -1.843L48.332 -1.623L48.379 -1.541L48.498 -1.348L48.567 -1.245L48.685 -1.080L48.785 -0.954L48.905 -0.816L49.047 -0.670L49.169 -0.559L49.264 -0.478L49.364 -0.405L49.491 -0.319L49.618 -0.240L49.752 -0.172L49.990 -0.064L50.119 -0.012L50.252 0.031L50.534 0.107L50.676 0.140L50.820 0.160L51.108 0.189L51.253 0.198L51.398 0.194L51.687 0.175L51.831 0.160L51.974 0.132L52.258 0.065L52.398 0.026L52.535 -0.025L52.803 -0.138L52.934 -0.200L53.060 -0.273L53.188 -0.353L53.294 -0.426L53.394 -0.506L53.517 -0.612L53.670 -0.761L53.790 -0.893L53.897 -1.024L54.016 -1.183L54.091 -1.291L54.209 -1.477L54.260 -1.563L54.380 -1.778L54.416 -1.844L54.538 -2.089L54.563 -2.139L54.690 -2.413L54.706 -2.450L54.839 -2.754L54.850 -2.781L54.990 -3.117L54.998 -3.135L55.146 -3.503L55.151 -3.514L55.309 -3.915L55.312 -3.921L55.482 -4.355L55.618 -4.704L55.724 -4.976L55.830 -5.248L55.937 -5.521L56.043 -5.793L56.149 -6.065L56.255 -6.338L56.362 -6.610L56.468 -6.883L56.574 -7.155L56.681 -7.427L56.787 -7.700L56.893 -7.972L56.999 -8.244L57.106 -8.517L57.212 -8.789L57.318 -9.062L57.425 -9.334L57.531 -9.606L57.637 -9.879L57.743 -10.151L57.850 -10.423L57.956 -10.696L58.062 -10.968L58.169 -11.240L58.275 -11.513L58.381 -11.785L58.488 -12.058L58.594 -12.330L58.700 -12.602L58.806 -12.875L58.913 -13.147L59.019 -13.419L59.125 -13.692L59.232 -13.964L59.338 -14.237L59.444 -14.509L59.550 -14.781L59.657 -15.054L59.763 -15.326L59.869 -15.598L59.976 -15.871L60.082 -16.143L60.188 -16.416L60.294 -16.688L60.401 -16.960L60.507 -17.233L60.613 -17.505L60.720 -17.777L60.826 -18.050L60.932 -18.322L61.039 -18.595L61.145 -18.867L61.251 -19.139L61.357 -19.412L61.464 -19.684L61.570 -19.956L61.676 -20.229L61.783 -20.501L61.889 -20.774L61.995 -21.046L62.101 -21.318L62.208 -21.591L62.314 -21.863L62.420 -22.135L62.527 -22.408L62.633 -22.680L62.739 -22.953L62.845 -23.225L62.952 -23.497L63.058 -23.770L63.164 -24.042L63.377 -24.587L63.483 -24.859L63.590 -25.131L63.696 -25.404L63.802 -25.676L63.908 -25.949L64.015 -26.221L64.121 -26.493L64.227 -26.766L64.334 -27.038L64.440 -27.310L64.546 -27.583L64.652 -27.855L64.759 -28.128L64.865 -28.400L64.971 -28.672L65.078 -28.945L65.184 -29.217L65.290 -29.489L65.396 -29.762L65.503 -30.034L65.609 -30.307L65.715 -30.579L65.822 -30.851L65.928 -31.124L66.034 -31.396L66.141 -31.668L66.247 -31.941L66.353 -32.213L66.459 -32.486L66.566 -32.758L66.672 -33.030L66.778 -33.303L66.885 -33.575L66.991 -33.847L67.097 -34.120L67.203 -34.392L67.310 -34.665L67.416 -34.937L67.522 -35.209L67.629 -35.482L67.735 -35.754L67.841 -36.026L67.947 -36.299L68.054 -36.571L68.160 -36.844L68.266 -37.116L68.373 -37.388L68.479 -37.661L68.585 -37.933L68.691 -38.205L68.798 -38.478L68.904 -38.750L69.010 -39.023L69.117 -39.295L69.223 -39.567L69.329 -39.840L69.436 -40.112L69.542 -40.384L69.648 -40.657L69.754 -40.929L69.861 -41.201L69.967 -41.474L70.073 -41.746L70.180 -42.019L70.286 -42.291L70.392 -42.563L70.498 -42.836L70.605 -43.108L70.711 -43.380L70.817 -43.653L70.924 -43.925L71.030 -44.198L71.136 -44.470L71.242 -44.742L71.349 -45.015L71.455 -45.287L71.561 -45.559L71.668 -45.832L71.774 -46.104L71.880 -46.377L71.987 -46.649L72.093 -46.921L72.199 -47.194L72.305 -47.466L72.412 -47.738L72.624 -48.283L72.731 -48.556L72.837 -48.828L72.943 -49.100L73.049 -49.373L73.156 -49.645L73.262 -49.917L73.368 -50.190L73.475 -50.462L73.581 -50.735L73.687 -51.007L73.793 -51.279L73.900 -51.552L74.006 -51.824L74.112 -52.096L74.219 -52.369L74.325 -52.641L74.431 -52.914L74.538 -53.186L74.644 -53.458L74.750 -53.731L74.856 -54.003L74.963 -54.275L75.069 -54.548L75.175 -54.820L75.282 -55.092L75.388 -55.365L75.494 -55.637L75.600 -55.910L75.707 -56.182L75.813 -56.454L75.919 -56.727L76.026 -56.999L76.132 -57.271L76.238 -57.544L76.344 -57.816L76.451 -58.089L76.557 -58.361L76.663 -58.633L76.770 -58.906L76.876 -59.178L76.982 -59.450L77.089 -59.723L77.195 -59.995L77.301 -60.268L77.407 -60.540L77.514 -60.812L77.620 -61.085L77.726 -61.357L77.833 -61.629L77.939 -61.902L78.045 -62.174L78.151 -62.447L78.258 -62.719L78.364 -62.991L78.470 -63.264L78.577 -63.536L78.724 -63.913L78.725 -63.916L78.888 -64.336L78.891 -64.345L79.039 -64.731L79.045 -64.747L79.176 -65.100L79.185 -65.126L79.299 -65.449L79.312 -65.487L79.409 -65.781L79.425 -65.836L79.504 -66.103L79.524 -66.180L79.583 -66.423L79.605 -66.527L79.645 -66.748L79.664 -66.889L79.684 -67.088L79.692 -67.272L79.690 -67.453L79.686 -67.568L79.673 -67.682L79.650 -67.846L79.624 -67.991L79.585 -68.132L79.524 -68.326L79.478 -68.453L79.423 -68.576L79.292 -68.839L79.221 -68.967L79.140 -69.088L78.969 -69.323L78.879 -69.437L78.780 -69.543L78.573 -69.746L78.465 -69.843L78.350 -69.931L78.111 -70.097L77.988 -70.176L77.859 -70.244L77.593 -70.370L77.467 -70.424L77.338 -70.467L77.158 -70.520L77.020 -70.555L76.879 -70.578L76.713 -70.599L76.489 -70.612L76.306 -70.611L76.128 -70.601L75.926 -70.579L75.790 -70.559L75.566 -70.517L75.466 -70.495L75.220 -70.434L75.146 -70.413L74.875 -70.333L74.823 -70.317L74.525 -70.218L74.489 -70.206L74.162 -70.089L74.138 -70.081L73.781 -69.948L73.766 -69.942L73.376 -69.793L73.368 -69.789L72.944 -69.625L72.942 -69.624L72.584 -69.484L70.405 -68.634L70.133 -68.528L69.861 -68.421L69.588 -68.315L66.320 -67.039L66.047 -66.933L65.775 -66.827L65.503 -66.721L63.868 -66.083L63.596 -65.977L63.324 -65.870L63.051 -65.764L62.779 -65.658L62.506 -65.551L62.234 -65.445L61.962 -65.339L61.689 -65.233L61.417 -65.126L61.145 -65.020L60.872 -64.914L60.600 -64.807L60.327 -64.701L60.055 -64.595L59.783 -64.488L59.510 -64.382L59.238 -64.276L58.966 -64.170L58.693 -64.063L58.421 -63.957L58.148 -63.851L56.242 -63.107L55.970 -63.000L55.697 -62.894L55.425 -62.788L52.429 -61.619L52.156 -61.512L49.705 -60.556L49.433 -60.449L49.160 -60.343L48.888 -60.237L46.436 -59.280L46.164 -59.174L45.892 -59.068L45.619 -58.961L43.168 -58.005L42.896 -57.898L42.623 -57.792L42.079 -57.580L41.806 -57.473L41.534 -57.367L41.261 -57.261L40.989 -57.154L40.717 -57.048L40.444 -56.942L40.172 -56.836L39.627 -56.623L39.355 -56.517L39.082 -56.410L38.810 -56.304L38.538 -56.198L38.265 -56.091L37.993 -55.985L37.721 -55.879L37.448 -55.773L35.814 -55.135L35.542 -55.029L31.728 -53.540L31.456 -53.434L29.005 -52.478L28.732 -52.371L28.460 -52.265L28.187 -52.159L27.915 -52.052L27.643 -51.946L25.191 -50.989L24.919 -50.883L22.468 -49.927L22.195 -49.820L21.923 -49.714L21.651 -49.608L21.378 -49.501L21.106 -49.395L20.833 -49.289L20.561 -49.183L20.289 -49.076L20.016 -48.970L19.744 -48.864L19.472 -48.757L19.199 -48.651L18.927 -48.545L18.654 -48.438L18.382 -48.332L18.110 -48.226L17.837 -48.120L17.565 -48.013L17.293 -47.907L17.020 -47.801L16.748 -47.694L16.475 -47.588L16.203 -47.482L15.931 -47.376L15.658 -47.269L15.114 -47.057L14.841 -46.950L14.569 -46.844L13.752 -46.525L13.384 -46.382L13.382 -46.381L12.952 -46.212L12.945 -46.210L12.548 -46.053L12.536 -46.048L12.172 -45.900L12.153 -45.892L11.821 -45.753L11.793 -45.742L11.492 -45.610L11.454 -45.592L11.184 -45.466L11.132 -45.440L10.891 -45.318L10.823 -45.281L10.611 -45.161L10.523 -45.108L10.339 -44.989L10.229 -44.912L10.073 -44.793L9.940 -44.681L9.810 -44.560L9.661 -44.402L9.557 -44.278L9.474 -44.171L9.400 -44.057L9.316 -43.917L9.249 -43.794L9.192 -43.666L9.082 -43.392L9.034 -43.254L8.997 -43.112L8.936 -42.828L8.911 -42.684L8.898 -42.540L8.885 -42.250L8.884 -42.106L8.895 -41.961L8.930 -41.673L8.953 -41.529L8.988 -41.388L9.071 -41.108L9.115 -40.978L9.168 -40.852L9.273 -40.631L9.344 -40.497L9.425 -40.370L9.514 -40.244L9.588 -40.147L9.668 -40.056L9.783 -39.934L9.927 -39.797L10.068 -39.678L10.191 -39.582L10.359 -39.464L10.460 -39.398L10.656 -39.279L10.735 -39.234L10.960 -39.113L11.020 -39.082L11.274 -38.958L11.320 -38.937L11.603 -38.809L11.637 -38.794L11.951 -38.659L11.975 -38.650L12.321 -38.507L12.337 -38.501L12.715 -38.350L12.725 -38.346L13.136 -38.185L13.141 -38.183L13.586 -38.009L13.875 -37.897L14.148 -37.791L14.420 -37.685L14.693 -37.579L14.965 -37.473L15.238 -37.367L15.510 -37.261L15.783 -37.155L16.055 -37.049L16.328 -36.943L16.600 -36.837L16.873 -36.731L17.145 -36.626L17.418 -36.520L17.690 -36.414L17.963 -36.308L18.235 -36.202L18.508 -36.096L18.780 -35.990L19.053 -35.884L19.325 -35.778L19.598 -35.672L19.870 -35.566L20.143 -35.460L20.415 -35.354L20.688 -35.248L20.960 -35.142L21.505 -34.930L21.778 -34.824L22.050 -34.718L22.323 -34.612L22.595 -34.506L22.868 -34.400L23.140 -34.294L23.413 -34.188L23.685 -34.082L23.958 -33.976L24.230 -33.870L24.503 -33.764L24.775 -33.658L25.048 -33.552L25.320 -33.446L25.593 -33.340L25.865 -33.234L26.410 -33.023L26.683 -32.917L26.955 -32.811L27.228 -32.705L27.500 -32.599L27.773 -32.493L28.045 -32.387L28.318 -32.281L28.590 -32.175L28.863 -32.069L29.135 -31.963L29.408 -31.857L29.680 -31.751L29.953 -31.645L30.225 -31.539L30.498 -31.433L30.770 -31.327L31.043 -31.221L31.315 -31.115L31.588 -31.009L31.860 -30.903L32.133 -30.797L32.405 -30.691L32.678 -30.585L32.950 -30.479L33.223 -30.373L33.495 -30.267L34.040 -30.055L34.313 -29.949L34.585 -29.843L34.858 -29.737L35.130 -29.632L35.403 -29.526L35.675 -29.420L35.948 -29.314L36.220 -29.208L36.493 -29.102L36.765 -28.996L37.038 -28.890L37.320 -28.780L37.613 -28.663L37.703 -28.623L37.754 -28.508L37.878 -28.194L37.982 -27.926ZM41.128 -29.574L41.336 -29.781L41.544 -29.989L41.751 -30.197L41.959 -30.404L42.167 -30.612L42.374 -30.819L42.790 -31.235L42.997 -31.442L43.205 -31.650L43.412 -31.858L43.620 -32.065L43.828 -32.273L44.035 -32.480L44.243 -32.688L44.451 -32.896L44.658 -33.103L44.866 -33.311L45.073 -33.519L45.489 -33.934L45.696 -34.141L45.904 -34.349L46.112 -34.557L46.319 -34.764L46.527 -34.972L46.734 -35.180L46.942 -35.387L47.150 -35.595L47.357 -35.802L47.773 -36.218L47.980 -36.425L48.188 -36.633L48.395 -36.841L48.603 -37.048L48.811 -37.256L49.018 -37.463L49.226 -37.671L49.434 -37.879L49.641 -38.086L49.849 -38.294L50.056 -38.502L50.472 -38.917L50.679 -39.124L50.887 -39.332L51.095 -39.540L51.302 -39.747L51.510 -39.955L51.717 -40.163L51.925 -40.370L52.133 -40.578L52.340 -40.785L52.756 -41.201L52.963 -41.408L53.171 -41.616L53.378 -41.824L53.586 -42.031L53.794 -42.239L54.001 -42.447L54.209 -42.654L54.417 -42.862L54.624 -43.069L55.040 -43.485L55.247 -43.692L55.455 -43.900L55.662 -44.108L55.870 -44.315L56.078 -44.523L56.285 -44.730L56.493 -44.938L56.701 -45.146L56.908 -45.353L57.323 -45.769L57.531 -45.976L57.739 -46.184L57.946 -46.391L58.154 -46.599L58.362 -46.807L58.569 -47.014L58.777 -47.222L58.984 -47.430L59.192 -47.637L59.607 -48.052L59.815 -48.260L60.023 -48.468L60.230 -48.675L60.438 -48.883L60.645 -49.091L60.853 -49.298L61.061 -49.506L61.268 -49.713L61.476 -49.921L61.684 -50.129L61.891 -50.336L62.099 -50.544L62.306 -50.752L62.722 -51.167L62.929 -51.374L63.137 -51.582L63.345 -51.790L63.552 -51.997L63.760 -52.205L63.967 -52.413L64.175 -52.620L64.383 -52.828L64.590 -53.035L65.006 -53.451L65.213 -53.658L65.421 -53.866L65.628 -54.074L65.836 -54.281L66.044 -54.489L66.251 -54.697L66.459 -54.904L66.667 -55.112L66.874 -55.319L67.290 -55.735L67.497 -55.942L67.705 -56.150L67.912 -56.358L68.120 -56.565L68.328 -56.773L68.535 -56.980L68.743 -57.188L68.951 -57.396L69.158 -57.603L69.573 -58.019L69.989 -58.434L70.404 -58.849L70.612 -59.057L70.819 -59.264L71.027 -59.472L71.234 -59.680L71.442 -59.887L71.650 -60.095L71.857 -60.302L72.065 -60.510L72.273 -60.718L72.688 -61.133L72.895 -61.341L73.103 -61.548L73.311 -61.756L73.518 -61.963L73.726 -62.171L73.934 -62.379L74.141 -62.586L74.349 -62.794L74.556 -63.002L74.646 -63.091L74.572 -62.902L74.466 -62.629L74.359 -62.357L74.253 -62.085L74.147 -61.812L74.041 -61.540L73.934 -61.268L73.828 -60.995L73.722 -60.723L73.615 -60.450L73.509 -60.178L73.403 -59.906L73.297 -59.633L73.190 -59.361L73.084 -59.089L72.978 -58.816L72.871 -58.544L72.765 -58.271L72.659 -57.999L72.553 -57.727L72.446 -57.454L72.340 -57.182L72.234 -56.910L72.127 -56.637L72.021 -56.365L71.915 -56.093L71.808 -55.820L71.702 -55.548L71.596 -55.275L71.490 -55.003L71.383 -54.731L71.277 -54.458L71.171 -54.186L71.064 -53.914L70.958 -53.641L70.852 -53.369L70.746 -53.096L70.639 -52.824L70.533 -52.552L70.427 -52.279L70.320 -52.007L70.214 -51.735L70.108 -51.462L70.002 -51.190L69.895 -50.917L69.789 -50.645L69.683 -50.373L69.576 -50.100L69.470 -49.828L69.364 -49.556L69.151 -49.011L69.045 -48.738L68.939 -48.466L68.832 -48.194L68.726 -47.921L68.620 -47.649L68.513 -47.377L68.407 -47.104L68.301 -46.832L68.195 -46.559L68.088 -46.287L67.982 -46.015L67.876 -45.742L67.769 -45.470L67.663 -45.198L67.557 -44.925L67.451 -44.653L67.344 -44.380L67.238 -44.108L67.132 -43.836L67.025 -43.563L66.919 -43.291L66.813 -43.019L66.706 -42.746L66.600 -42.474L66.494 -42.202L66.388 -41.929L66.281 -41.657L66.175 -41.384L66.069 -41.112L65.962 -40.840L65.856 -40.567L65.750 -40.295L65.644 -40.023L65.537 -39.750L65.431 -39.478L65.325 -39.205L65.218 -38.933L65.112 -38.661L65.006 -38.388L64.900 -38.116L64.793 -37.844L64.687 -37.571L64.581 -37.299L64.474 -37.026L64.368 -36.754L64.262 -36.482L64.155 -36.209L64.049 -35.937L63.943 -35.665L63.837 -35.392L63.730 -35.120L63.624 -34.847L63.518 -34.575L63.411 -34.303L63.305 -34.030L63.199 -33.758L63.093 -33.486L62.986 -33.213L62.880 -32.941L62.774 -32.668L62.667 -32.396L62.561 -32.124L62.455 -31.851L62.349 -31.579L62.242 -31.307L62.136 -31.034L62.030 -30.762L61.923 -30.489L61.817 -30.217L61.711 -29.945L61.604 -29.672L61.498 -29.400L61.392 -29.128L61.286 -28.855L61.179 -28.583L61.073 -28.310L60.967 -28.038L60.860 -27.766L60.754 -27.493L60.648 -27.221L60.542 -26.949L60.435 -26.676L60.329 -26.404L60.223 -26.132L60.116 -25.859L59.904 -25.314L59.798 -25.042L59.691 -24.770L59.585 -24.497L59.479 -24.225L59.372 -23.953L59.266 -23.680L59.160 -23.408L59.053 -23.135L58.947 -22.863L58.841 -22.591L58.735 -22.318L58.628 -22.046L58.522 -21.774L58.416 -21.501L58.309 -21.229L58.203 -20.956L58.097 -20.684L57.991 -20.412L57.884 -20.139L57.778 -19.867L57.672 -19.595L57.565 -19.322L57.459 -19.050L57.353 -18.777L57.247 -18.505L57.140 -18.233L57.034 -17.960L56.928 -17.688L56.821 -17.416L56.715 -17.143L56.609 -16.871L56.502 -16.598L56.396 -16.326L56.290 -16.054L56.184 -15.781L56.077 -15.509L55.971 -15.237L55.865 -14.964L55.758 -14.692L55.652 -14.419L55.546 -14.147L55.440 -13.875L55.333 -13.602L55.227 -13.330L55.121 -13.058L55.014 -12.785L54.908 -12.513L54.802 -12.241L54.696 -11.968L54.589 -11.696L54.483 -11.423L54.377 -11.151L54.270 -10.879L54.164 -10.606L54.058 -10.334L53.952 -10.062L53.845 -9.789L53.739 -9.517L53.633 -9.244L53.526 -8.972L53.420 -8.700L53.314 -8.427L53.207 -8.155L53.101 -7.883L52.995 -7.610L52.889 -7.338L52.782 -7.065L52.676 -6.793L52.570 -6.521L52.463 -6.248L52.357 -5.976L52.222 -5.630L52.054 -5.199L51.898 -4.807L51.756 -4.454L51.625 -4.140L51.506 -3.867L51.399 -3.637L51.314 -3.466L51.304 -3.484L51.208 -3.680L51.099 -3.919L50.978 -4.200L50.845 -4.522L50.700 -4.883L50.543 -5.284L50.372 -5.722L50.252 -6.032L50.146 -6.305L50.040 -6.577L49.934 -6.850L49.828 -7.122L49.722 -7.395L49.616 -7.667L49.510 -7.940L49.404 -8.212L49.298 -8.485L49.192 -8.757L49.086 -9.030L48.874 -9.575L48.768 -9.847L48.556 -10.392L48.450 -10.664L48.344 -10.937L48.238 -11.209L48.132 -11.482L48.026 -11.754L47.920 -12.027L47.814 -12.299L47.708 -12.572L47.602 -12.844L47.496 -13.117L47.390 -13.389L47.284 -13.662L47.178 -13.934L47.073 -14.207L46.967 -14.479L46.861 -14.752L46.755 -15.024L46.649 -15.297L46.543 -15.569L46.437 -15.842L46.331 -16.114L46.225 -16.387L46.119 -16.659L46.013 -16.932L45.907 -17.204L45.695 -17.749L45.589 -18.022L45.377 -18.567L45.271 -18.839L45.165 -19.112L45.059 -19.384L44.953 -19.657L44.847 -19.929L44.741 -20.202L44.635 -20.474L44.529 -20.747L44.423 -21.019L44.317 -21.292L44.211 -21.564L44.105 -21.837L43.999 -22.109L43.893 -22.382L43.681 -22.927L43.575 -23.199L43.364 -23.744L43.258 -24.017L43.046 -24.562L42.940 -24.834L42.834 -25.107L42.728 -25.379L42.622 -25.652L42.516 -25.924L42.410 -26.197L42.304 -26.469L42.198 -26.742L42.092 -27.014L41.986 -27.287L41.880 -27.559L41.774 -27.832L41.668 -28.104L41.562 -28.377L41.350 -28.922L41.244 -29.194L41.138 -29.467L41.136 -29.471L41.135 -29.475L41.105 -29.550L41.128 -29.574ZM72.082 -65.476L71.874 -65.269L71.666 -65.061L71.459 -64.854L71.251 -64.646L71.043 -64.438L70.836 -64.231L70.628 -64.023L70.421 -63.815L70.213 -63.608L69.798 -63.193L69.590 -62.985L69.382 -62.777L69.175 -62.570L68.967 -62.362L68.760 -62.154L68.552 -61.947L68.344 -61.739L68.137 -61.532L67.929 -61.324L67.514 -60.909L67.099 -60.493L66.683 -60.078L66.476 -59.871L66.268 -59.663L66.060 -59.455L65.853 -59.248L65.645 -59.040L65.438 -58.832L65.230 -58.625L65.022 -58.417L64.815 -58.210L64.399 -57.794L64.192 -57.587L63.984 -57.379L63.777 -57.171L63.569 -56.964L63.361 -56.756L63.154 -56.548L62.946 -56.341L62.738 -56.133L62.531 -55.926L62.115 -55.510L61.908 -55.303L61.700 -55.095L61.493 -54.887L61.285 -54.680L61.077 -54.472L60.870 -54.265L60.662 -54.057L60.454 -53.849L60.247 -53.642L59.832 -53.226L59.624 -53.019L59.416 -52.811L59.209 -52.604L59.001 -52.396L58.793 -52.188L58.586 -51.981L58.378 -51.773L58.171 -51.565L57.963 -51.358L57.755 -51.150L57.548 -50.943L57.340 -50.735L57.132 -50.527L56.717 -50.112L56.510 -49.904L56.302 -49.697L56.094 -49.489L55.887 -49.282L55.679 -49.074L55.471 -48.866L55.264 -48.659L55.056 -48.451L54.849 -48.243L54.433 -47.828L54.226 -47.621L54.018 -47.413L53.810 -47.205L53.603 -46.998L53.395 -46.790L53.188 -46.582L52.980 -46.375L52.772 -46.167L52.565 -45.960L52.149 -45.544L51.942 -45.337L51.734 -45.129L51.527 -44.921L51.319 -44.714L51.111 -44.506L50.904 -44.298L50.696 -44.091L50.488 -43.883L50.281 -43.676L49.865 -43.260L49.658 -43.053L49.450 -42.845L49.243 -42.637L49.035 -42.430L48.827 -42.222L48.620 -42.015L48.412 -41.807L48.204 -41.599L47.997 -41.392L47.582 -40.976L47.374 -40.769L47.166 -40.561L46.959 -40.354L46.751 -40.146L46.543 -39.938L46.336 -39.731L46.128 -39.523L45.921 -39.315L45.713 -39.108L45.505 -38.900L45.298 -38.693L44.882 -38.277L44.675 -38.070L44.467 -37.862L44.260 -37.654L44.052 -37.447L43.844 -37.239L43.637 -37.032L43.429 -36.824L43.221 -36.616L43.014 -36.409L42.599 -35.993L42.391 -35.786L42.183 -35.578L41.976 -35.371L41.768 -35.163L41.560 -34.955L41.353 -34.748L41.145 -34.540L40.938 -34.332L40.730 -34.125L40.522 -33.917L40.315 -33.710L39.899 -33.294L39.692 -33.087L39.484 -32.879L39.277 -32.671L39.069 -32.464L38.861 -32.256L38.654 -32.048L38.630 -32.025L38.606 -32.035L38.594 -32.040L38.306 -32.152L38.034 -32.258L37.761 -32.364L37.489 -32.470L37.216 -32.576L36.944 -32.682L36.671 -32.788L36.399 -32.894L36.126 -33.000L35.854 -33.105L35.581 -33.211L35.309 -33.317L34.764 -33.529L34.491 -33.635L34.219 -33.741L33.946 -33.847L33.674 -33.953L33.401 -34.059L33.129 -34.165L32.856 -34.271L32.584 -34.377L32.311 -34.483L32.039 -34.589L31.766 -34.695L31.494 -34.801L31.221 -34.907L30.949 -35.013L30.676 -35.119L30.404 -35.225L30.131 -35.331L29.859 -35.437L29.586 -35.543L29.314 -35.649L29.041 -35.755L28.769 -35.861L28.496 -35.967L28.224 -36.073L27.951 -36.179L27.679 -36.285L27.134 -36.497L26.861 -36.602L26.589 -36.708L26.316 -36.814L26.044 -36.920L25.771 -37.026L25.499 -37.132L25.226 -37.238L24.954 -37.344L24.681 -37.450L24.409 -37.556L24.136 -37.662L23.864 -37.768L23.591 -37.874L23.319 -37.980L23.046 -38.086L22.774 -38.192L22.229 -38.404L21.956 -38.510L21.684 -38.616L21.411 -38.722L21.139 -38.828L20.866 -38.934L20.594 -39.040L20.321 -39.146L20.049 -39.252L19.776 -39.358L19.504 -39.464L19.231 -39.570L18.959 -39.676L18.686 -39.782L18.414 -39.888L18.141 -39.994L17.869 -40.099L17.596 -40.205L17.324 -40.311L17.051 -40.417L16.779 -40.523L16.506 -40.629L16.234 -40.735L15.961 -40.841L15.689 -40.947L15.416 -41.053L15.144 -41.159L14.856 -41.271L14.413 -41.444L14.008 -41.602L13.642 -41.749L13.316 -41.883L13.030 -42.005L12.785 -42.115L12.585 -42.213L12.547 -42.234L12.693 -42.308L12.918 -42.413L13.186 -42.531L13.495 -42.660L13.844 -42.801L14.231 -42.955L14.658 -43.122L15.024 -43.265L15.841 -43.584L16.114 -43.690L16.386 -43.796L16.931 -44.009L17.203 -44.115L17.475 -44.221L17.748 -44.328L18.020 -44.434L18.293 -44.540L18.565 -44.647L18.837 -44.753L19.110 -44.859L19.382 -44.965L19.654 -45.072L19.927 -45.178L20.199 -45.284L20.472 -45.391L20.744 -45.497L21.016 -45.603L21.289 -45.709L21.561 -45.816L21.833 -45.922L22.106 -46.028L22.378 -46.135L22.651 -46.241L22.923 -46.347L23.195 -46.453L23.468 -46.560L23.740 -46.666L26.191 -47.623L26.464 -47.729L28.915 -48.686L29.188 -48.792L29.460 -48.898L29.732 -49.004L30.005 -49.111L30.277 -49.217L32.728 -50.174L33.001 -50.280L36.814 -51.768L37.086 -51.874L38.721 -52.512L38.993 -52.618L39.265 -52.725L39.538 -52.831L39.810 -52.937L40.082 -53.044L40.355 -53.150L40.627 -53.256L40.900 -53.362L41.444 -53.575L41.717 -53.681L41.989 -53.788L42.261 -53.894L42.534 -54.000L42.806 -54.106L43.079 -54.213L43.351 -54.319L43.896 -54.532L44.168 -54.638L44.440 -54.744L46.892 -55.701L47.164 -55.807L47.436 -55.913L47.709 -56.020L50.160 -56.976L50.433 -57.083L50.705 -57.189L50.977 -57.295L53.429 -58.252L53.701 -58.358L56.697 -59.527L56.970 -59.634L57.242 -59.740L57.514 -59.846L59.421 -60.590L59.693 -60.697L59.966 -60.803L60.238 -60.909L60.510 -61.015L60.783 -61.122L61.055 -61.228L61.328 -61.334L61.600 -61.441L61.872 -61.547L62.145 -61.653L62.417 -61.759L62.689 -61.866L62.962 -61.972L63.234 -62.078L63.506 -62.185L63.779 -62.291L64.051 -62.397L64.324 -62.503L64.596 -62.610L64.868 -62.716L65.141 -62.822L66.775 -63.460L67.047 -63.566L67.320 -63.673L67.592 -63.779L70.861 -65.054L71.133 -65.161L71.405 -65.267L71.678 -65.373L72.171 -65.566L72.082 -65.476Z"/>
  </g>
  <g id="Ultralight-S" transform="matrix(1 0 0 1 515.423 696)">
   <path class="monochrome-0 multicolor-0:tintColor hierarchical-0:primary SFSymbolsPreviewWireframe" fill-rule="evenodd" d="M37.982 -27.926L38.088 -27.653L38.300 -27.108L38.406 -26.836L38.512 -26.563L38.618 -26.291L38.724 -26.018L38.830 -25.746L38.936 -25.473L39.042 -25.201L39.148 -24.928L39.254 -24.656L39.360 -24.383L39.466 -24.111L39.572 -23.838L39.678 -23.566L39.784 -23.293L39.996 -22.748L40.102 -22.476L40.313 -21.931L40.419 -21.658L40.631 -21.113L40.737 -20.841L40.843 -20.568L40.949 -20.296L41.055 -20.023L41.161 -19.751L41.267 -19.478L41.373 -19.206L41.479 -18.933L41.585 -18.661L41.691 -18.388L41.797 -18.116L41.903 -17.843L42.009 -17.571L42.115 -17.298L42.327 -16.753L42.433 -16.481L42.645 -15.936L42.751 -15.663L42.857 -15.391L42.963 -15.118L43.069 -14.846L43.175 -14.573L43.281 -14.301L43.387 -14.028L43.493 -13.756L43.599 -13.483L43.705 -13.211L43.811 -12.938L43.916 -12.666L44.022 -12.393L44.128 -12.121L44.234 -11.848L44.340 -11.576L44.446 -11.303L44.552 -11.031L44.658 -10.758L44.764 -10.486L44.870 -10.213L44.976 -9.941L45.082 -9.668L45.188 -9.396L45.294 -9.123L45.506 -8.578L45.612 -8.306L45.824 -7.761L45.930 -7.488L46.036 -7.216L46.142 -6.943L46.248 -6.671L46.354 -6.398L46.460 -6.126L46.566 -5.853L46.672 -5.581L46.778 -5.308L46.884 -5.036L46.990 -4.763L47.110 -4.453L47.283 -4.011L47.285 -4.006L47.445 -3.598L47.449 -3.588L47.599 -3.213L47.605 -3.197L47.747 -2.854L47.757 -2.830L47.891 -2.519L47.906 -2.484L48.034 -2.204L48.056 -2.157L48.179 -1.906L48.212 -1.843L48.332 -1.623L48.379 -1.541L48.498 -1.348L48.567 -1.245L48.685 -1.080L48.785 -0.954L48.905 -0.816L49.047 -0.670L49.169 -0.559L49.264 -0.478L49.364 -0.405L49.491 -0.319L49.618 -0.240L49.752 -0.172L49.990 -0.064L50.119 -0.012L50.252 0.031L50.534 0.107L50.676 0.140L50.820 0.160L51.108 0.189L51.253 0.198L51.398 0.194L51.687 0.175L51.831 0.160L51.974 0.132L52.258 0.065L52.398 0.026L52.535 -0.025L52.803 -0.138L52.934 -0.200L53.060 -0.273L53.188 -0.353L53.294 -0.426L53.394 -0.506L53.517 -0.612L53.670 -0.761L53.790 -0.893L53.897 -1.024L54.016 -1.183L54.091 -1.291L54.209 -1.477L54.260 -1.563L54.380 -1.778L54.416 -1.844L54.538 -2.089L54.563 -2.139L54.690 -2.413L54.706 -2.450L54.839 -2.754L54.850 -2.781L54.990 -3.117L54.998 -3.135L55.146 -3.503L55.151 -3.514L55.309 -3.915L55.312 -3.921L55.482 -4.355L55.618 -4.704L55.724 -4.976L55.830 -5.248L55.937 -5.521L56.043 -5.793L56.149 -6.065L56.255 -6.338L56.362 -6.610L56.468 -6.883L56.574 -7.155L56.681 -7.427L56.787 -7.700L56.893 -7.972L56.999 -8.244L57.106 -8.517L57.212 -8.789L57.318 -9.062L57.425 -9.334L57.531 -9.606L57.637 -9.879L57.743 -10.151L57.850 -10.423L57.956 -10.696L58.062 -10.968L58.169 -11.240L58.275 -11.513L58.381 -11.785L58.488 -12.058L58.594 -12.330L58.700 -12.602L58.806 -12.875L58.913 -13.147L59.019 -13.419L59.125 -13.692L59.232 -13.964L59.338 -14.237L59.444 -14.509L59.550 -14.781L59.657 -15.054L59.763 -15.326L59.869 -15.598L59.976 -15.871L60.082 -16.143L60.188 -16.416L60.294 -16.688L60.401 -16.960L60.507 -17.233L60.613 -17.505L60.720 -17.777L60.826 -18.050L60.932 -18.322L61.039 -18.595L61.145 -18.867L61.251 -19.139L61.357 -19.412L61.464 -19.684L61.570 -19.956L61.676 -20.229L61.783 -20.501L61.889 -20.774L61.995 -21.046L62.101 -21.318L62.208 -21.591L62.314 -21.863L62.420 -22.135L62.527 -22.408L62.633 -22.680L62.739 -22.953L62.845 -23.225L62.952 -23.497L63.058 -23.770L63.164 -24.042L63.377 -24.587L63.483 -24.859L63.590 -25.131L63.696 -25.404L63.802 -25.676L63.908 -25.949L64.015 -26.221L64.121 -26.493L64.227 -26.766L64.334 -27.038L64.440 -27.310L64.546 -27.583L64.652 -27.855L64.759 -28.128L64.865 -28.400L64.971 -28.672L65.078 -28.945L65.184 -29.217L65.290 -29.489L65.396 -29.762L65.503 -30.034L65.609 -30.307L65.715 -30.579L65.822 -30.851L65.928 -31.124L66.034 -31.396L66.141 -31.668L66.247 -31.941L66.353 -32.213L66.459 -32.486L66.566 -32.758L66.672 -33.030L66.778 -33.303L66.885 -33.575L66.991 -33.847L67.097 -34.120L67.203 -34.392L67.310 -34.665L67.416 -34.937L67.522 -35.209L67.629 -35.482L67.735 -35.754L67.841 -36.026L67.947 -36.299L68.054 -36.571L68.160 -36.844L68.266 -37.116L68.373 -37.388L68.479 -37.661L68.585 -37.933L68.691 -38.205L68.798 -38.478L68.904 -38.750L69.010 -39.023L69.117 -39.295L69.223 -39.567L69.329 -39.840L69.436 -40.112L69.542 -40.384L69.648 -40.657L69.754 -40.929L69.861 -41.201L69.967 -41.474L70.073 -41.746L70.180 -42.019L70.286 -42.291L70.392 -42.563L70.498 -42.836L70.605 -43.108L70.711 -43.380L70.817 -43.653L70.924 -43.925L71.030 -44.198L71.136 -44.470L71.242 -44.742L71.349 -45.015L71.455 -45.287L71.561 -45.559L71.668 -45.832L71.774 -46.104L71.880 -46.377L71.987 -46.649L72.093 -46.921L72.199 -47.194L72.305 -47.466L72.412 -47.738L72.624 -48.283L72.731 -48.556L72.837 -48.828L72.943 -49.100L73.049 -49.373L73.156 -49.645L73.262 -49.917L73.368 -50.190L73.475 -50.462L73.581 -50.735L73.687 -51.007L73.793 -51.279L73.900 -51.552L74.006 -51.824L74.112 -52.096L74.219 -52.369L74.325 -52.641L74.431 -52.914L74.538 -53.186L74.644 -53.458L74.750 -53.731L74.856 -54.003L74.963 -54.275L75.069 -54.548L75.175 -54.820L75.282 -55.092L75.388 -55.365L75.494 -55.637L75.600 -55.910L75.707 -56.182L75.813 -56.454L75.919 -56.727L76.026 -56.999L76.132 -57.271L76.238 -57.544L76.344 -57.816L76.451 -58.089L76.557 -58.361L76.663 -58.633L76.770 -58.906L76.876 -59.178L76.982 -59.450L77.089 -59.723L77.195 -59.995L77.301 -60.268L77.407 -60.540L77.514 -60.812L77.620 -61.085L77.726 -61.357L77.833 -61.629L77.939 -61.902L78.045 -62.174L78.151 -62.447L78.258 -62.719L78.364 -62.991L78.470 -63.264L78.577 -63.536L78.724 -63.913L78.725 -63.916L78.888 -64.336L78.891 -64.345L79.039 -64.731L79.045 -64.747L79.176 -65.100L79.185 -65.126L79.299 -65.449L79.312 -65.487L79.409 -65.781L79.425 -65.836L79.504 -66.103L79.524 -66.180L79.583 -66.423L79.605 -66.527L79.645 -66.748L79.664 -66.889L79.684 -67.088L79.692 -67.272L79.690 -67.453L79.686 -67.568L79.673 -67.682L79.650 -67.846L79.624 -67.991L79.585 -68.132L79.524 -68.326L79.478 -68.453L79.423 -68.576L79.292 -68.839L79.221 -68.967L79.140 -69.088L78.969 -69.323L78.879 -69.437L78.780 -69.543L78.573 -69.746L78.465 -69.843L78.350 -69.931L78.111 -70.097L77.988 -70.176L77.859 -70.244L77.593 -70.370L77.467 -70.424L77.338 -70.467L77.158 -70.520L77.020 -70.555L76.879 -70.578L76.713 -70.599L76.489 -70.612L76.306 -70.611L76.128 -70.601L75.926 -70.579L75.790 -70.559L75.566 -70.517L75.466 -70.495L75.220 -70.434L75.146 -70.413L74.875 -70.333L74.823 -70.317L74.525 -70.218L74.489 -70.206L74.162 -70.089L74.138 -70.081L73.781 -69.948L73.766 -69.942L73.376 -69.793L73.368 -69.789L72.944 -69.625L72.942 -69.624L72.584 -69.484L70.405 -68.634L70.133 -68.528L69.861 -68.421L69.588 -68.315L66.320 -67.039L66.047 -66.933L65.775 -66.827L65.503 -66.721L63.868 -66.083L63.596 -65.977L63.324 -65.870L63.051 -65.764L62.779 -65.658L62.506 -65.551L62.234 -65.445L61.962 -65.339L61.689 -65.233L61.417 -65.126L61.145 -65.020L60.872 -64.914L60.600 -64.807L60.327 -64.701L60.055 -64.595L59.783 -64.488L59.510 -64.382L59.238 -64.276L58.966 -64.170L58.693 -64.063L58.421 -63.957L58.148 -63.851L56.242 -63.107L55.970 -63.000L55.697 -62.894L55.425 -62.788L52.429 -61.619L52.156 -61.512L49.705 -60.556L49.433 -60.449L49.160 -60.343L48.888 -60.237L46.436 -59.280L46.164 -59.174L45.892 -59.068L45.619 -58.961L43.168 -58.005L42.896 -57.898L42.623 -57.792L42.079 -57.580L41.806 -57.473L41.534 -57.367L41.261 -57.261L40.989 -57.154L40.717 -57.048L40.444 -56.942L40.172 -56.836L39.627 -56.623L39.355 -56.517L39.082 -56.410L38.810 -56.304L38.538 -56.198L38.265 -56.091L37.993 -55.985L37.721 -55.879L37.448 -55.773L35.814 -55.135L35.542 -55.029L31.728 -53.540L31.456 -53.434L29.005 -52.478L28.732 -52.371L28.460 -52.265L28.187 -52.159L27.915 -52.052L27.643 -51.946L25.191 -50.989L24.919 -50.883L22.468 -49.927L22.195 -49.820L21.923 -49.714L21.651 -49.608L21.378 -49.501L21.106 -49.395L20.833 -49.289L20.561 -49.183L20.289 -49.076L20.016 -48.970L19.744 -48.864L19.472 -48.757L19.199 -48.651L18.927 -48.545L18.654 -48.438L18.382 -48.332L18.110 -48.226L17.837 -48.120L17.565 -48.013L17.293 -47.907L17.020 -47.801L16.748 -47.694L16.475 -47.588L16.203 -47.482L15.931 -47.376L15.658 -47.269L15.114 -47.057L14.841 -46.950L14.569 -46.844L13.752 -46.525L13.384 -46.382L13.382 -46.381L12.952 -46.212L12.945 -46.210L12.548 -46.053L12.536 -46.048L12.172 -45.900L12.153 -45.892L11.821 -45.753L11.793 -45.742L11.492 -45.610L11.454 -45.592L11.184 -45.466L11.132 -45.440L10.891 -45.318L10.823 -45.281L10.611 -45.161L10.523 -45.108L10.339 -44.989L10.229 -44.912L10.073 -44.793L9.940 -44.681L9.810 -44.560L9.661 -44.402L9.557 -44.278L9.474 -44.171L9.400 -44.057L9.316 -43.917L9.249 -43.794L9.192 -43.666L9.082 -43.392L9.034 -43.254L8.997 -43.112L8.936 -42.828L8.911 -42.684L8.898 -42.540L8.885 -42.250L8.884 -42.106L8.895 -41.961L8.930 -41.673L8.953 -41.529L8.988 -41.388L9.071 -41.108L9.115 -40.978L9.168 -40.852L9.273 -40.631L9.344 -40.497L9.425 -40.370L9.514 -40.244L9.588 -40.147L9.668 -40.056L9.783 -39.934L9.927 -39.797L10.068 -39.678L10.191 -39.582L10.359 -39.464L10.460 -39.398L10.656 -39.279L10.735 -39.234L10.960 -39.113L11.020 -39.082L11.274 -38.958L11.320 -38.937L11.603 -38.809L11.637 -38.794L11.951 -38.659L11.975 -38.650L12.321 -38.507L12.337 -38.501L12.715 -38.350L12.725 -38.346L13.136 -38.185L13.141 -38.183L13.586 -38.009L13.875 -37.897L14.148 -37.791L14.420 -37.685L14.693 -37.579L14.965 -37.473L15.238 -37.367L15.510 -37.261L15.783 -37.155L16.055 -37.049L16.328 -36.943L16.600 -36.837L16.873 -36.731L17.145 -36.626L17.418 -36.520L17.690 -36.414L17.963 -36.308L18.235 -36.202L18.508 -36.096L18.780 -35.990L19.053 -35.884L19.325 -35.778L19.598 -35.672L19.870 -35.566L20.143 -35.460L20.415 -35.354L20.688 -35.248L20.960 -35.142L21.505 -34.930L21.778 -34.824L22.050 -34.718L22.323 -34.612L22.595 -34.506L22.868 -34.400L23.140 -34.294L23.413 -34.188L23.685 -34.082L23.958 -33.976L24.230 -33.870L24.503 -33.764L24.775 -33.658L25.048 -33.552L25.320 -33.446L25.593 -33.340L25.865 -33.234L26.410 -33.023L26.683 -32.917L26.955 -32.811L27.228 -32.705L27.500 -32.599L27.773 -32.493L28.045 -32.387L28.318 -32.281L28.590 -32.175L28.863 -32.069L29.135 -31.963L29.408 -31.857L29.680 -31.751L29.953 -31.645L30.225 -31.539L30.498 -31.433L30.770 -31.327L31.043 -31.221L31.315 -31.115L31.588 -31.009L31.860 -30.903L32.133 -30.797L32.405 -30.691L32.678 -30.585L32.950 -30.479L33.223 -30.373L33.495 -30.267L34.040 -30.055L34.313 -29.949L34.585 -29.843L34.858 -29.737L35.130 -29.632L35.403 -29.526L35.675 -29.420L35.948 -29.314L36.220 -29.208L36.493 -29.102L36.765 -28.996L37.038 -28.890L37.320 -28.780L37.613 -28.663L37.703 -28.623L37.754 -28.508L37.878 -28.194L37.982 -27.926ZM41.128 -29.574L41.336 -29.781L41.544 -29.989L41.751 -30.197L41.959 -30.404L42.167 -30.612L42.374 -30.819L42.790 -31.235L42.997 -31.442L43.205 -31.650L43.412 -31.858L43.620 -32.065L43.828 -32.273L44.035 -32.480L44.243 -32.688L44.451 -32.896L44.658 -33.103L44.866 -33.311L45.073 -33.519L45.489 -33.934L45.696 -34.141L45.904 -34.349L46.112 -34.557L46.319 -34.764L46.527 -34.972L46.734 -35.180L46.942 -35.387L47.150 -35.595L47.357 -35.802L47.773 -36.218L47.980 -36.425L48.188 -36.633L48.395 -36.841L48.603 -37.048L48.811 -37.256L49.018 -37.463L49.226 -37.671L49.434 -37.879L49.641 -38.086L49.849 -38.294L50.056 -38.502L50.472 -38.917L50.679 -39.124L50.887 -39.332L51.095 -39.540L51.302 -39.747L51.510 -39.955L51.717 -40.163L51.925 -40.370L52.133 -40.578L52.340 -40.785L52.756 -41.201L52.963 -41.408L53.171 -41.616L53.378 -41.824L53.586 -42.031L53.794 -42.239L54.001 -42.447L54.209 -42.654L54.417 -42.862L54.624 -43.069L55.040 -43.485L55.247 -43.692L55.455 -43.900L55.662 -44.108L55.870 -44.315L56.078 -44.523L56.285 -44.730L56.493 -44.938L56.701 -45.146L56.908 -45.353L57.323 -45.769L57.531 -45.976L57.739 -46.184L57.946 -46.391L58.154 -46.599L58.362 -46.807L58.569 -47.014L58.777 -47.222L58.984 -47.430L59.192 -47.637L59.607 -48.052L59.815 -48.260L60.023 -48.468L60.230 -48.675L60.438 -48.883L60.645 -49.091L60.853 -49.298L61.061 -49.506L61.268 -49.713L61.476 -49.921L61.684 -50.129L61.891 -50.336L62.099 -50.544L62.306 -50.752L62.722 -51.167L62.929 -51.374L63.137 -51.582L63.345 -51.790L63.552 -51.997L63.760 -52.205L63.967 -52.413L64.175 -52.620L64.383 -52.828L64.590 -53.035L65.006 -53.451L65.213 -53.658L65.421 -53.866L65.628 -54.074L65.836 -54.281L66.044 -54.489L66.251 -54.697L66.459 -54.904L66.667 -55.112L66.874 -55.319L67.290 -55.735L67.497 -55.942L67.705 -56.150L67.912 -56.358L68.120 -56.565L68.328 -56.773L68.535 -56.980L68.743 -57.188L68.951 -57.396L69.158 -57.603L69.573 -58.019L69.989 -58.434L70.404 -58.849L70.612 -59.057L70.819 -59.264L71.027 -59.472L71.234 -59.680L71.442 -59.887L71.650 -60.095L71.857 -60.302L72.065 -60.510L72.273 -60.718L72.688 -61.133L72.895 -61.341L73.103 -61.548L73.311 -61.756L73.518 -61.963L73.726 -62.171L73.934 -62.379L74.141 -62.586L74.349 -62.794L74.556 -63.002L74.646 -63.091L74.572 -62.902L74.466 -62.629L74.359 -62.357L74.253 -62.085L74.147 -61.812L74.041 -61.540L73.934 -61.268L73.828 -60.995L73.722 -60.723L73.615 -60.450L73.509 -60.178L73.403 -59.906L73.297 -59.633L73.190 -59.361L73.084 -59.089L72.978 -58.816L72.871 -58.544L72.765 -58.271L72.659 -57.999L72.553 -57.727L72.446 -57.454L72.340 -57.182L72.234 -56.910L72.127 -56.637L72.021 -56.365L71.915 -56.093L71.808 -55.820L71.702 -55.548L71.596 -55.275L71.490 -55.003L71.383 -54.731L71.277 -54.458L71.171 -54.186L71.064 -53.914L70.958 -53.641L70.852 -53.369L70.746 -53.096L70.639 -52.824L70.533 -52.552L70.427 -52.279L70.320 -52.007L70.214 -51.735L70.108 -51.462L70.002 -51.190L69.895 -50.917L69.789 -50.645L69.683 -50.373L69.576 -50.100L69.470 -49.828L69.364 -49.556L69.151 -49.011L69.045 -48.738L68.939 -48.466L68.832 -48.194L68.726 -47.921L68.620 -47.649L68.513 -47.377L68.407 -47.104L68.301 -46.832L68.195 -46.559L68.088 -46.287L67.982 -46.015L67.876 -45.742L67.769 -45.470L67.663 -45.198L67.557 -44.925L67.451 -44.653L67.344 -44.380L67.238 -44.108L67.132 -43.836L67.025 -43.563L66.919 -43.291L66.813 -43.019L66.706 -42.746L66.600 -42.474L66.494 -42.202L66.388 -41.929L66.281 -41.657L66.175 -41.384L66.069 -41.112L65.962 -40.840L65.856 -40.567L65.750 -40.295L65.644 -40.023L65.537 -39.750L65.431 -39.478L65.325 -39.205L65.218 -38.933L65.112 -38.661L65.006 -38.388L64.900 -38.116L64.793 -37.844L64.687 -37.571L64.581 -37.299L64.474 -37.026L64.368 -36.754L64.262 -36.482L64.155 -36.209L64.049 -35.937L63.943 -35.665L63.837 -35.392L63.730 -35.120L63.624 -34.847L63.518 -34.575L63.411 -34.303L63.305 -34.030L63.199 -33.758L63.093 -33.486L62.986 -33.213L62.880 -32.941L62.774 -32.668L62.667 -32.396L62.561 -32.124L62.455 -31.851L62.349 -31.579L62.242 -31.307L62.136 -31.034L62.030 -30.762L61.923 -30.489L61.817 -30.217L61.711 -29.945L61.604 -29.672L61.498 -29.400L61.392 -29.128L61.286 -28.855L61.179 -28.583L61.073 -28.310L60.967 -28.038L60.860 -27.766L60.754 -27.493L60.648 -27.221L60.542 -26.949L60.435 -26.676L60.329 -26.404L60.223 -26.132L60.116 -25.859L59.904 -25.314L59.798 -25.042L59.691 -24.770L59.585 -24.497L59.479 -24.225L59.372 -23.953L59.266 -23.680L59.160 -23.408L59.053 -23.135L58.947 -22.863L58.841 -22.591L58.735 -22.318L58.628 -22.046L58.522 -21.774L58.416 -21.501L58.309 -21.229L58.203 -20.956L58.097 -20.684L57.991 -20.412L57.884 -20.139L57.778 -19.867L57.672 -19.595L57.565 -19.322L57.459 -19.050L57.353 -18.777L57.247 -18.505L57.140 -18.233L57.034 -17.960L56.928 -17.688L56.821 -17.416L56.715 -17.143L56.609 -16.871L56.502 -16.598L56.396 -16.326L56.290 -16.054L56.184 -15.781L56.077 -15.509L55.971 -15.237L55.865 -14.964L55.758 -14.692L55.652 -14.419L55.546 -14.147L55.440 -13.875L55.333 -13.602L55.227 -13.330L55.121 -13.058L55.014 -12.785L54.908 -12.513L54.802 -12.241L54.696 -11.968L54.589 -11.696L54.483 -11.423L54.377 -11.151L54.270 -10.879L54.164 -10.606L54.058 -10.334L53.952 -10.062L53.845 -9.789L53.739 -9.517L53.633 -9.244L53.526 -8.972L53.420 -8.700L53.314 -8.427L53.207 -8.155L53.101 -7.883L52.995 -7.610L52.889 -7.338L52.782 -7.065L52.676 -6.793L52.570 -6.521L52.463 -6.248L52.357 -5.976L52.222 -5.630L52.054 -5.199L51.898 -4.807L51.756 -4.454L51.625 -4.140L51.506 -3.867L51.399 -3.637L51.314 -3.466L51.304 -3.484L51.208 -3.680L51.099 -3.919L50.978 -4.200L50.845 -4.522L50.700 -4.883L50.543 -5.284L50.372 -5.722L50.252 -6.032L50.146 -6.305L50.040 -6.577L49.934 -6.850L49.828 -7.122L49.722 -7.395L49.616 -7.667L49.510 -7.940L49.404 -8.212L49.298 -8.485L49.192 -8.757L49.086 -9.030L48.874 -9.575L48.768 -9.847L48.556 -10.392L48.450 -10.664L48.344 -10.937L48.238 -11.209L48.132 -11.482L48.026 -11.754L47.920 -12.027L47.814 -12.299L47.708 -12.572L47.602 -12.844L47.496 -13.117L47.390 -13.389L47.284 -13.662L47.178 -13.934L47.073 -14.207L46.967 -14.479L46.861 -14.752L46.755 -15.024L46.649 -15.297L46.543 -15.569L46.437 -15.842L46.331 -16.114L46.225 -16.387L46.119 -16.659L46.013 -16.932L45.907 -17.204L45.695 -17.749L45.589 -18.022L45.377 -18.567L45.271 -18.839L45.165 -19.112L45.059 -19.384L44.953 -19.657L44.847 -19.929L44.741 -20.202L44.635 -20.474L44.529 -20.747L44.423 -21.019L44.317 -21.292L44.211 -21.564L44.105 -21.837L43.999 -22.109L43.893 -22.382L43.681 -22.927L43.575 -23.199L43.364 -23.744L43.258 -24.017L43.046 -24.562L42.940 -24.834L42.834 -25.107L42.728 -25.379L42.622 -25.652L42.516 -25.924L42.410 -26.197L42.304 -26.469L42.198 -26.742L42.092 -27.014L41.986 -27.287L41.880 -27.559L41.774 -27.832L41.668 -28.104L41.562 -28.377L41.350 -28.922L41.244 -29.194L41.138 -29.467L41.136 -29.471L41.135 -29.475L41.105 -29.550L41.128 -29.574ZM72.082 -65.476L71.874 -65.269L71.666 -65.061L71.459 -64.854L71.251 -64.646L71.043 -64.438L70.836 -64.231L70.628 -64.023L70.421 -63.815L70.213 -63.608L69.798 -63.193L69.590 -62.985L69.382 -62.777L69.175 -62.570L68.967 -62.362L68.760 -62.154L68.552 -61.947L68.344 -61.739L68.137 -61.532L67.929 -61.324L67.514 -60.909L67.099 -60.493L66.683 -60.078L66.476 -59.871L66.268 -59.663L66.060 -59.455L65.853 -59.248L65.645 -59.040L65.438 -58.832L65.230 -58.625L65.022 -58.417L64.815 -58.210L64.399 -57.794L64.192 -57.587L63.984 -57.379L63.777 -57.171L63.569 -56.964L63.361 -56.756L63.154 -56.548L62.946 -56.341L62.738 -56.133L62.531 -55.926L62.115 -55.510L61.908 -55.303L61.700 -55.095L61.493 -54.887L61.285 -54.680L61.077 -54.472L60.870 -54.265L60.662 -54.057L60.454 -53.849L60.247 -53.642L59.832 -53.226L59.624 -53.019L59.416 -52.811L59.209 -52.604L59.001 -52.396L58.793 -52.188L58.586 -51.981L58.378 -51.773L58.171 -51.565L57.963 -51.358L57.755 -51.150L57.548 -50.943L57.340 -50.735L57.132 -50.527L56.717 -50.112L56.510 -49.904L56.302 -49.697L56.094 -49.489L55.887 -49.282L55.679 -49.074L55.471 -48.866L55.264 -48.659L55.056 -48.451L54.849 -48.243L54.433 -47.828L54.226 -47.621L54.018 -47.413L53.810 -47.205L53.603 -46.998L53.395 -46.790L53.188 -46.582L52.980 -46.375L52.772 -46.167L52.565 -45.960L52.149 -45.544L51.942 -45.337L51.734 -45.129L51.527 -44.921L51.319 -44.714L51.111 -44.506L50.904 -44.298L50.696 -44.091L50.488 -43.883L50.281 -43.676L49.865 -43.260L49.658 -43.053L49.450 -42.845L49.243 -42.637L49.035 -42.430L48.827 -42.222L48.620 -42.015L48.412 -41.807L48.204 -41.599L47.997 -41.392L47.582 -40.976L47.374 -40.769L47.166 -40.561L46.959 -40.354L46.751 -40.146L46.543 -39.938L46.336 -39.731L46.128 -39.523L45.921 -39.315L45.713 -39.108L45.505 -38.900L45.298 -38.693L44.882 -38.277L44.675 -38.070L44.467 -37.862L44.260 -37.654L44.052 -37.447L43.844 -37.239L43.637 -37.032L43.429 -36.824L43.221 -36.616L43.014 -36.409L42.599 -35.993L42.391 -35.786L42.183 -35.578L41.976 -35.371L41.768 -35.163L41.560 -34.955L41.353 -34.748L41.145 -34.540L40.938 -34.332L40.730 -34.125L40.522 -33.917L40.315 -33.710L39.899 -33.294L39.692 -33.087L39.484 -32.879L39.277 -32.671L39.069 -32.464L38.861 -32.256L38.654 -32.048L38.630 -32.025L38.606 -32.035L38.594 -32.040L38.306 -32.152L38.034 -32.258L37.761 -32.364L37.489 -32.470L37.216 -32.576L36.944 -32.682L36.671 -32.788L36.399 -32.894L36.126 -33.000L35.854 -33.105L35.581 -33.211L35.309 -33.317L34.764 -33.529L34.491 -33.635L34.219 -33.741L33.946 -33.847L33.674 -33.953L33.401 -34.059L33.129 -34.165L32.856 -34.271L32.584 -34.377L32.311 -34.483L32.039 -34.589L31.766 -34.695L31.494 -34.801L31.221 -34.907L30.949 -35.013L30.676 -35.119L30.404 -35.225L30.131 -35.331L29.859 -35.437L29.586 -35.543L29.314 -35.649L29.041 -35.755L28.769 -35.861L28.496 -35.967L28.224 -36.073L27.951 -36.179L27.679 -36.285L27.134 -36.497L26.861 -36.602L26.589 -36.708L26.316 -36.814L26.044 -36.920L25.771 -37.026L25.499 -37.132L25.226 -37.238L24.954 -37.344L24.681 -37.450L24.409 -37.556L24.136 -37.662L23.864 -37.768L23.591 -37.874L23.319 -37.980L23.046 -38.086L22.774 -38.192L22.229 -38.404L21.956 -38.510L21.684 -38.616L21.411 -38.722L21.139 -38.828L20.866 -38.934L20.594 -39.040L20.321 -39.146L20.049 -39.252L19.776 -39.358L19.504 -39.464L19.231 -39.570L18.959 -39.676L18.686 -39.782L18.414 -39.888L18.141 -39.994L17.869 -40.099L17.596 -40.205L17.324 -40.311L17.051 -40.417L16.779 -40.523L16.506 -40.629L16.234 -40.735L15.961 -40.841L15.689 -40.947L15.416 -41.053L15.144 -41.159L14.856 -41.271L14.413 -41.444L14.008 -41.602L13.642 -41.749L13.316 -41.883L13.030 -42.005L12.785 -42.115L12.585 -42.213L12.547 -42.234L12.693 -42.308L12.918 -42.413L13.186 -42.531L13.495 -42.660L13.844 -42.801L14.231 -42.955L14.658 -43.122L15.024 -43.265L15.841 -43.584L16.114 -43.690L16.386 -43.796L16.931 -44.009L17.203 -44.115L17.475 -44.221L17.748 -44.328L18.020 -44.434L18.293 -44.540L18.565 -44.647L18.837 -44.753L19.110 -44.859L19.382 -44.965L19.654 -45.072L19.927 -45.178L20.199 -45.284L20.472 -45.391L20.744 -45.497L21.016 -45.603L21.289 -45.709L21.561 -45.816L21.833 -45.922L22.106 -46.028L22.378 -46.135L22.651 -46.241L22.923 -46.347L23.195 -46.453L23.468 -46.560L23.740 -46.666L26.191 -47.623L26.464 -47.729L28.915 -48.686L29.188 -48.792L29.460 -48.898L29.732 -49.004L30.005 -49.111L30.277 -49.217L32.728 -50.174L33.001 -50.280L36.814 -51.768L37.086 -51.874L38.721 -52.512L38.993 -52.618L39.265 -52.725L39.538 -52.831L39.810 -52.937L40.082 -53.044L40.355 -53.150L40.627 -53.256L40.900 -53.362L41.444 -53.575L41.717 -53.681L41.989 -53.788L42.261 -53.894L42.534 -54.000L42.806 -54.106L43.079 -54.213L43.351 -54.319L43.896 -54.532L44.168 -54.638L44.440 -54.744L46.892 -55.701L47.164 -55.807L47.436 -55.913L47.709 -56.020L50.160 -56.976L50.433 -57.083L50.705 -57.189L50.977 -57.295L53.429 -58.252L53.701 -58.358L56.697 -59.527L56.970 -59.634L57.242 -59.740L57.514 -59.846L59.421 -60.590L59.693 -60.697L59.966 -60.803L60.238 -60.909L60.510 -61.015L60.783 -61.122L61.055 -61.228L61.328 -61.334L61.600 -61.441L61.872 -61.547L62.145 -61.653L62.417 -61.759L62.689 -61.866L62.962 -61.972L63.234 -62.078L63.506 -62.185L63.779 -62.291L64.051 -62.397L64.324 -62.503L64.596 -62.610L64.868 -62.716L65.141 -62.822L66.775 -63.460L67.047 -63.566L67.320 -63.673L67.592 -63.779L70.861 -65.054L71.133 -65.161L71.405 -65.267L71.678 -65.373L72.171 -65.566L72.082 -65.476Z"/>
  </g>
 </g>
</svg>
