<?xml version="1.0" encoding="UTF-8"?>
<!--Generator: Custom SF Symbol – Foxhunt-->
<!DOCTYPE svg
PUBLIC "-//W3C//DTD SVG 1.1//EN"
       "http://www.w3.org/Graphics/SVG/1.1/DTD/svg11.dtd">
<svg version="1.1" xmlns="http://www.w3.org/2000/svg" xmlns:xlink="http://www.w3.org/1999/xlink" viewBox="0 0 3300 2200">
 <!--glyph: "co.swellyo.trips", point size: 100.0, template writer version: "138.0.0"-->
 <style>.monochrome-0 {-sfsymbols-motion-group:0;-sfsymbols-layer-tags:-a1b2c3d4e5f60001}

.multicolor-0:tintColor {-sfsymbols-motion-group:0;-sfsymbols-layer-tags:-a1b2c3d4e5f60001}

.hierarchical-0:primary {-sfsymbols-motion-group:0;-sfsymbols-layer-tags:-a1b2c3d4e5f60001}

.SFSymbolsPreviewWireframe {fill:none;opacity:1.0;stroke:black;stroke-width:0.5}
</style>
 <g id="Notes">
  <rect height="2200" id="artboard" style="fill:white;opacity:1" width="3300" x="0" y="0"/>
  <line style="fill:none;stroke:black;opacity:1;stroke-width:0.5;" x1="263" x2="3036" y1="292" y2="292"/>
  <text style="stroke:none;fill:black;font-family:sans-serif;font-size:13;font-weight:bold;" transform="matrix(1 0 0 1 263 322)">Weight/Scale Variations</text>
  <text style="stroke:none;fill:black;font-family:sans-serif;font-size:13;text-anchor:middle;" transform="matrix(1 0 0 1 559.711 322)">Ultralight</text>
  <text style="stroke:none;fill:black;font-family:sans-serif;font-size:13;text-anchor:middle;" transform="matrix(1 0 0 1 1449.84 322)">Regular</text>
  <text style="stroke:none;fill:black;font-family:sans-serif;font-size:13;text-anchor:middle;" transform="matrix(1 0 0 1 2933.4 322)">Black</text>
  <line style="fill:none;stroke:black;opacity:1;stroke-width:0.5;" x1="263" x2="3036" y1="1903" y2="1903"/>
  <text id="template-version" style="stroke:none;fill:black;font-family:sans-serif;font-size:13;text-anchor:end;" transform="matrix(1 0 0 1 3036 1933)">Template v.6.0</text>
  <text style="stroke:none;fill:black;font-family:sans-serif;font-size:13;text-anchor:end;" transform="matrix(1 0 0 1 3036 1951)">Requires Xcode 16 or greater</text>
  <text id="descriptive-name" style="stroke:none;fill:black;font-family:sans-serif;font-size:13;text-anchor:end;" transform="matrix(1 0 0 1 3036 1969)">Generated from co.swellyo.trips</text>
  <text style="stroke:none;fill:black;font-family:sans-serif;font-size:13;text-anchor:end;" transform="matrix(1 0 0 1 3036 1987)">Typeset at 100.0 points</text>
  <text style="stroke:none;fill:black;font-family:sans-serif;font-size:13;" transform="matrix(1 0 0 1 263 726)">Small</text>
  <text style="stroke:none;fill:black;font-family:sans-serif;font-size:13;" transform="matrix(1 0 0 1 263 1156)">Medium</text>
  <text style="stroke:none;fill:black;font-family:sans-serif;font-size:13;" transform="matrix(1 0 0 1 263 1586)">Large</text>
 </g>
 <g id="Guides">
  <g id="H-reference" style="fill:#27AAE1;stroke:none;" transform="matrix(1 0 0 1 339 696)">
   <path d="M0.993654 0L3.63775 0L29.3281-67.1323L30.0303-67.1323L30.0303-70.459L28.1226-70.459ZM11.6885-24.4799L46.9815-24.4799L46.2315-26.7285L12.4385-26.7285ZM55.1196 0L57.7637 0L30.6382-70.459L29.4326-70.459L29.4326-67.1323Z"/>
  </g>
  <line id="Baseline-S" style="fill:none;stroke:#27AAE1;opacity:1;stroke-width:0.5;" x1="263" x2="3036" y1="696" y2="696"/>
  <line id="Capline-S" style="fill:none;stroke:#27AAE1;opacity:1;stroke-width:0.5;" x1="263" x2="3036" y1="625.541" y2="625.541"/>
  <g id="H-reference" style="fill:#27AAE1;stroke:none;" transform="matrix(1 0 0 1 339 1126)">
   <path d="M0.993654 0L3.63775 0L29.3281-67.1323L30.0303-67.1323L30.0303-70.459L28.1226-70.459ZM11.6885-24.4799L46.9815-24.4799L46.2315-26.7285L12.4385-26.7285ZM55.1196 0L57.7637 0L30.6382-70.459L29.4326-70.459L29.4326-67.1323Z"/>
  </g>
  <line id="Baseline-M" style="fill:none;stroke:#27AAE1;opacity:1;stroke-width:0.5;" x1="263" x2="3036" y1="1126" y2="1126"/>
  <line id="Capline-M" style="fill:none;stroke:#27AAE1;opacity:1;stroke-width:0.5;" x1="263" x2="3036" y1="1055.54" y2="1055.54"/>
  <g id="H-reference" style="fill:#27AAE1;stroke:none;" transform="matrix(1 0 0 1 339 1556)">
   <path d="M0.993654 0L3.63775 0L29.3281-67.1323L30.0303-67.1323L30.0303-70.459L28.1226-70.459ZM11.6885-24.4799L46.9815-24.4799L46.2315-26.7285L12.4385-26.7285ZM55.1196 0L57.7637 0L30.6382-70.459L29.4326-70.459L29.4326-67.1323Z"/>
  </g>
  <line id="Baseline-L" style="fill:none;stroke:#27AAE1;opacity:1;stroke-width:0.5;" x1="263" x2="3036" y1="1556" y2="1556"/>
  <line id="Capline-L" style="fill:none;stroke:#27AAE1;opacity:1;stroke-width:0.5;" x1="263" x2="3036" y1="1485.54" y2="1485.54"/>
  <line id="left-margin-Ultralight-S" style="fill:none;stroke:#00AEEF;stroke-width:0.5;opacity:1.0;" x1="515.423" x2="515.423" y1="600.785" y2="720.121"/>
  <line id="right-margin-Ultralight-S" style="fill:none;stroke:#00AEEF;stroke-width:0.5;opacity:1.0;" x1="604" x2="604" y1="600.785" y2="720.121"/>
  <line id="left-margin-Regular-S" style="fill:none;stroke:#00AEEF;stroke-width:0.5;opacity:1.0;" x1="1405.56" x2="1405.56" y1="600.785" y2="720.121"/>
  <line id="right-margin-Regular-S" style="fill:none;stroke:#00AEEF;stroke-width:0.5;opacity:1.0;" x1="1494.13" x2="1494.13" y1="600.785" y2="720.121"/>
  <line id="left-margin-Black-S" style="fill:none;stroke:#00AEEF;stroke-width:0.5;opacity:1.0;" x1="2889.11" x2="2889.11" y1="600.785" y2="720.121"/>
  <line id="right-margin-Black-S" style="fill:none;stroke:#00AEEF;stroke-width:0.5;opacity:1.0;" x1="2977.69" x2="2977.69" y1="600.785" y2="720.121"/>
 </g>
 <g id="Symbols">
  <g id="Black-S" transform="matrix(1 0 0 1 2889.11 696)">
   <path class="monochrome-0 multicolor-0:tintColor hierarchical-0:primary SFSymbolsPreviewWireframe" fill-rule="evenodd" d="M34.660 -71.745L34.525 -71.816L34.384 -71.874L34.238 -71.920L34.089 -71.953L33.938 -71.973L33.785 -71.979L33.632 -71.973L33.481 -71.953L33.332 -71.920L33.186 -71.874L33.045 -71.816L32.910 -71.745L32.855 -71.710L32.789 -71.676L32.282 -71.386L32.028 -71.241L31.266 -70.806L31.012 -70.661L30.504 -70.370L30.250 -70.225L29.743 -69.935L29.489 -69.790L28.981 -69.500L28.727 -69.355L27.965 -68.920L27.711 -68.774L27.204 -68.484L26.950 -68.339L26.442 -68.049L26.188 -67.904L25.680 -67.614L25.426 -67.469L24.665 -67.034L24.411 -66.888L23.903 -66.598L23.649 -66.453L23.141 -66.163L22.888 -66.018L22.126 -65.583L21.872 -65.438L21.364 -65.147L21.110 -65.002L20.603 -64.712L20.349 -64.567L19.841 -64.277L19.587 -64.132L18.825 -63.697L18.571 -63.552L18.064 -63.261L17.810 -63.116L17.556 -62.971L17.302 -62.826L17.048 -62.681L16.794 -62.536L16.540 -62.391L16.286 -62.246L15.525 -61.811L15.271 -61.666L14.763 -61.375L14.509 -61.230L14.001 -60.940L13.747 -60.795L12.986 -60.360L12.732 -60.215L12.224 -59.925L11.970 -59.779L11.462 -59.489L11.209 -59.344L10.701 -59.054L10.447 -58.909L9.685 -58.474L9.431 -58.329L8.924 -58.039L8.670 -57.893L8.665 -57.891L8.412 -57.745L8.283 -57.663L8.161 -57.570L8.049 -57.467L7.945 -57.354L7.852 -57.233L7.770 -57.104L7.699 -56.969L7.641 -56.828L7.595 -56.682L7.562 -56.533L7.542 -56.381L7.535 -56.228L7.535 -0.376L7.542 -0.225L7.561 -0.075L7.594 0.073L7.639 0.217L7.696 0.357L7.766 0.492L7.846 0.620L7.938 0.741L8.039 0.853L8.150 0.956L8.270 1.049L8.397 1.131L8.523 1.206L8.658 1.278L8.800 1.338L8.945 1.385L9.095 1.419L9.247 1.440L9.400 1.448L9.553 1.443L9.705 1.423L9.855 1.391L10.001 1.346L10.143 1.288L10.280 1.218L10.534 1.073L10.787 0.928L11.041 0.782L11.549 0.492L11.803 0.347L12.057 0.202L12.565 -0.088L12.819 -0.233L13.073 -0.378L13.326 -0.523L13.580 -0.668L14.342 -1.104L14.596 -1.249L15.104 -1.539L15.358 -1.684L15.865 -1.974L16.119 -2.119L16.627 -2.409L16.881 -2.554L17.389 -2.845L17.643 -2.990L18.404 -3.425L18.658 -3.570L19.166 -3.860L19.420 -4.005L19.928 -4.295L20.181 -4.440L20.689 -4.731L20.943 -4.876L21.705 -5.311L21.959 -5.456L22.466 -5.746L22.720 -5.891L23.228 -6.181L23.482 -6.327L24.244 -6.762L24.498 -6.907L25.005 -7.197L25.259 -7.342L25.513 -7.487L25.767 -7.632L26.021 -7.777L26.275 -7.922L26.529 -8.067L26.783 -8.213L27.290 -8.503L27.544 -8.648L27.798 -8.793L28.306 -9.083L28.560 -9.228L28.814 -9.373L29.068 -9.518L29.322 -9.663L29.829 -9.954L30.083 -10.099L30.337 -10.244L30.845 -10.534L31.099 -10.679L31.607 -10.969L31.860 -11.114L32.368 -11.404L32.622 -11.549L33.130 -11.840L33.384 -11.985L33.785 -12.214L34.068 -12.052L34.322 -11.907L34.830 -11.617L35.084 -11.472L35.337 -11.327L36.353 -10.746L36.607 -10.601L36.861 -10.456L37.623 -10.021L37.877 -9.876L38.131 -9.731L39.147 -9.150L39.401 -9.005L39.654 -8.860L40.416 -8.425L40.670 -8.280L41.178 -7.989L41.432 -7.844L41.686 -7.699L42.448 -7.264L42.702 -7.119L42.956 -6.974L43.210 -6.828L43.972 -6.393L44.225 -6.248L44.479 -6.103L45.495 -5.522L45.749 -5.377L46.003 -5.232L46.765 -4.797L47.019 -4.652L47.273 -4.507L47.527 -4.362L48.035 -4.071L48.289 -3.926L48.796 -3.636L49.050 -3.491L49.304 -3.346L49.558 -3.201L50.320 -2.765L50.574 -2.620L50.828 -2.475L51.844 -1.895L52.098 -1.750L53.113 -1.169L53.367 -1.024L53.621 -0.879L53.875 -0.734L54.383 -0.444L54.637 -0.298L54.891 -0.153L55.145 -0.008L55.907 0.427L56.161 0.572L56.669 0.862L56.923 1.008L57.176 1.153L57.253 1.194L57.313 1.225L57.410 1.286L57.545 1.357L57.686 1.415L57.832 1.461L57.981 1.494L58.132 1.514L58.285 1.521L58.438 1.514L58.589 1.494L58.738 1.461L58.884 1.415L59.025 1.357L59.160 1.286L59.234 1.239L59.269 1.218L61.216 -0.080L61.459 -0.242L64.136 -2.027L64.379 -2.189L69.246 -5.434L69.490 -5.596L74.114 -8.679L74.357 -8.841L78.494 -11.599L78.737 -11.761L80.197 -12.735L80.317 -12.822L80.429 -12.919L80.533 -13.026L80.627 -13.141L80.711 -13.263L80.784 -13.392L80.846 -13.527L80.896 -13.667L80.935 -13.810L80.993 -14.071L81.016 -14.197L81.030 -14.324L81.035 -14.452L81.035 -70.023L81.029 -70.170L81.010 -70.316L80.979 -70.461L80.936 -70.602L80.882 -70.739L80.811 -70.898L80.742 -71.034L80.663 -71.163L80.572 -71.285L80.471 -71.399L80.361 -71.503L80.242 -71.598L80.115 -71.682L79.982 -71.754L79.842 -71.815L79.698 -71.863L79.551 -71.899L79.400 -71.922L79.249 -71.932L79.097 -71.928L78.946 -71.911L78.797 -71.882L78.651 -71.839L78.509 -71.784L78.373 -71.717L78.243 -71.638L77.026 -70.827L76.783 -70.665L74.349 -69.042L74.106 -68.880L69.725 -65.960L69.482 -65.797L64.858 -62.715L64.615 -62.553L64.128 -62.228L63.885 -62.066L59.991 -59.470L59.748 -59.308L58.214 -58.286L58.138 -58.329L57.884 -58.474L57.122 -58.910L56.868 -59.055L56.360 -59.345L56.107 -59.490L55.599 -59.780L55.345 -59.925L54.837 -60.215L54.583 -60.360L53.822 -60.796L53.568 -60.941L53.060 -61.231L52.806 -61.376L52.298 -61.666L52.044 -61.811L51.537 -62.101L51.283 -62.246L51.029 -62.392L50.775 -62.537L50.521 -62.682L50.267 -62.827L49.759 -63.117L49.505 -63.262L48.998 -63.552L48.744 -63.697L47.982 -64.132L47.728 -64.278L47.220 -64.568L46.966 -64.713L46.459 -65.003L46.205 -65.148L45.443 -65.583L45.189 -65.728L44.681 -66.019L44.428 -66.164L43.920 -66.454L43.666 -66.599L43.158 -66.889L42.904 -67.034L42.143 -67.469L41.889 -67.614L41.381 -67.905L41.127 -68.050L40.619 -68.340L40.365 -68.485L39.858 -68.775L39.604 -68.920L38.842 -69.355L38.588 -69.500L38.080 -69.791L37.826 -69.936L37.319 -70.226L37.065 -70.371L36.557 -70.661L36.303 -70.806L35.541 -71.241L35.287 -71.387L35.034 -71.532L34.780 -71.677L34.715 -71.710L34.660 -71.745ZM35.535 -67.214L35.582 -67.187L36.090 -66.897L36.344 -66.752L36.852 -66.462L37.105 -66.317L37.867 -65.881L38.121 -65.736L38.629 -65.446L38.883 -65.301L39.390 -65.011L39.644 -64.866L40.152 -64.576L40.406 -64.430L41.168 -63.995L41.422 -63.850L41.929 -63.560L42.183 -63.415L42.691 -63.125L42.945 -62.980L43.453 -62.690L43.707 -62.544L44.468 -62.109L44.722 -61.964L45.230 -61.674L45.484 -61.529L45.992 -61.239L46.246 -61.094L47.007 -60.658L47.261 -60.513L47.769 -60.223L48.023 -60.078L48.531 -59.788L48.784 -59.643L49.038 -59.498L49.292 -59.353L49.546 -59.208L49.800 -59.062L50.308 -58.772L50.562 -58.627L51.069 -58.337L51.323 -58.192L51.831 -57.902L52.085 -57.757L52.847 -57.322L53.101 -57.176L53.608 -56.886L53.862 -56.741L54.370 -56.451L54.624 -56.306L55.132 -56.016L55.386 -55.871L56.147 -55.435L56.401 -55.290L56.535 -55.214L56.535 -3.245L56.374 -3.337L56.120 -3.482L55.612 -3.773L55.358 -3.918L55.104 -4.063L54.850 -4.208L53.834 -4.788L53.580 -4.934L52.564 -5.514L52.310 -5.659L52.057 -5.804L51.295 -6.240L51.041 -6.385L50.787 -6.530L50.533 -6.675L50.025 -6.965L49.771 -7.110L49.263 -7.400L49.009 -7.546L48.755 -7.691L48.501 -7.836L47.740 -8.271L47.486 -8.416L47.232 -8.561L46.216 -9.142L45.962 -9.287L45.708 -9.432L44.946 -9.867L44.692 -10.012L44.438 -10.157L44.184 -10.303L43.423 -10.738L43.169 -10.883L42.915 -11.028L42.407 -11.318L42.153 -11.463L41.391 -11.899L41.137 -12.044L40.883 -12.189L39.867 -12.769L39.613 -12.915L39.359 -13.060L38.598 -13.495L38.344 -13.640L38.090 -13.785L37.074 -14.366L36.820 -14.511L36.566 -14.656L36.058 -14.946L35.804 -15.091L35.535 -15.245L35.535 -67.214ZM32.035 -15.245L31.647 -15.024L31.393 -14.878L30.886 -14.588L30.632 -14.443L30.124 -14.153L29.870 -14.008L29.362 -13.718L29.108 -13.573L28.601 -13.283L28.347 -13.137L28.093 -12.992L27.585 -12.702L27.331 -12.557L27.077 -12.412L26.823 -12.267L26.569 -12.122L26.062 -11.832L25.808 -11.687L25.554 -11.542L25.046 -11.251L24.792 -11.106L24.538 -10.961L24.284 -10.816L24.031 -10.671L23.777 -10.526L23.523 -10.381L23.269 -10.236L22.761 -9.946L22.507 -9.801L21.746 -9.365L21.492 -9.220L20.984 -8.930L20.730 -8.785L20.222 -8.495L19.968 -8.350L19.207 -7.915L18.953 -7.769L18.445 -7.479L18.191 -7.334L17.683 -7.044L17.429 -6.899L16.922 -6.609L16.668 -6.464L15.906 -6.029L15.652 -5.883L15.144 -5.593L14.890 -5.448L14.383 -5.158L14.129 -5.013L13.621 -4.723L13.367 -4.578L12.859 -4.288L12.605 -4.142L11.844 -3.707L11.590 -3.562L11.336 -3.417L11.082 -3.272L11.035 -3.245L11.035 -55.214L11.168 -55.290L11.422 -55.435L12.183 -55.870L12.437 -56.015L12.945 -56.305L13.199 -56.450L13.707 -56.741L13.961 -56.886L14.468 -57.176L14.722 -57.321L15.484 -57.756L15.738 -57.901L16.246 -58.191L16.500 -58.337L17.007 -58.627L17.261 -58.772L18.023 -59.207L18.277 -59.352L18.531 -59.497L18.785 -59.642L19.038 -59.787L19.292 -59.932L19.546 -60.077L19.800 -60.223L20.308 -60.513L20.562 -60.658L21.323 -61.093L21.577 -61.238L22.085 -61.528L22.339 -61.673L22.847 -61.964L23.101 -62.109L23.608 -62.399L23.862 -62.544L24.624 -62.979L24.878 -63.124L25.386 -63.414L25.640 -63.559L26.147 -63.850L26.401 -63.995L27.163 -64.430L27.417 -64.575L27.925 -64.865L28.179 -65.010L28.686 -65.300L28.940 -65.445L29.448 -65.736L29.702 -65.881L30.464 -66.316L30.717 -66.461L31.225 -66.751L31.479 -66.896L31.987 -67.186L32.035 -67.214L32.035 -15.245ZM61.689 -56.396L61.933 -56.558L65.826 -59.154L66.070 -59.316L66.556 -59.641L66.800 -59.803L71.424 -62.885L71.667 -63.048L76.047 -65.968L76.291 -66.130L77.535 -66.960L77.535 -15.166L76.796 -14.673L76.553 -14.511L72.415 -11.753L72.172 -11.591L67.548 -8.508L67.305 -8.346L62.438 -5.101L62.195 -4.939L60.035 -3.499L60.035 -55.293L61.689 -56.396Z"/>
  </g>
  <g id="Regular-S" transform="matrix(1 0 0 1 1405.56 696)">
   <path class="monochrome-0 multicolor-0:tintColor hierarchical-0:primary SFSymbolsPreviewWireframe" fill-rule="evenodd" d="M34.660 -71.745L34.525 -71.816L34.384 -71.874L34.238 -71.920L34.089 -71.953L33.938 -71.973L33.785 -71.979L33.632 -71.973L33.481 -71.953L33.332 -71.920L33.186 -71.874L33.045 -71.816L32.910 -71.745L32.855 -71.710L32.789 -71.676L32.282 -71.386L32.028 -71.241L31.266 -70.806L31.012 -70.661L30.504 -70.370L30.250 -70.225L29.743 -69.935L29.489 -69.790L28.981 -69.500L28.727 -69.355L27.965 -68.920L27.711 -68.774L27.204 -68.484L26.950 -68.339L26.442 -68.049L26.188 -67.904L25.680 -67.614L25.426 -67.469L24.665 -67.034L24.411 -66.888L23.903 -66.598L23.649 -66.453L23.141 -66.163L22.888 -66.018L22.126 -65.583L21.872 -65.438L21.364 -65.147L21.110 -65.002L20.603 -64.712L20.349 -64.567L19.841 -64.277L19.587 -64.132L18.825 -63.697L18.571 -63.552L18.064 -63.261L17.810 -63.116L17.556 -62.971L17.302 -62.826L17.048 -62.681L16.794 -62.536L16.540 -62.391L16.286 -62.246L15.525 -61.811L15.271 -61.666L14.763 -61.375L14.509 -61.230L14.001 -60.940L13.747 -60.795L12.986 -60.360L12.732 -60.215L12.224 -59.925L11.970 -59.779L11.462 -59.489L11.209 -59.344L10.701 -59.054L10.447 -58.909L9.685 -58.474L9.431 -58.329L8.924 -58.039L8.670 -57.893L8.665 -57.891L8.412 -57.745L8.283 -57.663L8.161 -57.570L8.049 -57.467L7.945 -57.354L7.852 -57.233L7.770 -57.104L7.699 -56.969L7.641 -56.828L7.595 -56.682L7.562 -56.533L7.542 -56.381L7.535 -56.228L7.535 -0.376L7.542 -0.225L7.561 -0.075L7.594 0.073L7.639 0.217L7.696 0.357L7.766 0.492L7.846 0.620L7.938 0.741L8.039 0.853L8.150 0.956L8.270 1.049L8.397 1.131L8.523 1.206L8.658 1.278L8.800 1.338L8.945 1.385L9.095 1.419L9.247 1.440L9.400 1.448L9.553 1.443L9.705 1.423L9.855 1.391L10.001 1.346L10.143 1.288L10.280 1.218L10.534 1.073L10.787 0.928L11.041 0.782L11.549 0.492L11.803 0.347L12.057 0.202L12.565 -0.088L12.819 -0.233L13.073 -0.378L13.326 -0.523L13.580 -0.668L14.342 -1.104L14.596 -1.249L15.104 -1.539L15.358 -1.684L15.865 -1.974L16.119 -2.119L16.627 -2.409L16.881 -2.554L17.389 -2.845L17.643 -2.990L18.404 -3.425L18.658 -3.570L19.166 -3.860L19.420 -4.005L19.928 -4.295L20.181 -4.440L20.689 -4.731L20.943 -4.876L21.705 -5.311L21.959 -5.456L22.466 -5.746L22.720 -5.891L23.228 -6.181L23.482 -6.327L24.244 -6.762L24.498 -6.907L25.005 -7.197L25.259 -7.342L25.513 -7.487L25.767 -7.632L26.021 -7.777L26.275 -7.922L26.529 -8.067L26.783 -8.213L27.290 -8.503L27.544 -8.648L27.798 -8.793L28.306 -9.083L28.560 -9.228L28.814 -9.373L29.068 -9.518L29.322 -9.663L29.829 -9.954L30.083 -10.099L30.337 -10.244L30.845 -10.534L31.099 -10.679L31.607 -10.969L31.860 -11.114L32.368 -11.404L32.622 -11.549L33.130 -11.840L33.384 -11.985L33.785 -12.214L34.068 -12.052L34.322 -11.907L34.830 -11.617L35.084 -11.472L35.337 -11.327L36.353 -10.746L36.607 -10.601L36.861 -10.456L37.623 -10.021L37.877 -9.876L38.131 -9.731L39.147 -9.150L39.401 -9.005L39.654 -8.860L40.416 -8.425L40.670 -8.280L41.178 -7.989L41.432 -7.844L41.686 -7.699L42.448 -7.264L42.702 -7.119L42.956 -6.974L43.210 -6.828L43.972 -6.393L44.225 -6.248L44.479 -6.103L45.495 -5.522L45.749 -5.377L46.003 -5.232L46.765 -4.797L47.019 -4.652L47.273 -4.507L47.527 -4.362L48.035 -4.071L48.289 -3.926L48.796 -3.636L49.050 -3.491L49.304 -3.346L49.558 -3.201L50.320 -2.765L50.574 -2.620L50.828 -2.475L51.844 -1.895L52.098 -1.750L53.113 -1.169L53.367 -1.024L53.621 -0.879L53.875 -0.734L54.383 -0.444L54.637 -0.298L54.891 -0.153L55.145 -0.008L55.907 0.427L56.161 0.572L56.669 0.862L56.923 1.008L57.176 1.153L57.253 1.194L57.313 1.225L57.410 1.286L57.545 1.357L57.686 1.415L57.832 1.461L57.981 1.494L58.132 1.514L58.285 1.521L58.438 1.514L58.589 1.494L58.738 1.461L58.884 1.415L59.025 1.357L59.160 1.286L59.234 1.239L59.269 1.218L61.216 -0.080L61.459 -0.242L64.136 -2.027L64.379 -2.189L69.246 -5.434L69.490 -5.596L74.114 -8.679L74.357 -8.841L78.494 -11.599L78.737 -11.761L80.197 -12.735L80.317 -12.822L80.429 -12.919L80.533 -13.026L80.627 -13.141L80.711 -13.263L80.784 -13.392L80.846 -13.527L80.896 -13.667L80.935 -13.810L80.993 -14.071L81.016 -14.197L81.030 -14.324L81.035 -14.452L81.035 -70.023L81.029 -70.170L81.010 -70.316L80.979 -70.461L80.936 -70.602L80.882 -70.739L80.811 -70.898L80.742 -71.034L80.663 -71.163L80.572 -71.285L80.471 -71.399L80.361 -71.503L80.242 -71.598L80.115 -71.682L79.982 -71.754L79.842 -71.815L79.698 -71.863L79.551 -71.899L79.400 -71.922L79.249 -71.932L79.097 -71.928L78.946 -71.911L78.797 -71.882L78.651 -71.839L78.509 -71.784L78.373 -71.717L78.243 -71.638L77.026 -70.827L76.783 -70.665L74.349 -69.042L74.106 -68.880L69.725 -65.960L69.482 -65.797L64.858 -62.715L64.615 -62.553L64.128 -62.228L63.885 -62.066L59.991 -59.470L59.748 -59.308L58.214 -58.286L58.138 -58.329L57.884 -58.474L57.122 -58.910L56.868 -59.055L56.360 -59.345L56.107 -59.490L55.599 -59.780L55.345 -59.925L54.837 -60.215L54.583 -60.360L53.822 -60.796L53.568 -60.941L53.060 -61.231L52.806 -61.376L52.298 -61.666L52.044 -61.811L51.537 -62.101L51.283 -62.246L51.029 -62.392L50.775 -62.537L50.521 -62.682L50.267 -62.827L49.759 -63.117L49.505 -63.262L48.998 -63.552L48.744 -63.697L47.982 -64.132L47.728 -64.278L47.220 -64.568L46.966 -64.713L46.459 -65.003L46.205 -65.148L45.443 -65.583L45.189 -65.728L44.681 -66.019L44.428 -66.164L43.920 -66.454L43.666 -66.599L43.158 -66.889L42.904 -67.034L42.143 -67.469L41.889 -67.614L41.381 -67.905L41.127 -68.050L40.619 -68.340L40.365 -68.485L39.858 -68.775L39.604 -68.920L38.842 -69.355L38.588 -69.500L38.080 -69.791L37.826 -69.936L37.319 -70.226L37.065 -70.371L36.557 -70.661L36.303 -70.806L35.541 -71.241L35.287 -71.387L35.034 -71.532L34.780 -71.677L34.715 -71.710L34.660 -71.745ZM35.535 -67.214L35.582 -67.187L36.090 -66.897L36.344 -66.752L36.852 -66.462L37.105 -66.317L37.867 -65.881L38.121 -65.736L38.629 -65.446L38.883 -65.301L39.390 -65.011L39.644 -64.866L40.152 -64.576L40.406 -64.430L41.168 -63.995L41.422 -63.850L41.929 -63.560L42.183 -63.415L42.691 -63.125L42.945 -62.980L43.453 -62.690L43.707 -62.544L44.468 -62.109L44.722 -61.964L45.230 -61.674L45.484 -61.529L45.992 -61.239L46.246 -61.094L47.007 -60.658L47.261 -60.513L47.769 -60.223L48.023 -60.078L48.531 -59.788L48.784 -59.643L49.038 -59.498L49.292 -59.353L49.546 -59.208L49.800 -59.062L50.308 -58.772L50.562 -58.627L51.069 -58.337L51.323 -58.192L51.831 -57.902L52.085 -57.757L52.847 -57.322L53.101 -57.176L53.608 -56.886L53.862 -56.741L54.370 -56.451L54.624 -56.306L55.132 -56.016L55.386 -55.871L56.147 -55.435L56.401 -55.290L56.535 -55.214L56.535 -3.245L56.374 -3.337L56.120 -3.482L55.612 -3.773L55.358 -3.918L55.104 -4.063L54.850 -4.208L53.834 -4.788L53.580 -4.934L52.564 -5.514L52.310 -5.659L52.057 -5.804L51.295 -6.240L51.041 -6.385L50.787 -6.530L50.533 -6.675L50.025 -6.965L49.771 -7.110L49.263 -7.400L49.009 -7.546L48.755 -7.691L48.501 -7.836L47.740 -8.271L47.486 -8.416L47.232 -8.561L46.216 -9.142L45.962 -9.287L45.708 -9.432L44.946 -9.867L44.692 -10.012L44.438 -10.157L44.184 -10.303L43.423 -10.738L43.169 -10.883L42.915 -11.028L42.407 -11.318L42.153 -11.463L41.391 -11.899L41.137 -12.044L40.883 -12.189L39.867 -12.769L39.613 -12.915L39.359 -13.060L38.598 -13.495L38.344 -13.640L38.090 -13.785L37.074 -14.366L36.820 -14.511L36.566 -14.656L36.058 -14.946L35.804 -15.091L35.535 -15.245L35.535 -67.214ZM32.035 -15.245L31.647 -15.024L31.393 -14.878L30.886 -14.588L30.632 -14.443L30.124 -14.153L29.870 -14.008L29.362 -13.718L29.108 -13.573L28.601 -13.283L28.347 -13.137L28.093 -12.992L27.585 -12.702L27.331 -12.557L27.077 -12.412L26.823 -12.267L26.569 -12.122L26.062 -11.832L25.808 -11.687L25.554 -11.542L25.046 -11.251L24.792 -11.106L24.538 -10.961L24.284 -10.816L24.031 -10.671L23.777 -10.526L23.523 -10.381L23.269 -10.236L22.761 -9.946L22.507 -9.801L21.746 -9.365L21.492 -9.220L20.984 -8.930L20.730 -8.785L20.222 -8.495L19.968 -8.350L19.207 -7.915L18.953 -7.769L18.445 -7.479L18.191 -7.334L17.683 -7.044L17.429 -6.899L16.922 -6.609L16.668 -6.464L15.906 -6.029L15.652 -5.883L15.144 -5.593L14.890 -5.448L14.383 -5.158L14.129 -5.013L13.621 -4.723L13.367 -4.578L12.859 -4.288L12.605 -4.142L11.844 -3.707L11.590 -3.562L11.336 -3.417L11.082 -3.272L11.035 -3.245L11.035 -55.214L11.168 -55.290L11.422 -55.435L12.183 -55.870L12.437 -56.015L12.945 -56.305L13.199 -56.450L13.707 -56.741L13.961 -56.886L14.468 -57.176L14.722 -57.321L15.484 -57.756L15.738 -57.901L16.246 -58.191L16.500 -58.337L17.007 -58.627L17.261 -58.772L18.023 -59.207L18.277 -59.352L18.531 -59.497L18.785 -59.642L19.038 -59.787L19.292 -59.932L19.546 -60.077L19.800 -60.223L20.308 -60.513L20.562 -60.658L21.323 -61.093L21.577 -61.238L22.085 -61.528L22.339 -61.673L22.847 -61.964L23.101 -62.109L23.608 -62.399L23.862 -62.544L24.624 -62.979L24.878 -63.124L25.386 -63.414L25.640 -63.559L26.147 -63.850L26.401 -63.995L27.163 -64.430L27.417 -64.575L27.925 -64.865L28.179 -65.010L28.686 -65.300L28.940 -65.445L29.448 -65.736L29.702 -65.881L30.464 -66.316L30.717 -66.461L31.225 -66.751L31.479 -66.896L31.987 -67.186L32.035 -67.214L32.035 -15.245ZM61.689 -56.396L61.933 -56.558L65.826 -59.154L66.070 -59.316L66.556 -59.641L66.800 -59.803L71.424 -62.885L71.667 -63.048L76.047 -65.968L76.291 -66.130L77.535 -66.960L77.535 -15.166L76.796 -14.673L76.553 -14.511L72.415 -11.753L72.172 -11.591L67.548 -8.508L67.305 -8.346L62.438 -5.101L62.195 -4.939L60.035 -3.499L60.035 -55.293L61.689 -56.396Z"/>
  </g>
  <g id="Ultralight-S" transform="matrix(1 0 0 1 515.423 696)">
   <path class="monochrome-0 multicolor-0:tintColor hierarchical-0:primary SFSymbolsPreviewWireframe" fill-rule="evenodd" d="M34.660 -71.745L34.525 -71.816L34.384 -71.874L34.238 -71.920L34.089 -71.953L33.938 -71.973L33.785 -71.979L33.632 -71.973L33.481 -71.953L33.332 -71.920L33.186 -71.874L33.045 -71.816L32.910 -71.745L32.855 -71.710L32.789 -71.676L32.282 -71.386L32.028 -71.241L31.266 -70.806L31.012 -70.661L30.504 -70.370L30.250 -70.225L29.743 -69.935L29.489 -69.790L28.981 -69.500L28.727 -69.355L27.965 -68.920L27.711 -68.774L27.204 -68.484L26.950 -68.339L26.442 -68.049L26.188 -67.904L25.680 -67.614L25.426 -67.469L24.665 -67.034L24.411 -66.888L23.903 -66.598L23.649 -66.453L23.141 -66.163L22.888 -66.018L22.126 -65.583L21.872 -65.438L21.364 -65.147L21.110 -65.002L20.603 -64.712L20.349 -64.567L19.841 -64.277L19.587 -64.132L18.825 -63.697L18.571 -63.552L18.064 -63.261L17.810 -63.116L17.556 -62.971L17.302 -62.826L17.048 -62.681L16.794 -62.536L16.540 -62.391L16.286 -62.246L15.525 -61.811L15.271 -61.666L14.763 -61.375L14.509 -61.230L14.001 -60.940L13.747 -60.795L12.986 -60.360L12.732 -60.215L12.224 -59.925L11.970 -59.779L11.462 -59.489L11.209 -59.344L10.701 -59.054L10.447 -58.909L9.685 -58.474L9.431 -58.329L8.924 -58.039L8.670 -57.893L8.665 -57.891L8.412 -57.745L8.283 -57.663L8.161 -57.570L8.049 -57.467L7.945 -57.354L7.852 -57.233L7.770 -57.104L7.699 -56.969L7.641 -56.828L7.595 -56.682L7.562 -56.533L7.542 -56.381L7.535 -56.228L7.535 -0.376L7.542 -0.225L7.561 -0.075L7.594 0.073L7.639 0.217L7.696 0.357L7.766 0.492L7.846 0.620L7.938 0.741L8.039 0.853L8.150 0.956L8.270 1.049L8.397 1.131L8.523 1.206L8.658 1.278L8.800 1.338L8.945 1.385L9.095 1.419L9.247 1.440L9.400 1.448L9.553 1.443L9.705 1.423L9.855 1.391L10.001 1.346L10.143 1.288L10.280 1.218L10.534 1.073L10.787 0.928L11.041 0.782L11.549 0.492L11.803 0.347L12.057 0.202L12.565 -0.088L12.819 -0.233L13.073 -0.378L13.326 -0.523L13.580 -0.668L14.342 -1.104L14.596 -1.249L15.104 -1.539L15.358 -1.684L15.865 -1.974L16.119 -2.119L16.627 -2.409L16.881 -2.554L17.389 -2.845L17.643 -2.990L18.404 -3.425L18.658 -3.570L19.166 -3.860L19.420 -4.005L19.928 -4.295L20.181 -4.440L20.689 -4.731L20.943 -4.876L21.705 -5.311L21.959 -5.456L22.466 -5.746L22.720 -5.891L23.228 -6.181L23.482 -6.327L24.244 -6.762L24.498 -6.907L25.005 -7.197L25.259 -7.342L25.513 -7.487L25.767 -7.632L26.021 -7.777L26.275 -7.922L26.529 -8.067L26.783 -8.213L27.290 -8.503L27.544 -8.648L27.798 -8.793L28.306 -9.083L28.560 -9.228L28.814 -9.373L29.068 -9.518L29.322 -9.663L29.829 -9.954L30.083 -10.099L30.337 -10.244L30.845 -10.534L31.099 -10.679L31.607 -10.969L31.860 -11.114L32.368 -11.404L32.622 -11.549L33.130 -11.840L33.384 -11.985L33.785 -12.214L34.068 -12.052L34.322 -11.907L34.830 -11.617L35.084 -11.472L35.337 -11.327L36.353 -10.746L36.607 -10.601L36.861 -10.456L37.623 -10.021L37.877 -9.876L38.131 -9.731L39.147 -9.150L39.401 -9.005L39.654 -8.860L40.416 -8.425L40.670 -8.280L41.178 -7.989L41.432 -7.844L41.686 -7.699L42.448 -7.264L42.702 -7.119L42.956 -6.974L43.210 -6.828L43.972 -6.393L44.225 -6.248L44.479 -6.103L45.495 -5.522L45.749 -5.377L46.003 -5.232L46.765 -4.797L47.019 -4.652L47.273 -4.507L47.527 -4.362L48.035 -4.071L48.289 -3.926L48.796 -3.636L49.050 -3.491L49.304 -3.346L49.558 -3.201L50.320 -2.765L50.574 -2.620L50.828 -2.475L51.844 -1.895L52.098 -1.750L53.113 -1.169L53.367 -1.024L53.621 -0.879L53.875 -0.734L54.383 -0.444L54.637 -0.298L54.891 -0.153L55.145 -0.008L55.907 0.427L56.161 0.572L56.669 0.862L56.923 1.008L57.176 1.153L57.253 1.194L57.313 1.225L57.410 1.286L57.545 1.357L57.686 1.415L57.832 1.461L57.981 1.494L58.132 1.514L58.285 1.521L58.438 1.514L58.589 1.494L58.738 1.461L58.884 1.415L59.025 1.357L59.160 1.286L59.234 1.239L59.269 1.218L61.216 -0.080L61.459 -0.242L64.136 -2.027L64.379 -2.189L69.246 -5.434L69.490 -5.596L74.114 -8.679L74.357 -8.841L78.494 -11.599L78.737 -11.761L80.197 -12.735L80.317 -12.822L80.429 -12.919L80.533 -13.026L80.627 -13.141L80.711 -13.263L80.784 -13.392L80.846 -13.527L80.896 -13.667L80.935 -13.810L80.993 -14.071L81.016 -14.197L81.030 -14.324L81.035 -14.452L81.035 -70.023L81.029 -70.170L81.010 -70.316L80.979 -70.461L80.936 -70.602L80.882 -70.739L80.811 -70.898L80.742 -71.034L80.663 -71.163L80.572 -71.285L80.471 -71.399L80.361 -71.503L80.242 -71.598L80.115 -71.682L79.982 -71.754L79.842 -71.815L79.698 -71.863L79.551 -71.899L79.400 -71.922L79.249 -71.932L79.097 -71.928L78.946 -71.911L78.797 -71.882L78.651 -71.839L78.509 -71.784L78.373 -71.717L78.243 -71.638L77.026 -70.827L76.783 -70.665L74.349 -69.042L74.106 -68.880L69.725 -65.960L69.482 -65.797L64.858 -62.715L64.615 -62.553L64.128 -62.228L63.885 -62.066L59.991 -59.470L59.748 -59.308L58.214 -58.286L58.138 -58.329L57.884 -58.474L57.122 -58.910L56.868 -59.055L56.360 -59.345L56.107 -59.490L55.599 -59.780L55.345 -59.925L54.837 -60.215L54.583 -60.360L53.822 -60.796L53.568 -60.941L53.060 -61.231L52.806 -61.376L52.298 -61.666L52.044 -61.811L51.537 -62.101L51.283 -62.246L51.029 -62.392L50.775 -62.537L50.521 -62.682L50.267 -62.827L49.759 -63.117L49.505 -63.262L48.998 -63.552L48.744 -63.697L47.982 -64.132L47.728 -64.278L47.220 -64.568L46.966 -64.713L46.459 -65.003L46.205 -65.148L45.443 -65.583L45.189 -65.728L44.681 -66.019L44.428 -66.164L43.920 -66.454L43.666 -66.599L43.158 -66.889L42.904 -67.034L42.143 -67.469L41.889 -67.614L41.381 -67.905L41.127 -68.050L40.619 -68.340L40.365 -68.485L39.858 -68.775L39.604 -68.920L38.842 -69.355L38.588 -69.500L38.080 -69.791L37.826 -69.936L37.319 -70.226L37.065 -70.371L36.557 -70.661L36.303 -70.806L35.541 -71.241L35.287 -71.387L35.034 -71.532L34.780 -71.677L34.715 -71.710L34.660 -71.745ZM35.535 -67.214L35.582 -67.187L36.090 -66.897L36.344 -66.752L36.852 -66.462L37.105 -66.317L37.867 -65.881L38.121 -65.736L38.629 -65.446L38.883 -65.301L39.390 -65.011L39.644 -64.866L40.152 -64.576L40.406 -64.430L41.168 -63.995L41.422 -63.850L41.929 -63.560L42.183 -63.415L42.691 -63.125L42.945 -62.980L43.453 -62.690L43.707 -62.544L44.468 -62.109L44.722 -61.964L45.230 -61.674L45.484 -61.529L45.992 -61.239L46.246 -61.094L47.007 -60.658L47.261 -60.513L47.769 -60.223L48.023 -60.078L48.531 -59.788L48.784 -59.643L49.038 -59.498L49.292 -59.353L49.546 -59.208L49.800 -59.062L50.308 -58.772L50.562 -58.627L51.069 -58.337L51.323 -58.192L51.831 -57.902L52.085 -57.757L52.847 -57.322L53.101 -57.176L53.608 -56.886L53.862 -56.741L54.370 -56.451L54.624 -56.306L55.132 -56.016L55.386 -55.871L56.147 -55.435L56.401 -55.290L56.535 -55.214L56.535 -3.245L56.374 -3.337L56.120 -3.482L55.612 -3.773L55.358 -3.918L55.104 -4.063L54.850 -4.208L53.834 -4.788L53.580 -4.934L52.564 -5.514L52.310 -5.659L52.057 -5.804L51.295 -6.240L51.041 -6.385L50.787 -6.530L50.533 -6.675L50.025 -6.965L49.771 -7.110L49.263 -7.400L49.009 -7.546L48.755 -7.691L48.501 -7.836L47.740 -8.271L47.486 -8.416L47.232 -8.561L46.216 -9.142L45.962 -9.287L45.708 -9.432L44.946 -9.867L44.692 -10.012L44.438 -10.157L44.184 -10.303L43.423 -10.738L43.169 -10.883L42.915 -11.028L42.407 -11.318L42.153 -11.463L41.391 -11.899L41.137 -12.044L40.883 -12.189L39.867 -12.769L39.613 -12.915L39.359 -13.060L38.598 -13.495L38.344 -13.640L38.090 -13.785L37.074 -14.366L36.820 -14.511L36.566 -14.656L36.058 -14.946L35.804 -15.091L35.535 -15.245L35.535 -67.214ZM32.035 -15.245L31.647 -15.024L31.393 -14.878L30.886 -14.588L30.632 -14.443L30.124 -14.153L29.870 -14.008L29.362 -13.718L29.108 -13.573L28.601 -13.283L28.347 -13.137L28.093 -12.992L27.585 -12.702L27.331 -12.557L27.077 -12.412L26.823 -12.267L26.569 -12.122L26.062 -11.832L25.808 -11.687L25.554 -11.542L25.046 -11.251L24.792 -11.106L24.538 -10.961L24.284 -10.816L24.031 -10.671L23.777 -10.526L23.523 -10.381L23.269 -10.236L22.761 -9.946L22.507 -9.801L21.746 -9.365L21.492 -9.220L20.984 -8.930L20.730 -8.785L20.222 -8.495L19.968 -8.350L19.207 -7.915L18.953 -7.769L18.445 -7.479L18.191 -7.334L17.683 -7.044L17.429 -6.899L16.922 -6.609L16.668 -6.464L15.906 -6.029L15.652 -5.883L15.144 -5.593L14.890 -5.448L14.383 -5.158L14.129 -5.013L13.621 -4.723L13.367 -4.578L12.859 -4.288L12.605 -4.142L11.844 -3.707L11.590 -3.562L11.336 -3.417L11.082 -3.272L11.035 -3.245L11.035 -55.214L11.168 -55.290L11.422 -55.435L12.183 -55.870L12.437 -56.015L12.945 -56.305L13.199 -56.450L13.707 -56.741L13.961 -56.886L14.468 -57.176L14.722 -57.321L15.484 -57.756L15.738 -57.901L16.246 -58.191L16.500 -58.337L17.007 -58.627L17.261 -58.772L18.023 -59.207L18.277 -59.352L18.531 -59.497L18.785 -59.642L19.038 -59.787L19.292 -59.932L19.546 -60.077L19.800 -60.223L20.308 -60.513L20.562 -60.658L21.323 -61.093L21.577 -61.238L22.085 -61.528L22.339 -61.673L22.847 -61.964L23.101 -62.109L23.608 -62.399L23.862 -62.544L24.624 -62.979L24.878 -63.124L25.386 -63.414L25.640 -63.559L26.147 -63.850L26.401 -63.995L27.163 -64.430L27.417 -64.575L27.925 -64.865L28.179 -65.010L28.686 -65.300L28.940 -65.445L29.448 -65.736L29.702 -65.881L30.464 -66.316L30.717 -66.461L31.225 -66.751L31.479 -66.896L31.987 -67.186L32.035 -67.214L32.035 -15.245ZM61.689 -56.396L61.933 -56.558L65.826 -59.154L66.070 -59.316L66.556 -59.641L66.800 -59.803L71.424 -62.885L71.667 -63.048L76.047 -65.968L76.291 -66.130L77.535 -66.960L77.535 -15.166L76.796 -14.673L76.553 -14.511L72.415 -11.753L72.172 -11.591L67.548 -8.508L67.305 -8.346L62.438 -5.101L62.195 -4.939L60.035 -3.499L60.035 -55.293L61.689 -56.396Z"/>
  </g>
 </g>
</svg>
