<?xml version="1.0" encoding="UTF-8"?>
<!--Generator: Custom SF Symbol – Foxhunt-->
<!DOCTYPE svg
PUBLIC "-//W3C//DTD SVG 1.1//EN"
       "http://www.w3.org/Graphics/SVG/1.1/DTD/svg11.dtd">
<svg version="1.1" xmlns="http://www.w3.org/2000/svg" xmlns:xlink="http://www.w3.org/1999/xlink" viewBox="0 0 3300 2200">
 <!--glyph: "co.swellyo.trips.fill", point size: 100.0, template writer version: "138.0.0"-->
 <style>.monochrome-0 {-sfsymbols-motion-group:0;-sfsymbols-layer-tags:-a1b2c3d4e5f60001}

.multicolor-0:tintColor {-sfsymbols-motion-group:0;-sfsymbols-layer-tags:-a1b2c3d4e5f60001}

.hierarchical-0:primary {-sfsymbols-motion-group:0;-sfsymbols-layer-tags:-a1b2c3d4e5f60001}

.SFSymbolsPreviewWireframe {fill:none;opacity:1.0;stroke:black;stroke-width:0.5}
</style>
 <g id="Notes">
  <rect height="2200" id="artboard" style="fill:white;opacity:1" width="3300" x="0" y="0"/>
  <line style="fill:none;stroke:black;opacity:1;stroke-width:0.5;" x1="263" x2="3036" y1="292" y2="292"/>
  <text style="stroke:none;fill:black;font-family:sans-serif;font-size:13;font-weight:bold;" transform="matrix(1 0 0 1 263 322)">Weight/Scale Variations</text>
  <text style="stroke:none;fill:black;font-family:sans-serif;font-size:13;text-anchor:middle;" transform="matrix(1 0 0 1 559.711 322)">Ultralight</text>
  <text style="stroke:none;fill:black;font-family:sans-serif;font-size:13;text-anchor:middle;" transform="matrix(1 0 0 1 1449.84 322)">Regular</text>
  <text style="stroke:none;fill:black;font-family:sans-serif;font-size:13;text-anchor:middle;" transform="matrix(1 0 0 1 2933.4 322)">Black</text>
  <line style="fill:none;stroke:black;opacity:1;stroke-width:0.5;" x1="263" x2="3036" y1="1903" y2="1903"/>
  <text id="template-version" style="stroke:none;fill:black;font-family:sans-serif;font-size:13;text-anchor:end;" transform="matrix(1 0 0 1 3036 1933)">Template v.6.0</text>
  <text style="stroke:none;fill:black;font-family:sans-serif;font-size:13;text-anchor:end;" transform="matrix(1 0 0 1 3036 1951)">Requires Xcode 16 or greater</text>
  <text id="descriptive-name" style="stroke:none;fill:black;font-family:sans-serif;font-size:13;text-anchor:end;" transform="matrix(1 0 0 1 3036 1969)">Generated from co.swellyo.trips.fill</text>
  <text style="stroke:none;fill:black;font-family:sans-serif;font-size:13;text-anchor:end;" transform="matrix(1 0 0 1 3036 1987)">Typeset at 100.0 points</text>
  <text style="stroke:none;fill:black;font-family:sans-serif;font-size:13;" transform="matrix(1 0 0 1 263 726)">Small</text>
  <text style="stroke:none;fill:black;font-family:sans-serif;font-size:13;" transform="matrix(1 0 0 1 263 1156)">Medium</text>
  <text style="stroke:none;fill:black;font-family:sans-serif;font-size:13;" transform="matrix(1 0 0 1 263 1586)">Large</text>
 </g>
 <g id="Guides">
  <g id="H-reference" style="fill:#27AAE1;stroke:none;" transform="matrix(1 0 0 1 339 696)">
   <path d="M0.993654 0L3.63775 0L29.3281-67.1323L30.0303-67.1323L30.0303-70.459L28.1226-70.459ZM11.6885-24.4799L46.9815-24.4799L46.2315-26.7285L12.4385-26.7285ZM55.1196 0L57.7637 0L30.6382-70.459L29.4326-70.459L29.4326-67.1323Z"/>
  </g>
  <line id="Baseline-S" style="fill:none;stroke:#27AAE1;opacity:1;stroke-width:0.5;" x1="263" x2="3036" y1="696" y2="696"/>
  <line id="Capline-S" style="fill:none;stroke:#27AAE1;opacity:1;stroke-width:0.5;" x1="263" x2="3036" y1="625.541" y2="625.541"/>
  <g id="H-reference" style="fill:#27AAE1;stroke:none;" transform="matrix(1 0 0 1 339 1126)">
   <path d="M0.993654 0L3.63775 0L29.3281-67.1323L30.0303-67.1323L30.0303-70.459L28.1226-70.459ZM11.6885-24.4799L46.9815-24.4799L46.2315-26.7285L12.4385-26.7285ZM55.1196 0L57.7637 0L30.6382-70.459L29.4326-70.459L29.4326-67.1323Z"/>
  </g>
  <line id="Baseline-M" style="fill:none;stroke:#27AAE1;opacity:1;stroke-width:0.5;" x1="263" x2="3036" y1="1126" y2="1126"/>
  <line id="Capline-M" style="fill:none;stroke:#27AAE1;opacity:1;stroke-width:0.5;" x1="263" x2="3036" y1="1055.54" y2="1055.54"/>
  <g id="H-reference" style="fill:#27AAE1;stroke:none;" transform="matrix(1 0 0 1 339 1556)">
   <path d="M0.993654 0L3.63775 0L29.3281-67.1323L30.0303-67.1323L30.0303-70.459L28.1226-70.459ZM11.6885-24.4799L46.9815-24.4799L46.2315-26.7285L12.4385-26.7285ZM55.1196 0L57.7637 0L30.6382-70.459L29.4326-70.459L29.4326-67.1323Z"/>
  </g>
  <line id="Baseline-L" style="fill:none;stroke:#27AAE1;opacity:1;stroke-width:0.5;" x1="263" x2="3036" y1="1556" y2="1556"/>
  <line id="Capline-L" style="fill:none;stroke:#27AAE1;opacity:1;stroke-width:0.5;" x1="263" x2="3036" y1="1485.54" y2="1485.54"/>
  <line id="left-margin-Ultralight-S" style="fill:none;stroke:#00AEEF;stroke-width:0.5;opacity:1.0;" x1="515.423" x2="515.423" y1="600.785" y2="720.121"/>
  <line id="right-margin-Ultralight-S" style="fill:none;stroke:#00AEEF;stroke-width:0.5;opacity:1.0;" x1="604" x2="604" y1="600.785" y2="720.121"/>
  <line id="left-margin-Regular-S" style="fill:none;stroke:#00AEEF;stroke-width:0.5;opacity:1.0;" x1="1405.56" x2="1405.56" y1="600.785" y2="720.121"/>
  <line id="right-margin-Regular-S" style="fill:none;stroke:#00AEEF;stroke-width:0.5;opacity:1.0;" x1="1494.13" x2="1494.13" y1="600.785" y2="720.121"/>
  <line id="left-margin-Black-S" style="fill:none;stroke:#00AEEF;stroke-width:0.5;opacity:1.0;" x1="2889.11" x2="2889.11" y1="600.785" y2="720.121"/>
  <line id="right-margin-Black-S" style="fill:none;stroke:#00AEEF;stroke-width:0.5;opacity:1.0;" x1="2977.69" x2="2977.69" y1="600.785" y2="720.121"/>
 </g>
 <g id="Symbols">
  <g id="Black-S" transform="matrix(1 0 0 1 2889.11 696)">
   <path class="monochrome-0 multicolor-0:tintColor hierarchical-0:primary SFSymbolsPreviewWireframe" fill-rule="evenodd" d="M82.772 -70.527L82.735 -70.819L82.674 -71.105L82.589 -71.384L82.483 -71.653L82.354 -71.912L82.205 -72.159L82.036 -72.394L81.848 -72.614L81.641 -72.818L81.416 -73.006L81.175 -73.175L80.918 -73.325L80.649 -73.453L80.373 -73.556L80.092 -73.635L79.806 -73.691L79.518 -73.722L79.229 -73.729L78.941 -73.713L78.655 -73.672L78.372 -73.608L78.095 -73.521L77.824 -73.410L77.561 -73.275L77.309 -73.118L77.066 -72.956L76.822 -72.794L76.579 -72.632L76.336 -72.470L76.093 -72.308L75.850 -72.146L75.607 -71.984L75.364 -71.822L75.120 -71.660L74.877 -71.497L74.634 -71.335L74.391 -71.173L74.148 -71.011L73.905 -70.849L73.662 -70.687L73.418 -70.525L73.175 -70.363L72.932 -70.201L72.689 -70.039L72.446 -69.877L72.203 -69.714L71.960 -69.552L71.716 -69.390L71.473 -69.228L71.230 -69.066L70.987 -68.904L70.744 -68.742L70.501 -68.580L70.258 -68.418L70.014 -68.256L69.771 -68.093L69.528 -67.931L69.285 -67.769L69.042 -67.607L68.799 -67.445L68.556 -67.283L68.312 -67.121L68.069 -66.959L67.826 -66.797L67.583 -66.635L67.340 -66.473L67.097 -66.310L66.854 -66.148L66.610 -65.986L66.367 -65.824L66.124 -65.662L65.881 -65.500L65.638 -65.338L65.395 -65.176L65.152 -65.014L64.908 -64.852L64.665 -64.689L64.422 -64.527L64.131 -64.333L63.803 -64.113L63.519 -63.919L63.273 -63.743L63.061 -63.581L62.877 -63.426L62.717 -63.271L62.574 -63.109L62.398 -62.875L62.243 -62.628L62.110 -62.369L61.998 -62.099L61.916 -61.846L61.868 -61.636L61.833 -61.410L61.810 -61.162L61.796 -60.883L61.788 -60.566L61.785 -60.204L61.785 -59.789L61.785 -59.491L61.785 -59.199L61.785 -58.907L61.785 -58.614L61.785 -58.322L61.785 -58.030L61.785 -57.738L61.785 -57.446L61.785 -57.153L61.785 -56.861L61.785 -56.569L61.785 -56.277L61.785 -55.984L61.785 -55.692L61.785 -55.400L61.785 -55.108L61.785 -54.816L61.785 -54.523L61.785 -54.231L61.785 -53.939L61.785 -53.647L61.785 -53.354L61.785 -53.062L61.785 -52.770L61.785 -52.478L61.785 -52.186L61.785 -51.893L61.785 -51.601L61.785 -51.309L61.785 -51.017L61.785 -50.724L61.785 -50.432L61.785 -50.140L61.785 -49.848L61.785 -49.556L61.785 -49.263L61.785 -48.971L61.785 -48.679L61.785 -48.387L61.785 -48.094L61.785 -47.802L61.785 -47.510L61.785 -47.218L61.785 -46.926L61.785 -46.633L61.785 -46.341L61.785 -46.049L61.785 -45.757L61.785 -45.464L61.785 -45.172L61.785 -44.880L61.785 -44.588L61.785 -44.296L61.785 -44.003L61.785 -43.711L61.785 -43.419L61.785 -43.127L61.785 -42.834L61.785 -42.542L61.785 -42.250L61.785 -41.958L61.785 -41.666L61.785 -41.373L61.785 -41.081L61.785 -40.789L61.785 -40.497L61.785 -40.204L61.785 -39.912L61.785 -39.620L61.785 -39.328L61.785 -39.036L61.785 -38.743L61.785 -38.451L61.785 -38.159L61.785 -37.867L61.785 -37.574L61.785 -37.282L61.785 -36.990L61.785 -36.698L61.785 -36.406L61.785 -36.113L61.785 -35.821L61.785 -35.529L61.785 -35.237L61.785 -34.944L61.785 -34.652L61.785 -34.360L61.785 -34.068L61.785 -33.776L61.785 -33.483L61.785 -33.191L61.785 -32.899L61.785 -32.607L61.785 -32.315L61.785 -32.022L61.785 -31.730L61.785 -31.438L61.785 -31.146L61.785 -30.853L61.785 -30.561L61.785 -30.269L61.785 -29.977L61.785 -29.685L61.785 -29.392L61.785 -29.100L61.785 -28.808L61.785 -28.516L61.785 -28.223L61.785 -27.931L61.785 -27.639L61.785 -27.347L61.785 -27.055L61.785 -26.762L61.785 -26.470L61.785 -26.178L61.785 -25.886L61.785 -25.593L61.785 -25.301L61.785 -25.009L61.785 -24.717L61.785 -24.425L61.785 -24.132L61.785 -23.840L61.785 -23.548L61.785 -23.256L61.785 -22.963L61.785 -22.671L61.785 -22.379L61.785 -22.087L61.785 -21.795L61.785 -21.502L61.785 -21.210L61.785 -20.918L61.785 -20.626L61.785 -20.333L61.785 -20.041L61.785 -19.749L61.785 -19.457L61.785 -19.165L61.785 -18.872L61.785 -18.580L61.785 -18.288L61.785 -17.996L61.785 -17.703L61.785 -17.411L61.785 -17.119L61.785 -16.827L61.785 -16.535L61.785 -16.242L61.785 -15.950L61.785 -15.658L61.785 -15.366L61.785 -15.073L61.785 -14.781L61.785 -14.489L61.785 -14.197L61.785 -13.905L61.785 -13.612L61.785 -13.320L61.785 -13.028L61.785 -12.736L61.785 -12.443L61.785 -12.151L61.785 -11.859L61.785 -11.567L61.785 -11.275L61.785 -10.982L61.785 -10.690L61.785 -10.398L61.785 -10.106L61.785 -9.813L61.785 -9.521L61.785 -9.229L61.785 -8.937L61.785 -8.645L61.785 -8.352L61.785 -8.060L61.785 -7.768L61.785 -7.476L61.785 -7.183L61.785 -6.891L61.785 -6.599L61.785 -6.307L61.785 -6.015L61.785 -5.722L61.785 -5.430L61.785 -5.138L61.785 -4.846L61.785 -4.553L61.785 -4.261L61.785 -3.969L61.785 -3.677L61.785 -3.262L61.786 -2.831L61.791 -2.442L61.800 -2.092L61.816 -1.780L61.841 -1.502L61.876 -1.257L61.923 -1.041L61.984 -0.853L62.061 -0.689L62.169 -0.532L62.371 -0.319L62.604 -0.145L62.861 -0.011L63.138 0.078L63.429 0.120L63.600 0.117L63.781 0.086L63.973 0.028L64.182 -0.056L64.409 -0.167L64.657 -0.305L64.930 -0.469L65.231 -0.659L65.562 -0.876L65.927 -1.118L66.250 -1.333L66.494 -1.495L66.737 -1.657L66.980 -1.820L67.223 -1.982L67.466 -2.144L67.709 -2.306L67.952 -2.468L68.196 -2.630L68.439 -2.792L68.682 -2.954L68.925 -3.116L69.168 -3.278L69.411 -3.441L69.654 -3.603L69.898 -3.765L70.141 -3.927L70.384 -4.089L70.627 -4.251L70.870 -4.413L71.113 -4.575L71.356 -4.737L71.600 -4.899L71.843 -5.061L72.086 -5.224L72.329 -5.386L72.572 -5.548L72.815 -5.710L73.059 -5.872L73.302 -6.034L73.545 -6.196L73.788 -6.358L74.031 -6.520L74.274 -6.682L74.517 -6.844L74.761 -7.007L75.004 -7.169L75.247 -7.331L75.490 -7.493L75.733 -7.655L75.976 -7.817L76.219 -7.979L76.463 -8.141L76.706 -8.303L76.949 -8.465L77.192 -8.628L77.435 -8.790L77.678 -8.952L77.921 -9.114L78.165 -9.276L78.408 -9.438L78.651 -9.600L78.894 -9.762L79.137 -9.924L79.380 -10.086L79.623 -10.248L79.867 -10.411L80.110 -10.573L80.353 -10.735L80.596 -10.897L80.839 -11.059L81.082 -11.221L81.326 -11.386L81.559 -11.568L81.773 -11.768L81.969 -11.983L82.146 -12.214L82.303 -12.457L82.439 -12.712L82.554 -12.978L82.646 -13.253L82.716 -13.537L82.762 -13.826L82.783 -14.121L82.785 -14.415L82.785 -14.707L82.785 -15.000L82.785 -15.292L82.785 -15.584L82.785 -15.876L82.785 -16.168L82.785 -16.461L82.785 -16.753L82.785 -17.045L82.785 -17.337L82.785 -17.630L82.785 -17.922L82.785 -18.214L82.785 -18.506L82.785 -18.798L82.785 -19.091L82.785 -19.383L82.785 -19.675L82.785 -19.967L82.785 -20.260L82.785 -20.552L82.785 -20.844L82.785 -21.136L82.785 -21.428L82.785 -21.721L82.785 -22.013L82.785 -22.305L82.785 -22.597L82.785 -22.890L82.785 -23.182L82.785 -23.474L82.785 -23.766L82.785 -24.058L82.785 -24.351L82.785 -24.643L82.785 -24.935L82.785 -25.227L82.785 -25.520L82.785 -25.812L82.785 -26.104L82.785 -26.396L82.785 -26.688L82.785 -26.981L82.785 -27.273L82.785 -27.565L82.785 -27.857L82.785 -28.150L82.785 -28.442L82.785 -28.734L82.785 -29.026L82.785 -29.318L82.785 -29.611L82.785 -29.903L82.785 -30.195L82.785 -30.487L82.785 -30.780L82.785 -31.072L82.785 -31.364L82.785 -31.656L82.785 -31.948L82.785 -32.241L82.785 -32.533L82.785 -32.825L82.785 -33.117L82.785 -33.410L82.785 -33.702L82.785 -33.994L82.785 -34.286L82.785 -34.578L82.785 -34.871L82.785 -35.163L82.785 -35.455L82.785 -35.747L82.785 -36.040L82.785 -36.332L82.785 -36.624L82.785 -36.916L82.785 -37.208L82.785 -37.501L82.785 -37.793L82.785 -38.085L82.785 -38.377L82.785 -38.670L82.785 -38.962L82.785 -39.254L82.785 -39.546L82.785 -39.838L82.785 -40.131L82.785 -40.423L82.785 -40.715L82.785 -41.007L82.785 -41.300L82.785 -41.592L82.785 -41.884L82.785 -42.176L82.785 -42.468L82.785 -42.761L82.785 -43.053L82.785 -43.345L82.785 -43.637L82.785 -43.930L82.785 -44.222L82.785 -44.514L82.785 -44.806L82.785 -45.098L82.785 -45.391L82.785 -45.683L82.785 -45.975L82.785 -46.267L82.785 -46.560L82.785 -46.852L82.785 -47.144L82.785 -47.436L82.785 -47.728L82.785 -48.021L82.785 -48.313L82.785 -48.605L82.785 -48.897L82.785 -49.190L82.785 -49.482L82.785 -49.774L82.785 -50.066L82.785 -50.358L82.785 -50.651L82.785 -50.943L82.785 -51.235L82.785 -51.527L82.785 -51.820L82.785 -52.112L82.785 -52.404L82.785 -52.696L82.785 -52.988L82.785 -53.281L82.785 -53.573L82.785 -53.865L82.785 -54.157L82.785 -54.450L82.785 -54.742L82.785 -55.034L82.785 -55.326L82.785 -55.618L82.785 -55.911L82.785 -56.203L82.785 -56.495L82.785 -56.787L82.785 -57.080L82.785 -57.372L82.785 -57.664L82.785 -57.956L82.785 -58.248L82.785 -58.541L82.785 -58.833L82.785 -59.125L82.785 -59.417L82.785 -59.710L82.785 -60.002L82.785 -60.294L82.785 -60.586L82.785 -60.878L82.785 -61.171L82.785 -61.463L82.785 -61.755L82.785 -62.047L82.785 -62.340L82.785 -62.632L82.785 -62.924L82.785 -63.216L82.785 -63.508L82.785 -63.801L82.785 -64.093L82.785 -64.385L82.785 -64.677L82.785 -64.970L82.785 -65.262L82.785 -65.554L82.785 -65.846L82.785 -66.138L82.785 -66.431L82.785 -66.723L82.785 -67.015L82.785 -67.307L82.785 -67.600L82.785 -67.892L82.785 -68.184L82.785 -68.476L82.785 -68.768L82.785 -69.061L82.785 -69.353L82.785 -69.645L82.785 -69.937L82.785 -70.229L82.772 -70.527ZM37.288 -10.658L37.294 -10.331L37.307 -10.042L37.328 -9.783L37.360 -9.550L37.404 -9.334L37.464 -9.125L37.568 -8.852L37.694 -8.588L37.841 -8.336L38.009 -8.098L38.195 -7.875L38.345 -7.724L38.512 -7.579L38.701 -7.436L38.918 -7.289L39.166 -7.133L39.450 -6.964L39.774 -6.776L40.130 -6.572L40.384 -6.427L40.638 -6.282L40.892 -6.137L41.146 -5.992L41.400 -5.847L41.653 -5.702L41.907 -5.557L42.161 -5.412L42.415 -5.267L42.669 -5.122L42.923 -4.977L43.177 -4.832L43.430 -4.687L43.684 -4.542L43.938 -4.396L44.192 -4.251L44.446 -4.106L44.700 -3.961L44.954 -3.816L45.207 -3.671L45.461 -3.526L45.715 -3.381L45.969 -3.236L46.223 -3.091L46.477 -2.946L46.731 -2.801L46.984 -2.656L47.238 -2.511L47.492 -2.366L47.746 -2.221L48.000 -2.076L48.254 -1.930L48.507 -1.785L48.761 -1.640L49.015 -1.495L49.269 -1.350L49.523 -1.205L49.777 -1.060L50.031 -0.915L50.284 -0.770L50.538 -0.625L50.906 -0.415L51.273 -0.207L51.603 -0.025L51.902 0.133L52.171 0.265L52.414 0.371L52.636 0.450L52.839 0.503L53.027 0.529L53.204 0.528L53.480 0.479L53.754 0.381L54.008 0.241L54.235 0.060L54.431 -0.159L54.533 -0.318L54.608 -0.489L54.667 -0.685L54.710 -0.910L54.742 -1.166L54.763 -1.457L54.776 -1.785L54.782 -2.153L54.785 -2.563L54.785 -3.020L54.785 -3.314L54.785 -3.606L54.785 -3.898L54.785 -4.191L54.785 -4.483L54.785 -4.775L54.785 -5.068L54.785 -5.360L54.785 -5.653L54.785 -5.945L54.785 -6.237L54.785 -6.530L54.785 -6.822L54.785 -7.114L54.785 -7.407L54.785 -7.699L54.785 -7.992L54.785 -8.284L54.785 -8.576L54.785 -8.869L54.785 -9.161L54.785 -9.453L54.785 -9.746L54.785 -10.038L54.785 -10.331L54.785 -10.623L54.785 -10.915L54.785 -11.208L54.785 -11.500L54.785 -11.792L54.785 -12.085L54.785 -12.377L54.785 -12.670L54.785 -12.962L54.785 -13.254L54.785 -13.547L54.785 -13.839L54.785 -14.131L54.785 -14.424L54.785 -14.716L54.785 -15.009L54.785 -15.301L54.785 -15.593L54.785 -15.886L54.785 -16.178L54.785 -16.470L54.785 -16.763L54.785 -17.055L54.785 -17.348L54.785 -17.640L54.785 -17.932L54.785 -18.225L54.785 -18.517L54.785 -18.809L54.785 -19.102L54.785 -19.394L54.785 -19.687L54.785 -19.979L54.785 -20.271L54.785 -20.564L54.785 -20.856L54.785 -21.148L54.785 -21.441L54.785 -21.733L54.785 -22.026L54.785 -22.318L54.785 -22.610L54.785 -22.903L54.785 -23.195L54.785 -23.487L54.785 -23.780L54.785 -24.072L54.785 -24.365L54.785 -24.657L54.785 -24.949L54.785 -25.242L54.785 -25.534L54.785 -25.826L54.785 -26.119L54.785 -26.411L54.785 -26.704L54.785 -26.996L54.785 -27.288L54.785 -27.581L54.785 -27.873L54.785 -28.165L54.785 -28.458L54.785 -28.750L54.785 -29.043L54.785 -29.335L54.785 -29.627L54.785 -29.920L54.785 -30.212L54.785 -30.504L54.785 -30.797L54.785 -31.089L54.785 -31.382L54.785 -31.674L54.785 -31.966L54.785 -32.259L54.785 -32.551L54.785 -32.843L54.785 -33.136L54.785 -33.428L54.785 -33.721L54.785 -34.013L54.785 -34.305L54.785 -34.598L54.785 -34.890L54.785 -35.182L54.785 -35.475L54.785 -35.767L54.785 -36.060L54.785 -36.352L54.785 -36.644L54.785 -36.937L54.785 -37.229L54.785 -37.521L54.785 -37.814L54.785 -38.106L54.785 -38.399L54.785 -38.691L54.785 -38.983L54.785 -39.276L54.785 -39.568L54.785 -39.860L54.785 -40.153L54.785 -40.445L54.785 -40.738L54.785 -41.030L54.785 -41.322L54.785 -41.615L54.785 -41.907L54.785 -42.199L54.785 -42.492L54.785 -42.784L54.785 -43.077L54.785 -43.369L54.785 -43.661L54.785 -43.954L54.785 -44.246L54.785 -44.538L54.785 -44.831L54.785 -45.123L54.785 -45.416L54.785 -45.708L54.785 -46.000L54.785 -46.293L54.785 -46.585L54.785 -46.877L54.785 -47.170L54.785 -47.462L54.785 -47.755L54.785 -48.047L54.785 -48.339L54.785 -48.632L54.785 -48.924L54.785 -49.216L54.785 -49.509L54.785 -49.801L54.785 -50.094L54.785 -50.386L54.785 -50.678L54.785 -50.971L54.785 -51.263L54.785 -51.555L54.785 -51.848L54.785 -52.140L54.785 -52.433L54.785 -52.725L54.785 -53.017L54.785 -53.310L54.785 -53.602L54.785 -53.894L54.785 -54.187L54.785 -54.479L54.785 -54.772L54.785 -55.064L54.785 -55.356L54.785 -55.649L54.785 -55.941L54.785 -56.233L54.785 -56.526L54.785 -56.818L54.785 -57.111L54.785 -57.403L54.785 -57.695L54.785 -57.988L54.785 -58.280L54.785 -58.572L54.785 -58.865L54.785 -59.228L54.784 -59.622L54.780 -59.970L54.770 -60.277L54.753 -60.550L54.727 -60.795L54.690 -61.019L54.639 -61.228L54.557 -61.472L54.442 -61.740L54.305 -61.998L54.148 -62.244L53.969 -62.476L53.802 -62.661L53.644 -62.808L53.466 -62.951L53.264 -63.096L53.032 -63.246L52.767 -63.408L52.463 -63.586L52.117 -63.785L51.813 -63.959L51.559 -64.104L51.305 -64.249L51.051 -64.394L50.797 -64.539L50.543 -64.684L50.290 -64.829L50.036 -64.974L49.782 -65.120L49.528 -65.265L49.274 -65.410L49.020 -65.555L48.766 -65.700L48.513 -65.845L48.259 -65.990L48.005 -66.135L47.751 -66.280L47.497 -66.425L47.243 -66.570L46.989 -66.715L46.736 -66.860L46.482 -67.005L46.228 -67.150L45.974 -67.295L45.720 -67.440L45.466 -67.586L45.213 -67.731L44.959 -67.876L44.705 -68.021L44.451 -68.166L44.197 -68.311L43.943 -68.456L43.689 -68.601L43.436 -68.746L43.182 -68.891L42.928 -69.036L42.674 -69.181L42.420 -69.326L42.166 -69.471L41.912 -69.616L41.659 -69.761L41.362 -69.931L40.976 -70.151L40.628 -70.346L40.314 -70.516L40.030 -70.661L39.775 -70.780L39.542 -70.873L39.330 -70.939L39.135 -70.979L38.953 -70.991L38.734 -70.969L38.451 -70.895L38.186 -70.775L37.945 -70.614L37.733 -70.414L37.581 -70.217L37.497 -70.059L37.431 -69.876L37.380 -69.665L37.342 -69.425L37.317 -69.152L37.300 -68.843L37.290 -68.496L37.286 -68.107L37.285 -67.673L37.285 -67.292L37.285 -66.999L37.285 -66.707L37.285 -66.414L37.285 -66.122L37.285 -65.830L37.285 -65.537L37.285 -65.245L37.285 -64.953L37.285 -64.660L37.285 -64.368L37.285 -64.075L37.285 -63.783L37.285 -63.491L37.285 -63.198L37.285 -62.906L37.285 -62.614L37.285 -62.321L37.285 -62.029L37.285 -61.736L37.285 -61.444L37.285 -61.152L37.285 -60.859L37.285 -60.567L37.285 -60.275L37.285 -59.982L37.285 -59.690L37.285 -59.397L37.285 -59.105L37.285 -58.813L37.285 -58.520L37.285 -58.228L37.285 -57.936L37.285 -57.643L37.285 -57.351L37.285 -57.058L37.285 -56.766L37.285 -56.474L37.285 -56.181L37.285 -55.889L37.285 -55.597L37.285 -55.304L37.285 -55.012L37.285 -54.720L37.285 -54.427L37.285 -54.135L37.285 -53.842L37.285 -53.550L37.285 -53.258L37.285 -52.965L37.285 -52.673L37.285 -52.381L37.285 -52.088L37.285 -51.796L37.285 -51.503L37.285 -51.211L37.285 -50.919L37.285 -50.626L37.285 -50.334L37.285 -50.042L37.285 -49.749L37.285 -49.457L37.285 -49.164L37.285 -48.872L37.285 -48.580L37.285 -48.287L37.285 -47.995L37.285 -47.703L37.285 -47.410L37.285 -47.118L37.285 -46.825L37.285 -46.533L37.285 -46.241L37.285 -45.948L37.285 -45.656L37.285 -45.364L37.285 -45.071L37.285 -44.779L37.285 -44.486L37.285 -44.194L37.285 -43.902L37.285 -43.609L37.285 -43.317L37.285 -43.025L37.285 -42.732L37.285 -42.440L37.285 -42.147L37.285 -41.855L37.285 -41.563L37.285 -41.270L37.285 -40.978L37.285 -40.686L37.285 -40.393L37.285 -40.101L37.285 -39.808L37.285 -39.516L37.285 -39.224L37.285 -38.931L37.285 -38.639L37.285 -38.347L37.285 -38.054L37.285 -37.762L37.285 -37.469L37.285 -37.177L37.285 -36.885L37.285 -36.592L37.285 -36.300L37.285 -36.008L37.285 -35.715L37.285 -35.423L37.285 -35.130L37.285 -34.838L37.285 -34.546L37.285 -34.253L37.285 -33.961L37.285 -33.669L37.285 -33.376L37.285 -33.084L37.285 -32.791L37.285 -32.499L37.285 -32.207L37.285 -31.914L37.285 -31.622L37.285 -31.330L37.285 -31.037L37.285 -30.745L37.285 -30.452L37.285 -30.160L37.285 -29.868L37.285 -29.575L37.285 -29.283L37.285 -28.991L37.285 -28.698L37.285 -28.406L37.285 -28.113L37.285 -27.821L37.285 -27.529L37.285 -27.236L37.285 -26.944L37.285 -26.652L37.285 -26.359L37.285 -26.067L37.285 -25.774L37.285 -25.482L37.285 -25.190L37.285 -24.897L37.285 -24.605L37.285 -24.313L37.285 -24.020L37.285 -23.728L37.285 -23.435L37.285 -23.143L37.285 -22.851L37.285 -22.558L37.285 -22.266L37.285 -21.974L37.285 -21.681L37.285 -21.389L37.285 -21.096L37.285 -20.804L37.285 -20.512L37.285 -20.219L37.285 -19.927L37.285 -19.635L37.285 -19.342L37.285 -19.050L37.285 -18.757L37.285 -18.465L37.285 -18.173L37.285 -17.880L37.285 -17.588L37.285 -17.296L37.285 -17.003L37.285 -16.711L37.285 -16.418L37.285 -16.126L37.285 -15.834L37.285 -15.541L37.285 -15.249L37.285 -14.957L37.285 -14.664L37.285 -14.372L37.285 -14.079L37.285 -13.787L37.285 -13.495L37.285 -13.202L37.285 -12.910L37.285 -12.618L37.285 -12.325L37.285 -12.033L37.285 -11.740L37.285 -11.448L37.285 -11.028L37.288 -10.658ZM30.282 -68.304L30.276 -68.672L30.263 -69.000L30.242 -69.291L30.211 -69.548L30.167 -69.773L30.109 -69.969L30.034 -70.140L29.932 -70.299L29.736 -70.518L29.509 -70.699L29.255 -70.840L28.981 -70.937L28.704 -70.987L28.528 -70.988L28.339 -70.962L28.136 -70.909L27.915 -70.830L27.671 -70.724L27.402 -70.592L27.104 -70.434L26.773 -70.252L26.407 -70.044L26.039 -69.834L25.785 -69.689L25.531 -69.544L25.277 -69.399L25.023 -69.254L24.769 -69.109L24.515 -68.963L24.261 -68.818L24.007 -68.673L23.753 -68.528L23.499 -68.383L23.245 -68.238L22.992 -68.093L22.738 -67.948L22.484 -67.803L22.230 -67.658L21.976 -67.513L21.722 -67.367L21.468 -67.222L21.214 -67.077L20.960 -66.932L20.706 -66.787L20.452 -66.642L20.198 -66.497L19.944 -66.352L19.691 -66.207L19.437 -66.062L19.183 -65.916L18.929 -65.771L18.675 -65.626L18.421 -65.481L18.167 -65.336L17.913 -65.191L17.659 -65.046L17.405 -64.901L17.151 -64.756L16.897 -64.611L16.644 -64.466L16.390 -64.320L16.136 -64.175L15.882 -64.030L15.628 -63.885L15.374 -63.740L15.120 -63.595L14.866 -63.450L14.612 -63.305L14.358 -63.160L14.104 -63.015L13.850 -62.869L13.597 -62.724L13.343 -62.579L13.089 -62.434L12.835 -62.289L12.581 -62.144L12.327 -61.999L12.073 -61.854L11.819 -61.709L11.565 -61.564L11.311 -61.418L11.057 -61.273L10.803 -61.128L10.550 -60.983L10.296 -60.838L10.042 -60.693L9.788 -60.548L9.534 -60.403L9.280 -60.258L9.026 -60.113L8.772 -59.968L8.518 -59.822L8.264 -59.677L8.010 -59.532L7.756 -59.387L7.502 -59.241L7.253 -59.079L7.021 -58.898L6.806 -58.700L6.609 -58.486L6.432 -58.257L6.274 -58.014L6.137 -57.759L6.021 -57.494L5.928 -57.219L5.857 -56.936L5.810 -56.646L5.787 -56.350L5.785 -56.055L5.785 -55.763L5.785 -55.471L5.785 -55.178L5.785 -54.886L5.785 -54.593L5.785 -54.301L5.785 -54.008L5.785 -53.716L5.785 -53.423L5.785 -53.131L5.785 -52.839L5.785 -52.546L5.785 -52.254L5.785 -51.961L5.785 -51.669L5.785 -51.376L5.785 -51.084L5.785 -50.791L5.785 -50.499L5.785 -50.206L5.785 -49.914L5.785 -49.622L5.785 -49.329L5.785 -49.037L5.785 -48.744L5.785 -48.452L5.785 -48.159L5.785 -47.867L5.785 -47.574L5.785 -47.282L5.785 -46.990L5.785 -46.697L5.785 -46.405L5.785 -46.112L5.785 -45.820L5.785 -45.527L5.785 -45.235L5.785 -44.942L5.785 -44.650L5.785 -44.357L5.785 -44.065L5.785 -43.773L5.785 -43.480L5.785 -43.188L5.785 -42.895L5.785 -42.603L5.785 -42.310L5.785 -42.018L5.785 -41.725L5.785 -41.433L5.785 -41.141L5.785 -40.848L5.785 -40.556L5.785 -40.263L5.785 -39.971L5.785 -39.678L5.785 -39.386L5.785 -39.093L5.785 -38.801L5.785 -38.508L5.785 -38.216L5.785 -37.924L5.785 -37.631L5.785 -37.339L5.785 -37.046L5.785 -36.754L5.785 -36.461L5.785 -36.169L5.785 -35.876L5.785 -35.584L5.785 -35.292L5.785 -34.999L5.785 -34.707L5.785 -34.414L5.785 -34.122L5.785 -33.829L5.785 -33.537L5.785 -33.244L5.785 -32.952L5.785 -32.659L5.785 -32.367L5.785 -32.075L5.785 -31.782L5.785 -31.490L5.785 -31.197L5.785 -30.905L5.785 -30.612L5.785 -30.320L5.785 -30.027L5.785 -29.735L5.785 -29.443L5.785 -29.150L5.785 -28.858L5.785 -28.565L5.785 -28.273L5.785 -27.980L5.785 -27.688L5.785 -27.395L5.785 -27.103L5.785 -26.810L5.785 -26.518L5.785 -26.226L5.785 -25.933L5.785 -25.641L5.785 -25.348L5.785 -25.056L5.785 -24.763L5.785 -24.471L5.785 -24.178L5.785 -23.886L5.785 -23.594L5.785 -23.301L5.785 -23.009L5.785 -22.716L5.785 -22.424L5.785 -22.131L5.785 -21.839L5.785 -21.546L5.785 -21.254L5.785 -20.961L5.785 -20.669L5.785 -20.377L5.785 -20.084L5.785 -19.792L5.785 -19.499L5.785 -19.207L5.785 -18.914L5.785 -18.622L5.785 -18.329L5.785 -18.037L5.785 -17.745L5.785 -17.452L5.785 -17.160L5.785 -16.867L5.785 -16.575L5.785 -16.282L5.785 -15.990L5.785 -15.697L5.785 -15.405L5.785 -15.112L5.785 -14.820L5.785 -14.528L5.785 -14.235L5.785 -13.943L5.785 -13.650L5.785 -13.358L5.785 -13.065L5.785 -12.773L5.785 -12.480L5.785 -12.188L5.785 -11.896L5.785 -11.603L5.785 -11.311L5.785 -11.018L5.785 -10.726L5.785 -10.433L5.785 -10.141L5.785 -9.848L5.785 -9.556L5.785 -9.263L5.785 -8.971L5.785 -8.679L5.785 -8.386L5.785 -8.094L5.785 -7.801L5.785 -7.509L5.785 -7.216L5.785 -6.924L5.785 -6.631L5.785 -6.339L5.785 -6.046L5.785 -5.754L5.785 -5.462L5.785 -5.169L5.785 -4.877L5.785 -4.584L5.785 -4.292L5.785 -3.999L5.785 -3.707L5.785 -3.414L5.785 -3.122L5.785 -2.830L5.785 -2.537L5.785 -2.245L5.785 -1.952L5.785 -1.660L5.785 -1.367L5.785 -1.075L5.785 -0.782L5.785 -0.490L5.785 -0.197L5.801 0.100L5.840 0.392L5.904 0.677L5.991 0.955L6.101 1.223L6.231 1.481L6.383 1.727L6.555 1.961L6.746 2.179L6.955 2.383L7.183 2.569L7.427 2.736L7.686 2.884L7.955 3.008L8.230 3.108L8.512 3.184L8.797 3.236L9.085 3.265L9.375 3.269L9.663 3.250L9.950 3.207L10.233 3.140L10.512 3.049L10.783 2.934L11.046 2.795L11.300 2.650L11.554 2.505L11.808 2.360L12.062 2.215L12.316 2.070L12.570 1.925L12.824 1.779L13.077 1.634L13.331 1.489L13.585 1.344L13.839 1.199L14.093 1.054L14.347 0.909L14.601 0.764L14.855 0.619L15.109 0.474L15.363 0.329L15.617 0.183L15.871 0.038L16.125 -0.107L16.378 -0.252L16.632 -0.397L16.886 -0.542L17.140 -0.687L17.394 -0.832L17.648 -0.977L17.902 -1.122L18.156 -1.267L18.410 -1.413L18.664 -1.558L18.918 -1.703L19.172 -1.848L19.425 -1.993L19.679 -2.138L19.933 -2.283L20.187 -2.428L20.441 -2.573L20.695 -2.718L20.949 -2.863L21.203 -3.009L21.457 -3.154L21.711 -3.299L21.965 -3.444L22.219 -3.589L22.473 -3.734L22.726 -3.879L22.980 -4.024L23.234 -4.169L23.488 -4.314L23.742 -4.459L23.996 -4.605L24.250 -4.750L24.504 -4.895L24.758 -5.040L25.012 -5.185L25.266 -5.330L25.520 -5.475L25.773 -5.620L26.027 -5.765L26.281 -5.910L26.535 -6.055L26.789 -6.201L27.043 -6.346L27.297 -6.491L27.594 -6.661L27.943 -6.861L28.250 -7.040L28.517 -7.203L28.751 -7.354L28.955 -7.499L29.134 -7.642L29.293 -7.789L29.458 -7.970L29.637 -8.201L29.796 -8.446L29.935 -8.703L30.051 -8.971L30.136 -9.219L30.187 -9.427L30.226 -9.650L30.252 -9.894L30.269 -10.165L30.279 -10.471L30.284 -10.816L30.285 -11.208L30.285 -11.578L30.285 -11.870L30.285 -12.163L30.285 -12.455L30.285 -12.748L30.285 -13.040L30.285 -13.332L30.285 -13.625L30.285 -13.917L30.285 -14.210L30.285 -14.502L30.285 -14.795L30.285 -15.087L30.285 -15.380L30.285 -15.672L30.285 -15.964L30.285 -16.257L30.285 -16.549L30.285 -16.842L30.285 -17.134L30.285 -17.427L30.285 -17.719L30.285 -18.012L30.285 -18.304L30.285 -18.597L30.285 -18.889L30.285 -19.181L30.285 -19.474L30.285 -19.766L30.285 -20.059L30.285 -20.351L30.285 -20.644L30.285 -20.936L30.285 -21.229L30.285 -21.521L30.285 -21.814L30.285 -22.106L30.285 -22.398L30.285 -22.691L30.285 -22.983L30.285 -23.276L30.285 -23.568L30.285 -23.861L30.285 -24.153L30.285 -24.446L30.285 -24.738L30.285 -25.030L30.285 -25.323L30.285 -25.615L30.285 -25.908L30.285 -26.200L30.285 -26.493L30.285 -26.785L30.285 -27.078L30.285 -27.370L30.285 -27.663L30.285 -27.955L30.285 -28.247L30.285 -28.540L30.285 -28.832L30.285 -29.125L30.285 -29.417L30.285 -29.710L30.285 -30.002L30.285 -30.295L30.285 -30.587L30.285 -30.879L30.285 -31.172L30.285 -31.464L30.285 -31.757L30.285 -32.049L30.285 -32.342L30.285 -32.634L30.285 -32.927L30.285 -33.219L30.285 -33.512L30.285 -33.804L30.285 -34.096L30.285 -34.389L30.285 -34.681L30.285 -34.974L30.285 -35.266L30.285 -35.559L30.285 -35.851L30.285 -36.144L30.285 -36.436L30.285 -36.728L30.285 -37.021L30.285 -37.313L30.285 -37.606L30.285 -37.898L30.285 -38.191L30.285 -38.483L30.285 -38.776L30.285 -39.068L30.285 -39.361L30.285 -39.653L30.285 -39.945L30.285 -40.238L30.285 -40.530L30.285 -40.823L30.285 -41.115L30.285 -41.408L30.285 -41.700L30.285 -41.993L30.285 -42.285L30.285 -42.577L30.285 -42.870L30.285 -43.162L30.285 -43.455L30.285 -43.747L30.285 -44.040L30.285 -44.332L30.285 -44.625L30.285 -44.917L30.285 -45.210L30.285 -45.502L30.285 -45.794L30.285 -46.087L30.285 -46.379L30.285 -46.672L30.285 -46.964L30.285 -47.257L30.285 -47.549L30.285 -47.842L30.285 -48.134L30.285 -48.426L30.285 -48.719L30.285 -49.011L30.285 -49.304L30.285 -49.596L30.285 -49.889L30.285 -50.181L30.285 -50.474L30.285 -50.766L30.285 -51.059L30.285 -51.351L30.285 -51.643L30.285 -51.936L30.285 -52.228L30.285 -52.521L30.285 -52.813L30.285 -53.106L30.285 -53.398L30.285 -53.691L30.285 -53.983L30.285 -54.275L30.285 -54.568L30.285 -54.860L30.285 -55.153L30.285 -55.445L30.285 -55.738L30.285 -56.030L30.285 -56.323L30.285 -56.615L30.285 -56.908L30.285 -57.200L30.285 -57.492L30.285 -57.785L30.285 -58.077L30.285 -58.370L30.285 -58.662L30.285 -58.955L30.285 -59.247L30.285 -59.540L30.285 -59.832L30.285 -60.124L30.285 -60.417L30.285 -60.709L30.285 -61.002L30.285 -61.294L30.285 -61.587L30.285 -61.879L30.285 -62.172L30.285 -62.464L30.285 -62.757L30.285 -63.049L30.285 -63.341L30.285 -63.634L30.285 -63.926L30.285 -64.219L30.285 -64.511L30.285 -64.804L30.285 -65.096L30.285 -65.389L30.285 -65.681L30.285 -65.973L30.285 -66.266L30.285 -66.558L30.285 -66.851L30.285 -67.143L30.285 -67.436L30.285 -67.436L30.285 -67.893L30.282 -68.304Z"/>
  </g>
  <g id="Regular-S" transform="matrix(1 0 0 1 1405.56 696)">
   <path class="monochrome-0 multicolor-0:tintColor hierarchical-0:primary SFSymbolsPreviewWireframe" fill-rule="evenodd" d="M82.772 -70.527L82.735 -70.819L82.674 -71.105L82.589 -71.384L82.483 -71.653L82.354 -71.912L82.205 -72.159L82.036 -72.394L81.848 -72.614L81.641 -72.818L81.416 -73.006L81.175 -73.175L80.918 -73.325L80.649 -73.453L80.373 -73.556L80.092 -73.635L79.806 -73.691L79.518 -73.722L79.229 -73.729L78.941 -73.713L78.655 -73.672L78.372 -73.608L78.095 -73.521L77.824 -73.410L77.561 -73.275L77.309 -73.118L77.066 -72.956L76.822 -72.794L76.579 -72.632L76.336 -72.470L76.093 -72.308L75.850 -72.146L75.607 -71.984L75.364 -71.822L75.120 -71.660L74.877 -71.497L74.634 -71.335L74.391 -71.173L74.148 -71.011L73.905 -70.849L73.662 -70.687L73.418 -70.525L73.175 -70.363L72.932 -70.201L72.689 -70.039L72.446 -69.877L72.203 -69.714L71.960 -69.552L71.716 -69.390L71.473 -69.228L71.230 -69.066L70.987 -68.904L70.744 -68.742L70.501 -68.580L70.258 -68.418L70.014 -68.256L69.771 -68.093L69.528 -67.931L69.285 -67.769L69.042 -67.607L68.799 -67.445L68.556 -67.283L68.312 -67.121L68.069 -66.959L67.826 -66.797L67.583 -66.635L67.340 -66.473L67.097 -66.310L66.854 -66.148L66.610 -65.986L66.367 -65.824L66.124 -65.662L65.881 -65.500L65.638 -65.338L65.395 -65.176L65.152 -65.014L64.908 -64.852L64.665 -64.689L64.422 -64.527L64.131 -64.333L63.803 -64.113L63.519 -63.919L63.273 -63.743L63.061 -63.581L62.877 -63.426L62.717 -63.271L62.574 -63.109L62.398 -62.875L62.243 -62.628L62.110 -62.369L61.998 -62.099L61.916 -61.846L61.868 -61.636L61.833 -61.410L61.810 -61.162L61.796 -60.883L61.788 -60.566L61.785 -60.204L61.785 -59.789L61.785 -59.491L61.785 -59.199L61.785 -58.907L61.785 -58.614L61.785 -58.322L61.785 -58.030L61.785 -57.738L61.785 -57.446L61.785 -57.153L61.785 -56.861L61.785 -56.569L61.785 -56.277L61.785 -55.984L61.785 -55.692L61.785 -55.400L61.785 -55.108L61.785 -54.816L61.785 -54.523L61.785 -54.231L61.785 -53.939L61.785 -53.647L61.785 -53.354L61.785 -53.062L61.785 -52.770L61.785 -52.478L61.785 -52.186L61.785 -51.893L61.785 -51.601L61.785 -51.309L61.785 -51.017L61.785 -50.724L61.785 -50.432L61.785 -50.140L61.785 -49.848L61.785 -49.556L61.785 -49.263L61.785 -48.971L61.785 -48.679L61.785 -48.387L61.785 -48.094L61.785 -47.802L61.785 -47.510L61.785 -47.218L61.785 -46.926L61.785 -46.633L61.785 -46.341L61.785 -46.049L61.785 -45.757L61.785 -45.464L61.785 -45.172L61.785 -44.880L61.785 -44.588L61.785 -44.296L61.785 -44.003L61.785 -43.711L61.785 -43.419L61.785 -43.127L61.785 -42.834L61.785 -42.542L61.785 -42.250L61.785 -41.958L61.785 -41.666L61.785 -41.373L61.785 -41.081L61.785 -40.789L61.785 -40.497L61.785 -40.204L61.785 -39.912L61.785 -39.620L61.785 -39.328L61.785 -39.036L61.785 -38.743L61.785 -38.451L61.785 -38.159L61.785 -37.867L61.785 -37.574L61.785 -37.282L61.785 -36.990L61.785 -36.698L61.785 -36.406L61.785 -36.113L61.785 -35.821L61.785 -35.529L61.785 -35.237L61.785 -34.944L61.785 -34.652L61.785 -34.360L61.785 -34.068L61.785 -33.776L61.785 -33.483L61.785 -33.191L61.785 -32.899L61.785 -32.607L61.785 -32.315L61.785 -32.022L61.785 -31.730L61.785 -31.438L61.785 -31.146L61.785 -30.853L61.785 -30.561L61.785 -30.269L61.785 -29.977L61.785 -29.685L61.785 -29.392L61.785 -29.100L61.785 -28.808L61.785 -28.516L61.785 -28.223L61.785 -27.931L61.785 -27.639L61.785 -27.347L61.785 -27.055L61.785 -26.762L61.785 -26.470L61.785 -26.178L61.785 -25.886L61.785 -25.593L61.785 -25.301L61.785 -25.009L61.785 -24.717L61.785 -24.425L61.785 -24.132L61.785 -23.840L61.785 -23.548L61.785 -23.256L61.785 -22.963L61.785 -22.671L61.785 -22.379L61.785 -22.087L61.785 -21.795L61.785 -21.502L61.785 -21.210L61.785 -20.918L61.785 -20.626L61.785 -20.333L61.785 -20.041L61.785 -19.749L61.785 -19.457L61.785 -19.165L61.785 -18.872L61.785 -18.580L61.785 -18.288L61.785 -17.996L61.785 -17.703L61.785 -17.411L61.785 -17.119L61.785 -16.827L61.785 -16.535L61.785 -16.242L61.785 -15.950L61.785 -15.658L61.785 -15.366L61.785 -15.073L61.785 -14.781L61.785 -14.489L61.785 -14.197L61.785 -13.905L61.785 -13.612L61.785 -13.320L61.785 -13.028L61.785 -12.736L61.785 -12.443L61.785 -12.151L61.785 -11.859L61.785 -11.567L61.785 -11.275L61.785 -10.982L61.785 -10.690L61.785 -10.398L61.785 -10.106L61.785 -9.813L61.785 -9.521L61.785 -9.229L61.785 -8.937L61.785 -8.645L61.785 -8.352L61.785 -8.060L61.785 -7.768L61.785 -7.476L61.785 -7.183L61.785 -6.891L61.785 -6.599L61.785 -6.307L61.785 -6.015L61.785 -5.722L61.785 -5.430L61.785 -5.138L61.785 -4.846L61.785 -4.553L61.785 -4.261L61.785 -3.969L61.785 -3.677L61.785 -3.262L61.786 -2.831L61.791 -2.442L61.800 -2.092L61.816 -1.780L61.841 -1.502L61.876 -1.257L61.923 -1.041L61.984 -0.853L62.061 -0.689L62.169 -0.532L62.371 -0.319L62.604 -0.145L62.861 -0.011L63.138 0.078L63.429 0.120L63.600 0.117L63.781 0.086L63.973 0.028L64.182 -0.056L64.409 -0.167L64.657 -0.305L64.930 -0.469L65.231 -0.659L65.562 -0.876L65.927 -1.118L66.250 -1.333L66.494 -1.495L66.737 -1.657L66.980 -1.820L67.223 -1.982L67.466 -2.144L67.709 -2.306L67.952 -2.468L68.196 -2.630L68.439 -2.792L68.682 -2.954L68.925 -3.116L69.168 -3.278L69.411 -3.441L69.654 -3.603L69.898 -3.765L70.141 -3.927L70.384 -4.089L70.627 -4.251L70.870 -4.413L71.113 -4.575L71.356 -4.737L71.600 -4.899L71.843 -5.061L72.086 -5.224L72.329 -5.386L72.572 -5.548L72.815 -5.710L73.059 -5.872L73.302 -6.034L73.545 -6.196L73.788 -6.358L74.031 -6.520L74.274 -6.682L74.517 -6.844L74.761 -7.007L75.004 -7.169L75.247 -7.331L75.490 -7.493L75.733 -7.655L75.976 -7.817L76.219 -7.979L76.463 -8.141L76.706 -8.303L76.949 -8.465L77.192 -8.628L77.435 -8.790L77.678 -8.952L77.921 -9.114L78.165 -9.276L78.408 -9.438L78.651 -9.600L78.894 -9.762L79.137 -9.924L79.380 -10.086L79.623 -10.248L79.867 -10.411L80.110 -10.573L80.353 -10.735L80.596 -10.897L80.839 -11.059L81.082 -11.221L81.326 -11.386L81.559 -11.568L81.773 -11.768L81.969 -11.983L82.146 -12.214L82.303 -12.457L82.439 -12.712L82.554 -12.978L82.646 -13.253L82.716 -13.537L82.762 -13.826L82.783 -14.121L82.785 -14.415L82.785 -14.707L82.785 -15.000L82.785 -15.292L82.785 -15.584L82.785 -15.876L82.785 -16.168L82.785 -16.461L82.785 -16.753L82.785 -17.045L82.785 -17.337L82.785 -17.630L82.785 -17.922L82.785 -18.214L82.785 -18.506L82.785 -18.798L82.785 -19.091L82.785 -19.383L82.785 -19.675L82.785 -19.967L82.785 -20.260L82.785 -20.552L82.785 -20.844L82.785 -21.136L82.785 -21.428L82.785 -21.721L82.785 -22.013L82.785 -22.305L82.785 -22.597L82.785 -22.890L82.785 -23.182L82.785 -23.474L82.785 -23.766L82.785 -24.058L82.785 -24.351L82.785 -24.643L82.785 -24.935L82.785 -25.227L82.785 -25.520L82.785 -25.812L82.785 -26.104L82.785 -26.396L82.785 -26.688L82.785 -26.981L82.785 -27.273L82.785 -27.565L82.785 -27.857L82.785 -28.150L82.785 -28.442L82.785 -28.734L82.785 -29.026L82.785 -29.318L82.785 -29.611L82.785 -29.903L82.785 -30.195L82.785 -30.487L82.785 -30.780L82.785 -31.072L82.785 -31.364L82.785 -31.656L82.785 -31.948L82.785 -32.241L82.785 -32.533L82.785 -32.825L82.785 -33.117L82.785 -33.410L82.785 -33.702L82.785 -33.994L82.785 -34.286L82.785 -34.578L82.785 -34.871L82.785 -35.163L82.785 -35.455L82.785 -35.747L82.785 -36.040L82.785 -36.332L82.785 -36.624L82.785 -36.916L82.785 -37.208L82.785 -37.501L82.785 -37.793L82.785 -38.085L82.785 -38.377L82.785 -38.670L82.785 -38.962L82.785 -39.254L82.785 -39.546L82.785 -39.838L82.785 -40.131L82.785 -40.423L82.785 -40.715L82.785 -41.007L82.785 -41.300L82.785 -41.592L82.785 -41.884L82.785 -42.176L82.785 -42.468L82.785 -42.761L82.785 -43.053L82.785 -43.345L82.785 -43.637L82.785 -43.930L82.785 -44.222L82.785 -44.514L82.785 -44.806L82.785 -45.098L82.785 -45.391L82.785 -45.683L82.785 -45.975L82.785 -46.267L82.785 -46.560L82.785 -46.852L82.785 -47.144L82.785 -47.436L82.785 -47.728L82.785 -48.021L82.785 -48.313L82.785 -48.605L82.785 -48.897L82.785 -49.190L82.785 -49.482L82.785 -49.774L82.785 -50.066L82.785 -50.358L82.785 -50.651L82.785 -50.943L82.785 -51.235L82.785 -51.527L82.785 -51.820L82.785 -52.112L82.785 -52.404L82.785 -52.696L82.785 -52.988L82.785 -53.281L82.785 -53.573L82.785 -53.865L82.785 -54.157L82.785 -54.450L82.785 -54.742L82.785 -55.034L82.785 -55.326L82.785 -55.618L82.785 -55.911L82.785 -56.203L82.785 -56.495L82.785 -56.787L82.785 -57.080L82.785 -57.372L82.785 -57.664L82.785 -57.956L82.785 -58.248L82.785 -58.541L82.785 -58.833L82.785 -59.125L82.785 -59.417L82.785 -59.710L82.785 -60.002L82.785 -60.294L82.785 -60.586L82.785 -60.878L82.785 -61.171L82.785 -61.463L82.785 -61.755L82.785 -62.047L82.785 -62.340L82.785 -62.632L82.785 -62.924L82.785 -63.216L82.785 -63.508L82.785 -63.801L82.785 -64.093L82.785 -64.385L82.785 -64.677L82.785 -64.970L82.785 -65.262L82.785 -65.554L82.785 -65.846L82.785 -66.138L82.785 -66.431L82.785 -66.723L82.785 -67.015L82.785 -67.307L82.785 -67.600L82.785 -67.892L82.785 -68.184L82.785 -68.476L82.785 -68.768L82.785 -69.061L82.785 -69.353L82.785 -69.645L82.785 -69.937L82.785 -70.229L82.772 -70.527ZM37.288 -10.658L37.294 -10.331L37.307 -10.042L37.328 -9.783L37.360 -9.550L37.404 -9.334L37.464 -9.125L37.568 -8.852L37.694 -8.588L37.841 -8.336L38.009 -8.098L38.195 -7.875L38.345 -7.724L38.512 -7.579L38.701 -7.436L38.918 -7.289L39.166 -7.133L39.450 -6.964L39.774 -6.776L40.130 -6.572L40.384 -6.427L40.638 -6.282L40.892 -6.137L41.146 -5.992L41.400 -5.847L41.653 -5.702L41.907 -5.557L42.161 -5.412L42.415 -5.267L42.669 -5.122L42.923 -4.977L43.177 -4.832L43.430 -4.687L43.684 -4.542L43.938 -4.396L44.192 -4.251L44.446 -4.106L44.700 -3.961L44.954 -3.816L45.207 -3.671L45.461 -3.526L45.715 -3.381L45.969 -3.236L46.223 -3.091L46.477 -2.946L46.731 -2.801L46.984 -2.656L47.238 -2.511L47.492 -2.366L47.746 -2.221L48.000 -2.076L48.254 -1.930L48.507 -1.785L48.761 -1.640L49.015 -1.495L49.269 -1.350L49.523 -1.205L49.777 -1.060L50.031 -0.915L50.284 -0.770L50.538 -0.625L50.906 -0.415L51.273 -0.207L51.603 -0.025L51.902 0.133L52.171 0.265L52.414 0.371L52.636 0.450L52.839 0.503L53.027 0.529L53.204 0.528L53.480 0.479L53.754 0.381L54.008 0.241L54.235 0.060L54.431 -0.159L54.533 -0.318L54.608 -0.489L54.667 -0.685L54.710 -0.910L54.742 -1.166L54.763 -1.457L54.776 -1.785L54.782 -2.153L54.785 -2.563L54.785 -3.020L54.785 -3.314L54.785 -3.606L54.785 -3.898L54.785 -4.191L54.785 -4.483L54.785 -4.775L54.785 -5.068L54.785 -5.360L54.785 -5.653L54.785 -5.945L54.785 -6.237L54.785 -6.530L54.785 -6.822L54.785 -7.114L54.785 -7.407L54.785 -7.699L54.785 -7.992L54.785 -8.284L54.785 -8.576L54.785 -8.869L54.785 -9.161L54.785 -9.453L54.785 -9.746L54.785 -10.038L54.785 -10.331L54.785 -10.623L54.785 -10.915L54.785 -11.208L54.785 -11.500L54.785 -11.792L54.785 -12.085L54.785 -12.377L54.785 -12.670L54.785 -12.962L54.785 -13.254L54.785 -13.547L54.785 -13.839L54.785 -14.131L54.785 -14.424L54.785 -14.716L54.785 -15.009L54.785 -15.301L54.785 -15.593L54.785 -15.886L54.785 -16.178L54.785 -16.470L54.785 -16.763L54.785 -17.055L54.785 -17.348L54.785 -17.640L54.785 -17.932L54.785 -18.225L54.785 -18.517L54.785 -18.809L54.785 -19.102L54.785 -19.394L54.785 -19.687L54.785 -19.979L54.785 -20.271L54.785 -20.564L54.785 -20.856L54.785 -21.148L54.785 -21.441L54.785 -21.733L54.785 -22.026L54.785 -22.318L54.785 -22.610L54.785 -22.903L54.785 -23.195L54.785 -23.487L54.785 -23.780L54.785 -24.072L54.785 -24.365L54.785 -24.657L54.785 -24.949L54.785 -25.242L54.785 -25.534L54.785 -25.826L54.785 -26.119L54.785 -26.411L54.785 -26.704L54.785 -26.996L54.785 -27.288L54.785 -27.581L54.785 -27.873L54.785 -28.165L54.785 -28.458L54.785 -28.750L54.785 -29.043L54.785 -29.335L54.785 -29.627L54.785 -29.920L54.785 -30.212L54.785 -30.504L54.785 -30.797L54.785 -31.089L54.785 -31.382L54.785 -31.674L54.785 -31.966L54.785 -32.259L54.785 -32.551L54.785 -32.843L54.785 -33.136L54.785 -33.428L54.785 -33.721L54.785 -34.013L54.785 -34.305L54.785 -34.598L54.785 -34.890L54.785 -35.182L54.785 -35.475L54.785 -35.767L54.785 -36.060L54.785 -36.352L54.785 -36.644L54.785 -36.937L54.785 -37.229L54.785 -37.521L54.785 -37.814L54.785 -38.106L54.785 -38.399L54.785 -38.691L54.785 -38.983L54.785 -39.276L54.785 -39.568L54.785 -39.860L54.785 -40.153L54.785 -40.445L54.785 -40.738L54.785 -41.030L54.785 -41.322L54.785 -41.615L54.785 -41.907L54.785 -42.199L54.785 -42.492L54.785 -42.784L54.785 -43.077L54.785 -43.369L54.785 -43.661L54.785 -43.954L54.785 -44.246L54.785 -44.538L54.785 -44.831L54.785 -45.123L54.785 -45.416L54.785 -45.708L54.785 -46.000L54.785 -46.293L54.785 -46.585L54.785 -46.877L54.785 -47.170L54.785 -47.462L54.785 -47.755L54.785 -48.047L54.785 -48.339L54.785 -48.632L54.785 -48.924L54.785 -49.216L54.785 -49.509L54.785 -49.801L54.785 -50.094L54.785 -50.386L54.785 -50.678L54.785 -50.971L54.785 -51.263L54.785 -51.555L54.785 -51.848L54.785 -52.140L54.785 -52.433L54.785 -52.725L54.785 -53.017L54.785 -53.310L54.785 -53.602L54.785 -53.894L54.785 -54.187L54.785 -54.479L54.785 -54.772L54.785 -55.064L54.785 -55.356L54.785 -55.649L54.785 -55.941L54.785 -56.233L54.785 -56.526L54.785 -56.818L54.785 -57.111L54.785 -57.403L54.785 -57.695L54.785 -57.988L54.785 -58.280L54.785 -58.572L54.785 -58.865L54.785 -59.228L54.784 -59.622L54.780 -59.970L54.770 -60.277L54.753 -60.550L54.727 -60.795L54.690 -61.019L54.639 -61.228L54.557 -61.472L54.442 -61.740L54.305 -61.998L54.148 -62.244L53.969 -62.476L53.802 -62.661L53.644 -62.808L53.466 -62.951L53.264 -63.096L53.032 -63.246L52.767 -63.408L52.463 -63.586L52.117 -63.785L51.813 -63.959L51.559 -64.104L51.305 -64.249L51.051 -64.394L50.797 -64.539L50.543 -64.684L50.290 -64.829L50.036 -64.974L49.782 -65.120L49.528 -65.265L49.274 -65.410L49.020 -65.555L48.766 -65.700L48.513 -65.845L48.259 -65.990L48.005 -66.135L47.751 -66.280L47.497 -66.425L47.243 -66.570L46.989 -66.715L46.736 -66.860L46.482 -67.005L46.228 -67.150L45.974 -67.295L45.720 -67.440L45.466 -67.586L45.213 -67.731L44.959 -67.876L44.705 -68.021L44.451 -68.166L44.197 -68.311L43.943 -68.456L43.689 -68.601L43.436 -68.746L43.182 -68.891L42.928 -69.036L42.674 -69.181L42.420 -69.326L42.166 -69.471L41.912 -69.616L41.659 -69.761L41.362 -69.931L40.976 -70.151L40.628 -70.346L40.314 -70.516L40.030 -70.661L39.775 -70.780L39.542 -70.873L39.330 -70.939L39.135 -70.979L38.953 -70.991L38.734 -70.969L38.451 -70.895L38.186 -70.775L37.945 -70.614L37.733 -70.414L37.581 -70.217L37.497 -70.059L37.431 -69.876L37.380 -69.665L37.342 -69.425L37.317 -69.152L37.300 -68.843L37.290 -68.496L37.286 -68.107L37.285 -67.673L37.285 -67.292L37.285 -66.999L37.285 -66.707L37.285 -66.414L37.285 -66.122L37.285 -65.830L37.285 -65.537L37.285 -65.245L37.285 -64.953L37.285 -64.660L37.285 -64.368L37.285 -64.075L37.285 -63.783L37.285 -63.491L37.285 -63.198L37.285 -62.906L37.285 -62.614L37.285 -62.321L37.285 -62.029L37.285 -61.736L37.285 -61.444L37.285 -61.152L37.285 -60.859L37.285 -60.567L37.285 -60.275L37.285 -59.982L37.285 -59.690L37.285 -59.397L37.285 -59.105L37.285 -58.813L37.285 -58.520L37.285 -58.228L37.285 -57.936L37.285 -57.643L37.285 -57.351L37.285 -57.058L37.285 -56.766L37.285 -56.474L37.285 -56.181L37.285 -55.889L37.285 -55.597L37.285 -55.304L37.285 -55.012L37.285 -54.720L37.285 -54.427L37.285 -54.135L37.285 -53.842L37.285 -53.550L37.285 -53.258L37.285 -52.965L37.285 -52.673L37.285 -52.381L37.285 -52.088L37.285 -51.796L37.285 -51.503L37.285 -51.211L37.285 -50.919L37.285 -50.626L37.285 -50.334L37.285 -50.042L37.285 -49.749L37.285 -49.457L37.285 -49.164L37.285 -48.872L37.285 -48.580L37.285 -48.287L37.285 -47.995L37.285 -47.703L37.285 -47.410L37.285 -47.118L37.285 -46.825L37.285 -46.533L37.285 -46.241L37.285 -45.948L37.285 -45.656L37.285 -45.364L37.285 -45.071L37.285 -44.779L37.285 -44.486L37.285 -44.194L37.285 -43.902L37.285 -43.609L37.285 -43.317L37.285 -43.025L37.285 -42.732L37.285 -42.440L37.285 -42.147L37.285 -41.855L37.285 -41.563L37.285 -41.270L37.285 -40.978L37.285 -40.686L37.285 -40.393L37.285 -40.101L37.285 -39.808L37.285 -39.516L37.285 -39.224L37.285 -38.931L37.285 -38.639L37.285 -38.347L37.285 -38.054L37.285 -37.762L37.285 -37.469L37.285 -37.177L37.285 -36.885L37.285 -36.592L37.285 -36.300L37.285 -36.008L37.285 -35.715L37.285 -35.423L37.285 -35.130L37.285 -34.838L37.285 -34.546L37.285 -34.253L37.285 -33.961L37.285 -33.669L37.285 -33.376L37.285 -33.084L37.285 -32.791L37.285 -32.499L37.285 -32.207L37.285 -31.914L37.285 -31.622L37.285 -31.330L37.285 -31.037L37.285 -30.745L37.285 -30.452L37.285 -30.160L37.285 -29.868L37.285 -29.575L37.285 -29.283L37.285 -28.991L37.285 -28.698L37.285 -28.406L37.285 -28.113L37.285 -27.821L37.285 -27.529L37.285 -27.236L37.285 -26.944L37.285 -26.652L37.285 -26.359L37.285 -26.067L37.285 -25.774L37.285 -25.482L37.285 -25.190L37.285 -24.897L37.285 -24.605L37.285 -24.313L37.285 -24.020L37.285 -23.728L37.285 -23.435L37.285 -23.143L37.285 -22.851L37.285 -22.558L37.285 -22.266L37.285 -21.974L37.285 -21.681L37.285 -21.389L37.285 -21.096L37.285 -20.804L37.285 -20.512L37.285 -20.219L37.285 -19.927L37.285 -19.635L37.285 -19.342L37.285 -19.050L37.285 -18.757L37.285 -18.465L37.285 -18.173L37.285 -17.880L37.285 -17.588L37.285 -17.296L37.285 -17.003L37.285 -16.711L37.285 -16.418L37.285 -16.126L37.285 -15.834L37.285 -15.541L37.285 -15.249L37.285 -14.957L37.285 -14.664L37.285 -14.372L37.285 -14.079L37.285 -13.787L37.285 -13.495L37.285 -13.202L37.285 -12.910L37.285 -12.618L37.285 -12.325L37.285 -12.033L37.285 -11.740L37.285 -11.448L37.285 -11.028L37.288 -10.658ZM30.282 -68.304L30.276 -68.672L30.263 -69.000L30.242 -69.291L30.211 -69.548L30.167 -69.773L30.109 -69.969L30.034 -70.140L29.932 -70.299L29.736 -70.518L29.509 -70.699L29.255 -70.840L28.981 -70.937L28.704 -70.987L28.528 -70.988L28.339 -70.962L28.136 -70.909L27.915 -70.830L27.671 -70.724L27.402 -70.592L27.104 -70.434L26.773 -70.252L26.407 -70.044L26.039 -69.834L25.785 -69.689L25.531 -69.544L25.277 -69.399L25.023 -69.254L24.769 -69.109L24.515 -68.963L24.261 -68.818L24.007 -68.673L23.753 -68.528L23.499 -68.383L23.245 -68.238L22.992 -68.093L22.738 -67.948L22.484 -67.803L22.230 -67.658L21.976 -67.513L21.722 -67.367L21.468 -67.222L21.214 -67.077L20.960 -66.932L20.706 -66.787L20.452 -66.642L20.198 -66.497L19.944 -66.352L19.691 -66.207L19.437 -66.062L19.183 -65.916L18.929 -65.771L18.675 -65.626L18.421 -65.481L18.167 -65.336L17.913 -65.191L17.659 -65.046L17.405 -64.901L17.151 -64.756L16.897 -64.611L16.644 -64.466L16.390 -64.320L16.136 -64.175L15.882 -64.030L15.628 -63.885L15.374 -63.740L15.120 -63.595L14.866 -63.450L14.612 -63.305L14.358 -63.160L14.104 -63.015L13.850 -62.869L13.597 -62.724L13.343 -62.579L13.089 -62.434L12.835 -62.289L12.581 -62.144L12.327 -61.999L12.073 -61.854L11.819 -61.709L11.565 -61.564L11.311 -61.418L11.057 -61.273L10.803 -61.128L10.550 -60.983L10.296 -60.838L10.042 -60.693L9.788 -60.548L9.534 -60.403L9.280 -60.258L9.026 -60.113L8.772 -59.968L8.518 -59.822L8.264 -59.677L8.010 -59.532L7.756 -59.387L7.502 -59.241L7.253 -59.079L7.021 -58.898L6.806 -58.700L6.609 -58.486L6.432 -58.257L6.274 -58.014L6.137 -57.759L6.021 -57.494L5.928 -57.219L5.857 -56.936L5.810 -56.646L5.787 -56.350L5.785 -56.055L5.785 -55.763L5.785 -55.471L5.785 -55.178L5.785 -54.886L5.785 -54.593L5.785 -54.301L5.785 -54.008L5.785 -53.716L5.785 -53.423L5.785 -53.131L5.785 -52.839L5.785 -52.546L5.785 -52.254L5.785 -51.961L5.785 -51.669L5.785 -51.376L5.785 -51.084L5.785 -50.791L5.785 -50.499L5.785 -50.206L5.785 -49.914L5.785 -49.622L5.785 -49.329L5.785 -49.037L5.785 -48.744L5.785 -48.452L5.785 -48.159L5.785 -47.867L5.785 -47.574L5.785 -47.282L5.785 -46.990L5.785 -46.697L5.785 -46.405L5.785 -46.112L5.785 -45.820L5.785 -45.527L5.785 -45.235L5.785 -44.942L5.785 -44.650L5.785 -44.357L5.785 -44.065L5.785 -43.773L5.785 -43.480L5.785 -43.188L5.785 -42.895L5.785 -42.603L5.785 -42.310L5.785 -42.018L5.785 -41.725L5.785 -41.433L5.785 -41.141L5.785 -40.848L5.785 -40.556L5.785 -40.263L5.785 -39.971L5.785 -39.678L5.785 -39.386L5.785 -39.093L5.785 -38.801L5.785 -38.508L5.785 -38.216L5.785 -37.924L5.785 -37.631L5.785 -37.339L5.785 -37.046L5.785 -36.754L5.785 -36.461L5.785 -36.169L5.785 -35.876L5.785 -35.584L5.785 -35.292L5.785 -34.999L5.785 -34.707L5.785 -34.414L5.785 -34.122L5.785 -33.829L5.785 -33.537L5.785 -33.244L5.785 -32.952L5.785 -32.659L5.785 -32.367L5.785 -32.075L5.785 -31.782L5.785 -31.490L5.785 -31.197L5.785 -30.905L5.785 -30.612L5.785 -30.320L5.785 -30.027L5.785 -29.735L5.785 -29.443L5.785 -29.150L5.785 -28.858L5.785 -28.565L5.785 -28.273L5.785 -27.980L5.785 -27.688L5.785 -27.395L5.785 -27.103L5.785 -26.810L5.785 -26.518L5.785 -26.226L5.785 -25.933L5.785 -25.641L5.785 -25.348L5.785 -25.056L5.785 -24.763L5.785 -24.471L5.785 -24.178L5.785 -23.886L5.785 -23.594L5.785 -23.301L5.785 -23.009L5.785 -22.716L5.785 -22.424L5.785 -22.131L5.785 -21.839L5.785 -21.546L5.785 -21.254L5.785 -20.961L5.785 -20.669L5.785 -20.377L5.785 -20.084L5.785 -19.792L5.785 -19.499L5.785 -19.207L5.785 -18.914L5.785 -18.622L5.785 -18.329L5.785 -18.037L5.785 -17.745L5.785 -17.452L5.785 -17.160L5.785 -16.867L5.785 -16.575L5.785 -16.282L5.785 -15.990L5.785 -15.697L5.785 -15.405L5.785 -15.112L5.785 -14.820L5.785 -14.528L5.785 -14.235L5.785 -13.943L5.785 -13.650L5.785 -13.358L5.785 -13.065L5.785 -12.773L5.785 -12.480L5.785 -12.188L5.785 -11.896L5.785 -11.603L5.785 -11.311L5.785 -11.018L5.785 -10.726L5.785 -10.433L5.785 -10.141L5.785 -9.848L5.785 -9.556L5.785 -9.263L5.785 -8.971L5.785 -8.679L5.785 -8.386L5.785 -8.094L5.785 -7.801L5.785 -7.509L5.785 -7.216L5.785 -6.924L5.785 -6.631L5.785 -6.339L5.785 -6.046L5.785 -5.754L5.785 -5.462L5.785 -5.169L5.785 -4.877L5.785 -4.584L5.785 -4.292L5.785 -3.999L5.785 -3.707L5.785 -3.414L5.785 -3.122L5.785 -2.830L5.785 -2.537L5.785 -2.245L5.785 -1.952L5.785 -1.660L5.785 -1.367L5.785 -1.075L5.785 -0.782L5.785 -0.490L5.785 -0.197L5.801 0.100L5.840 0.392L5.904 0.677L5.991 0.955L6.101 1.223L6.231 1.481L6.383 1.727L6.555 1.961L6.746 2.179L6.955 2.383L7.183 2.569L7.427 2.736L7.686 2.884L7.955 3.008L8.230 3.108L8.512 3.184L8.797 3.236L9.085 3.265L9.375 3.269L9.663 3.250L9.950 3.207L10.233 3.140L10.512 3.049L10.783 2.934L11.046 2.795L11.300 2.650L11.554 2.505L11.808 2.360L12.062 2.215L12.316 2.070L12.570 1.925L12.824 1.779L13.077 1.634L13.331 1.489L13.585 1.344L13.839 1.199L14.093 1.054L14.347 0.909L14.601 0.764L14.855 0.619L15.109 0.474L15.363 0.329L15.617 0.183L15.871 0.038L16.125 -0.107L16.378 -0.252L16.632 -0.397L16.886 -0.542L17.140 -0.687L17.394 -0.832L17.648 -0.977L17.902 -1.122L18.156 -1.267L18.410 -1.413L18.664 -1.558L18.918 -1.703L19.172 -1.848L19.425 -1.993L19.679 -2.138L19.933 -2.283L20.187 -2.428L20.441 -2.573L20.695 -2.718L20.949 -2.863L21.203 -3.009L21.457 -3.154L21.711 -3.299L21.965 -3.444L22.219 -3.589L22.473 -3.734L22.726 -3.879L22.980 -4.024L23.234 -4.169L23.488 -4.314L23.742 -4.459L23.996 -4.605L24.250 -4.750L24.504 -4.895L24.758 -5.040L25.012 -5.185L25.266 -5.330L25.520 -5.475L25.773 -5.620L26.027 -5.765L26.281 -5.910L26.535 -6.055L26.789 -6.201L27.043 -6.346L27.297 -6.491L27.594 -6.661L27.943 -6.861L28.250 -7.040L28.517 -7.203L28.751 -7.354L28.955 -7.499L29.134 -7.642L29.293 -7.789L29.458 -7.970L29.637 -8.201L29.796 -8.446L29.935 -8.703L30.051 -8.971L30.136 -9.219L30.187 -9.427L30.226 -9.650L30.252 -9.894L30.269 -10.165L30.279 -10.471L30.284 -10.816L30.285 -11.208L30.285 -11.578L30.285 -11.870L30.285 -12.163L30.285 -12.455L30.285 -12.748L30.285 -13.040L30.285 -13.332L30.285 -13.625L30.285 -13.917L30.285 -14.210L30.285 -14.502L30.285 -14.795L30.285 -15.087L30.285 -15.380L30.285 -15.672L30.285 -15.964L30.285 -16.257L30.285 -16.549L30.285 -16.842L30.285 -17.134L30.285 -17.427L30.285 -17.719L30.285 -18.012L30.285 -18.304L30.285 -18.597L30.285 -18.889L30.285 -19.181L30.285 -19.474L30.285 -19.766L30.285 -20.059L30.285 -20.351L30.285 -20.644L30.285 -20.936L30.285 -21.229L30.285 -21.521L30.285 -21.814L30.285 -22.106L30.285 -22.398L30.285 -22.691L30.285 -22.983L30.285 -23.276L30.285 -23.568L30.285 -23.861L30.285 -24.153L30.285 -24.446L30.285 -24.738L30.285 -25.030L30.285 -25.323L30.285 -25.615L30.285 -25.908L30.285 -26.200L30.285 -26.493L30.285 -26.785L30.285 -27.078L30.285 -27.370L30.285 -27.663L30.285 -27.955L30.285 -28.247L30.285 -28.540L30.285 -28.832L30.285 -29.125L30.285 -29.417L30.285 -29.710L30.285 -30.002L30.285 -30.295L30.285 -30.587L30.285 -30.879L30.285 -31.172L30.285 -31.464L30.285 -31.757L30.285 -32.049L30.285 -32.342L30.285 -32.634L30.285 -32.927L30.285 -33.219L30.285 -33.512L30.285 -33.804L30.285 -34.096L30.285 -34.389L30.285 -34.681L30.285 -34.974L30.285 -35.266L30.285 -35.559L30.285 -35.851L30.285 -36.144L30.285 -36.436L30.285 -36.728L30.285 -37.021L30.285 -37.313L30.285 -37.606L30.285 -37.898L30.285 -38.191L30.285 -38.483L30.285 -38.776L30.285 -39.068L30.285 -39.361L30.285 -39.653L30.285 -39.945L30.285 -40.238L30.285 -40.530L30.285 -40.823L30.285 -41.115L30.285 -41.408L30.285 -41.700L30.285 -41.993L30.285 -42.285L30.285 -42.577L30.285 -42.870L30.285 -43.162L30.285 -43.455L30.285 -43.747L30.285 -44.040L30.285 -44.332L30.285 -44.625L30.285 -44.917L30.285 -45.210L30.285 -45.502L30.285 -45.794L30.285 -46.087L30.285 -46.379L30.285 -46.672L30.285 -46.964L30.285 -47.257L30.285 -47.549L30.285 -47.842L30.285 -48.134L30.285 -48.426L30.285 -48.719L30.285 -49.011L30.285 -49.304L30.285 -49.596L30.285 -49.889L30.285 -50.181L30.285 -50.474L30.285 -50.766L30.285 -51.059L30.285 -51.351L30.285 -51.643L30.285 -51.936L30.285 -52.228L30.285 -52.521L30.285 -52.813L30.285 -53.106L30.285 -53.398L30.285 -53.691L30.285 -53.983L30.285 -54.275L30.285 -54.568L30.285 -54.860L30.285 -55.153L30.285 -55.445L30.285 -55.738L30.285 -56.030L30.285 -56.323L30.285 -56.615L30.285 -56.908L30.285 -57.200L30.285 -57.492L30.285 -57.785L30.285 -58.077L30.285 -58.370L30.285 -58.662L30.285 -58.955L30.285 -59.247L30.285 -59.540L30.285 -59.832L30.285 -60.124L30.285 -60.417L30.285 -60.709L30.285 -61.002L30.285 -61.294L30.285 -61.587L30.285 -61.879L30.285 -62.172L30.285 -62.464L30.285 -62.757L30.285 -63.049L30.285 -63.341L30.285 -63.634L30.285 -63.926L30.285 -64.219L30.285 -64.511L30.285 -64.804L30.285 -65.096L30.285 -65.389L30.285 -65.681L30.285 -65.973L30.285 -66.266L30.285 -66.558L30.285 -66.851L30.285 -67.143L30.285 -67.436L30.285 -67.436L30.285 -67.893L30.282 -68.304Z"/>
  </g>
  <g id="Ultralight-S" transform="matrix(1 0 0 1 515.423 696)">
   <path class="monochrome-0 multicolor-0:tintColor hierarchical-0:primary SFSymbolsPreviewWireframe" fill-rule="evenodd" d="M82.772 -70.527L82.735 -70.819L82.674 -71.105L82.589 -71.384L82.483 -71.653L82.354 -71.912L82.205 -72.159L82.036 -72.394L81.848 -72.614L81.641 -72.818L81.416 -73.006L81.175 -73.175L80.918 -73.325L80.649 -73.453L80.373 -73.556L80.092 -73.635L79.806 -73.691L79.518 -73.722L79.229 -73.729L78.941 -73.713L78.655 -73.672L78.372 -73.608L78.095 -73.521L77.824 -73.410L77.561 -73.275L77.309 -73.118L77.066 -72.956L76.822 -72.794L76.579 -72.632L76.336 -72.470L76.093 -72.308L75.850 -72.146L75.607 -71.984L75.364 -71.822L75.120 -71.660L74.877 -71.497L74.634 -71.335L74.391 -71.173L74.148 -71.011L73.905 -70.849L73.662 -70.687L73.418 -70.525L73.175 -70.363L72.932 -70.201L72.689 -70.039L72.446 -69.877L72.203 -69.714L71.960 -69.552L71.716 -69.390L71.473 -69.228L71.230 -69.066L70.987 -68.904L70.744 -68.742L70.501 -68.580L70.258 -68.418L70.014 -68.256L69.771 -68.093L69.528 -67.931L69.285 -67.769L69.042 -67.607L68.799 -67.445L68.556 -67.283L68.312 -67.121L68.069 -66.959L67.826 -66.797L67.583 -66.635L67.340 -66.473L67.097 -66.310L66.854 -66.148L66.610 -65.986L66.367 -65.824L66.124 -65.662L65.881 -65.500L65.638 -65.338L65.395 -65.176L65.152 -65.014L64.908 -64.852L64.665 -64.689L64.422 -64.527L64.131 -64.333L63.803 -64.113L63.519 -63.919L63.273 -63.743L63.061 -63.581L62.877 -63.426L62.717 -63.271L62.574 -63.109L62.398 -62.875L62.243 -62.628L62.110 -62.369L61.998 -62.099L61.916 -61.846L61.868 -61.636L61.833 -61.410L61.810 -61.162L61.796 -60.883L61.788 -60.566L61.785 -60.204L61.785 -59.789L61.785 -59.491L61.785 -59.199L61.785 -58.907L61.785 -58.614L61.785 -58.322L61.785 -58.030L61.785 -57.738L61.785 -57.446L61.785 -57.153L61.785 -56.861L61.785 -56.569L61.785 -56.277L61.785 -55.984L61.785 -55.692L61.785 -55.400L61.785 -55.108L61.785 -54.816L61.785 -54.523L61.785 -54.231L61.785 -53.939L61.785 -53.647L61.785 -53.354L61.785 -53.062L61.785 -52.770L61.785 -52.478L61.785 -52.186L61.785 -51.893L61.785 -51.601L61.785 -51.309L61.785 -51.017L61.785 -50.724L61.785 -50.432L61.785 -50.140L61.785 -49.848L61.785 -49.556L61.785 -49.263L61.785 -48.971L61.785 -48.679L61.785 -48.387L61.785 -48.094L61.785 -47.802L61.785 -47.510L61.785 -47.218L61.785 -46.926L61.785 -46.633L61.785 -46.341L61.785 -46.049L61.785 -45.757L61.785 -45.464L61.785 -45.172L61.785 -44.880L61.785 -44.588L61.785 -44.296L61.785 -44.003L61.785 -43.711L61.785 -43.419L61.785 -43.127L61.785 -42.834L61.785 -42.542L61.785 -42.250L61.785 -41.958L61.785 -41.666L61.785 -41.373L61.785 -41.081L61.785 -40.789L61.785 -40.497L61.785 -40.204L61.785 -39.912L61.785 -39.620L61.785 -39.328L61.785 -39.036L61.785 -38.743L61.785 -38.451L61.785 -38.159L61.785 -37.867L61.785 -37.574L61.785 -37.282L61.785 -36.990L61.785 -36.698L61.785 -36.406L61.785 -36.113L61.785 -35.821L61.785 -35.529L61.785 -35.237L61.785 -34.944L61.785 -34.652L61.785 -34.360L61.785 -34.068L61.785 -33.776L61.785 -33.483L61.785 -33.191L61.785 -32.899L61.785 -32.607L61.785 -32.315L61.785 -32.022L61.785 -31.730L61.785 -31.438L61.785 -31.146L61.785 -30.853L61.785 -30.561L61.785 -30.269L61.785 -29.977L61.785 -29.685L61.785 -29.392L61.785 -29.100L61.785 -28.808L61.785 -28.516L61.785 -28.223L61.785 -27.931L61.785 -27.639L61.785 -27.347L61.785 -27.055L61.785 -26.762L61.785 -26.470L61.785 -26.178L61.785 -25.886L61.785 -25.593L61.785 -25.301L61.785 -25.009L61.785 -24.717L61.785 -24.425L61.785 -24.132L61.785 -23.840L61.785 -23.548L61.785 -23.256L61.785 -22.963L61.785 -22.671L61.785 -22.379L61.785 -22.087L61.785 -21.795L61.785 -21.502L61.785 -21.210L61.785 -20.918L61.785 -20.626L61.785 -20.333L61.785 -20.041L61.785 -19.749L61.785 -19.457L61.785 -19.165L61.785 -18.872L61.785 -18.580L61.785 -18.288L61.785 -17.996L61.785 -17.703L61.785 -17.411L61.785 -17.119L61.785 -16.827L61.785 -16.535L61.785 -16.242L61.785 -15.950L61.785 -15.658L61.785 -15.366L61.785 -15.073L61.785 -14.781L61.785 -14.489L61.785 -14.197L61.785 -13.905L61.785 -13.612L61.785 -13.320L61.785 -13.028L61.785 -12.736L61.785 -12.443L61.785 -12.151L61.785 -11.859L61.785 -11.567L61.785 -11.275L61.785 -10.982L61.785 -10.690L61.785 -10.398L61.785 -10.106L61.785 -9.813L61.785 -9.521L61.785 -9.229L61.785 -8.937L61.785 -8.645L61.785 -8.352L61.785 -8.060L61.785 -7.768L61.785 -7.476L61.785 -7.183L61.785 -6.891L61.785 -6.599L61.785 -6.307L61.785 -6.015L61.785 -5.722L61.785 -5.430L61.785 -5.138L61.785 -4.846L61.785 -4.553L61.785 -4.261L61.785 -3.969L61.785 -3.677L61.785 -3.262L61.786 -2.831L61.791 -2.442L61.800 -2.092L61.816 -1.780L61.841 -1.502L61.876 -1.257L61.923 -1.041L61.984 -0.853L62.061 -0.689L62.169 -0.532L62.371 -0.319L62.604 -0.145L62.861 -0.011L63.138 0.078L63.429 0.120L63.600 0.117L63.781 0.086L63.973 0.028L64.182 -0.056L64.409 -0.167L64.657 -0.305L64.930 -0.469L65.231 -0.659L65.562 -0.876L65.927 -1.118L66.250 -1.333L66.494 -1.495L66.737 -1.657L66.980 -1.820L67.223 -1.982L67.466 -2.144L67.709 -2.306L67.952 -2.468L68.196 -2.630L68.439 -2.792L68.682 -2.954L68.925 -3.116L69.168 -3.278L69.411 -3.441L69.654 -3.603L69.898 -3.765L70.141 -3.927L70.384 -4.089L70.627 -4.251L70.870 -4.413L71.113 -4.575L71.356 -4.737L71.600 -4.899L71.843 -5.061L72.086 -5.224L72.329 -5.386L72.572 -5.548L72.815 -5.710L73.059 -5.872L73.302 -6.034L73.545 -6.196L73.788 -6.358L74.031 -6.520L74.274 -6.682L74.517 -6.844L74.761 -7.007L75.004 -7.169L75.247 -7.331L75.490 -7.493L75.733 -7.655L75.976 -7.817L76.219 -7.979L76.463 -8.141L76.706 -8.303L76.949 -8.465L77.192 -8.628L77.435 -8.790L77.678 -8.952L77.921 -9.114L78.165 -9.276L78.408 -9.438L78.651 -9.600L78.894 -9.762L79.137 -9.924L79.380 -10.086L79.623 -10.248L79.867 -10.411L80.110 -10.573L80.353 -10.735L80.596 -10.897L80.839 -11.059L81.082 -11.221L81.326 -11.386L81.559 -11.568L81.773 -11.768L81.969 -11.983L82.146 -12.214L82.303 -12.457L82.439 -12.712L82.554 -12.978L82.646 -13.253L82.716 -13.537L82.762 -13.826L82.783 -14.121L82.785 -14.415L82.785 -14.707L82.785 -15.000L82.785 -15.292L82.785 -15.584L82.785 -15.876L82.785 -16.168L82.785 -16.461L82.785 -16.753L82.785 -17.045L82.785 -17.337L82.785 -17.630L82.785 -17.922L82.785 -18.214L82.785 -18.506L82.785 -18.798L82.785 -19.091L82.785 -19.383L82.785 -19.675L82.785 -19.967L82.785 -20.260L82.785 -20.552L82.785 -20.844L82.785 -21.136L82.785 -21.428L82.785 -21.721L82.785 -22.013L82.785 -22.305L82.785 -22.597L82.785 -22.890L82.785 -23.182L82.785 -23.474L82.785 -23.766L82.785 -24.058L82.785 -24.351L82.785 -24.643L82.785 -24.935L82.785 -25.227L82.785 -25.520L82.785 -25.812L82.785 -26.104L82.785 -26.396L82.785 -26.688L82.785 -26.981L82.785 -27.273L82.785 -27.565L82.785 -27.857L82.785 -28.150L82.785 -28.442L82.785 -28.734L82.785 -29.026L82.785 -29.318L82.785 -29.611L82.785 -29.903L82.785 -30.195L82.785 -30.487L82.785 -30.780L82.785 -31.072L82.785 -31.364L82.785 -31.656L82.785 -31.948L82.785 -32.241L82.785 -32.533L82.785 -32.825L82.785 -33.117L82.785 -33.410L82.785 -33.702L82.785 -33.994L82.785 -34.286L82.785 -34.578L82.785 -34.871L82.785 -35.163L82.785 -35.455L82.785 -35.747L82.785 -36.040L82.785 -36.332L82.785 -36.624L82.785 -36.916L82.785 -37.208L82.785 -37.501L82.785 -37.793L82.785 -38.085L82.785 -38.377L82.785 -38.670L82.785 -38.962L82.785 -39.254L82.785 -39.546L82.785 -39.838L82.785 -40.131L82.785 -40.423L82.785 -40.715L82.785 -41.007L82.785 -41.300L82.785 -41.592L82.785 -41.884L82.785 -42.176L82.785 -42.468L82.785 -42.761L82.785 -43.053L82.785 -43.345L82.785 -43.637L82.785 -43.930L82.785 -44.222L82.785 -44.514L82.785 -44.806L82.785 -45.098L82.785 -45.391L82.785 -45.683L82.785 -45.975L82.785 -46.267L82.785 -46.560L82.785 -46.852L82.785 -47.144L82.785 -47.436L82.785 -47.728L82.785 -48.021L82.785 -48.313L82.785 -48.605L82.785 -48.897L82.785 -49.190L82.785 -49.482L82.785 -49.774L82.785 -50.066L82.785 -50.358L82.785 -50.651L82.785 -50.943L82.785 -51.235L82.785 -51.527L82.785 -51.820L82.785 -52.112L82.785 -52.404L82.785 -52.696L82.785 -52.988L82.785 -53.281L82.785 -53.573L82.785 -53.865L82.785 -54.157L82.785 -54.450L82.785 -54.742L82.785 -55.034L82.785 -55.326L82.785 -55.618L82.785 -55.911L82.785 -56.203L82.785 -56.495L82.785 -56.787L82.785 -57.080L82.785 -57.372L82.785 -57.664L82.785 -57.956L82.785 -58.248L82.785 -58.541L82.785 -58.833L82.785 -59.125L82.785 -59.417L82.785 -59.710L82.785 -60.002L82.785 -60.294L82.785 -60.586L82.785 -60.878L82.785 -61.171L82.785 -61.463L82.785 -61.755L82.785 -62.047L82.785 -62.340L82.785 -62.632L82.785 -62.924L82.785 -63.216L82.785 -63.508L82.785 -63.801L82.785 -64.093L82.785 -64.385L82.785 -64.677L82.785 -64.970L82.785 -65.262L82.785 -65.554L82.785 -65.846L82.785 -66.138L82.785 -66.431L82.785 -66.723L82.785 -67.015L82.785 -67.307L82.785 -67.600L82.785 -67.892L82.785 -68.184L82.785 -68.476L82.785 -68.768L82.785 -69.061L82.785 -69.353L82.785 -69.645L82.785 -69.937L82.785 -70.229L82.772 -70.527ZM37.288 -10.658L37.294 -10.331L37.307 -10.042L37.328 -9.783L37.360 -9.550L37.404 -9.334L37.464 -9.125L37.568 -8.852L37.694 -8.588L37.841 -8.336L38.009 -8.098L38.195 -7.875L38.345 -7.724L38.512 -7.579L38.701 -7.436L38.918 -7.289L39.166 -7.133L39.450 -6.964L39.774 -6.776L40.130 -6.572L40.384 -6.427L40.638 -6.282L40.892 -6.137L41.146 -5.992L41.400 -5.847L41.653 -5.702L41.907 -5.557L42.161 -5.412L42.415 -5.267L42.669 -5.122L42.923 -4.977L43.177 -4.832L43.430 -4.687L43.684 -4.542L43.938 -4.396L44.192 -4.251L44.446 -4.106L44.700 -3.961L44.954 -3.816L45.207 -3.671L45.461 -3.526L45.715 -3.381L45.969 -3.236L46.223 -3.091L46.477 -2.946L46.731 -2.801L46.984 -2.656L47.238 -2.511L47.492 -2.366L47.746 -2.221L48.000 -2.076L48.254 -1.930L48.507 -1.785L48.761 -1.640L49.015 -1.495L49.269 -1.350L49.523 -1.205L49.777 -1.060L50.031 -0.915L50.284 -0.770L50.538 -0.625L50.906 -0.415L51.273 -0.207L51.603 -0.025L51.902 0.133L52.171 0.265L52.414 0.371L52.636 0.450L52.839 0.503L53.027 0.529L53.204 0.528L53.480 0.479L53.754 0.381L54.008 0.241L54.235 0.060L54.431 -0.159L54.533 -0.318L54.608 -0.489L54.667 -0.685L54.710 -0.910L54.742 -1.166L54.763 -1.457L54.776 -1.785L54.782 -2.153L54.785 -2.563L54.785 -3.020L54.785 -3.314L54.785 -3.606L54.785 -3.898L54.785 -4.191L54.785 -4.483L54.785 -4.775L54.785 -5.068L54.785 -5.360L54.785 -5.653L54.785 -5.945L54.785 -6.237L54.785 -6.530L54.785 -6.822L54.785 -7.114L54.785 -7.407L54.785 -7.699L54.785 -7.992L54.785 -8.284L54.785 -8.576L54.785 -8.869L54.785 -9.161L54.785 -9.453L54.785 -9.746L54.785 -10.038L54.785 -10.331L54.785 -10.623L54.785 -10.915L54.785 -11.208L54.785 -11.500L54.785 -11.792L54.785 -12.085L54.785 -12.377L54.785 -12.670L54.785 -12.962L54.785 -13.254L54.785 -13.547L54.785 -13.839L54.785 -14.131L54.785 -14.424L54.785 -14.716L54.785 -15.009L54.785 -15.301L54.785 -15.593L54.785 -15.886L54.785 -16.178L54.785 -16.470L54.785 -16.763L54.785 -17.055L54.785 -17.348L54.785 -17.640L54.785 -17.932L54.785 -18.225L54.785 -18.517L54.785 -18.809L54.785 -19.102L54.785 -19.394L54.785 -19.687L54.785 -19.979L54.785 -20.271L54.785 -20.564L54.785 -20.856L54.785 -21.148L54.785 -21.441L54.785 -21.733L54.785 -22.026L54.785 -22.318L54.785 -22.610L54.785 -22.903L54.785 -23.195L54.785 -23.487L54.785 -23.780L54.785 -24.072L54.785 -24.365L54.785 -24.657L54.785 -24.949L54.785 -25.242L54.785 -25.534L54.785 -25.826L54.785 -26.119L54.785 -26.411L54.785 -26.704L54.785 -26.996L54.785 -27.288L54.785 -27.581L54.785 -27.873L54.785 -28.165L54.785 -28.458L54.785 -28.750L54.785 -29.043L54.785 -29.335L54.785 -29.627L54.785 -29.920L54.785 -30.212L54.785 -30.504L54.785 -30.797L54.785 -31.089L54.785 -31.382L54.785 -31.674L54.785 -31.966L54.785 -32.259L54.785 -32.551L54.785 -32.843L54.785 -33.136L54.785 -33.428L54.785 -33.721L54.785 -34.013L54.785 -34.305L54.785 -34.598L54.785 -34.890L54.785 -35.182L54.785 -35.475L54.785 -35.767L54.785 -36.060L54.785 -36.352L54.785 -36.644L54.785 -36.937L54.785 -37.229L54.785 -37.521L54.785 -37.814L54.785 -38.106L54.785 -38.399L54.785 -38.691L54.785 -38.983L54.785 -39.276L54.785 -39.568L54.785 -39.860L54.785 -40.153L54.785 -40.445L54.785 -40.738L54.785 -41.030L54.785 -41.322L54.785 -41.615L54.785 -41.907L54.785 -42.199L54.785 -42.492L54.785 -42.784L54.785 -43.077L54.785 -43.369L54.785 -43.661L54.785 -43.954L54.785 -44.246L54.785 -44.538L54.785 -44.831L54.785 -45.123L54.785 -45.416L54.785 -45.708L54.785 -46.000L54.785 -46.293L54.785 -46.585L54.785 -46.877L54.785 -47.170L54.785 -47.462L54.785 -47.755L54.785 -48.047L54.785 -48.339L54.785 -48.632L54.785 -48.924L54.785 -49.216L54.785 -49.509L54.785 -49.801L54.785 -50.094L54.785 -50.386L54.785 -50.678L54.785 -50.971L54.785 -51.263L54.785 -51.555L54.785 -51.848L54.785 -52.140L54.785 -52.433L54.785 -52.725L54.785 -53.017L54.785 -53.310L54.785 -53.602L54.785 -53.894L54.785 -54.187L54.785 -54.479L54.785 -54.772L54.785 -55.064L54.785 -55.356L54.785 -55.649L54.785 -55.941L54.785 -56.233L54.785 -56.526L54.785 -56.818L54.785 -57.111L54.785 -57.403L54.785 -57.695L54.785 -57.988L54.785 -58.280L54.785 -58.572L54.785 -58.865L54.785 -59.228L54.784 -59.622L54.780 -59.970L54.770 -60.277L54.753 -60.550L54.727 -60.795L54.690 -61.019L54.639 -61.228L54.557 -61.472L54.442 -61.740L54.305 -61.998L54.148 -62.244L53.969 -62.476L53.802 -62.661L53.644 -62.808L53.466 -62.951L53.264 -63.096L53.032 -63.246L52.767 -63.408L52.463 -63.586L52.117 -63.785L51.813 -63.959L51.559 -64.104L51.305 -64.249L51.051 -64.394L50.797 -64.539L50.543 -64.684L50.290 -64.829L50.036 -64.974L49.782 -65.120L49.528 -65.265L49.274 -65.410L49.020 -65.555L48.766 -65.700L48.513 -65.845L48.259 -65.990L48.005 -66.135L47.751 -66.280L47.497 -66.425L47.243 -66.570L46.989 -66.715L46.736 -66.860L46.482 -67.005L46.228 -67.150L45.974 -67.295L45.720 -67.440L45.466 -67.586L45.213 -67.731L44.959 -67.876L44.705 -68.021L44.451 -68.166L44.197 -68.311L43.943 -68.456L43.689 -68.601L43.436 -68.746L43.182 -68.891L42.928 -69.036L42.674 -69.181L42.420 -69.326L42.166 -69.471L41.912 -69.616L41.659 -69.761L41.362 -69.931L40.976 -70.151L40.628 -70.346L40.314 -70.516L40.030 -70.661L39.775 -70.780L39.542 -70.873L39.330 -70.939L39.135 -70.979L38.953 -70.991L38.734 -70.969L38.451 -70.895L38.186 -70.775L37.945 -70.614L37.733 -70.414L37.581 -70.217L37.497 -70.059L37.431 -69.876L37.380 -69.665L37.342 -69.425L37.317 -69.152L37.300 -68.843L37.290 -68.496L37.286 -68.107L37.285 -67.673L37.285 -67.292L37.285 -66.999L37.285 -66.707L37.285 -66.414L37.285 -66.122L37.285 -65.830L37.285 -65.537L37.285 -65.245L37.285 -64.953L37.285 -64.660L37.285 -64.368L37.285 -64.075L37.285 -63.783L37.285 -63.491L37.285 -63.198L37.285 -62.906L37.285 -62.614L37.285 -62.321L37.285 -62.029L37.285 -61.736L37.285 -61.444L37.285 -61.152L37.285 -60.859L37.285 -60.567L37.285 -60.275L37.285 -59.982L37.285 -59.690L37.285 -59.397L37.285 -59.105L37.285 -58.813L37.285 -58.520L37.285 -58.228L37.285 -57.936L37.285 -57.643L37.285 -57.351L37.285 -57.058L37.285 -56.766L37.285 -56.474L37.285 -56.181L37.285 -55.889L37.285 -55.597L37.285 -55.304L37.285 -55.012L37.285 -54.720L37.285 -54.427L37.285 -54.135L37.285 -53.842L37.285 -53.550L37.285 -53.258L37.285 -52.965L37.285 -52.673L37.285 -52.381L37.285 -52.088L37.285 -51.796L37.285 -51.503L37.285 -51.211L37.285 -50.919L37.285 -50.626L37.285 -50.334L37.285 -50.042L37.285 -49.749L37.285 -49.457L37.285 -49.164L37.285 -48.872L37.285 -48.580L37.285 -48.287L37.285 -47.995L37.285 -47.703L37.285 -47.410L37.285 -47.118L37.285 -46.825L37.285 -46.533L37.285 -46.241L37.285 -45.948L37.285 -45.656L37.285 -45.364L37.285 -45.071L37.285 -44.779L37.285 -44.486L37.285 -44.194L37.285 -43.902L37.285 -43.609L37.285 -43.317L37.285 -43.025L37.285 -42.732L37.285 -42.440L37.285 -42.147L37.285 -41.855L37.285 -41.563L37.285 -41.270L37.285 -40.978L37.285 -40.686L37.285 -40.393L37.285 -40.101L37.285 -39.808L37.285 -39.516L37.285 -39.224L37.285 -38.931L37.285 -38.639L37.285 -38.347L37.285 -38.054L37.285 -37.762L37.285 -37.469L37.285 -37.177L37.285 -36.885L37.285 -36.592L37.285 -36.300L37.285 -36.008L37.285 -35.715L37.285 -35.423L37.285 -35.130L37.285 -34.838L37.285 -34.546L37.285 -34.253L37.285 -33.961L37.285 -33.669L37.285 -33.376L37.285 -33.084L37.285 -32.791L37.285 -32.499L37.285 -32.207L37.285 -31.914L37.285 -31.622L37.285 -31.330L37.285 -31.037L37.285 -30.745L37.285 -30.452L37.285 -30.160L37.285 -29.868L37.285 -29.575L37.285 -29.283L37.285 -28.991L37.285 -28.698L37.285 -28.406L37.285 -28.113L37.285 -27.821L37.285 -27.529L37.285 -27.236L37.285 -26.944L37.285 -26.652L37.285 -26.359L37.285 -26.067L37.285 -25.774L37.285 -25.482L37.285 -25.190L37.285 -24.897L37.285 -24.605L37.285 -24.313L37.285 -24.020L37.285 -23.728L37.285 -23.435L37.285 -23.143L37.285 -22.851L37.285 -22.558L37.285 -22.266L37.285 -21.974L37.285 -21.681L37.285 -21.389L37.285 -21.096L37.285 -20.804L37.285 -20.512L37.285 -20.219L37.285 -19.927L37.285 -19.635L37.285 -19.342L37.285 -19.050L37.285 -18.757L37.285 -18.465L37.285 -18.173L37.285 -17.880L37.285 -17.588L37.285 -17.296L37.285 -17.003L37.285 -16.711L37.285 -16.418L37.285 -16.126L37.285 -15.834L37.285 -15.541L37.285 -15.249L37.285 -14.957L37.285 -14.664L37.285 -14.372L37.285 -14.079L37.285 -13.787L37.285 -13.495L37.285 -13.202L37.285 -12.910L37.285 -12.618L37.285 -12.325L37.285 -12.033L37.285 -11.740L37.285 -11.448L37.285 -11.028L37.288 -10.658ZM30.282 -68.304L30.276 -68.672L30.263 -69.000L30.242 -69.291L30.211 -69.548L30.167 -69.773L30.109 -69.969L30.034 -70.140L29.932 -70.299L29.736 -70.518L29.509 -70.699L29.255 -70.840L28.981 -70.937L28.704 -70.987L28.528 -70.988L28.339 -70.962L28.136 -70.909L27.915 -70.830L27.671 -70.724L27.402 -70.592L27.104 -70.434L26.773 -70.252L26.407 -70.044L26.039 -69.834L25.785 -69.689L25.531 -69.544L25.277 -69.399L25.023 -69.254L24.769 -69.109L24.515 -68.963L24.261 -68.818L24.007 -68.673L23.753 -68.528L23.499 -68.383L23.245 -68.238L22.992 -68.093L22.738 -67.948L22.484 -67.803L22.230 -67.658L21.976 -67.513L21.722 -67.367L21.468 -67.222L21.214 -67.077L20.960 -66.932L20.706 -66.787L20.452 -66.642L20.198 -66.497L19.944 -66.352L19.691 -66.207L19.437 -66.062L19.183 -65.916L18.929 -65.771L18.675 -65.626L18.421 -65.481L18.167 -65.336L17.913 -65.191L17.659 -65.046L17.405 -64.901L17.151 -64.756L16.897 -64.611L16.644 -64.466L16.390 -64.320L16.136 -64.175L15.882 -64.030L15.628 -63.885L15.374 -63.740L15.120 -63.595L14.866 -63.450L14.612 -63.305L14.358 -63.160L14.104 -63.015L13.850 -62.869L13.597 -62.724L13.343 -62.579L13.089 -62.434L12.835 -62.289L12.581 -62.144L12.327 -61.999L12.073 -61.854L11.819 -61.709L11.565 -61.564L11.311 -61.418L11.057 -61.273L10.803 -61.128L10.550 -60.983L10.296 -60.838L10.042 -60.693L9.788 -60.548L9.534 -60.403L9.280 -60.258L9.026 -60.113L8.772 -59.968L8.518 -59.822L8.264 -59.677L8.010 -59.532L7.756 -59.387L7.502 -59.241L7.253 -59.079L7.021 -58.898L6.806 -58.700L6.609 -58.486L6.432 -58.257L6.274 -58.014L6.137 -57.759L6.021 -57.494L5.928 -57.219L5.857 -56.936L5.810 -56.646L5.787 -56.350L5.785 -56.055L5.785 -55.763L5.785 -55.471L5.785 -55.178L5.785 -54.886L5.785 -54.593L5.785 -54.301L5.785 -54.008L5.785 -53.716L5.785 -53.423L5.785 -53.131L5.785 -52.839L5.785 -52.546L5.785 -52.254L5.785 -51.961L5.785 -51.669L5.785 -51.376L5.785 -51.084L5.785 -50.791L5.785 -50.499L5.785 -50.206L5.785 -49.914L5.785 -49.622L5.785 -49.329L5.785 -49.037L5.785 -48.744L5.785 -48.452L5.785 -48.159L5.785 -47.867L5.785 -47.574L5.785 -47.282L5.785 -46.990L5.785 -46.697L5.785 -46.405L5.785 -46.112L5.785 -45.820L5.785 -45.527L5.785 -45.235L5.785 -44.942L5.785 -44.650L5.785 -44.357L5.785 -44.065L5.785 -43.773L5.785 -43.480L5.785 -43.188L5.785 -42.895L5.785 -42.603L5.785 -42.310L5.785 -42.018L5.785 -41.725L5.785 -41.433L5.785 -41.141L5.785 -40.848L5.785 -40.556L5.785 -40.263L5.785 -39.971L5.785 -39.678L5.785 -39.386L5.785 -39.093L5.785 -38.801L5.785 -38.508L5.785 -38.216L5.785 -37.924L5.785 -37.631L5.785 -37.339L5.785 -37.046L5.785 -36.754L5.785 -36.461L5.785 -36.169L5.785 -35.876L5.785 -35.584L5.785 -35.292L5.785 -34.999L5.785 -34.707L5.785 -34.414L5.785 -34.122L5.785 -33.829L5.785 -33.537L5.785 -33.244L5.785 -32.952L5.785 -32.659L5.785 -32.367L5.785 -32.075L5.785 -31.782L5.785 -31.490L5.785 -31.197L5.785 -30.905L5.785 -30.612L5.785 -30.320L5.785 -30.027L5.785 -29.735L5.785 -29.443L5.785 -29.150L5.785 -28.858L5.785 -28.565L5.785 -28.273L5.785 -27.980L5.785 -27.688L5.785 -27.395L5.785 -27.103L5.785 -26.810L5.785 -26.518L5.785 -26.226L5.785 -25.933L5.785 -25.641L5.785 -25.348L5.785 -25.056L5.785 -24.763L5.785 -24.471L5.785 -24.178L5.785 -23.886L5.785 -23.594L5.785 -23.301L5.785 -23.009L5.785 -22.716L5.785 -22.424L5.785 -22.131L5.785 -21.839L5.785 -21.546L5.785 -21.254L5.785 -20.961L5.785 -20.669L5.785 -20.377L5.785 -20.084L5.785 -19.792L5.785 -19.499L5.785 -19.207L5.785 -18.914L5.785 -18.622L5.785 -18.329L5.785 -18.037L5.785 -17.745L5.785 -17.452L5.785 -17.160L5.785 -16.867L5.785 -16.575L5.785 -16.282L5.785 -15.990L5.785 -15.697L5.785 -15.405L5.785 -15.112L5.785 -14.820L5.785 -14.528L5.785 -14.235L5.785 -13.943L5.785 -13.650L5.785 -13.358L5.785 -13.065L5.785 -12.773L5.785 -12.480L5.785 -12.188L5.785 -11.896L5.785 -11.603L5.785 -11.311L5.785 -11.018L5.785 -10.726L5.785 -10.433L5.785 -10.141L5.785 -9.848L5.785 -9.556L5.785 -9.263L5.785 -8.971L5.785 -8.679L5.785 -8.386L5.785 -8.094L5.785 -7.801L5.785 -7.509L5.785 -7.216L5.785 -6.924L5.785 -6.631L5.785 -6.339L5.785 -6.046L5.785 -5.754L5.785 -5.462L5.785 -5.169L5.785 -4.877L5.785 -4.584L5.785 -4.292L5.785 -3.999L5.785 -3.707L5.785 -3.414L5.785 -3.122L5.785 -2.830L5.785 -2.537L5.785 -2.245L5.785 -1.952L5.785 -1.660L5.785 -1.367L5.785 -1.075L5.785 -0.782L5.785 -0.490L5.785 -0.197L5.801 0.100L5.840 0.392L5.904 0.677L5.991 0.955L6.101 1.223L6.231 1.481L6.383 1.727L6.555 1.961L6.746 2.179L6.955 2.383L7.183 2.569L7.427 2.736L7.686 2.884L7.955 3.008L8.230 3.108L8.512 3.184L8.797 3.236L9.085 3.265L9.375 3.269L9.663 3.250L9.950 3.207L10.233 3.140L10.512 3.049L10.783 2.934L11.046 2.795L11.300 2.650L11.554 2.505L11.808 2.360L12.062 2.215L12.316 2.070L12.570 1.925L12.824 1.779L13.077 1.634L13.331 1.489L13.585 1.344L13.839 1.199L14.093 1.054L14.347 0.909L14.601 0.764L14.855 0.619L15.109 0.474L15.363 0.329L15.617 0.183L15.871 0.038L16.125 -0.107L16.378 -0.252L16.632 -0.397L16.886 -0.542L17.140 -0.687L17.394 -0.832L17.648 -0.977L17.902 -1.122L18.156 -1.267L18.410 -1.413L18.664 -1.558L18.918 -1.703L19.172 -1.848L19.425 -1.993L19.679 -2.138L19.933 -2.283L20.187 -2.428L20.441 -2.573L20.695 -2.718L20.949 -2.863L21.203 -3.009L21.457 -3.154L21.711 -3.299L21.965 -3.444L22.219 -3.589L22.473 -3.734L22.726 -3.879L22.980 -4.024L23.234 -4.169L23.488 -4.314L23.742 -4.459L23.996 -4.605L24.250 -4.750L24.504 -4.895L24.758 -5.040L25.012 -5.185L25.266 -5.330L25.520 -5.475L25.773 -5.620L26.027 -5.765L26.281 -5.910L26.535 -6.055L26.789 -6.201L27.043 -6.346L27.297 -6.491L27.594 -6.661L27.943 -6.861L28.250 -7.040L28.517 -7.203L28.751 -7.354L28.955 -7.499L29.134 -7.642L29.293 -7.789L29.458 -7.970L29.637 -8.201L29.796 -8.446L29.935 -8.703L30.051 -8.971L30.136 -9.219L30.187 -9.427L30.226 -9.650L30.252 -9.894L30.269 -10.165L30.279 -10.471L30.284 -10.816L30.285 -11.208L30.285 -11.578L30.285 -11.870L30.285 -12.163L30.285 -12.455L30.285 -12.748L30.285 -13.040L30.285 -13.332L30.285 -13.625L30.285 -13.917L30.285 -14.210L30.285 -14.502L30.285 -14.795L30.285 -15.087L30.285 -15.380L30.285 -15.672L30.285 -15.964L30.285 -16.257L30.285 -16.549L30.285 -16.842L30.285 -17.134L30.285 -17.427L30.285 -17.719L30.285 -18.012L30.285 -18.304L30.285 -18.597L30.285 -18.889L30.285 -19.181L30.285 -19.474L30.285 -19.766L30.285 -20.059L30.285 -20.351L30.285 -20.644L30.285 -20.936L30.285 -21.229L30.285 -21.521L30.285 -21.814L30.285 -22.106L30.285 -22.398L30.285 -22.691L30.285 -22.983L30.285 -23.276L30.285 -23.568L30.285 -23.861L30.285 -24.153L30.285 -24.446L30.285 -24.738L30.285 -25.030L30.285 -25.323L30.285 -25.615L30.285 -25.908L30.285 -26.200L30.285 -26.493L30.285 -26.785L30.285 -27.078L30.285 -27.370L30.285 -27.663L30.285 -27.955L30.285 -28.247L30.285 -28.540L30.285 -28.832L30.285 -29.125L30.285 -29.417L30.285 -29.710L30.285 -30.002L30.285 -30.295L30.285 -30.587L30.285 -30.879L30.285 -31.172L30.285 -31.464L30.285 -31.757L30.285 -32.049L30.285 -32.342L30.285 -32.634L30.285 -32.927L30.285 -33.219L30.285 -33.512L30.285 -33.804L30.285 -34.096L30.285 -34.389L30.285 -34.681L30.285 -34.974L30.285 -35.266L30.285 -35.559L30.285 -35.851L30.285 -36.144L30.285 -36.436L30.285 -36.728L30.285 -37.021L30.285 -37.313L30.285 -37.606L30.285 -37.898L30.285 -38.191L30.285 -38.483L30.285 -38.776L30.285 -39.068L30.285 -39.361L30.285 -39.653L30.285 -39.945L30.285 -40.238L30.285 -40.530L30.285 -40.823L30.285 -41.115L30.285 -41.408L30.285 -41.700L30.285 -41.993L30.285 -42.285L30.285 -42.577L30.285 -42.870L30.285 -43.162L30.285 -43.455L30.285 -43.747L30.285 -44.040L30.285 -44.332L30.285 -44.625L30.285 -44.917L30.285 -45.210L30.285 -45.502L30.285 -45.794L30.285 -46.087L30.285 -46.379L30.285 -46.672L30.285 -46.964L30.285 -47.257L30.285 -47.549L30.285 -47.842L30.285 -48.134L30.285 -48.426L30.285 -48.719L30.285 -49.011L30.285 -49.304L30.285 -49.596L30.285 -49.889L30.285 -50.181L30.285 -50.474L30.285 -50.766L30.285 -51.059L30.285 -51.351L30.285 -51.643L30.285 -51.936L30.285 -52.228L30.285 -52.521L30.285 -52.813L30.285 -53.106L30.285 -53.398L30.285 -53.691L30.285 -53.983L30.285 -54.275L30.285 -54.568L30.285 -54.860L30.285 -55.153L30.285 -55.445L30.285 -55.738L30.285 -56.030L30.285 -56.323L30.285 -56.615L30.285 -56.908L30.285 -57.200L30.285 -57.492L30.285 -57.785L30.285 -58.077L30.285 -58.370L30.285 -58.662L30.285 -58.955L30.285 -59.247L30.285 -59.540L30.285 -59.832L30.285 -60.124L30.285 -60.417L30.285 -60.709L30.285 -61.002L30.285 -61.294L30.285 -61.587L30.285 -61.879L30.285 -62.172L30.285 -62.464L30.285 -62.757L30.285 -63.049L30.285 -63.341L30.285 -63.634L30.285 -63.926L30.285 -64.219L30.285 -64.511L30.285 -64.804L30.285 -65.096L30.285 -65.389L30.285 -65.681L30.285 -65.973L30.285 -66.266L30.285 -66.558L30.285 -66.851L30.285 -67.143L30.285 -67.436L30.285 -67.436L30.285 -67.893L30.282 -68.304Z"/>
  </g>
 </g>
</svg>
