<?xml version="1.0" encoding="UTF-8"?>
<!--Generator: Custom SF Symbol – Foxhunt-->
<!DOCTYPE svg
PUBLIC "-//W3C//DTD SVG 1.1//EN"
       "http://www.w3.org/Graphics/SVG/1.1/DTD/svg11.dtd">
<svg version="1.1" xmlns="http://www.w3.org/2000/svg" xmlns:xlink="http://www.w3.org/1999/xlink" viewBox="0 0 3300 2200">
 <!--glyph: "co.swellyo.lineup.fill", point size: 100.0, template writer version: "138.0.0"-->
 <style>.monochrome-0 {-sfsymbols-motion-group:0;-sfsymbols-layer-tags:-a1b2c3d4e5f60001}

.multicolor-0:tintColor {-sfsymbols-motion-group:0;-sfsymbols-layer-tags:-a1b2c3d4e5f60001}

.hierarchical-0:primary {-sfsymbols-motion-group:0;-sfsymbols-layer-tags:-a1b2c3d4e5f60001}

.SFSymbolsPreviewWireframe {fill:none;opacity:1.0;stroke:black;stroke-width:0.5}
</style>
 <g id="Notes">
  <rect height="2200" id="artboard" style="fill:white;opacity:1" width="3300" x="0" y="0"/>
  <line style="fill:none;stroke:black;opacity:1;stroke-width:0.5;" x1="263" x2="3036" y1="292" y2="292"/>
  <text style="stroke:none;fill:black;font-family:sans-serif;font-size:13;font-weight:bold;" transform="matrix(1 0 0 1 263 322)">Weight/Scale Variations</text>
  <text style="stroke:none;fill:black;font-family:sans-serif;font-size:13;text-anchor:middle;" transform="matrix(1 0 0 1 559.711 322)">Ultralight</text>
  <text style="stroke:none;fill:black;font-family:sans-serif;font-size:13;text-anchor:middle;" transform="matrix(1 0 0 1 1449.84 322)">Regular</text>
  <text style="stroke:none;fill:black;font-family:sans-serif;font-size:13;text-anchor:middle;" transform="matrix(1 0 0 1 2933.4 322)">Black</text>
  <line style="fill:none;stroke:black;opacity:1;stroke-width:0.5;" x1="263" x2="3036" y1="1903" y2="1903"/>
  <text id="template-version" style="stroke:none;fill:black;font-family:sans-serif;font-size:13;text-anchor:end;" transform="matrix(1 0 0 1 3036 1933)">Template v.6.0</text>
  <text style="stroke:none;fill:black;font-family:sans-serif;font-size:13;text-anchor:end;" transform="matrix(1 0 0 1 3036 1951)">Requires Xcode 16 or greater</text>
  <text id="descriptive-name" style="stroke:none;fill:black;font-family:sans-serif;font-size:13;text-anchor:end;" transform="matrix(1 0 0 1 3036 1969)">Generated from co.swellyo.lineup.fill</text>
  <text style="stroke:none;fill:black;font-family:sans-serif;font-size:13;text-anchor:end;" transform="matrix(1 0 0 1 3036 1987)">Typeset at 100.0 points</text>
  <text style="stroke:none;fill:black;font-family:sans-serif;font-size:13;" transform="matrix(1 0 0 1 263 726)">Small</text>
  <text style="stroke:none;fill:black;font-family:sans-serif;font-size:13;" transform="matrix(1 0 0 1 263 1156)">Medium</text>
  <text style="stroke:none;fill:black;font-family:sans-serif;font-size:13;" transform="matrix(1 0 0 1 263 1586)">Large</text>
 </g>
 <g id="Guides">
  <g id="H-reference" style="fill:#27AAE1;stroke:none;" transform="matrix(1 0 0 1 339 696)">
   <path d="M0.993654 0L3.63775 0L29.3281-67.1323L30.0303-67.1323L30.0303-70.459L28.1226-70.459ZM11.6885-24.4799L46.9815-24.4799L46.2315-26.7285L12.4385-26.7285ZM55.1196 0L57.7637 0L30.6382-70.459L29.4326-70.459L29.4326-67.1323Z"/>
  </g>
  <line id="Baseline-S" style="fill:none;stroke:#27AAE1;opacity:1;stroke-width:0.5;" x1="263" x2="3036" y1="696" y2="696"/>
  <line id="Capline-S" style="fill:none;stroke:#27AAE1;opacity:1;stroke-width:0.5;" x1="263" x2="3036" y1="625.541" y2="625.541"/>
  <g id="H-reference" style="fill:#27AAE1;stroke:none;" transform="matrix(1 0 0 1 339 1126)">
   <path d="M0.993654 0L3.63775 0L29.3281-67.1323L30.0303-67.1323L30.0303-70.459L28.1226-70.459ZM11.6885-24.4799L46.9815-24.4799L46.2315-26.7285L12.4385-26.7285ZM55.1196 0L57.7637 0L30.6382-70.459L29.4326-70.459L29.4326-67.1323Z"/>
  </g>
  <line id="Baseline-M" style="fill:none;stroke:#27AAE1;opacity:1;stroke-width:0.5;" x1="263" x2="3036" y1="1126" y2="1126"/>
  <line id="Capline-M" style="fill:none;stroke:#27AAE1;opacity:1;stroke-width:0.5;" x1="263" x2="3036" y1="1055.54" y2="1055.54"/>
  <g id="H-reference" style="fill:#27AAE1;stroke:none;" transform="matrix(1 0 0 1 339 1556)">
   <path d="M0.993654 0L3.63775 0L29.3281-67.1323L30.0303-67.1323L30.0303-70.459L28.1226-70.459ZM11.6885-24.4799L46.9815-24.4799L46.2315-26.7285L12.4385-26.7285ZM55.1196 0L57.7637 0L30.6382-70.459L29.4326-70.459L29.4326-67.1323Z"/>
  </g>
  <line id="Baseline-L" style="fill:none;stroke:#27AAE1;opacity:1;stroke-width:0.5;" x1="263" x2="3036" y1="1556" y2="1556"/>
  <line id="Capline-L" style="fill:none;stroke:#27AAE1;opacity:1;stroke-width:0.5;" x1="263" x2="3036" y1="1485.54" y2="1485.54"/>
  <line id="left-margin-Ultralight-S" style="fill:none;stroke:#00AEEF;stroke-width:0.5;opacity:1.0;" x1="515.423" x2="515.423" y1="600.785" y2="720.121"/>
  <line id="right-margin-Ultralight-S" style="fill:none;stroke:#00AEEF;stroke-width:0.5;opacity:1.0;" x1="604" x2="604" y1="600.785" y2="720.121"/>
  <line id="left-margin-Regular-S" style="fill:none;stroke:#00AEEF;stroke-width:0.5;opacity:1.0;" x1="1405.56" x2="1405.56" y1="600.785" y2="720.121"/>
  <line id="right-margin-Regular-S" style="fill:none;stroke:#00AEEF;stroke-width:0.5;opacity:1.0;" x1="1494.13" x2="1494.13" y1="600.785" y2="720.121"/>
  <line id="left-margin-Black-S" style="fill:none;stroke:#00AEEF;stroke-width:0.5;opacity:1.0;" x1="2889.11" x2="2889.11" y1="600.785" y2="720.121"/>
  <line id="right-margin-Black-S" style="fill:none;stroke:#00AEEF;stroke-width:0.5;opacity:1.0;" x1="2977.69" x2="2977.69" y1="600.785" y2="720.121"/>
 </g>
 <g id="Symbols">
  <g id="Black-S" transform="matrix(1 0 0 1 2889.11 696)">
   <path class="monochrome-0 multicolor-0:tintColor hierarchical-0:primary SFSymbolsPreviewWireframe" fill-rule="evenodd" d="M77.891 -72.151L77.533 -72.254L77.182 -72.325L76.840 -72.367L76.508 -72.385L76.189 -72.381L75.886 -72.360L75.599 -72.324L75.332 -72.279L75.087 -72.228L74.865 -72.174L74.669 -72.120L74.462 -72.060L74.209 -71.980L73.947 -71.893L73.678 -71.798L73.401 -71.697L73.120 -71.592L72.834 -71.482L72.545 -71.371L72.255 -71.257L71.980 -71.150L71.708 -71.044L71.436 -70.938L71.164 -70.832L70.891 -70.725L70.619 -70.619L70.347 -70.513L70.075 -70.407L69.803 -70.301L69.531 -70.195L69.259 -70.088L68.987 -69.982L68.715 -69.876L68.443 -69.770L68.171 -69.664L67.899 -69.558L67.627 -69.451L67.355 -69.345L67.083 -69.239L66.811 -69.133L66.539 -69.027L66.267 -68.921L65.995 -68.814L65.723 -68.708L65.451 -68.602L65.179 -68.496L64.907 -68.390L64.634 -68.284L64.362 -68.177L64.090 -68.071L63.818 -67.965L63.546 -67.859L63.274 -67.753L63.002 -67.647L62.730 -67.540L62.458 -67.434L62.186 -67.328L61.914 -67.222L61.642 -67.116L61.370 -67.010L61.098 -66.903L60.826 -66.797L60.554 -66.691L60.282 -66.585L60.010 -66.479L59.738 -66.373L59.466 -66.266L59.194 -66.160L58.922 -66.054L58.650 -65.948L58.377 -65.842L58.105 -65.736L57.833 -65.630L57.561 -65.523L57.289 -65.417L57.017 -65.311L56.745 -65.205L56.473 -65.099L56.201 -64.993L55.929 -64.886L55.657 -64.780L55.385 -64.674L55.113 -64.568L54.841 -64.462L54.569 -64.356L54.297 -64.249L54.025 -64.143L53.753 -64.037L53.481 -63.931L53.209 -63.825L52.937 -63.719L52.665 -63.612L52.393 -63.506L52.120 -63.400L51.848 -63.294L51.576 -63.188L51.304 -63.082L51.032 -62.975L50.760 -62.869L50.488 -62.763L50.216 -62.657L49.944 -62.551L49.672 -62.445L49.400 -62.338L49.128 -62.232L48.856 -62.126L48.584 -62.020L48.312 -61.914L48.040 -61.808L47.768 -61.701L47.496 -61.595L47.224 -61.489L46.952 -61.383L46.680 -61.277L46.408 -61.171L46.136 -61.064L45.863 -60.958L45.591 -60.852L45.319 -60.746L45.047 -60.640L44.775 -60.534L44.503 -60.427L44.231 -60.321L43.959 -60.215L43.687 -60.109L43.415 -60.003L43.143 -59.897L42.871 -59.791L42.599 -59.684L42.327 -59.578L42.055 -59.472L41.783 -59.366L41.511 -59.260L41.239 -59.154L40.967 -59.047L40.695 -58.941L40.423 -58.835L40.151 -58.729L39.878 -58.623L39.606 -58.517L39.334 -58.410L39.062 -58.304L38.790 -58.198L38.518 -58.092L38.246 -57.986L37.974 -57.880L37.702 -57.773L37.430 -57.667L37.158 -57.561L36.886 -57.455L36.614 -57.349L36.342 -57.243L36.070 -57.136L35.798 -57.030L35.526 -56.924L35.254 -56.818L34.982 -56.712L34.710 -56.606L34.438 -56.499L34.166 -56.393L33.894 -56.287L33.621 -56.181L33.349 -56.075L33.077 -55.969L32.805 -55.862L32.533 -55.756L32.261 -55.650L31.989 -55.544L31.717 -55.438L31.445 -55.332L31.173 -55.225L30.901 -55.119L30.629 -55.013L30.357 -54.907L30.085 -54.801L29.813 -54.695L29.541 -54.588L29.269 -54.482L28.997 -54.376L28.725 -54.270L28.453 -54.164L28.181 -54.058L27.909 -53.952L27.637 -53.845L27.364 -53.739L27.092 -53.633L26.820 -53.527L26.548 -53.421L26.276 -53.315L26.004 -53.208L25.732 -53.102L25.460 -52.996L25.188 -52.890L24.916 -52.784L24.644 -52.678L24.372 -52.571L24.100 -52.465L23.828 -52.359L23.556 -52.253L23.284 -52.147L23.012 -52.041L22.740 -51.934L22.468 -51.828L22.196 -51.722L21.924 -51.616L21.652 -51.510L21.380 -51.404L21.107 -51.297L20.835 -51.191L20.563 -51.085L20.291 -50.979L20.019 -50.873L19.747 -50.767L19.475 -50.660L19.203 -50.554L18.931 -50.448L18.659 -50.342L18.387 -50.236L18.115 -50.130L17.843 -50.023L17.571 -49.917L17.299 -49.811L17.027 -49.705L16.755 -49.599L16.483 -49.493L16.211 -49.386L15.939 -49.280L15.667 -49.174L15.395 -49.068L15.123 -48.962L14.850 -48.856L14.578 -48.749L14.306 -48.643L14.034 -48.537L13.762 -48.431L13.490 -48.325L13.218 -48.219L12.946 -48.113L12.657 -48.000L12.363 -47.885L12.073 -47.770L11.789 -47.657L11.511 -47.544L11.241 -47.431L10.980 -47.319L10.729 -47.208L10.491 -47.098L10.283 -46.996L10.115 -46.912L9.925 -46.810L9.717 -46.692L9.495 -46.555L9.263 -46.398L9.025 -46.221L8.786 -46.022L8.549 -45.799L8.319 -45.553L8.100 -45.280L7.895 -44.982L7.712 -44.660L7.584 -44.393L7.471 -44.120L7.375 -43.843L7.294 -43.562L7.230 -43.279L7.181 -42.993L7.148 -42.705L7.131 -42.416L7.131 -42.126L7.146 -41.837L7.177 -41.549L7.224 -41.263L7.287 -40.979L7.365 -40.698L7.460 -40.421L7.571 -40.148L7.697 -39.880L7.873 -39.564L8.076 -39.262L8.294 -38.987L8.523 -38.738L8.760 -38.512L8.999 -38.310L9.237 -38.130L9.470 -37.972L9.694 -37.832L9.904 -37.712L10.097 -37.609L10.268 -37.522L10.467 -37.425L10.704 -37.315L10.953 -37.204L11.213 -37.093L11.482 -36.981L11.759 -36.868L12.043 -36.755L12.333 -36.641L12.626 -36.526L12.918 -36.413L13.190 -36.307L13.463 -36.201L13.735 -36.095L14.007 -35.990L14.279 -35.884L14.551 -35.778L14.823 -35.672L15.096 -35.566L15.368 -35.460L15.640 -35.355L15.912 -35.249L16.184 -35.143L16.456 -35.037L16.729 -34.931L17.001 -34.825L17.273 -34.719L17.545 -34.614L17.817 -34.508L18.089 -34.402L18.362 -34.296L18.634 -34.190L18.906 -34.084L19.178 -33.979L19.450 -33.873L19.722 -33.767L19.995 -33.661L20.267 -33.555L20.539 -33.449L20.811 -33.343L21.083 -33.238L21.355 -33.132L21.628 -33.026L21.900 -32.920L22.172 -32.814L22.444 -32.708L22.716 -32.603L22.988 -32.497L23.261 -32.391L23.533 -32.285L23.805 -32.179L24.077 -32.073L24.349 -31.968L24.621 -31.862L24.894 -31.756L25.166 -31.650L25.438 -31.544L25.710 -31.438L25.982 -31.332L26.254 -31.227L26.527 -31.121L26.799 -31.015L27.071 -30.909L27.343 -30.803L27.615 -30.697L27.887 -30.592L28.160 -30.486L28.432 -30.380L28.704 -30.274L28.976 -30.168L29.248 -30.062L29.588 -29.930L29.962 -29.786L30.296 -29.660L30.597 -29.552L30.869 -29.462L31.117 -29.389L31.348 -29.335L31.566 -29.298L31.776 -29.278L32.040 -29.276L32.331 -29.298L32.619 -29.343L32.902 -29.412L33.179 -29.505L33.439 -29.616L33.624 -29.715L33.808 -29.832L33.996 -29.970L34.192 -30.131L34.401 -30.317L34.628 -30.531L34.878 -30.774L35.155 -31.050L35.432 -31.327L35.639 -31.533L35.845 -31.740L36.052 -31.946L36.258 -32.153L36.465 -32.359L36.671 -32.566L36.878 -32.772L37.084 -32.979L37.291 -33.185L37.497 -33.392L37.704 -33.598L37.910 -33.805L38.117 -34.011L38.323 -34.218L38.530 -34.424L38.736 -34.631L38.943 -34.837L39.149 -35.044L39.356 -35.250L39.562 -35.457L39.769 -35.663L39.975 -35.870L40.182 -36.076L40.388 -36.283L40.595 -36.489L40.801 -36.696L41.008 -36.902L41.214 -37.109L41.421 -37.315L41.627 -37.521L41.834 -37.728L42.040 -37.934L42.247 -38.141L42.453 -38.347L42.660 -38.554L42.866 -38.760L43.073 -38.967L43.279 -39.173L43.486 -39.380L43.692 -39.586L43.899 -39.793L44.105 -39.999L44.312 -40.206L44.518 -40.412L44.725 -40.619L44.931 -40.825L45.138 -41.032L45.344 -41.238L45.551 -41.445L45.757 -41.651L45.964 -41.858L46.170 -42.064L46.376 -42.271L46.583 -42.477L46.789 -42.684L46.996 -42.890L47.202 -43.097L47.409 -43.303L47.615 -43.510L47.822 -43.716L48.028 -43.923L48.235 -44.129L48.441 -44.336L48.648 -44.542L48.854 -44.749L49.061 -44.955L49.267 -45.162L49.474 -45.368L49.680 -45.575L49.887 -45.781L50.093 -45.988L50.300 -46.194L50.506 -46.401L50.713 -46.607L50.919 -46.814L51.126 -47.020L51.332 -47.227L51.539 -47.433L51.745 -47.640L51.952 -47.846L52.158 -48.053L52.367 -48.261L52.593 -48.463L52.833 -48.643L53.083 -48.799L53.343 -48.932L53.611 -49.043L53.886 -49.130L54.165 -49.194L54.448 -49.234L54.733 -49.252L55.019 -49.246L55.303 -49.218L55.584 -49.166L55.862 -49.091L56.133 -48.993L56.398 -48.872L56.653 -48.728L56.899 -48.560L57.132 -48.370L57.352 -48.156L57.551 -47.927L57.727 -47.686L57.879 -47.434L58.008 -47.172L58.114 -46.903L58.198 -46.627L58.257 -46.347L58.294 -46.064L58.308 -45.779L58.298 -45.493L58.266 -45.209L58.210 -44.929L58.131 -44.652L58.029 -44.381L57.904 -44.118L57.756 -43.864L57.584 -43.621L57.390 -43.390L57.181 -43.176L56.974 -42.969L56.768 -42.763L56.561 -42.556L56.355 -42.350L56.148 -42.143L55.942 -41.937L55.735 -41.730L55.529 -41.524L55.322 -41.317L55.116 -41.111L54.909 -40.904L54.703 -40.698L54.496 -40.491L54.290 -40.285L54.083 -40.078L53.877 -39.872L53.670 -39.665L53.464 -39.459L53.257 -39.252L53.051 -39.046L52.844 -38.839L52.638 -38.633L52.431 -38.426L52.225 -38.220L52.018 -38.013L51.812 -37.807L51.605 -37.600L51.399 -37.394L51.192 -37.187L50.986 -36.981L50.779 -36.774L50.573 -36.568L50.366 -36.361L50.160 -36.155L49.953 -35.948L49.747 -35.742L49.540 -35.535L49.334 -35.329L49.127 -35.122L48.921 -34.916L48.715 -34.709L48.508 -34.503L48.302 -34.296L48.095 -34.090L47.889 -33.883L47.682 -33.677L47.476 -33.470L47.269 -33.264L47.063 -33.057L46.856 -32.851L46.650 -32.644L46.443 -32.438L46.237 -32.232L46.030 -32.025L45.824 -31.819L45.617 -31.612L45.411 -31.406L45.204 -31.199L44.998 -30.993L44.791 -30.786L44.585 -30.580L44.378 -30.373L44.172 -30.167L43.965 -29.960L43.759 -29.754L43.552 -29.547L43.346 -29.341L43.139 -29.134L42.933 -28.928L42.726 -28.721L42.520 -28.515L42.313 -28.308L42.107 -28.102L41.900 -27.895L41.694 -27.689L41.487 -27.482L41.281 -27.276L41.074 -27.069L40.868 -26.863L40.661 -26.656L40.455 -26.450L40.210 -26.205L39.923 -25.917L39.668 -25.658L39.444 -25.423L39.249 -25.208L39.079 -25.008L38.934 -24.818L38.809 -24.634L38.704 -24.449L38.598 -24.219L38.497 -23.945L38.420 -23.664L38.366 -23.378L38.336 -23.088L38.331 -22.795L38.344 -22.585L38.375 -22.370L38.423 -22.145L38.489 -21.903L38.573 -21.640L38.675 -21.351L38.795 -21.029L38.933 -20.669L39.080 -20.289L39.186 -20.017L39.292 -19.745L39.398 -19.472L39.504 -19.200L39.609 -18.928L39.715 -18.656L39.821 -18.384L39.927 -18.112L40.033 -17.839L40.139 -17.567L40.245 -17.295L40.350 -17.023L40.456 -16.751L40.562 -16.479L40.668 -16.206L40.774 -15.934L40.880 -15.662L40.985 -15.390L41.091 -15.118L41.197 -14.846L41.303 -14.573L41.409 -14.301L41.515 -14.029L41.621 -13.757L41.726 -13.485L41.832 -13.213L41.938 -12.940L42.044 -12.668L42.150 -12.396L42.256 -12.124L42.361 -11.852L42.467 -11.580L42.573 -11.307L42.679 -11.035L42.785 -10.763L42.891 -10.491L42.997 -10.219L43.102 -9.947L43.208 -9.674L43.314 -9.402L43.420 -9.130L43.526 -8.858L43.632 -8.586L43.737 -8.314L43.843 -8.041L43.949 -7.769L44.055 -7.497L44.161 -7.225L44.267 -6.953L44.373 -6.681L44.478 -6.408L44.584 -6.136L44.690 -5.864L44.796 -5.592L44.902 -5.320L45.008 -5.048L45.113 -4.775L45.219 -4.503L45.325 -4.231L45.431 -3.959L45.541 -3.675L45.656 -3.380L45.770 -3.089L45.884 -2.803L45.997 -2.523L46.109 -2.251L46.220 -1.988L46.331 -1.735L46.442 -1.494L46.551 -1.267L46.632 -1.105L46.729 -0.919L46.843 -0.715L46.976 -0.495L47.128 -0.265L47.300 -0.028L47.494 0.211L47.711 0.449L47.952 0.682L48.218 0.904L48.510 1.113L48.830 1.303L49.108 1.442L49.379 1.558L49.655 1.658L49.935 1.743L50.218 1.811L50.503 1.864L50.791 1.900L51.080 1.921L51.369 1.926L51.658 1.915L51.946 1.888L52.233 1.845L52.518 1.786L52.800 1.711L53.078 1.620L53.352 1.513L53.622 1.390L53.925 1.228L54.234 1.029L54.515 0.815L54.770 0.588L55.001 0.353L55.209 0.114L55.394 -0.124L55.557 -0.359L55.701 -0.585L55.826 -0.798L55.933 -0.995L56.024 -1.171L56.114 -1.354L56.224 -1.589L56.335 -1.835L56.447 -2.092L56.559 -2.359L56.672 -2.635L56.785 -2.917L56.900 -3.205L57.014 -3.498L57.130 -3.795L57.236 -4.067L57.343 -4.339L57.449 -4.611L57.555 -4.883L57.661 -5.155L57.767 -5.427L57.873 -5.700L57.980 -5.972L58.086 -6.244L58.192 -6.516L58.298 -6.788L58.404 -7.060L58.510 -7.332L58.617 -7.604L58.723 -7.876L58.829 -8.148L58.935 -8.420L59.041 -8.692L59.147 -8.964L59.254 -9.236L59.360 -9.508L59.466 -9.780L59.572 -10.052L59.678 -10.324L59.784 -10.596L59.891 -10.868L59.997 -11.140L60.103 -11.412L60.209 -11.684L60.315 -11.957L60.421 -12.229L60.528 -12.501L60.634 -12.773L60.740 -13.045L60.846 -13.317L60.952 -13.589L61.058 -13.861L61.165 -14.133L61.271 -14.405L61.377 -14.677L61.483 -14.949L61.589 -15.221L61.695 -15.493L61.802 -15.765L61.908 -16.037L62.014 -16.309L62.120 -16.581L62.226 -16.853L62.332 -17.125L62.438 -17.397L62.545 -17.669L62.651 -17.941L62.757 -18.214L62.863 -18.486L62.969 -18.758L63.075 -19.030L63.182 -19.302L63.288 -19.574L63.394 -19.846L63.500 -20.118L63.606 -20.390L63.712 -20.662L63.819 -20.934L63.925 -21.206L64.031 -21.478L64.137 -21.750L64.243 -22.022L64.349 -22.294L64.456 -22.566L64.562 -22.838L64.668 -23.110L64.774 -23.382L64.880 -23.654L64.986 -23.926L65.093 -24.198L65.199 -24.471L65.305 -24.743L65.411 -25.015L65.517 -25.287L65.623 -25.559L65.730 -25.831L65.836 -26.103L65.942 -26.375L66.048 -26.647L66.154 -26.919L66.260 -27.191L66.367 -27.463L66.473 -27.735L66.579 -28.007L66.685 -28.279L66.791 -28.551L66.897 -28.823L67.004 -29.095L67.110 -29.367L67.216 -29.639L67.322 -29.911L67.428 -30.183L67.534 -30.455L67.641 -30.728L67.747 -31.000L67.853 -31.272L67.959 -31.544L68.065 -31.816L68.171 -32.088L68.278 -32.360L68.384 -32.632L68.490 -32.904L68.596 -33.176L68.702 -33.448L68.808 -33.720L68.915 -33.992L69.021 -34.264L69.127 -34.536L69.233 -34.808L69.339 -35.080L69.445 -35.352L69.552 -35.624L69.658 -35.896L69.764 -36.168L69.870 -36.440L69.976 -36.712L70.082 -36.985L70.189 -37.257L70.295 -37.529L70.401 -37.801L70.507 -38.073L70.613 -38.345L70.719 -38.617L70.826 -38.889L70.932 -39.161L71.038 -39.433L71.144 -39.705L71.250 -39.977L71.356 -40.249L71.462 -40.521L71.569 -40.793L71.675 -41.065L71.781 -41.337L71.887 -41.609L71.993 -41.881L72.099 -42.153L72.206 -42.425L72.312 -42.697L72.418 -42.969L72.524 -43.242L72.630 -43.514L72.736 -43.786L72.843 -44.058L72.949 -44.330L73.055 -44.602L73.161 -44.874L73.267 -45.146L73.373 -45.418L73.480 -45.690L73.586 -45.962L73.692 -46.234L73.798 -46.506L73.904 -46.778L74.010 -47.050L74.117 -47.322L74.223 -47.594L74.329 -47.866L74.435 -48.138L74.541 -48.410L74.647 -48.682L74.754 -48.954L74.860 -49.226L74.966 -49.499L75.072 -49.771L75.178 -50.043L75.284 -50.315L75.391 -50.587L75.497 -50.859L75.603 -51.131L75.709 -51.403L75.815 -51.675L75.921 -51.947L76.028 -52.219L76.134 -52.491L76.240 -52.763L76.346 -53.035L76.452 -53.307L76.558 -53.579L76.665 -53.851L76.771 -54.123L76.877 -54.395L76.983 -54.667L77.089 -54.939L77.195 -55.211L77.302 -55.483L77.408 -55.756L77.514 -56.028L77.620 -56.300L77.726 -56.572L77.832 -56.844L77.939 -57.116L78.045 -57.388L78.151 -57.660L78.257 -57.932L78.363 -58.204L78.469 -58.476L78.576 -58.748L78.682 -59.020L78.788 -59.292L78.894 -59.564L79.000 -59.836L79.106 -60.108L79.213 -60.380L79.319 -60.652L79.425 -60.924L79.531 -61.196L79.637 -61.468L79.743 -61.740L79.850 -62.013L79.956 -62.285L80.062 -62.557L80.168 -62.829L80.274 -63.101L80.386 -63.388L80.499 -63.677L80.609 -63.964L80.716 -64.247L80.818 -64.526L80.915 -64.798L81.006 -65.063L81.088 -65.319L81.158 -65.552L81.210 -65.738L81.264 -65.951L81.317 -66.188L81.365 -66.448L81.404 -66.727L81.430 -67.025L81.441 -67.339L81.431 -67.666L81.398 -68.005L81.338 -68.353L81.247 -68.709L81.143 -69.017L81.031 -69.290L80.905 -69.555L80.765 -69.812L80.612 -70.059L80.446 -70.298L80.267 -70.526L80.075 -70.743L79.873 -70.950L79.659 -71.145L79.434 -71.329L79.200 -71.499L78.955 -71.658L78.702 -71.802L78.439 -71.933L78.169 -72.050L77.891 -72.151L77.891 -72.151Z"/>
  </g>
  <g id="Regular-S" transform="matrix(1 0 0 1 1405.56 696)">
   <path class="monochrome-0 multicolor-0:tintColor hierarchical-0:primary SFSymbolsPreviewWireframe" fill-rule="evenodd" d="M77.891 -72.151L77.533 -72.254L77.182 -72.325L76.840 -72.367L76.508 -72.385L76.189 -72.381L75.886 -72.360L75.599 -72.324L75.332 -72.279L75.087 -72.228L74.865 -72.174L74.669 -72.120L74.462 -72.060L74.209 -71.980L73.947 -71.893L73.678 -71.798L73.401 -71.697L73.120 -71.592L72.834 -71.482L72.545 -71.371L72.255 -71.257L71.980 -71.150L71.708 -71.044L71.436 -70.938L71.164 -70.832L70.891 -70.725L70.619 -70.619L70.347 -70.513L70.075 -70.407L69.803 -70.301L69.531 -70.195L69.259 -70.088L68.987 -69.982L68.715 -69.876L68.443 -69.770L68.171 -69.664L67.899 -69.558L67.627 -69.451L67.355 -69.345L67.083 -69.239L66.811 -69.133L66.539 -69.027L66.267 -68.921L65.995 -68.814L65.723 -68.708L65.451 -68.602L65.179 -68.496L64.907 -68.390L64.634 -68.284L64.362 -68.177L64.090 -68.071L63.818 -67.965L63.546 -67.859L63.274 -67.753L63.002 -67.647L62.730 -67.540L62.458 -67.434L62.186 -67.328L61.914 -67.222L61.642 -67.116L61.370 -67.010L61.098 -66.903L60.826 -66.797L60.554 -66.691L60.282 -66.585L60.010 -66.479L59.738 -66.373L59.466 -66.266L59.194 -66.160L58.922 -66.054L58.650 -65.948L58.377 -65.842L58.105 -65.736L57.833 -65.630L57.561 -65.523L57.289 -65.417L57.017 -65.311L56.745 -65.205L56.473 -65.099L56.201 -64.993L55.929 -64.886L55.657 -64.780L55.385 -64.674L55.113 -64.568L54.841 -64.462L54.569 -64.356L54.297 -64.249L54.025 -64.143L53.753 -64.037L53.481 -63.931L53.209 -63.825L52.937 -63.719L52.665 -63.612L52.393 -63.506L52.120 -63.400L51.848 -63.294L51.576 -63.188L51.304 -63.082L51.032 -62.975L50.760 -62.869L50.488 -62.763L50.216 -62.657L49.944 -62.551L49.672 -62.445L49.400 -62.338L49.128 -62.232L48.856 -62.126L48.584 -62.020L48.312 -61.914L48.040 -61.808L47.768 -61.701L47.496 -61.595L47.224 -61.489L46.952 -61.383L46.680 -61.277L46.408 -61.171L46.136 -61.064L45.863 -60.958L45.591 -60.852L45.319 -60.746L45.047 -60.640L44.775 -60.534L44.503 -60.427L44.231 -60.321L43.959 -60.215L43.687 -60.109L43.415 -60.003L43.143 -59.897L42.871 -59.791L42.599 -59.684L42.327 -59.578L42.055 -59.472L41.783 -59.366L41.511 -59.260L41.239 -59.154L40.967 -59.047L40.695 -58.941L40.423 -58.835L40.151 -58.729L39.878 -58.623L39.606 -58.517L39.334 -58.410L39.062 -58.304L38.790 -58.198L38.518 -58.092L38.246 -57.986L37.974 -57.880L37.702 -57.773L37.430 -57.667L37.158 -57.561L36.886 -57.455L36.614 -57.349L36.342 -57.243L36.070 -57.136L35.798 -57.030L35.526 -56.924L35.254 -56.818L34.982 -56.712L34.710 -56.606L34.438 -56.499L34.166 -56.393L33.894 -56.287L33.621 -56.181L33.349 -56.075L33.077 -55.969L32.805 -55.862L32.533 -55.756L32.261 -55.650L31.989 -55.544L31.717 -55.438L31.445 -55.332L31.173 -55.225L30.901 -55.119L30.629 -55.013L30.357 -54.907L30.085 -54.801L29.813 -54.695L29.541 -54.588L29.269 -54.482L28.997 -54.376L28.725 -54.270L28.453 -54.164L28.181 -54.058L27.909 -53.952L27.637 -53.845L27.364 -53.739L27.092 -53.633L26.820 -53.527L26.548 -53.421L26.276 -53.315L26.004 -53.208L25.732 -53.102L25.460 -52.996L25.188 -52.890L24.916 -52.784L24.644 -52.678L24.372 -52.571L24.100 -52.465L23.828 -52.359L23.556 -52.253L23.284 -52.147L23.012 -52.041L22.740 -51.934L22.468 -51.828L22.196 -51.722L21.924 -51.616L21.652 -51.510L21.380 -51.404L21.107 -51.297L20.835 -51.191L20.563 -51.085L20.291 -50.979L20.019 -50.873L19.747 -50.767L19.475 -50.660L19.203 -50.554L18.931 -50.448L18.659 -50.342L18.387 -50.236L18.115 -50.130L17.843 -50.023L17.571 -49.917L17.299 -49.811L17.027 -49.705L16.755 -49.599L16.483 -49.493L16.211 -49.386L15.939 -49.280L15.667 -49.174L15.395 -49.068L15.123 -48.962L14.850 -48.856L14.578 -48.749L14.306 -48.643L14.034 -48.537L13.762 -48.431L13.490 -48.325L13.218 -48.219L12.946 -48.113L12.657 -48.000L12.363 -47.885L12.073 -47.770L11.789 -47.657L11.511 -47.544L11.241 -47.431L10.980 -47.319L10.729 -47.208L10.491 -47.098L10.283 -46.996L10.115 -46.912L9.925 -46.810L9.717 -46.692L9.495 -46.555L9.263 -46.398L9.025 -46.221L8.786 -46.022L8.549 -45.799L8.319 -45.553L8.100 -45.280L7.895 -44.982L7.712 -44.660L7.584 -44.393L7.471 -44.120L7.375 -43.843L7.294 -43.562L7.230 -43.279L7.181 -42.993L7.148 -42.705L7.131 -42.416L7.131 -42.126L7.146 -41.837L7.177 -41.549L7.224 -41.263L7.287 -40.979L7.365 -40.698L7.460 -40.421L7.571 -40.148L7.697 -39.880L7.873 -39.564L8.076 -39.262L8.294 -38.987L8.523 -38.738L8.760 -38.512L8.999 -38.310L9.237 -38.130L9.470 -37.972L9.694 -37.832L9.904 -37.712L10.097 -37.609L10.268 -37.522L10.467 -37.425L10.704 -37.315L10.953 -37.204L11.213 -37.093L11.482 -36.981L11.759 -36.868L12.043 -36.755L12.333 -36.641L12.626 -36.526L12.918 -36.413L13.190 -36.307L13.463 -36.201L13.735 -36.095L14.007 -35.990L14.279 -35.884L14.551 -35.778L14.823 -35.672L15.096 -35.566L15.368 -35.460L15.640 -35.355L15.912 -35.249L16.184 -35.143L16.456 -35.037L16.729 -34.931L17.001 -34.825L17.273 -34.719L17.545 -34.614L17.817 -34.508L18.089 -34.402L18.362 -34.296L18.634 -34.190L18.906 -34.084L19.178 -33.979L19.450 -33.873L19.722 -33.767L19.995 -33.661L20.267 -33.555L20.539 -33.449L20.811 -33.343L21.083 -33.238L21.355 -33.132L21.628 -33.026L21.900 -32.920L22.172 -32.814L22.444 -32.708L22.716 -32.603L22.988 -32.497L23.261 -32.391L23.533 -32.285L23.805 -32.179L24.077 -32.073L24.349 -31.968L24.621 -31.862L24.894 -31.756L25.166 -31.650L25.438 -31.544L25.710 -31.438L25.982 -31.332L26.254 -31.227L26.527 -31.121L26.799 -31.015L27.071 -30.909L27.343 -30.803L27.615 -30.697L27.887 -30.592L28.160 -30.486L28.432 -30.380L28.704 -30.274L28.976 -30.168L29.248 -30.062L29.588 -29.930L29.962 -29.786L30.296 -29.660L30.597 -29.552L30.869 -29.462L31.117 -29.389L31.348 -29.335L31.566 -29.298L31.776 -29.278L32.040 -29.276L32.331 -29.298L32.619 -29.343L32.902 -29.412L33.179 -29.505L33.439 -29.616L33.624 -29.715L33.808 -29.832L33.996 -29.970L34.192 -30.131L34.401 -30.317L34.628 -30.531L34.878 -30.774L35.155 -31.050L35.432 -31.327L35.639 -31.533L35.845 -31.740L36.052 -31.946L36.258 -32.153L36.465 -32.359L36.671 -32.566L36.878 -32.772L37.084 -32.979L37.291 -33.185L37.497 -33.392L37.704 -33.598L37.910 -33.805L38.117 -34.011L38.323 -34.218L38.530 -34.424L38.736 -34.631L38.943 -34.837L39.149 -35.044L39.356 -35.250L39.562 -35.457L39.769 -35.663L39.975 -35.870L40.182 -36.076L40.388 -36.283L40.595 -36.489L40.801 -36.696L41.008 -36.902L41.214 -37.109L41.421 -37.315L41.627 -37.521L41.834 -37.728L42.040 -37.934L42.247 -38.141L42.453 -38.347L42.660 -38.554L42.866 -38.760L43.073 -38.967L43.279 -39.173L43.486 -39.380L43.692 -39.586L43.899 -39.793L44.105 -39.999L44.312 -40.206L44.518 -40.412L44.725 -40.619L44.931 -40.825L45.138 -41.032L45.344 -41.238L45.551 -41.445L45.757 -41.651L45.964 -41.858L46.170 -42.064L46.376 -42.271L46.583 -42.477L46.789 -42.684L46.996 -42.890L47.202 -43.097L47.409 -43.303L47.615 -43.510L47.822 -43.716L48.028 -43.923L48.235 -44.129L48.441 -44.336L48.648 -44.542L48.854 -44.749L49.061 -44.955L49.267 -45.162L49.474 -45.368L49.680 -45.575L49.887 -45.781L50.093 -45.988L50.300 -46.194L50.506 -46.401L50.713 -46.607L50.919 -46.814L51.126 -47.020L51.332 -47.227L51.539 -47.433L51.745 -47.640L51.952 -47.846L52.158 -48.053L52.367 -48.261L52.593 -48.463L52.833 -48.643L53.083 -48.799L53.343 -48.932L53.611 -49.043L53.886 -49.130L54.165 -49.194L54.448 -49.234L54.733 -49.252L55.019 -49.246L55.303 -49.218L55.584 -49.166L55.862 -49.091L56.133 -48.993L56.398 -48.872L56.653 -48.728L56.899 -48.560L57.132 -48.370L57.352 -48.156L57.551 -47.927L57.727 -47.686L57.879 -47.434L58.008 -47.172L58.114 -46.903L58.198 -46.627L58.257 -46.347L58.294 -46.064L58.308 -45.779L58.298 -45.493L58.266 -45.209L58.210 -44.929L58.131 -44.652L58.029 -44.381L57.904 -44.118L57.756 -43.864L57.584 -43.621L57.390 -43.390L57.181 -43.176L56.974 -42.969L56.768 -42.763L56.561 -42.556L56.355 -42.350L56.148 -42.143L55.942 -41.937L55.735 -41.730L55.529 -41.524L55.322 -41.317L55.116 -41.111L54.909 -40.904L54.703 -40.698L54.496 -40.491L54.290 -40.285L54.083 -40.078L53.877 -39.872L53.670 -39.665L53.464 -39.459L53.257 -39.252L53.051 -39.046L52.844 -38.839L52.638 -38.633L52.431 -38.426L52.225 -38.220L52.018 -38.013L51.812 -37.807L51.605 -37.600L51.399 -37.394L51.192 -37.187L50.986 -36.981L50.779 -36.774L50.573 -36.568L50.366 -36.361L50.160 -36.155L49.953 -35.948L49.747 -35.742L49.540 -35.535L49.334 -35.329L49.127 -35.122L48.921 -34.916L48.715 -34.709L48.508 -34.503L48.302 -34.296L48.095 -34.090L47.889 -33.883L47.682 -33.677L47.476 -33.470L47.269 -33.264L47.063 -33.057L46.856 -32.851L46.650 -32.644L46.443 -32.438L46.237 -32.232L46.030 -32.025L45.824 -31.819L45.617 -31.612L45.411 -31.406L45.204 -31.199L44.998 -30.993L44.791 -30.786L44.585 -30.580L44.378 -30.373L44.172 -30.167L43.965 -29.960L43.759 -29.754L43.552 -29.547L43.346 -29.341L43.139 -29.134L42.933 -28.928L42.726 -28.721L42.520 -28.515L42.313 -28.308L42.107 -28.102L41.900 -27.895L41.694 -27.689L41.487 -27.482L41.281 -27.276L41.074 -27.069L40.868 -26.863L40.661 -26.656L40.455 -26.450L40.210 -26.205L39.923 -25.917L39.668 -25.658L39.444 -25.423L39.249 -25.208L39.079 -25.008L38.934 -24.818L38.809 -24.634L38.704 -24.449L38.598 -24.219L38.497 -23.945L38.420 -23.664L38.366 -23.378L38.336 -23.088L38.331 -22.795L38.344 -22.585L38.375 -22.370L38.423 -22.145L38.489 -21.903L38.573 -21.640L38.675 -21.351L38.795 -21.029L38.933 -20.669L39.080 -20.289L39.186 -20.017L39.292 -19.745L39.398 -19.472L39.504 -19.200L39.609 -18.928L39.715 -18.656L39.821 -18.384L39.927 -18.112L40.033 -17.839L40.139 -17.567L40.245 -17.295L40.350 -17.023L40.456 -16.751L40.562 -16.479L40.668 -16.206L40.774 -15.934L40.880 -15.662L40.985 -15.390L41.091 -15.118L41.197 -14.846L41.303 -14.573L41.409 -14.301L41.515 -14.029L41.621 -13.757L41.726 -13.485L41.832 -13.213L41.938 -12.940L42.044 -12.668L42.150 -12.396L42.256 -12.124L42.361 -11.852L42.467 -11.580L42.573 -11.307L42.679 -11.035L42.785 -10.763L42.891 -10.491L42.997 -10.219L43.102 -9.947L43.208 -9.674L43.314 -9.402L43.420 -9.130L43.526 -8.858L43.632 -8.586L43.737 -8.314L43.843 -8.041L43.949 -7.769L44.055 -7.497L44.161 -7.225L44.267 -6.953L44.373 -6.681L44.478 -6.408L44.584 -6.136L44.690 -5.864L44.796 -5.592L44.902 -5.320L45.008 -5.048L45.113 -4.775L45.219 -4.503L45.325 -4.231L45.431 -3.959L45.541 -3.675L45.656 -3.380L45.770 -3.089L45.884 -2.803L45.997 -2.523L46.109 -2.251L46.220 -1.988L46.331 -1.735L46.442 -1.494L46.551 -1.267L46.632 -1.105L46.729 -0.919L46.843 -0.715L46.976 -0.495L47.128 -0.265L47.300 -0.028L47.494 0.211L47.711 0.449L47.952 0.682L48.218 0.904L48.510 1.113L48.830 1.303L49.108 1.442L49.379 1.558L49.655 1.658L49.935 1.743L50.218 1.811L50.503 1.864L50.791 1.900L51.080 1.921L51.369 1.926L51.658 1.915L51.946 1.888L52.233 1.845L52.518 1.786L52.800 1.711L53.078 1.620L53.352 1.513L53.622 1.390L53.925 1.228L54.234 1.029L54.515 0.815L54.770 0.588L55.001 0.353L55.209 0.114L55.394 -0.124L55.557 -0.359L55.701 -0.585L55.826 -0.798L55.933 -0.995L56.024 -1.171L56.114 -1.354L56.224 -1.589L56.335 -1.835L56.447 -2.092L56.559 -2.359L56.672 -2.635L56.785 -2.917L56.900 -3.205L57.014 -3.498L57.130 -3.795L57.236 -4.067L57.343 -4.339L57.449 -4.611L57.555 -4.883L57.661 -5.155L57.767 -5.427L57.873 -5.700L57.980 -5.972L58.086 -6.244L58.192 -6.516L58.298 -6.788L58.404 -7.060L58.510 -7.332L58.617 -7.604L58.723 -7.876L58.829 -8.148L58.935 -8.420L59.041 -8.692L59.147 -8.964L59.254 -9.236L59.360 -9.508L59.466 -9.780L59.572 -10.052L59.678 -10.324L59.784 -10.596L59.891 -10.868L59.997 -11.140L60.103 -11.412L60.209 -11.684L60.315 -11.957L60.421 -12.229L60.528 -12.501L60.634 -12.773L60.740 -13.045L60.846 -13.317L60.952 -13.589L61.058 -13.861L61.165 -14.133L61.271 -14.405L61.377 -14.677L61.483 -14.949L61.589 -15.221L61.695 -15.493L61.802 -15.765L61.908 -16.037L62.014 -16.309L62.120 -16.581L62.226 -16.853L62.332 -17.125L62.438 -17.397L62.545 -17.669L62.651 -17.941L62.757 -18.214L62.863 -18.486L62.969 -18.758L63.075 -19.030L63.182 -19.302L63.288 -19.574L63.394 -19.846L63.500 -20.118L63.606 -20.390L63.712 -20.662L63.819 -20.934L63.925 -21.206L64.031 -21.478L64.137 -21.750L64.243 -22.022L64.349 -22.294L64.456 -22.566L64.562 -22.838L64.668 -23.110L64.774 -23.382L64.880 -23.654L64.986 -23.926L65.093 -24.198L65.199 -24.471L65.305 -24.743L65.411 -25.015L65.517 -25.287L65.623 -25.559L65.730 -25.831L65.836 -26.103L65.942 -26.375L66.048 -26.647L66.154 -26.919L66.260 -27.191L66.367 -27.463L66.473 -27.735L66.579 -28.007L66.685 -28.279L66.791 -28.551L66.897 -28.823L67.004 -29.095L67.110 -29.367L67.216 -29.639L67.322 -29.911L67.428 -30.183L67.534 -30.455L67.641 -30.728L67.747 -31.000L67.853 -31.272L67.959 -31.544L68.065 -31.816L68.171 -32.088L68.278 -32.360L68.384 -32.632L68.490 -32.904L68.596 -33.176L68.702 -33.448L68.808 -33.720L68.915 -33.992L69.021 -34.264L69.127 -34.536L69.233 -34.808L69.339 -35.080L69.445 -35.352L69.552 -35.624L69.658 -35.896L69.764 -36.168L69.870 -36.440L69.976 -36.712L70.082 -36.985L70.189 -37.257L70.295 -37.529L70.401 -37.801L70.507 -38.073L70.613 -38.345L70.719 -38.617L70.826 -38.889L70.932 -39.161L71.038 -39.433L71.144 -39.705L71.250 -39.977L71.356 -40.249L71.462 -40.521L71.569 -40.793L71.675 -41.065L71.781 -41.337L71.887 -41.609L71.993 -41.881L72.099 -42.153L72.206 -42.425L72.312 -42.697L72.418 -42.969L72.524 -43.242L72.630 -43.514L72.736 -43.786L72.843 -44.058L72.949 -44.330L73.055 -44.602L73.161 -44.874L73.267 -45.146L73.373 -45.418L73.480 -45.690L73.586 -45.962L73.692 -46.234L73.798 -46.506L73.904 -46.778L74.010 -47.050L74.117 -47.322L74.223 -47.594L74.329 -47.866L74.435 -48.138L74.541 -48.410L74.647 -48.682L74.754 -48.954L74.860 -49.226L74.966 -49.499L75.072 -49.771L75.178 -50.043L75.284 -50.315L75.391 -50.587L75.497 -50.859L75.603 -51.131L75.709 -51.403L75.815 -51.675L75.921 -51.947L76.028 -52.219L76.134 -52.491L76.240 -52.763L76.346 -53.035L76.452 -53.307L76.558 -53.579L76.665 -53.851L76.771 -54.123L76.877 -54.395L76.983 -54.667L77.089 -54.939L77.195 -55.211L77.302 -55.483L77.408 -55.756L77.514 -56.028L77.620 -56.300L77.726 -56.572L77.832 -56.844L77.939 -57.116L78.045 -57.388L78.151 -57.660L78.257 -57.932L78.363 -58.204L78.469 -58.476L78.576 -58.748L78.682 -59.020L78.788 -59.292L78.894 -59.564L79.000 -59.836L79.106 -60.108L79.213 -60.380L79.319 -60.652L79.425 -60.924L79.531 -61.196L79.637 -61.468L79.743 -61.740L79.850 -62.013L79.956 -62.285L80.062 -62.557L80.168 -62.829L80.274 -63.101L80.386 -63.388L80.499 -63.677L80.609 -63.964L80.716 -64.247L80.818 -64.526L80.915 -64.798L81.006 -65.063L81.088 -65.319L81.158 -65.552L81.210 -65.738L81.264 -65.951L81.317 -66.188L81.365 -66.448L81.404 -66.727L81.430 -67.025L81.441 -67.339L81.431 -67.666L81.398 -68.005L81.338 -68.353L81.247 -68.709L81.143 -69.017L81.031 -69.290L80.905 -69.555L80.765 -69.812L80.612 -70.059L80.446 -70.298L80.267 -70.526L80.075 -70.743L79.873 -70.950L79.659 -71.145L79.434 -71.329L79.200 -71.499L78.955 -71.658L78.702 -71.802L78.439 -71.933L78.169 -72.050L77.891 -72.151L77.891 -72.151Z"/>
  </g>
  <g id="Ultralight-S" transform="matrix(1 0 0 1 515.423 696)">
   <path class="monochrome-0 multicolor-0:tintColor hierarchical-0:primary SFSymbolsPreviewWireframe" fill-rule="evenodd" d="M77.891 -72.151L77.533 -72.254L77.182 -72.325L76.840 -72.367L76.508 -72.385L76.189 -72.381L75.886 -72.360L75.599 -72.324L75.332 -72.279L75.087 -72.228L74.865 -72.174L74.669 -72.120L74.462 -72.060L74.209 -71.980L73.947 -71.893L73.678 -71.798L73.401 -71.697L73.120 -71.592L72.834 -71.482L72.545 -71.371L72.255 -71.257L71.980 -71.150L71.708 -71.044L71.436 -70.938L71.164 -70.832L70.891 -70.725L70.619 -70.619L70.347 -70.513L70.075 -70.407L69.803 -70.301L69.531 -70.195L69.259 -70.088L68.987 -69.982L68.715 -69.876L68.443 -69.770L68.171 -69.664L67.899 -69.558L67.627 -69.451L67.355 -69.345L67.083 -69.239L66.811 -69.133L66.539 -69.027L66.267 -68.921L65.995 -68.814L65.723 -68.708L65.451 -68.602L65.179 -68.496L64.907 -68.390L64.634 -68.284L64.362 -68.177L64.090 -68.071L63.818 -67.965L63.546 -67.859L63.274 -67.753L63.002 -67.647L62.730 -67.540L62.458 -67.434L62.186 -67.328L61.914 -67.222L61.642 -67.116L61.370 -67.010L61.098 -66.903L60.826 -66.797L60.554 -66.691L60.282 -66.585L60.010 -66.479L59.738 -66.373L59.466 -66.266L59.194 -66.160L58.922 -66.054L58.650 -65.948L58.377 -65.842L58.105 -65.736L57.833 -65.630L57.561 -65.523L57.289 -65.417L57.017 -65.311L56.745 -65.205L56.473 -65.099L56.201 -64.993L55.929 -64.886L55.657 -64.780L55.385 -64.674L55.113 -64.568L54.841 -64.462L54.569 -64.356L54.297 -64.249L54.025 -64.143L53.753 -64.037L53.481 -63.931L53.209 -63.825L52.937 -63.719L52.665 -63.612L52.393 -63.506L52.120 -63.400L51.848 -63.294L51.576 -63.188L51.304 -63.082L51.032 -62.975L50.760 -62.869L50.488 -62.763L50.216 -62.657L49.944 -62.551L49.672 -62.445L49.400 -62.338L49.128 -62.232L48.856 -62.126L48.584 -62.020L48.312 -61.914L48.040 -61.808L47.768 -61.701L47.496 -61.595L47.224 -61.489L46.952 -61.383L46.680 -61.277L46.408 -61.171L46.136 -61.064L45.863 -60.958L45.591 -60.852L45.319 -60.746L45.047 -60.640L44.775 -60.534L44.503 -60.427L44.231 -60.321L43.959 -60.215L43.687 -60.109L43.415 -60.003L43.143 -59.897L42.871 -59.791L42.599 -59.684L42.327 -59.578L42.055 -59.472L41.783 -59.366L41.511 -59.260L41.239 -59.154L40.967 -59.047L40.695 -58.941L40.423 -58.835L40.151 -58.729L39.878 -58.623L39.606 -58.517L39.334 -58.410L39.062 -58.304L38.790 -58.198L38.518 -58.092L38.246 -57.986L37.974 -57.880L37.702 -57.773L37.430 -57.667L37.158 -57.561L36.886 -57.455L36.614 -57.349L36.342 -57.243L36.070 -57.136L35.798 -57.030L35.526 -56.924L35.254 -56.818L34.982 -56.712L34.710 -56.606L34.438 -56.499L34.166 -56.393L33.894 -56.287L33.621 -56.181L33.349 -56.075L33.077 -55.969L32.805 -55.862L32.533 -55.756L32.261 -55.650L31.989 -55.544L31.717 -55.438L31.445 -55.332L31.173 -55.225L30.901 -55.119L30.629 -55.013L30.357 -54.907L30.085 -54.801L29.813 -54.695L29.541 -54.588L29.269 -54.482L28.997 -54.376L28.725 -54.270L28.453 -54.164L28.181 -54.058L27.909 -53.952L27.637 -53.845L27.364 -53.739L27.092 -53.633L26.820 -53.527L26.548 -53.421L26.276 -53.315L26.004 -53.208L25.732 -53.102L25.460 -52.996L25.188 -52.890L24.916 -52.784L24.644 -52.678L24.372 -52.571L24.100 -52.465L23.828 -52.359L23.556 -52.253L23.284 -52.147L23.012 -52.041L22.740 -51.934L22.468 -51.828L22.196 -51.722L21.924 -51.616L21.652 -51.510L21.380 -51.404L21.107 -51.297L20.835 -51.191L20.563 -51.085L20.291 -50.979L20.019 -50.873L19.747 -50.767L19.475 -50.660L19.203 -50.554L18.931 -50.448L18.659 -50.342L18.387 -50.236L18.115 -50.130L17.843 -50.023L17.571 -49.917L17.299 -49.811L17.027 -49.705L16.755 -49.599L16.483 -49.493L16.211 -49.386L15.939 -49.280L15.667 -49.174L15.395 -49.068L15.123 -48.962L14.850 -48.856L14.578 -48.749L14.306 -48.643L14.034 -48.537L13.762 -48.431L13.490 -48.325L13.218 -48.219L12.946 -48.113L12.657 -48.000L12.363 -47.885L12.073 -47.770L11.789 -47.657L11.511 -47.544L11.241 -47.431L10.980 -47.319L10.729 -47.208L10.491 -47.098L10.283 -46.996L10.115 -46.912L9.925 -46.810L9.717 -46.692L9.495 -46.555L9.263 -46.398L9.025 -46.221L8.786 -46.022L8.549 -45.799L8.319 -45.553L8.100 -45.280L7.895 -44.982L7.712 -44.660L7.584 -44.393L7.471 -44.120L7.375 -43.843L7.294 -43.562L7.230 -43.279L7.181 -42.993L7.148 -42.705L7.131 -42.416L7.131 -42.126L7.146 -41.837L7.177 -41.549L7.224 -41.263L7.287 -40.979L7.365 -40.698L7.460 -40.421L7.571 -40.148L7.697 -39.880L7.873 -39.564L8.076 -39.262L8.294 -38.987L8.523 -38.738L8.760 -38.512L8.999 -38.310L9.237 -38.130L9.470 -37.972L9.694 -37.832L9.904 -37.712L10.097 -37.609L10.268 -37.522L10.467 -37.425L10.704 -37.315L10.953 -37.204L11.213 -37.093L11.482 -36.981L11.759 -36.868L12.043 -36.755L12.333 -36.641L12.626 -36.526L12.918 -36.413L13.190 -36.307L13.463 -36.201L13.735 -36.095L14.007 -35.990L14.279 -35.884L14.551 -35.778L14.823 -35.672L15.096 -35.566L15.368 -35.460L15.640 -35.355L15.912 -35.249L16.184 -35.143L16.456 -35.037L16.729 -34.931L17.001 -34.825L17.273 -34.719L17.545 -34.614L17.817 -34.508L18.089 -34.402L18.362 -34.296L18.634 -34.190L18.906 -34.084L19.178 -33.979L19.450 -33.873L19.722 -33.767L19.995 -33.661L20.267 -33.555L20.539 -33.449L20.811 -33.343L21.083 -33.238L21.355 -33.132L21.628 -33.026L21.900 -32.920L22.172 -32.814L22.444 -32.708L22.716 -32.603L22.988 -32.497L23.261 -32.391L23.533 -32.285L23.805 -32.179L24.077 -32.073L24.349 -31.968L24.621 -31.862L24.894 -31.756L25.166 -31.650L25.438 -31.544L25.710 -31.438L25.982 -31.332L26.254 -31.227L26.527 -31.121L26.799 -31.015L27.071 -30.909L27.343 -30.803L27.615 -30.697L27.887 -30.592L28.160 -30.486L28.432 -30.380L28.704 -30.274L28.976 -30.168L29.248 -30.062L29.588 -29.930L29.962 -29.786L30.296 -29.660L30.597 -29.552L30.869 -29.462L31.117 -29.389L31.348 -29.335L31.566 -29.298L31.776 -29.278L32.040 -29.276L32.331 -29.298L32.619 -29.343L32.902 -29.412L33.179 -29.505L33.439 -29.616L33.624 -29.715L33.808 -29.832L33.996 -29.970L34.192 -30.131L34.401 -30.317L34.628 -30.531L34.878 -30.774L35.155 -31.050L35.432 -31.327L35.639 -31.533L35.845 -31.740L36.052 -31.946L36.258 -32.153L36.465 -32.359L36.671 -32.566L36.878 -32.772L37.084 -32.979L37.291 -33.185L37.497 -33.392L37.704 -33.598L37.910 -33.805L38.117 -34.011L38.323 -34.218L38.530 -34.424L38.736 -34.631L38.943 -34.837L39.149 -35.044L39.356 -35.250L39.562 -35.457L39.769 -35.663L39.975 -35.870L40.182 -36.076L40.388 -36.283L40.595 -36.489L40.801 -36.696L41.008 -36.902L41.214 -37.109L41.421 -37.315L41.627 -37.521L41.834 -37.728L42.040 -37.934L42.247 -38.141L42.453 -38.347L42.660 -38.554L42.866 -38.760L43.073 -38.967L43.279 -39.173L43.486 -39.380L43.692 -39.586L43.899 -39.793L44.105 -39.999L44.312 -40.206L44.518 -40.412L44.725 -40.619L44.931 -40.825L45.138 -41.032L45.344 -41.238L45.551 -41.445L45.757 -41.651L45.964 -41.858L46.170 -42.064L46.376 -42.271L46.583 -42.477L46.789 -42.684L46.996 -42.890L47.202 -43.097L47.409 -43.303L47.615 -43.510L47.822 -43.716L48.028 -43.923L48.235 -44.129L48.441 -44.336L48.648 -44.542L48.854 -44.749L49.061 -44.955L49.267 -45.162L49.474 -45.368L49.680 -45.575L49.887 -45.781L50.093 -45.988L50.300 -46.194L50.506 -46.401L50.713 -46.607L50.919 -46.814L51.126 -47.020L51.332 -47.227L51.539 -47.433L51.745 -47.640L51.952 -47.846L52.158 -48.053L52.367 -48.261L52.593 -48.463L52.833 -48.643L53.083 -48.799L53.343 -48.932L53.611 -49.043L53.886 -49.130L54.165 -49.194L54.448 -49.234L54.733 -49.252L55.019 -49.246L55.303 -49.218L55.584 -49.166L55.862 -49.091L56.133 -48.993L56.398 -48.872L56.653 -48.728L56.899 -48.560L57.132 -48.370L57.352 -48.156L57.551 -47.927L57.727 -47.686L57.879 -47.434L58.008 -47.172L58.114 -46.903L58.198 -46.627L58.257 -46.347L58.294 -46.064L58.308 -45.779L58.298 -45.493L58.266 -45.209L58.210 -44.929L58.131 -44.652L58.029 -44.381L57.904 -44.118L57.756 -43.864L57.584 -43.621L57.390 -43.390L57.181 -43.176L56.974 -42.969L56.768 -42.763L56.561 -42.556L56.355 -42.350L56.148 -42.143L55.942 -41.937L55.735 -41.730L55.529 -41.524L55.322 -41.317L55.116 -41.111L54.909 -40.904L54.703 -40.698L54.496 -40.491L54.290 -40.285L54.083 -40.078L53.877 -39.872L53.670 -39.665L53.464 -39.459L53.257 -39.252L53.051 -39.046L52.844 -38.839L52.638 -38.633L52.431 -38.426L52.225 -38.220L52.018 -38.013L51.812 -37.807L51.605 -37.600L51.399 -37.394L51.192 -37.187L50.986 -36.981L50.779 -36.774L50.573 -36.568L50.366 -36.361L50.160 -36.155L49.953 -35.948L49.747 -35.742L49.540 -35.535L49.334 -35.329L49.127 -35.122L48.921 -34.916L48.715 -34.709L48.508 -34.503L48.302 -34.296L48.095 -34.090L47.889 -33.883L47.682 -33.677L47.476 -33.470L47.269 -33.264L47.063 -33.057L46.856 -32.851L46.650 -32.644L46.443 -32.438L46.237 -32.232L46.030 -32.025L45.824 -31.819L45.617 -31.612L45.411 -31.406L45.204 -31.199L44.998 -30.993L44.791 -30.786L44.585 -30.580L44.378 -30.373L44.172 -30.167L43.965 -29.960L43.759 -29.754L43.552 -29.547L43.346 -29.341L43.139 -29.134L42.933 -28.928L42.726 -28.721L42.520 -28.515L42.313 -28.308L42.107 -28.102L41.900 -27.895L41.694 -27.689L41.487 -27.482L41.281 -27.276L41.074 -27.069L40.868 -26.863L40.661 -26.656L40.455 -26.450L40.210 -26.205L39.923 -25.917L39.668 -25.658L39.444 -25.423L39.249 -25.208L39.079 -25.008L38.934 -24.818L38.809 -24.634L38.704 -24.449L38.598 -24.219L38.497 -23.945L38.420 -23.664L38.366 -23.378L38.336 -23.088L38.331 -22.795L38.344 -22.585L38.375 -22.370L38.423 -22.145L38.489 -21.903L38.573 -21.640L38.675 -21.351L38.795 -21.029L38.933 -20.669L39.080 -20.289L39.186 -20.017L39.292 -19.745L39.398 -19.472L39.504 -19.200L39.609 -18.928L39.715 -18.656L39.821 -18.384L39.927 -18.112L40.033 -17.839L40.139 -17.567L40.245 -17.295L40.350 -17.023L40.456 -16.751L40.562 -16.479L40.668 -16.206L40.774 -15.934L40.880 -15.662L40.985 -15.390L41.091 -15.118L41.197 -14.846L41.303 -14.573L41.409 -14.301L41.515 -14.029L41.621 -13.757L41.726 -13.485L41.832 -13.213L41.938 -12.940L42.044 -12.668L42.150 -12.396L42.256 -12.124L42.361 -11.852L42.467 -11.580L42.573 -11.307L42.679 -11.035L42.785 -10.763L42.891 -10.491L42.997 -10.219L43.102 -9.947L43.208 -9.674L43.314 -9.402L43.420 -9.130L43.526 -8.858L43.632 -8.586L43.737 -8.314L43.843 -8.041L43.949 -7.769L44.055 -7.497L44.161 -7.225L44.267 -6.953L44.373 -6.681L44.478 -6.408L44.584 -6.136L44.690 -5.864L44.796 -5.592L44.902 -5.320L45.008 -5.048L45.113 -4.775L45.219 -4.503L45.325 -4.231L45.431 -3.959L45.541 -3.675L45.656 -3.380L45.770 -3.089L45.884 -2.803L45.997 -2.523L46.109 -2.251L46.220 -1.988L46.331 -1.735L46.442 -1.494L46.551 -1.267L46.632 -1.105L46.729 -0.919L46.843 -0.715L46.976 -0.495L47.128 -0.265L47.300 -0.028L47.494 0.211L47.711 0.449L47.952 0.682L48.218 0.904L48.510 1.113L48.830 1.303L49.108 1.442L49.379 1.558L49.655 1.658L49.935 1.743L50.218 1.811L50.503 1.864L50.791 1.900L51.080 1.921L51.369 1.926L51.658 1.915L51.946 1.888L52.233 1.845L52.518 1.786L52.800 1.711L53.078 1.620L53.352 1.513L53.622 1.390L53.925 1.228L54.234 1.029L54.515 0.815L54.770 0.588L55.001 0.353L55.209 0.114L55.394 -0.124L55.557 -0.359L55.701 -0.585L55.826 -0.798L55.933 -0.995L56.024 -1.171L56.114 -1.354L56.224 -1.589L56.335 -1.835L56.447 -2.092L56.559 -2.359L56.672 -2.635L56.785 -2.917L56.900 -3.205L57.014 -3.498L57.130 -3.795L57.236 -4.067L57.343 -4.339L57.449 -4.611L57.555 -4.883L57.661 -5.155L57.767 -5.427L57.873 -5.700L57.980 -5.972L58.086 -6.244L58.192 -6.516L58.298 -6.788L58.404 -7.060L58.510 -7.332L58.617 -7.604L58.723 -7.876L58.829 -8.148L58.935 -8.420L59.041 -8.692L59.147 -8.964L59.254 -9.236L59.360 -9.508L59.466 -9.780L59.572 -10.052L59.678 -10.324L59.784 -10.596L59.891 -10.868L59.997 -11.140L60.103 -11.412L60.209 -11.684L60.315 -11.957L60.421 -12.229L60.528 -12.501L60.634 -12.773L60.740 -13.045L60.846 -13.317L60.952 -13.589L61.058 -13.861L61.165 -14.133L61.271 -14.405L61.377 -14.677L61.483 -14.949L61.589 -15.221L61.695 -15.493L61.802 -15.765L61.908 -16.037L62.014 -16.309L62.120 -16.581L62.226 -16.853L62.332 -17.125L62.438 -17.397L62.545 -17.669L62.651 -17.941L62.757 -18.214L62.863 -18.486L62.969 -18.758L63.075 -19.030L63.182 -19.302L63.288 -19.574L63.394 -19.846L63.500 -20.118L63.606 -20.390L63.712 -20.662L63.819 -20.934L63.925 -21.206L64.031 -21.478L64.137 -21.750L64.243 -22.022L64.349 -22.294L64.456 -22.566L64.562 -22.838L64.668 -23.110L64.774 -23.382L64.880 -23.654L64.986 -23.926L65.093 -24.198L65.199 -24.471L65.305 -24.743L65.411 -25.015L65.517 -25.287L65.623 -25.559L65.730 -25.831L65.836 -26.103L65.942 -26.375L66.048 -26.647L66.154 -26.919L66.260 -27.191L66.367 -27.463L66.473 -27.735L66.579 -28.007L66.685 -28.279L66.791 -28.551L66.897 -28.823L67.004 -29.095L67.110 -29.367L67.216 -29.639L67.322 -29.911L67.428 -30.183L67.534 -30.455L67.641 -30.728L67.747 -31.000L67.853 -31.272L67.959 -31.544L68.065 -31.816L68.171 -32.088L68.278 -32.360L68.384 -32.632L68.490 -32.904L68.596 -33.176L68.702 -33.448L68.808 -33.720L68.915 -33.992L69.021 -34.264L69.127 -34.536L69.233 -34.808L69.339 -35.080L69.445 -35.352L69.552 -35.624L69.658 -35.896L69.764 -36.168L69.870 -36.440L69.976 -36.712L70.082 -36.985L70.189 -37.257L70.295 -37.529L70.401 -37.801L70.507 -38.073L70.613 -38.345L70.719 -38.617L70.826 -38.889L70.932 -39.161L71.038 -39.433L71.144 -39.705L71.250 -39.977L71.356 -40.249L71.462 -40.521L71.569 -40.793L71.675 -41.065L71.781 -41.337L71.887 -41.609L71.993 -41.881L72.099 -42.153L72.206 -42.425L72.312 -42.697L72.418 -42.969L72.524 -43.242L72.630 -43.514L72.736 -43.786L72.843 -44.058L72.949 -44.330L73.055 -44.602L73.161 -44.874L73.267 -45.146L73.373 -45.418L73.480 -45.690L73.586 -45.962L73.692 -46.234L73.798 -46.506L73.904 -46.778L74.010 -47.050L74.117 -47.322L74.223 -47.594L74.329 -47.866L74.435 -48.138L74.541 -48.410L74.647 -48.682L74.754 -48.954L74.860 -49.226L74.966 -49.499L75.072 -49.771L75.178 -50.043L75.284 -50.315L75.391 -50.587L75.497 -50.859L75.603 -51.131L75.709 -51.403L75.815 -51.675L75.921 -51.947L76.028 -52.219L76.134 -52.491L76.240 -52.763L76.346 -53.035L76.452 -53.307L76.558 -53.579L76.665 -53.851L76.771 -54.123L76.877 -54.395L76.983 -54.667L77.089 -54.939L77.195 -55.211L77.302 -55.483L77.408 -55.756L77.514 -56.028L77.620 -56.300L77.726 -56.572L77.832 -56.844L77.939 -57.116L78.045 -57.388L78.151 -57.660L78.257 -57.932L78.363 -58.204L78.469 -58.476L78.576 -58.748L78.682 -59.020L78.788 -59.292L78.894 -59.564L79.000 -59.836L79.106 -60.108L79.213 -60.380L79.319 -60.652L79.425 -60.924L79.531 -61.196L79.637 -61.468L79.743 -61.740L79.850 -62.013L79.956 -62.285L80.062 -62.557L80.168 -62.829L80.274 -63.101L80.386 -63.388L80.499 -63.677L80.609 -63.964L80.716 -64.247L80.818 -64.526L80.915 -64.798L81.006 -65.063L81.088 -65.319L81.158 -65.552L81.210 -65.738L81.264 -65.951L81.317 -66.188L81.365 -66.448L81.404 -66.727L81.430 -67.025L81.441 -67.339L81.431 -67.666L81.398 -68.005L81.338 -68.353L81.247 -68.709L81.143 -69.017L81.031 -69.290L80.905 -69.555L80.765 -69.812L80.612 -70.059L80.446 -70.298L80.267 -70.526L80.075 -70.743L79.873 -70.950L79.659 -71.145L79.434 -71.329L79.200 -71.499L78.955 -71.658L78.702 -71.802L78.439 -71.933L78.169 -72.050L77.891 -72.151L77.891 -72.151Z"/>
  </g>
 </g>
</svg>
