<?xml version="1.0" encoding="UTF-8"?>
<!--Generator: Custom SF Symbol – Foxhunt-->
<!DOCTYPE svg
PUBLIC "-//W3C//DTD SVG 1.1//EN"
       "http://www.w3.org/Graphics/SVG/1.1/DTD/svg11.dtd">
<svg version="1.1" xmlns="http://www.w3.org/2000/svg" xmlns:xlink="http://www.w3.org/1999/xlink" viewBox="0 0 3300 2200">
 <!--glyph: "co.swellyo.profile.fill", point size: 100.0, template writer version: "138.0.0"-->
 <style>.monochrome-0 {-sfsymbols-motion-group:0;-sfsymbols-layer-tags:-a1b2c3d4e5f60001}

.multicolor-0:tintColor {-sfsymbols-motion-group:0;-sfsymbols-layer-tags:-a1b2c3d4e5f60001}

.hierarchical-0:primary {-sfsymbols-motion-group:0;-sfsymbols-layer-tags:-a1b2c3d4e5f60001}

.SFSymbolsPreviewWireframe {fill:none;opacity:1.0;stroke:black;stroke-width:0.5}
</style>
 <g id="Notes">
  <rect height="2200" id="artboard" style="fill:white;opacity:1" width="3300" x="0" y="0"/>
  <line style="fill:none;stroke:black;opacity:1;stroke-width:0.5;" x1="263" x2="3036" y1="292" y2="292"/>
  <text style="stroke:none;fill:black;font-family:sans-serif;font-size:13;font-weight:bold;" transform="matrix(1 0 0 1 263 322)">Weight/Scale Variations</text>
  <text style="stroke:none;fill:black;font-family:sans-serif;font-size:13;text-anchor:middle;" transform="matrix(1 0 0 1 559.711 322)">Ultralight</text>
  <text style="stroke:none;fill:black;font-family:sans-serif;font-size:13;text-anchor:middle;" transform="matrix(1 0 0 1 1449.84 322)">Regular</text>
  <text style="stroke:none;fill:black;font-family:sans-serif;font-size:13;text-anchor:middle;" transform="matrix(1 0 0 1 2933.4 322)">Black</text>
  <line style="fill:none;stroke:black;opacity:1;stroke-width:0.5;" x1="263" x2="3036" y1="1903" y2="1903"/>
  <text id="template-version" style="stroke:none;fill:black;font-family:sans-serif;font-size:13;text-anchor:end;" transform="matrix(1 0 0 1 3036 1933)">Template v.6.0</text>
  <text style="stroke:none;fill:black;font-family:sans-serif;font-size:13;text-anchor:end;" transform="matrix(1 0 0 1 3036 1951)">Requires Xcode 16 or greater</text>
  <text id="descriptive-name" style="stroke:none;fill:black;font-family:sans-serif;font-size:13;text-anchor:end;" transform="matrix(1 0 0 1 3036 1969)">Generated from co.swellyo.profile.fill</text>
  <text style="stroke:none;fill:black;font-family:sans-serif;font-size:13;text-anchor:end;" transform="matrix(1 0 0 1 3036 1987)">Typeset at 100.0 points</text>
  <text style="stroke:none;fill:black;font-family:sans-serif;font-size:13;" transform="matrix(1 0 0 1 263 726)">Small</text>
  <text style="stroke:none;fill:black;font-family:sans-serif;font-size:13;" transform="matrix(1 0 0 1 263 1156)">Medium</text>
  <text style="stroke:none;fill:black;font-family:sans-serif;font-size:13;" transform="matrix(1 0 0 1 263 1586)">Large</text>
 </g>
 <g id="Guides">
  <g id="H-reference" style="fill:#27AAE1;stroke:none;" transform="matrix(1 0 0 1 339 696)">
   <path d="M0.993654 0L3.63775 0L29.3281-67.1323L30.0303-67.1323L30.0303-70.459L28.1226-70.459ZM11.6885-24.4799L46.9815-24.4799L46.2315-26.7285L12.4385-26.7285ZM55.1196 0L57.7637 0L30.6382-70.459L29.4326-70.459L29.4326-67.1323Z"/>
  </g>
  <line id="Baseline-S" style="fill:none;stroke:#27AAE1;opacity:1;stroke-width:0.5;" x1="263" x2="3036" y1="696" y2="696"/>
  <line id="Capline-S" style="fill:none;stroke:#27AAE1;opacity:1;stroke-width:0.5;" x1="263" x2="3036" y1="625.541" y2="625.541"/>
  <g id="H-reference" style="fill:#27AAE1;stroke:none;" transform="matrix(1 0 0 1 339 1126)">
   <path d="M0.993654 0L3.63775 0L29.3281-67.1323L30.0303-67.1323L30.0303-70.459L28.1226-70.459ZM11.6885-24.4799L46.9815-24.4799L46.2315-26.7285L12.4385-26.7285ZM55.1196 0L57.7637 0L30.6382-70.459L29.4326-70.459L29.4326-67.1323Z"/>
  </g>
  <line id="Baseline-M" style="fill:none;stroke:#27AAE1;opacity:1;stroke-width:0.5;" x1="263" x2="3036" y1="1126" y2="1126"/>
  <line id="Capline-M" style="fill:none;stroke:#27AAE1;opacity:1;stroke-width:0.5;" x1="263" x2="3036" y1="1055.54" y2="1055.54"/>
  <g id="H-reference" style="fill:#27AAE1;stroke:none;" transform="matrix(1 0 0 1 339 1556)">
   <path d="M0.993654 0L3.63775 0L29.3281-67.1323L30.0303-67.1323L30.0303-70.459L28.1226-70.459ZM11.6885-24.4799L46.9815-24.4799L46.2315-26.7285L12.4385-26.7285ZM55.1196 0L57.7637 0L30.6382-70.459L29.4326-70.459L29.4326-67.1323Z"/>
  </g>
  <line id="Baseline-L" style="fill:none;stroke:#27AAE1;opacity:1;stroke-width:0.5;" x1="263" x2="3036" y1="1556" y2="1556"/>
  <line id="Capline-L" style="fill:none;stroke:#27AAE1;opacity:1;stroke-width:0.5;" x1="263" x2="3036" y1="1485.54" y2="1485.54"/>
  <line id="left-margin-Ultralight-S" style="fill:none;stroke:#00AEEF;stroke-width:0.5;opacity:1.0;" x1="515.423" x2="515.423" y1="600.785" y2="720.121"/>
  <line id="right-margin-Ultralight-S" style="fill:none;stroke:#00AEEF;stroke-width:0.5;opacity:1.0;" x1="604" x2="604" y1="600.785" y2="720.121"/>
  <line id="left-margin-Regular-S" style="fill:none;stroke:#00AEEF;stroke-width:0.5;opacity:1.0;" x1="1405.56" x2="1405.56" y1="600.785" y2="720.121"/>
  <line id="right-margin-Regular-S" style="fill:none;stroke:#00AEEF;stroke-width:0.5;opacity:1.0;" x1="1494.13" x2="1494.13" y1="600.785" y2="720.121"/>
  <line id="left-margin-Black-S" style="fill:none;stroke:#00AEEF;stroke-width:0.5;opacity:1.0;" x1="2889.11" x2="2889.11" y1="600.785" y2="720.121"/>
  <line id="right-margin-Black-S" style="fill:none;stroke:#00AEEF;stroke-width:0.5;opacity:1.0;" x1="2977.69" x2="2977.69" y1="600.785" y2="720.121"/>
 </g>
 <g id="Symbols">
  <g id="Black-S" transform="matrix(1 0 0 1 2889.11 696)">
   <path class="monochrome-0 multicolor-0:tintColor hierarchical-0:primary SFSymbolsPreviewWireframe" fill-rule="evenodd" d="M25.034 -50.979L25.037 -50.671L25.044 -50.364L25.056 -50.058L25.073 -49.753L25.094 -49.450L25.120 -49.148L25.151 -48.847L25.187 -48.548L25.227 -48.250L25.271 -47.953L25.320 -47.658L25.373 -47.365L25.431 -47.073L25.493 -46.782L25.560 -46.494L25.631 -46.207L25.706 -45.921L25.785 -45.638L25.869 -45.356L25.957 -45.076L26.048 -44.798L26.144 -44.522L26.244 -44.247L26.349 -43.975L26.457 -43.705L26.569 -43.436L26.684 -43.170L26.804 -42.906L26.928 -42.644L27.055 -42.384L27.186 -42.127L27.321 -41.871L27.460 -41.618L27.602 -41.367L27.748 -41.119L27.898 -40.873L28.051 -40.629L28.207 -40.388L28.367 -40.150L28.531 -39.914L28.698 -39.680L28.868 -39.449L29.042 -39.221L29.219 -38.996L29.399 -38.773L29.582 -38.553L29.769 -38.335L29.959 -38.121L30.152 -37.909L30.348 -37.701L30.547 -37.495L30.749 -37.292L30.954 -37.092L31.162 -36.895L31.373 -36.702L31.586 -36.511L31.803 -36.324L32.022 -36.140L32.245 -35.959L32.469 -35.781L32.697 -35.606L32.927 -35.435L33.160 -35.267L33.396 -35.103L33.633 -34.942L33.874 -34.785L34.117 -34.631L34.362 -34.480L34.610 -34.333L34.860 -34.190L35.113 -34.051L35.368 -33.915L35.625 -33.783L35.884 -33.654L36.145 -33.530L36.409 -33.409L36.675 -33.292L36.942 -33.179L37.212 -33.070L37.484 -32.965L37.758 -32.864L38.034 -32.767L38.311 -32.674L38.591 -32.585L38.872 -32.501L39.155 -32.420L39.440 -32.344L39.727 -32.272L40.015 -32.205L40.305 -32.141L40.596 -32.082L40.890 -32.028L41.184 -31.978L41.480 -31.932L41.778 -31.891L42.077 -31.855L42.377 -31.823L42.679 -31.795L42.982 -31.773L43.287 -31.755L43.592 -31.742L43.899 -31.733L44.207 -31.730L44.516 -31.731L44.823 -31.737L45.130 -31.748L45.435 -31.763L45.738 -31.784L46.041 -31.809L46.342 -31.838L46.642 -31.872L46.940 -31.911L47.237 -31.954L47.532 -32.002L47.826 -32.055L48.118 -32.111L48.409 -32.172L48.698 -32.238L48.986 -32.308L49.272 -32.382L49.556 -32.460L49.838 -32.543L50.118 -32.629L50.397 -32.720L50.673 -32.815L50.948 -32.914L51.221 -33.017L51.492 -33.124L51.761 -33.235L52.027 -33.350L52.292 -33.469L52.555 -33.592L52.815 -33.718L53.073 -33.848L53.329 -33.982L53.583 -34.120L53.834 -34.261L54.083 -34.406L54.330 -34.555L54.574 -34.707L54.816 -34.863L55.055 -35.022L55.291 -35.185L55.526 -35.351L55.757 -35.520L55.986 -35.693L56.212 -35.869L56.436 -36.049L56.657 -36.231L56.875 -36.417L57.090 -36.606L57.302 -36.798L57.512 -36.993L57.718 -37.192L57.922 -37.393L58.122 -37.597L58.320 -37.804L58.514 -38.015L58.706 -38.228L58.894 -38.444L59.079 -38.662L59.261 -38.884L59.439 -39.108L59.614 -39.335L59.786 -39.564L59.955 -39.797L60.120 -40.031L60.282 -40.269L60.440 -40.509L60.595 -40.751L60.747 -40.996L60.894 -41.243L61.038 -41.492L61.179 -41.744L61.316 -41.999L61.449 -42.255L61.578 -42.514L61.704 -42.775L61.825 -43.038L61.943 -43.303L62.057 -43.570L62.167 -43.840L62.273 -44.111L62.375 -44.384L62.473 -44.659L62.567 -44.937L62.657 -45.216L62.743 -45.497L62.824 -45.779L62.901 -46.064L62.974 -46.350L63.043 -46.638L63.107 -46.927L63.167 -47.218L63.223 -47.511L63.274 -47.805L63.321 -48.101L63.363 -48.398L63.401 -48.697L63.434 -48.997L63.462 -49.299L63.486 -49.601L63.505 -49.905L63.520 -50.211L63.529 -50.517L63.534 -50.825L63.534 -51.134L63.529 -51.442L63.520 -51.748L63.505 -52.053L63.486 -52.358L63.462 -52.660L63.434 -52.962L63.401 -53.262L63.363 -53.561L63.321 -53.858L63.274 -54.154L63.223 -54.448L63.167 -54.741L63.107 -55.032L63.043 -55.321L62.974 -55.609L62.901 -55.895L62.824 -56.180L62.743 -56.462L62.657 -56.743L62.567 -57.022L62.473 -57.299L62.375 -57.575L62.273 -57.848L62.167 -58.119L62.057 -58.389L61.943 -58.656L61.825 -58.921L61.704 -59.184L61.578 -59.445L61.449 -59.704L61.316 -59.960L61.179 -60.215L61.038 -60.466L60.894 -60.716L60.747 -60.963L60.595 -61.208L60.440 -61.450L60.282 -61.690L60.120 -61.928L59.955 -62.162L59.786 -62.395L59.614 -62.624L59.439 -62.851L59.261 -63.075L59.079 -63.297L58.894 -63.515L58.706 -63.731L58.514 -63.944L58.320 -64.154L58.122 -64.362L57.922 -64.566L57.718 -64.767L57.512 -64.966L57.302 -65.161L57.090 -65.353L56.875 -65.542L56.657 -65.728L56.436 -65.910L56.212 -66.090L55.986 -66.266L55.757 -66.439L55.526 -66.608L55.292 -66.774L55.055 -66.937L54.816 -67.096L54.574 -67.252L54.330 -67.404L54.083 -67.553L53.834 -67.698L53.583 -67.839L53.329 -67.977L53.073 -68.111L52.815 -68.241L52.555 -68.367L52.292 -68.490L52.027 -68.609L51.761 -68.724L51.492 -68.835L51.221 -68.942L50.948 -69.045L50.673 -69.144L50.397 -69.239L50.118 -69.330L49.838 -69.416L49.556 -69.499L49.272 -69.577L48.986 -69.651L48.698 -69.721L48.409 -69.787L48.119 -69.848L47.826 -69.904L47.532 -69.957L47.237 -70.005L46.940 -70.048L46.642 -70.087L46.342 -70.121L46.041 -70.150L45.738 -70.175L45.435 -70.196L45.130 -70.211L44.823 -70.222L44.516 -70.228L44.207 -70.229L43.899 -70.226L43.592 -70.217L43.287 -70.204L42.982 -70.186L42.679 -70.164L42.377 -70.136L42.077 -70.104L41.778 -70.068L41.480 -70.027L41.184 -69.981L40.890 -69.931L40.596 -69.877L40.305 -69.818L40.015 -69.754L39.727 -69.687L39.440 -69.615L39.155 -69.539L38.872 -69.458L38.591 -69.374L38.311 -69.285L38.034 -69.192L37.758 -69.095L37.484 -68.994L37.212 -68.889L36.942 -68.780L36.675 -68.667L36.409 -68.550L36.145 -68.429L35.884 -68.305L35.625 -68.176L35.368 -68.044L35.113 -67.908L34.860 -67.769L34.610 -67.626L34.362 -67.479L34.117 -67.328L33.874 -67.174L33.633 -67.017L33.396 -66.856L33.160 -66.692L32.927 -66.524L32.697 -66.353L32.469 -66.178L32.245 -66.000L32.022 -65.819L31.803 -65.635L31.586 -65.448L31.373 -65.257L31.162 -65.064L30.954 -64.867L30.749 -64.667L30.547 -64.464L30.348 -64.258L30.152 -64.050L29.959 -63.838L29.769 -63.624L29.582 -63.406L29.399 -63.186L29.219 -62.963L29.042 -62.738L28.868 -62.510L28.698 -62.279L28.531 -62.045L28.367 -61.809L28.207 -61.571L28.051 -61.329L27.898 -61.086L27.748 -60.840L27.602 -60.592L27.460 -60.341L27.321 -60.088L27.186 -59.832L27.055 -59.575L26.928 -59.315L26.804 -59.053L26.684 -58.789L26.569 -58.523L26.457 -58.254L26.349 -57.984L26.244 -57.712L26.144 -57.437L26.048 -57.161L25.957 -56.883L25.869 -56.603L25.785 -56.321L25.706 -56.038L25.631 -55.752L25.560 -55.465L25.493 -55.177L25.431 -54.886L25.373 -54.594L25.320 -54.301L25.271 -54.006L25.227 -53.709L25.187 -53.411L25.151 -53.112L25.120 -52.811L25.094 -52.509L25.073 -52.206L25.056 -51.901L25.044 -51.595L25.037 -51.288L25.034 -50.979L25.034 -50.979ZM14.248 -13.169L14.072 -12.936L13.895 -12.701L13.717 -12.463L13.539 -12.223L13.364 -11.982L13.192 -11.740L13.025 -11.497L12.863 -11.254L12.709 -11.011L12.563 -10.769L12.427 -10.530L12.300 -10.290L12.180 -10.044L12.067 -9.792L11.963 -9.533L11.868 -9.266L11.783 -8.992L11.709 -8.711L11.647 -8.422L11.597 -8.124L11.561 -7.818L11.540 -7.504L11.534 -7.180L11.544 -6.863L11.570 -6.553L11.611 -6.249L11.666 -5.951L11.732 -5.659L11.810 -5.374L11.897 -5.098L11.994 -4.830L12.097 -4.572L12.207 -4.324L12.321 -4.088L12.445 -3.853L12.580 -3.615L12.728 -3.377L12.888 -3.139L13.060 -2.904L13.244 -2.672L13.441 -2.444L13.651 -2.223L13.874 -2.010L14.109 -1.806L14.366 -1.606L14.634 -1.420L14.904 -1.252L15.176 -1.102L15.449 -0.969L15.723 -0.850L15.998 -0.747L16.271 -0.656L16.543 -0.579L16.813 -0.512L17.081 -0.456L17.346 -0.409L17.607 -0.370L17.865 -0.338L18.131 -0.311L18.405 -0.289L18.685 -0.271L18.971 -0.258L19.263 -0.247L19.559 -0.240L19.860 -0.235L20.163 -0.232L20.469 -0.230L20.777 -0.230L21.085 -0.229L21.380 -0.229L21.672 -0.229L21.964 -0.229L22.257 -0.229L22.549 -0.229L22.841 -0.229L23.134 -0.229L23.426 -0.229L23.718 -0.229L24.011 -0.229L24.303 -0.229L24.595 -0.229L24.888 -0.229L25.180 -0.229L25.472 -0.229L25.765 -0.229L26.057 -0.229L26.349 -0.229L26.642 -0.229L26.934 -0.229L27.226 -0.229L27.519 -0.229L27.811 -0.229L28.104 -0.229L28.396 -0.229L28.688 -0.229L28.981 -0.229L29.273 -0.229L29.565 -0.229L29.858 -0.229L30.150 -0.229L30.442 -0.229L30.735 -0.229L31.027 -0.229L31.319 -0.229L31.612 -0.229L31.904 -0.229L32.196 -0.229L32.489 -0.229L32.781 -0.229L33.073 -0.229L33.366 -0.229L33.658 -0.229L33.950 -0.229L34.243 -0.229L34.535 -0.229L34.827 -0.229L35.120 -0.229L35.412 -0.229L35.704 -0.229L35.997 -0.229L36.289 -0.229L36.581 -0.229L36.874 -0.229L37.166 -0.229L37.458 -0.229L37.751 -0.229L38.043 -0.229L38.336 -0.229L38.628 -0.229L38.920 -0.229L39.213 -0.229L39.505 -0.229L39.797 -0.229L40.090 -0.229L40.382 -0.229L40.674 -0.229L40.967 -0.229L41.259 -0.229L41.551 -0.229L41.844 -0.229L42.136 -0.229L42.428 -0.229L42.721 -0.229L43.013 -0.229L43.305 -0.229L43.598 -0.229L43.890 -0.229L44.182 -0.229L44.475 -0.229L44.767 -0.229L45.059 -0.229L45.352 -0.229L45.644 -0.229L45.936 -0.229L46.229 -0.229L46.521 -0.229L46.813 -0.229L47.106 -0.229L47.398 -0.229L47.690 -0.229L47.983 -0.229L48.275 -0.229L48.568 -0.229L48.860 -0.229L49.152 -0.229L49.445 -0.229L49.737 -0.229L50.029 -0.229L50.322 -0.229L50.614 -0.229L50.906 -0.229L51.199 -0.229L51.491 -0.229L51.783 -0.229L52.076 -0.229L52.368 -0.229L52.660 -0.229L52.953 -0.229L53.245 -0.229L53.537 -0.229L53.830 -0.229L54.122 -0.229L54.414 -0.229L54.707 -0.229L54.999 -0.229L55.291 -0.229L55.584 -0.229L55.876 -0.229L56.168 -0.229L56.461 -0.229L56.753 -0.229L57.045 -0.229L57.338 -0.229L57.630 -0.229L57.922 -0.229L58.215 -0.229L58.507 -0.229L58.800 -0.229L59.092 -0.229L59.384 -0.229L59.677 -0.229L59.969 -0.229L60.261 -0.229L60.554 -0.229L60.846 -0.229L61.138 -0.229L61.431 -0.229L61.723 -0.229L62.015 -0.229L62.308 -0.229L62.600 -0.229L62.892 -0.229L63.185 -0.229L63.477 -0.229L63.769 -0.229L64.062 -0.229L64.354 -0.229L64.646 -0.229L64.939 -0.229L65.231 -0.229L65.523 -0.229L65.816 -0.229L66.108 -0.229L66.400 -0.229L66.693 -0.229L66.985 -0.229L67.277 -0.229L67.577 -0.229L67.885 -0.230L68.192 -0.230L68.498 -0.232L68.800 -0.236L69.099 -0.242L69.394 -0.250L69.684 -0.261L69.969 -0.276L70.247 -0.295L70.519 -0.318L70.783 -0.347L71.041 -0.381L71.303 -0.422L71.568 -0.472L71.837 -0.531L72.108 -0.601L72.380 -0.682L72.654 -0.777L72.928 -0.884L73.202 -1.007L73.475 -1.146L73.747 -1.301L74.016 -1.474L74.283 -1.666L74.532 -1.866L74.764 -2.073L74.983 -2.289L75.189 -2.512L75.382 -2.741L75.562 -2.974L75.731 -3.211L75.887 -3.449L76.031 -3.687L76.163 -3.924L76.283 -4.158L76.396 -4.398L76.504 -4.649L76.605 -4.910L76.699 -5.180L76.784 -5.459L76.858 -5.746L76.921 -6.040L76.972 -6.340L77.008 -6.646L77.029 -6.957L77.035 -7.279L77.024 -7.600L76.998 -7.912L76.958 -8.215L76.905 -8.510L76.839 -8.797L76.762 -9.076L76.673 -9.347L76.575 -9.611L76.468 -9.869L76.353 -10.119L76.231 -10.363L76.102 -10.601L75.963 -10.842L75.814 -11.084L75.658 -11.327L75.494 -11.570L75.325 -11.813L75.152 -12.055L74.976 -12.296L74.799 -12.535L74.621 -12.772L74.444 -13.006L74.268 -13.238L74.093 -13.467L73.916 -13.695L73.738 -13.921L73.558 -14.146L73.376 -14.369L73.192 -14.591L73.007 -14.812L72.821 -15.031L72.632 -15.249L72.442 -15.465L72.251 -15.680L72.058 -15.893L71.863 -16.105L71.667 -16.316L71.470 -16.525L71.270 -16.732L71.070 -16.938L70.867 -17.142L70.663 -17.345L70.458 -17.546L70.251 -17.746L70.043 -17.944L69.833 -18.141L69.622 -18.336L69.409 -18.529L69.195 -18.721L68.980 -18.912L68.763 -19.100L68.544 -19.287L68.325 -19.472L68.103 -19.656L67.881 -19.838L67.657 -20.018L67.431 -20.197L67.205 -20.374L66.977 -20.549L66.747 -20.723L66.517 -20.895L66.284 -21.065L66.051 -21.233L65.816 -21.400L65.580 -21.565L65.343 -21.728L65.105 -21.889L64.865 -22.049L64.624 -22.207L64.381 -22.363L64.138 -22.517L63.893 -22.669L63.647 -22.820L63.400 -22.968L63.151 -23.115L62.901 -23.260L62.651 -23.403L62.399 -23.544L62.145 -23.683L61.891 -23.821L61.636 -23.956L61.379 -24.090L61.121 -24.222L60.862 -24.351L60.602 -24.479L60.341 -24.605L60.079 -24.729L59.815 -24.851L59.551 -24.970L59.286 -25.088L59.019 -25.204L58.752 -25.318L58.483 -25.430L58.213 -25.540L57.943 -25.647L57.671 -25.753L57.398 -25.857L57.125 -25.958L56.850 -26.058L56.574 -26.155L56.298 -26.250L56.020 -26.344L55.742 -26.435L55.462 -26.524L55.182 -26.610L54.901 -26.695L54.618 -26.777L54.335 -26.858L54.051 -26.936L53.766 -27.012L53.481 -27.086L53.194 -27.157L52.906 -27.226L52.618 -27.294L52.329 -27.358L52.039 -27.421L51.748 -27.481L51.456 -27.539L51.164 -27.595L50.871 -27.649L50.577 -27.700L50.282 -27.749L49.986 -27.796L49.690 -27.840L49.393 -27.882L49.095 -27.922L48.797 -27.959L48.498 -27.994L48.198 -28.026L47.897 -28.056L47.596 -28.084L47.294 -28.110L46.991 -28.133L46.688 -28.153L46.384 -28.171L46.079 -28.187L45.774 -28.200L45.468 -28.211L45.161 -28.219L44.854 -28.225L44.546 -28.229L44.238 -28.229L43.930 -28.228L43.622 -28.224L43.315 -28.217L43.009 -28.208L42.703 -28.197L42.398 -28.183L42.094 -28.166L41.790 -28.147L41.487 -28.126L41.184 -28.102L40.882 -28.076L40.581 -28.048L40.281 -28.017L39.981 -27.983L39.682 -27.948L39.384 -27.910L39.086 -27.869L38.789 -27.827L38.493 -27.782L38.198 -27.734L37.903 -27.685L37.610 -27.633L37.317 -27.579L37.024 -27.522L36.733 -27.463L36.442 -27.402L36.153 -27.339L35.864 -27.273L35.576 -27.206L35.288 -27.136L35.002 -27.063L34.717 -26.989L34.432 -26.912L34.148 -26.834L33.865 -26.753L33.583 -26.670L33.302 -26.584L33.022 -26.497L32.743 -26.407L32.465 -26.316L32.188 -26.222L31.911 -26.126L31.636 -26.028L31.362 -25.928L31.088 -25.826L30.816 -25.721L30.545 -25.615L30.274 -25.507L30.005 -25.396L29.737 -25.284L29.469 -25.169L29.203 -25.053L28.938 -24.934L28.674 -24.814L28.411 -24.691L28.149 -24.567L27.888 -24.441L27.629 -24.312L27.370 -24.182L27.112 -24.050L26.856 -23.916L26.601 -23.780L26.347 -23.642L26.094 -23.502L25.842 -23.360L25.592 -23.216L25.343 -23.071L25.095 -22.923L24.848 -22.774L24.602 -22.623L24.358 -22.470L24.114 -22.316L23.872 -22.159L23.632 -22.001L23.392 -21.841L23.154 -21.679L22.917 -21.515L22.682 -21.350L22.447 -21.183L22.214 -21.014L21.983 -20.843L21.752 -20.671L21.523 -20.497L21.296 -20.321L21.069 -20.143L20.844 -19.964L20.621 -19.783L20.399 -19.601L20.178 -19.417L19.958 -19.231L19.741 -19.043L19.524 -18.854L19.309 -18.664L19.095 -18.471L18.883 -18.277L18.672 -18.082L18.463 -17.885L18.255 -17.686L18.049 -17.486L17.844 -17.284L17.641 -17.081L17.439 -16.876L17.238 -16.670L17.040 -16.462L16.842 -16.252L16.647 -16.042L16.453 -15.829L16.260 -15.615L16.069 -15.400L15.880 -15.183L15.692 -14.965L15.506 -14.745L15.321 -14.524L15.138 -14.302L14.957 -14.078L14.777 -13.853L14.599 -13.626L14.423 -13.398L14.248 -13.169L14.248 -13.169Z"/>
  </g>
  <g id="Regular-S" transform="matrix(1 0 0 1 1405.56 696)">
   <path class="monochrome-0 multicolor-0:tintColor hierarchical-0:primary SFSymbolsPreviewWireframe" fill-rule="evenodd" d="M25.034 -50.979L25.037 -50.671L25.044 -50.364L25.056 -50.058L25.073 -49.753L25.094 -49.450L25.120 -49.148L25.151 -48.847L25.187 -48.548L25.227 -48.250L25.271 -47.953L25.320 -47.658L25.373 -47.365L25.431 -47.073L25.493 -46.782L25.560 -46.494L25.631 -46.207L25.706 -45.921L25.785 -45.638L25.869 -45.356L25.957 -45.076L26.048 -44.798L26.144 -44.522L26.244 -44.247L26.349 -43.975L26.457 -43.705L26.569 -43.436L26.684 -43.170L26.804 -42.906L26.928 -42.644L27.055 -42.384L27.186 -42.127L27.321 -41.871L27.460 -41.618L27.602 -41.367L27.748 -41.119L27.898 -40.873L28.051 -40.629L28.207 -40.388L28.367 -40.150L28.531 -39.914L28.698 -39.680L28.868 -39.449L29.042 -39.221L29.219 -38.996L29.399 -38.773L29.582 -38.553L29.769 -38.335L29.959 -38.121L30.152 -37.909L30.348 -37.701L30.547 -37.495L30.749 -37.292L30.954 -37.092L31.162 -36.895L31.373 -36.702L31.586 -36.511L31.803 -36.324L32.022 -36.140L32.245 -35.959L32.469 -35.781L32.697 -35.606L32.927 -35.435L33.160 -35.267L33.396 -35.103L33.633 -34.942L33.874 -34.785L34.117 -34.631L34.362 -34.480L34.610 -34.333L34.860 -34.190L35.113 -34.051L35.368 -33.915L35.625 -33.783L35.884 -33.654L36.145 -33.530L36.409 -33.409L36.675 -33.292L36.942 -33.179L37.212 -33.070L37.484 -32.965L37.758 -32.864L38.034 -32.767L38.311 -32.674L38.591 -32.585L38.872 -32.501L39.155 -32.420L39.440 -32.344L39.727 -32.272L40.015 -32.205L40.305 -32.141L40.596 -32.082L40.890 -32.028L41.184 -31.978L41.480 -31.932L41.778 -31.891L42.077 -31.855L42.377 -31.823L42.679 -31.795L42.982 -31.773L43.287 -31.755L43.592 -31.742L43.899 -31.733L44.207 -31.730L44.516 -31.731L44.823 -31.737L45.130 -31.748L45.435 -31.763L45.738 -31.784L46.041 -31.809L46.342 -31.838L46.642 -31.872L46.940 -31.911L47.237 -31.954L47.532 -32.002L47.826 -32.055L48.118 -32.111L48.409 -32.172L48.698 -32.238L48.986 -32.308L49.272 -32.382L49.556 -32.460L49.838 -32.543L50.118 -32.629L50.397 -32.720L50.673 -32.815L50.948 -32.914L51.221 -33.017L51.492 -33.124L51.761 -33.235L52.027 -33.350L52.292 -33.469L52.555 -33.592L52.815 -33.718L53.073 -33.848L53.329 -33.982L53.583 -34.120L53.834 -34.261L54.083 -34.406L54.330 -34.555L54.574 -34.707L54.816 -34.863L55.055 -35.022L55.291 -35.185L55.526 -35.351L55.757 -35.520L55.986 -35.693L56.212 -35.869L56.436 -36.049L56.657 -36.231L56.875 -36.417L57.090 -36.606L57.302 -36.798L57.512 -36.993L57.718 -37.192L57.922 -37.393L58.122 -37.597L58.320 -37.804L58.514 -38.015L58.706 -38.228L58.894 -38.444L59.079 -38.662L59.261 -38.884L59.439 -39.108L59.614 -39.335L59.786 -39.564L59.955 -39.797L60.120 -40.031L60.282 -40.269L60.440 -40.509L60.595 -40.751L60.747 -40.996L60.894 -41.243L61.038 -41.492L61.179 -41.744L61.316 -41.999L61.449 -42.255L61.578 -42.514L61.704 -42.775L61.825 -43.038L61.943 -43.303L62.057 -43.570L62.167 -43.840L62.273 -44.111L62.375 -44.384L62.473 -44.659L62.567 -44.937L62.657 -45.216L62.743 -45.497L62.824 -45.779L62.901 -46.064L62.974 -46.350L63.043 -46.638L63.107 -46.927L63.167 -47.218L63.223 -47.511L63.274 -47.805L63.321 -48.101L63.363 -48.398L63.401 -48.697L63.434 -48.997L63.462 -49.299L63.486 -49.601L63.505 -49.905L63.520 -50.211L63.529 -50.517L63.534 -50.825L63.534 -51.134L63.529 -51.442L63.520 -51.748L63.505 -52.053L63.486 -52.358L63.462 -52.660L63.434 -52.962L63.401 -53.262L63.363 -53.561L63.321 -53.858L63.274 -54.154L63.223 -54.448L63.167 -54.741L63.107 -55.032L63.043 -55.321L62.974 -55.609L62.901 -55.895L62.824 -56.180L62.743 -56.462L62.657 -56.743L62.567 -57.022L62.473 -57.299L62.375 -57.575L62.273 -57.848L62.167 -58.119L62.057 -58.389L61.943 -58.656L61.825 -58.921L61.704 -59.184L61.578 -59.445L61.449 -59.704L61.316 -59.960L61.179 -60.215L61.038 -60.466L60.894 -60.716L60.747 -60.963L60.595 -61.208L60.440 -61.450L60.282 -61.690L60.120 -61.928L59.955 -62.162L59.786 -62.395L59.614 -62.624L59.439 -62.851L59.261 -63.075L59.079 -63.297L58.894 -63.515L58.706 -63.731L58.514 -63.944L58.320 -64.154L58.122 -64.362L57.922 -64.566L57.718 -64.767L57.512 -64.966L57.302 -65.161L57.090 -65.353L56.875 -65.542L56.657 -65.728L56.436 -65.910L56.212 -66.090L55.986 -66.266L55.757 -66.439L55.526 -66.608L55.292 -66.774L55.055 -66.937L54.816 -67.096L54.574 -67.252L54.330 -67.404L54.083 -67.553L53.834 -67.698L53.583 -67.839L53.329 -67.977L53.073 -68.111L52.815 -68.241L52.555 -68.367L52.292 -68.490L52.027 -68.609L51.761 -68.724L51.492 -68.835L51.221 -68.942L50.948 -69.045L50.673 -69.144L50.397 -69.239L50.118 -69.330L49.838 -69.416L49.556 -69.499L49.272 -69.577L48.986 -69.651L48.698 -69.721L48.409 -69.787L48.119 -69.848L47.826 -69.904L47.532 -69.957L47.237 -70.005L46.940 -70.048L46.642 -70.087L46.342 -70.121L46.041 -70.150L45.738 -70.175L45.435 -70.196L45.130 -70.211L44.823 -70.222L44.516 -70.228L44.207 -70.229L43.899 -70.226L43.592 -70.217L43.287 -70.204L42.982 -70.186L42.679 -70.164L42.377 -70.136L42.077 -70.104L41.778 -70.068L41.480 -70.027L41.184 -69.981L40.890 -69.931L40.596 -69.877L40.305 -69.818L40.015 -69.754L39.727 -69.687L39.440 -69.615L39.155 -69.539L38.872 -69.458L38.591 -69.374L38.311 -69.285L38.034 -69.192L37.758 -69.095L37.484 -68.994L37.212 -68.889L36.942 -68.780L36.675 -68.667L36.409 -68.550L36.145 -68.429L35.884 -68.305L35.625 -68.176L35.368 -68.044L35.113 -67.908L34.860 -67.769L34.610 -67.626L34.362 -67.479L34.117 -67.328L33.874 -67.174L33.633 -67.017L33.396 -66.856L33.160 -66.692L32.927 -66.524L32.697 -66.353L32.469 -66.178L32.245 -66.000L32.022 -65.819L31.803 -65.635L31.586 -65.448L31.373 -65.257L31.162 -65.064L30.954 -64.867L30.749 -64.667L30.547 -64.464L30.348 -64.258L30.152 -64.050L29.959 -63.838L29.769 -63.624L29.582 -63.406L29.399 -63.186L29.219 -62.963L29.042 -62.738L28.868 -62.510L28.698 -62.279L28.531 -62.045L28.367 -61.809L28.207 -61.571L28.051 -61.329L27.898 -61.086L27.748 -60.840L27.602 -60.592L27.460 -60.341L27.321 -60.088L27.186 -59.832L27.055 -59.575L26.928 -59.315L26.804 -59.053L26.684 -58.789L26.569 -58.523L26.457 -58.254L26.349 -57.984L26.244 -57.712L26.144 -57.437L26.048 -57.161L25.957 -56.883L25.869 -56.603L25.785 -56.321L25.706 -56.038L25.631 -55.752L25.560 -55.465L25.493 -55.177L25.431 -54.886L25.373 -54.594L25.320 -54.301L25.271 -54.006L25.227 -53.709L25.187 -53.411L25.151 -53.112L25.120 -52.811L25.094 -52.509L25.073 -52.206L25.056 -51.901L25.044 -51.595L25.037 -51.288L25.034 -50.979L25.034 -50.979ZM14.248 -13.169L14.072 -12.936L13.895 -12.701L13.717 -12.463L13.539 -12.223L13.364 -11.982L13.192 -11.740L13.025 -11.497L12.863 -11.254L12.709 -11.011L12.563 -10.769L12.427 -10.530L12.300 -10.290L12.180 -10.044L12.067 -9.792L11.963 -9.533L11.868 -9.266L11.783 -8.992L11.709 -8.711L11.647 -8.422L11.597 -8.124L11.561 -7.818L11.540 -7.504L11.534 -7.180L11.544 -6.863L11.570 -6.553L11.611 -6.249L11.666 -5.951L11.732 -5.659L11.810 -5.374L11.897 -5.098L11.994 -4.830L12.097 -4.572L12.207 -4.324L12.321 -4.088L12.445 -3.853L12.580 -3.615L12.728 -3.377L12.888 -3.139L13.060 -2.904L13.244 -2.672L13.441 -2.444L13.651 -2.223L13.874 -2.010L14.109 -1.806L14.366 -1.606L14.634 -1.420L14.904 -1.252L15.176 -1.102L15.449 -0.969L15.723 -0.850L15.998 -0.747L16.271 -0.656L16.543 -0.579L16.813 -0.512L17.081 -0.456L17.346 -0.409L17.607 -0.370L17.865 -0.338L18.131 -0.311L18.405 -0.289L18.685 -0.271L18.971 -0.258L19.263 -0.247L19.559 -0.240L19.860 -0.235L20.163 -0.232L20.469 -0.230L20.777 -0.230L21.085 -0.229L21.380 -0.229L21.672 -0.229L21.964 -0.229L22.257 -0.229L22.549 -0.229L22.841 -0.229L23.134 -0.229L23.426 -0.229L23.718 -0.229L24.011 -0.229L24.303 -0.229L24.595 -0.229L24.888 -0.229L25.180 -0.229L25.472 -0.229L25.765 -0.229L26.057 -0.229L26.349 -0.229L26.642 -0.229L26.934 -0.229L27.226 -0.229L27.519 -0.229L27.811 -0.229L28.104 -0.229L28.396 -0.229L28.688 -0.229L28.981 -0.229L29.273 -0.229L29.565 -0.229L29.858 -0.229L30.150 -0.229L30.442 -0.229L30.735 -0.229L31.027 -0.229L31.319 -0.229L31.612 -0.229L31.904 -0.229L32.196 -0.229L32.489 -0.229L32.781 -0.229L33.073 -0.229L33.366 -0.229L33.658 -0.229L33.950 -0.229L34.243 -0.229L34.535 -0.229L34.827 -0.229L35.120 -0.229L35.412 -0.229L35.704 -0.229L35.997 -0.229L36.289 -0.229L36.581 -0.229L36.874 -0.229L37.166 -0.229L37.458 -0.229L37.751 -0.229L38.043 -0.229L38.336 -0.229L38.628 -0.229L38.920 -0.229L39.213 -0.229L39.505 -0.229L39.797 -0.229L40.090 -0.229L40.382 -0.229L40.674 -0.229L40.967 -0.229L41.259 -0.229L41.551 -0.229L41.844 -0.229L42.136 -0.229L42.428 -0.229L42.721 -0.229L43.013 -0.229L43.305 -0.229L43.598 -0.229L43.890 -0.229L44.182 -0.229L44.475 -0.229L44.767 -0.229L45.059 -0.229L45.352 -0.229L45.644 -0.229L45.936 -0.229L46.229 -0.229L46.521 -0.229L46.813 -0.229L47.106 -0.229L47.398 -0.229L47.690 -0.229L47.983 -0.229L48.275 -0.229L48.568 -0.229L48.860 -0.229L49.152 -0.229L49.445 -0.229L49.737 -0.229L50.029 -0.229L50.322 -0.229L50.614 -0.229L50.906 -0.229L51.199 -0.229L51.491 -0.229L51.783 -0.229L52.076 -0.229L52.368 -0.229L52.660 -0.229L52.953 -0.229L53.245 -0.229L53.537 -0.229L53.830 -0.229L54.122 -0.229L54.414 -0.229L54.707 -0.229L54.999 -0.229L55.291 -0.229L55.584 -0.229L55.876 -0.229L56.168 -0.229L56.461 -0.229L56.753 -0.229L57.045 -0.229L57.338 -0.229L57.630 -0.229L57.922 -0.229L58.215 -0.229L58.507 -0.229L58.800 -0.229L59.092 -0.229L59.384 -0.229L59.677 -0.229L59.969 -0.229L60.261 -0.229L60.554 -0.229L60.846 -0.229L61.138 -0.229L61.431 -0.229L61.723 -0.229L62.015 -0.229L62.308 -0.229L62.600 -0.229L62.892 -0.229L63.185 -0.229L63.477 -0.229L63.769 -0.229L64.062 -0.229L64.354 -0.229L64.646 -0.229L64.939 -0.229L65.231 -0.229L65.523 -0.229L65.816 -0.229L66.108 -0.229L66.400 -0.229L66.693 -0.229L66.985 -0.229L67.277 -0.229L67.577 -0.229L67.885 -0.230L68.192 -0.230L68.498 -0.232L68.800 -0.236L69.099 -0.242L69.394 -0.250L69.684 -0.261L69.969 -0.276L70.247 -0.295L70.519 -0.318L70.783 -0.347L71.041 -0.381L71.303 -0.422L71.568 -0.472L71.837 -0.531L72.108 -0.601L72.380 -0.682L72.654 -0.777L72.928 -0.884L73.202 -1.007L73.475 -1.146L73.747 -1.301L74.016 -1.474L74.283 -1.666L74.532 -1.866L74.764 -2.073L74.983 -2.289L75.189 -2.512L75.382 -2.741L75.562 -2.974L75.731 -3.211L75.887 -3.449L76.031 -3.687L76.163 -3.924L76.283 -4.158L76.396 -4.398L76.504 -4.649L76.605 -4.910L76.699 -5.180L76.784 -5.459L76.858 -5.746L76.921 -6.040L76.972 -6.340L77.008 -6.646L77.029 -6.957L77.035 -7.279L77.024 -7.600L76.998 -7.912L76.958 -8.215L76.905 -8.510L76.839 -8.797L76.762 -9.076L76.673 -9.347L76.575 -9.611L76.468 -9.869L76.353 -10.119L76.231 -10.363L76.102 -10.601L75.963 -10.842L75.814 -11.084L75.658 -11.327L75.494 -11.570L75.325 -11.813L75.152 -12.055L74.976 -12.296L74.799 -12.535L74.621 -12.772L74.444 -13.006L74.268 -13.238L74.093 -13.467L73.916 -13.695L73.738 -13.921L73.558 -14.146L73.376 -14.369L73.192 -14.591L73.007 -14.812L72.821 -15.031L72.632 -15.249L72.442 -15.465L72.251 -15.680L72.058 -15.893L71.863 -16.105L71.667 -16.316L71.470 -16.525L71.270 -16.732L71.070 -16.938L70.867 -17.142L70.663 -17.345L70.458 -17.546L70.251 -17.746L70.043 -17.944L69.833 -18.141L69.622 -18.336L69.409 -18.529L69.195 -18.721L68.980 -18.912L68.763 -19.100L68.544 -19.287L68.325 -19.472L68.103 -19.656L67.881 -19.838L67.657 -20.018L67.431 -20.197L67.205 -20.374L66.977 -20.549L66.747 -20.723L66.517 -20.895L66.284 -21.065L66.051 -21.233L65.816 -21.400L65.580 -21.565L65.343 -21.728L65.105 -21.889L64.865 -22.049L64.624 -22.207L64.381 -22.363L64.138 -22.517L63.893 -22.669L63.647 -22.820L63.400 -22.968L63.151 -23.115L62.901 -23.260L62.651 -23.403L62.399 -23.544L62.145 -23.683L61.891 -23.821L61.636 -23.956L61.379 -24.090L61.121 -24.222L60.862 -24.351L60.602 -24.479L60.341 -24.605L60.079 -24.729L59.815 -24.851L59.551 -24.970L59.286 -25.088L59.019 -25.204L58.752 -25.318L58.483 -25.430L58.213 -25.540L57.943 -25.647L57.671 -25.753L57.398 -25.857L57.125 -25.958L56.850 -26.058L56.574 -26.155L56.298 -26.250L56.020 -26.344L55.742 -26.435L55.462 -26.524L55.182 -26.610L54.901 -26.695L54.618 -26.777L54.335 -26.858L54.051 -26.936L53.766 -27.012L53.481 -27.086L53.194 -27.157L52.906 -27.226L52.618 -27.294L52.329 -27.358L52.039 -27.421L51.748 -27.481L51.456 -27.539L51.164 -27.595L50.871 -27.649L50.577 -27.700L50.282 -27.749L49.986 -27.796L49.690 -27.840L49.393 -27.882L49.095 -27.922L48.797 -27.959L48.498 -27.994L48.198 -28.026L47.897 -28.056L47.596 -28.084L47.294 -28.110L46.991 -28.133L46.688 -28.153L46.384 -28.171L46.079 -28.187L45.774 -28.200L45.468 -28.211L45.161 -28.219L44.854 -28.225L44.546 -28.229L44.238 -28.229L43.930 -28.228L43.622 -28.224L43.315 -28.217L43.009 -28.208L42.703 -28.197L42.398 -28.183L42.094 -28.166L41.790 -28.147L41.487 -28.126L41.184 -28.102L40.882 -28.076L40.581 -28.048L40.281 -28.017L39.981 -27.983L39.682 -27.948L39.384 -27.910L39.086 -27.869L38.789 -27.827L38.493 -27.782L38.198 -27.734L37.903 -27.685L37.610 -27.633L37.317 -27.579L37.024 -27.522L36.733 -27.463L36.442 -27.402L36.153 -27.339L35.864 -27.273L35.576 -27.206L35.288 -27.136L35.002 -27.063L34.717 -26.989L34.432 -26.912L34.148 -26.834L33.865 -26.753L33.583 -26.670L33.302 -26.584L33.022 -26.497L32.743 -26.407L32.465 -26.316L32.188 -26.222L31.911 -26.126L31.636 -26.028L31.362 -25.928L31.088 -25.826L30.816 -25.721L30.545 -25.615L30.274 -25.507L30.005 -25.396L29.737 -25.284L29.469 -25.169L29.203 -25.053L28.938 -24.934L28.674 -24.814L28.411 -24.691L28.149 -24.567L27.888 -24.441L27.629 -24.312L27.370 -24.182L27.112 -24.050L26.856 -23.916L26.601 -23.780L26.347 -23.642L26.094 -23.502L25.842 -23.360L25.592 -23.216L25.343 -23.071L25.095 -22.923L24.848 -22.774L24.602 -22.623L24.358 -22.470L24.114 -22.316L23.872 -22.159L23.632 -22.001L23.392 -21.841L23.154 -21.679L22.917 -21.515L22.682 -21.350L22.447 -21.183L22.214 -21.014L21.983 -20.843L21.752 -20.671L21.523 -20.497L21.296 -20.321L21.069 -20.143L20.844 -19.964L20.621 -19.783L20.399 -19.601L20.178 -19.417L19.958 -19.231L19.741 -19.043L19.524 -18.854L19.309 -18.664L19.095 -18.471L18.883 -18.277L18.672 -18.082L18.463 -17.885L18.255 -17.686L18.049 -17.486L17.844 -17.284L17.641 -17.081L17.439 -16.876L17.238 -16.670L17.040 -16.462L16.842 -16.252L16.647 -16.042L16.453 -15.829L16.260 -15.615L16.069 -15.400L15.880 -15.183L15.692 -14.965L15.506 -14.745L15.321 -14.524L15.138 -14.302L14.957 -14.078L14.777 -13.853L14.599 -13.626L14.423 -13.398L14.248 -13.169L14.248 -13.169Z"/>
  </g>
  <g id="Ultralight-S" transform="matrix(1 0 0 1 515.423 696)">
   <path class="monochrome-0 multicolor-0:tintColor hierarchical-0:primary SFSymbolsPreviewWireframe" fill-rule="evenodd" d="M25.034 -50.979L25.037 -50.671L25.044 -50.364L25.056 -50.058L25.073 -49.753L25.094 -49.450L25.120 -49.148L25.151 -48.847L25.187 -48.548L25.227 -48.250L25.271 -47.953L25.320 -47.658L25.373 -47.365L25.431 -47.073L25.493 -46.782L25.560 -46.494L25.631 -46.207L25.706 -45.921L25.785 -45.638L25.869 -45.356L25.957 -45.076L26.048 -44.798L26.144 -44.522L26.244 -44.247L26.349 -43.975L26.457 -43.705L26.569 -43.436L26.684 -43.170L26.804 -42.906L26.928 -42.644L27.055 -42.384L27.186 -42.127L27.321 -41.871L27.460 -41.618L27.602 -41.367L27.748 -41.119L27.898 -40.873L28.051 -40.629L28.207 -40.388L28.367 -40.150L28.531 -39.914L28.698 -39.680L28.868 -39.449L29.042 -39.221L29.219 -38.996L29.399 -38.773L29.582 -38.553L29.769 -38.335L29.959 -38.121L30.152 -37.909L30.348 -37.701L30.547 -37.495L30.749 -37.292L30.954 -37.092L31.162 -36.895L31.373 -36.702L31.586 -36.511L31.803 -36.324L32.022 -36.140L32.245 -35.959L32.469 -35.781L32.697 -35.606L32.927 -35.435L33.160 -35.267L33.396 -35.103L33.633 -34.942L33.874 -34.785L34.117 -34.631L34.362 -34.480L34.610 -34.333L34.860 -34.190L35.113 -34.051L35.368 -33.915L35.625 -33.783L35.884 -33.654L36.145 -33.530L36.409 -33.409L36.675 -33.292L36.942 -33.179L37.212 -33.070L37.484 -32.965L37.758 -32.864L38.034 -32.767L38.311 -32.674L38.591 -32.585L38.872 -32.501L39.155 -32.420L39.440 -32.344L39.727 -32.272L40.015 -32.205L40.305 -32.141L40.596 -32.082L40.890 -32.028L41.184 -31.978L41.480 -31.932L41.778 -31.891L42.077 -31.855L42.377 -31.823L42.679 -31.795L42.982 -31.773L43.287 -31.755L43.592 -31.742L43.899 -31.733L44.207 -31.730L44.516 -31.731L44.823 -31.737L45.130 -31.748L45.435 -31.763L45.738 -31.784L46.041 -31.809L46.342 -31.838L46.642 -31.872L46.940 -31.911L47.237 -31.954L47.532 -32.002L47.826 -32.055L48.118 -32.111L48.409 -32.172L48.698 -32.238L48.986 -32.308L49.272 -32.382L49.556 -32.460L49.838 -32.543L50.118 -32.629L50.397 -32.720L50.673 -32.815L50.948 -32.914L51.221 -33.017L51.492 -33.124L51.761 -33.235L52.027 -33.350L52.292 -33.469L52.555 -33.592L52.815 -33.718L53.073 -33.848L53.329 -33.982L53.583 -34.120L53.834 -34.261L54.083 -34.406L54.330 -34.555L54.574 -34.707L54.816 -34.863L55.055 -35.022L55.291 -35.185L55.526 -35.351L55.757 -35.520L55.986 -35.693L56.212 -35.869L56.436 -36.049L56.657 -36.231L56.875 -36.417L57.090 -36.606L57.302 -36.798L57.512 -36.993L57.718 -37.192L57.922 -37.393L58.122 -37.597L58.320 -37.804L58.514 -38.015L58.706 -38.228L58.894 -38.444L59.079 -38.662L59.261 -38.884L59.439 -39.108L59.614 -39.335L59.786 -39.564L59.955 -39.797L60.120 -40.031L60.282 -40.269L60.440 -40.509L60.595 -40.751L60.747 -40.996L60.894 -41.243L61.038 -41.492L61.179 -41.744L61.316 -41.999L61.449 -42.255L61.578 -42.514L61.704 -42.775L61.825 -43.038L61.943 -43.303L62.057 -43.570L62.167 -43.840L62.273 -44.111L62.375 -44.384L62.473 -44.659L62.567 -44.937L62.657 -45.216L62.743 -45.497L62.824 -45.779L62.901 -46.064L62.974 -46.350L63.043 -46.638L63.107 -46.927L63.167 -47.218L63.223 -47.511L63.274 -47.805L63.321 -48.101L63.363 -48.398L63.401 -48.697L63.434 -48.997L63.462 -49.299L63.486 -49.601L63.505 -49.905L63.520 -50.211L63.529 -50.517L63.534 -50.825L63.534 -51.134L63.529 -51.442L63.520 -51.748L63.505 -52.053L63.486 -52.358L63.462 -52.660L63.434 -52.962L63.401 -53.262L63.363 -53.561L63.321 -53.858L63.274 -54.154L63.223 -54.448L63.167 -54.741L63.107 -55.032L63.043 -55.321L62.974 -55.609L62.901 -55.895L62.824 -56.180L62.743 -56.462L62.657 -56.743L62.567 -57.022L62.473 -57.299L62.375 -57.575L62.273 -57.848L62.167 -58.119L62.057 -58.389L61.943 -58.656L61.825 -58.921L61.704 -59.184L61.578 -59.445L61.449 -59.704L61.316 -59.960L61.179 -60.215L61.038 -60.466L60.894 -60.716L60.747 -60.963L60.595 -61.208L60.440 -61.450L60.282 -61.690L60.120 -61.928L59.955 -62.162L59.786 -62.395L59.614 -62.624L59.439 -62.851L59.261 -63.075L59.079 -63.297L58.894 -63.515L58.706 -63.731L58.514 -63.944L58.320 -64.154L58.122 -64.362L57.922 -64.566L57.718 -64.767L57.512 -64.966L57.302 -65.161L57.090 -65.353L56.875 -65.542L56.657 -65.728L56.436 -65.910L56.212 -66.090L55.986 -66.266L55.757 -66.439L55.526 -66.608L55.292 -66.774L55.055 -66.937L54.816 -67.096L54.574 -67.252L54.330 -67.404L54.083 -67.553L53.834 -67.698L53.583 -67.839L53.329 -67.977L53.073 -68.111L52.815 -68.241L52.555 -68.367L52.292 -68.490L52.027 -68.609L51.761 -68.724L51.492 -68.835L51.221 -68.942L50.948 -69.045L50.673 -69.144L50.397 -69.239L50.118 -69.330L49.838 -69.416L49.556 -69.499L49.272 -69.577L48.986 -69.651L48.698 -69.721L48.409 -69.787L48.119 -69.848L47.826 -69.904L47.532 -69.957L47.237 -70.005L46.940 -70.048L46.642 -70.087L46.342 -70.121L46.041 -70.150L45.738 -70.175L45.435 -70.196L45.130 -70.211L44.823 -70.222L44.516 -70.228L44.207 -70.229L43.899 -70.226L43.592 -70.217L43.287 -70.204L42.982 -70.186L42.679 -70.164L42.377 -70.136L42.077 -70.104L41.778 -70.068L41.480 -70.027L41.184 -69.981L40.890 -69.931L40.596 -69.877L40.305 -69.818L40.015 -69.754L39.727 -69.687L39.440 -69.615L39.155 -69.539L38.872 -69.458L38.591 -69.374L38.311 -69.285L38.034 -69.192L37.758 -69.095L37.484 -68.994L37.212 -68.889L36.942 -68.780L36.675 -68.667L36.409 -68.550L36.145 -68.429L35.884 -68.305L35.625 -68.176L35.368 -68.044L35.113 -67.908L34.860 -67.769L34.610 -67.626L34.362 -67.479L34.117 -67.328L33.874 -67.174L33.633 -67.017L33.396 -66.856L33.160 -66.692L32.927 -66.524L32.697 -66.353L32.469 -66.178L32.245 -66.000L32.022 -65.819L31.803 -65.635L31.586 -65.448L31.373 -65.257L31.162 -65.064L30.954 -64.867L30.749 -64.667L30.547 -64.464L30.348 -64.258L30.152 -64.050L29.959 -63.838L29.769 -63.624L29.582 -63.406L29.399 -63.186L29.219 -62.963L29.042 -62.738L28.868 -62.510L28.698 -62.279L28.531 -62.045L28.367 -61.809L28.207 -61.571L28.051 -61.329L27.898 -61.086L27.748 -60.840L27.602 -60.592L27.460 -60.341L27.321 -60.088L27.186 -59.832L27.055 -59.575L26.928 -59.315L26.804 -59.053L26.684 -58.789L26.569 -58.523L26.457 -58.254L26.349 -57.984L26.244 -57.712L26.144 -57.437L26.048 -57.161L25.957 -56.883L25.869 -56.603L25.785 -56.321L25.706 -56.038L25.631 -55.752L25.560 -55.465L25.493 -55.177L25.431 -54.886L25.373 -54.594L25.320 -54.301L25.271 -54.006L25.227 -53.709L25.187 -53.411L25.151 -53.112L25.120 -52.811L25.094 -52.509L25.073 -52.206L25.056 -51.901L25.044 -51.595L25.037 -51.288L25.034 -50.979L25.034 -50.979ZM14.248 -13.169L14.072 -12.936L13.895 -12.701L13.717 -12.463L13.539 -12.223L13.364 -11.982L13.192 -11.740L13.025 -11.497L12.863 -11.254L12.709 -11.011L12.563 -10.769L12.427 -10.530L12.300 -10.290L12.180 -10.044L12.067 -9.792L11.963 -9.533L11.868 -9.266L11.783 -8.992L11.709 -8.711L11.647 -8.422L11.597 -8.124L11.561 -7.818L11.540 -7.504L11.534 -7.180L11.544 -6.863L11.570 -6.553L11.611 -6.249L11.666 -5.951L11.732 -5.659L11.810 -5.374L11.897 -5.098L11.994 -4.830L12.097 -4.572L12.207 -4.324L12.321 -4.088L12.445 -3.853L12.580 -3.615L12.728 -3.377L12.888 -3.139L13.060 -2.904L13.244 -2.672L13.441 -2.444L13.651 -2.223L13.874 -2.010L14.109 -1.806L14.366 -1.606L14.634 -1.420L14.904 -1.252L15.176 -1.102L15.449 -0.969L15.723 -0.850L15.998 -0.747L16.271 -0.656L16.543 -0.579L16.813 -0.512L17.081 -0.456L17.346 -0.409L17.607 -0.370L17.865 -0.338L18.131 -0.311L18.405 -0.289L18.685 -0.271L18.971 -0.258L19.263 -0.247L19.559 -0.240L19.860 -0.235L20.163 -0.232L20.469 -0.230L20.777 -0.230L21.085 -0.229L21.380 -0.229L21.672 -0.229L21.964 -0.229L22.257 -0.229L22.549 -0.229L22.841 -0.229L23.134 -0.229L23.426 -0.229L23.718 -0.229L24.011 -0.229L24.303 -0.229L24.595 -0.229L24.888 -0.229L25.180 -0.229L25.472 -0.229L25.765 -0.229L26.057 -0.229L26.349 -0.229L26.642 -0.229L26.934 -0.229L27.226 -0.229L27.519 -0.229L27.811 -0.229L28.104 -0.229L28.396 -0.229L28.688 -0.229L28.981 -0.229L29.273 -0.229L29.565 -0.229L29.858 -0.229L30.150 -0.229L30.442 -0.229L30.735 -0.229L31.027 -0.229L31.319 -0.229L31.612 -0.229L31.904 -0.229L32.196 -0.229L32.489 -0.229L32.781 -0.229L33.073 -0.229L33.366 -0.229L33.658 -0.229L33.950 -0.229L34.243 -0.229L34.535 -0.229L34.827 -0.229L35.120 -0.229L35.412 -0.229L35.704 -0.229L35.997 -0.229L36.289 -0.229L36.581 -0.229L36.874 -0.229L37.166 -0.229L37.458 -0.229L37.751 -0.229L38.043 -0.229L38.336 -0.229L38.628 -0.229L38.920 -0.229L39.213 -0.229L39.505 -0.229L39.797 -0.229L40.090 -0.229L40.382 -0.229L40.674 -0.229L40.967 -0.229L41.259 -0.229L41.551 -0.229L41.844 -0.229L42.136 -0.229L42.428 -0.229L42.721 -0.229L43.013 -0.229L43.305 -0.229L43.598 -0.229L43.890 -0.229L44.182 -0.229L44.475 -0.229L44.767 -0.229L45.059 -0.229L45.352 -0.229L45.644 -0.229L45.936 -0.229L46.229 -0.229L46.521 -0.229L46.813 -0.229L47.106 -0.229L47.398 -0.229L47.690 -0.229L47.983 -0.229L48.275 -0.229L48.568 -0.229L48.860 -0.229L49.152 -0.229L49.445 -0.229L49.737 -0.229L50.029 -0.229L50.322 -0.229L50.614 -0.229L50.906 -0.229L51.199 -0.229L51.491 -0.229L51.783 -0.229L52.076 -0.229L52.368 -0.229L52.660 -0.229L52.953 -0.229L53.245 -0.229L53.537 -0.229L53.830 -0.229L54.122 -0.229L54.414 -0.229L54.707 -0.229L54.999 -0.229L55.291 -0.229L55.584 -0.229L55.876 -0.229L56.168 -0.229L56.461 -0.229L56.753 -0.229L57.045 -0.229L57.338 -0.229L57.630 -0.229L57.922 -0.229L58.215 -0.229L58.507 -0.229L58.800 -0.229L59.092 -0.229L59.384 -0.229L59.677 -0.229L59.969 -0.229L60.261 -0.229L60.554 -0.229L60.846 -0.229L61.138 -0.229L61.431 -0.229L61.723 -0.229L62.015 -0.229L62.308 -0.229L62.600 -0.229L62.892 -0.229L63.185 -0.229L63.477 -0.229L63.769 -0.229L64.062 -0.229L64.354 -0.229L64.646 -0.229L64.939 -0.229L65.231 -0.229L65.523 -0.229L65.816 -0.229L66.108 -0.229L66.400 -0.229L66.693 -0.229L66.985 -0.229L67.277 -0.229L67.577 -0.229L67.885 -0.230L68.192 -0.230L68.498 -0.232L68.800 -0.236L69.099 -0.242L69.394 -0.250L69.684 -0.261L69.969 -0.276L70.247 -0.295L70.519 -0.318L70.783 -0.347L71.041 -0.381L71.303 -0.422L71.568 -0.472L71.837 -0.531L72.108 -0.601L72.380 -0.682L72.654 -0.777L72.928 -0.884L73.202 -1.007L73.475 -1.146L73.747 -1.301L74.016 -1.474L74.283 -1.666L74.532 -1.866L74.764 -2.073L74.983 -2.289L75.189 -2.512L75.382 -2.741L75.562 -2.974L75.731 -3.211L75.887 -3.449L76.031 -3.687L76.163 -3.924L76.283 -4.158L76.396 -4.398L76.504 -4.649L76.605 -4.910L76.699 -5.180L76.784 -5.459L76.858 -5.746L76.921 -6.040L76.972 -6.340L77.008 -6.646L77.029 -6.957L77.035 -7.279L77.024 -7.600L76.998 -7.912L76.958 -8.215L76.905 -8.510L76.839 -8.797L76.762 -9.076L76.673 -9.347L76.575 -9.611L76.468 -9.869L76.353 -10.119L76.231 -10.363L76.102 -10.601L75.963 -10.842L75.814 -11.084L75.658 -11.327L75.494 -11.570L75.325 -11.813L75.152 -12.055L74.976 -12.296L74.799 -12.535L74.621 -12.772L74.444 -13.006L74.268 -13.238L74.093 -13.467L73.916 -13.695L73.738 -13.921L73.558 -14.146L73.376 -14.369L73.192 -14.591L73.007 -14.812L72.821 -15.031L72.632 -15.249L72.442 -15.465L72.251 -15.680L72.058 -15.893L71.863 -16.105L71.667 -16.316L71.470 -16.525L71.270 -16.732L71.070 -16.938L70.867 -17.142L70.663 -17.345L70.458 -17.546L70.251 -17.746L70.043 -17.944L69.833 -18.141L69.622 -18.336L69.409 -18.529L69.195 -18.721L68.980 -18.912L68.763 -19.100L68.544 -19.287L68.325 -19.472L68.103 -19.656L67.881 -19.838L67.657 -20.018L67.431 -20.197L67.205 -20.374L66.977 -20.549L66.747 -20.723L66.517 -20.895L66.284 -21.065L66.051 -21.233L65.816 -21.400L65.580 -21.565L65.343 -21.728L65.105 -21.889L64.865 -22.049L64.624 -22.207L64.381 -22.363L64.138 -22.517L63.893 -22.669L63.647 -22.820L63.400 -22.968L63.151 -23.115L62.901 -23.260L62.651 -23.403L62.399 -23.544L62.145 -23.683L61.891 -23.821L61.636 -23.956L61.379 -24.090L61.121 -24.222L60.862 -24.351L60.602 -24.479L60.341 -24.605L60.079 -24.729L59.815 -24.851L59.551 -24.970L59.286 -25.088L59.019 -25.204L58.752 -25.318L58.483 -25.430L58.213 -25.540L57.943 -25.647L57.671 -25.753L57.398 -25.857L57.125 -25.958L56.850 -26.058L56.574 -26.155L56.298 -26.250L56.020 -26.344L55.742 -26.435L55.462 -26.524L55.182 -26.610L54.901 -26.695L54.618 -26.777L54.335 -26.858L54.051 -26.936L53.766 -27.012L53.481 -27.086L53.194 -27.157L52.906 -27.226L52.618 -27.294L52.329 -27.358L52.039 -27.421L51.748 -27.481L51.456 -27.539L51.164 -27.595L50.871 -27.649L50.577 -27.700L50.282 -27.749L49.986 -27.796L49.690 -27.840L49.393 -27.882L49.095 -27.922L48.797 -27.959L48.498 -27.994L48.198 -28.026L47.897 -28.056L47.596 -28.084L47.294 -28.110L46.991 -28.133L46.688 -28.153L46.384 -28.171L46.079 -28.187L45.774 -28.200L45.468 -28.211L45.161 -28.219L44.854 -28.225L44.546 -28.229L44.238 -28.229L43.930 -28.228L43.622 -28.224L43.315 -28.217L43.009 -28.208L42.703 -28.197L42.398 -28.183L42.094 -28.166L41.790 -28.147L41.487 -28.126L41.184 -28.102L40.882 -28.076L40.581 -28.048L40.281 -28.017L39.981 -27.983L39.682 -27.948L39.384 -27.910L39.086 -27.869L38.789 -27.827L38.493 -27.782L38.198 -27.734L37.903 -27.685L37.610 -27.633L37.317 -27.579L37.024 -27.522L36.733 -27.463L36.442 -27.402L36.153 -27.339L35.864 -27.273L35.576 -27.206L35.288 -27.136L35.002 -27.063L34.717 -26.989L34.432 -26.912L34.148 -26.834L33.865 -26.753L33.583 -26.670L33.302 -26.584L33.022 -26.497L32.743 -26.407L32.465 -26.316L32.188 -26.222L31.911 -26.126L31.636 -26.028L31.362 -25.928L31.088 -25.826L30.816 -25.721L30.545 -25.615L30.274 -25.507L30.005 -25.396L29.737 -25.284L29.469 -25.169L29.203 -25.053L28.938 -24.934L28.674 -24.814L28.411 -24.691L28.149 -24.567L27.888 -24.441L27.629 -24.312L27.370 -24.182L27.112 -24.050L26.856 -23.916L26.601 -23.780L26.347 -23.642L26.094 -23.502L25.842 -23.360L25.592 -23.216L25.343 -23.071L25.095 -22.923L24.848 -22.774L24.602 -22.623L24.358 -22.470L24.114 -22.316L23.872 -22.159L23.632 -22.001L23.392 -21.841L23.154 -21.679L22.917 -21.515L22.682 -21.350L22.447 -21.183L22.214 -21.014L21.983 -20.843L21.752 -20.671L21.523 -20.497L21.296 -20.321L21.069 -20.143L20.844 -19.964L20.621 -19.783L20.399 -19.601L20.178 -19.417L19.958 -19.231L19.741 -19.043L19.524 -18.854L19.309 -18.664L19.095 -18.471L18.883 -18.277L18.672 -18.082L18.463 -17.885L18.255 -17.686L18.049 -17.486L17.844 -17.284L17.641 -17.081L17.439 -16.876L17.238 -16.670L17.040 -16.462L16.842 -16.252L16.647 -16.042L16.453 -15.829L16.260 -15.615L16.069 -15.400L15.880 -15.183L15.692 -14.965L15.506 -14.745L15.321 -14.524L15.138 -14.302L14.957 -14.078L14.777 -13.853L14.599 -13.626L14.423 -13.398L14.248 -13.169L14.248 -13.169Z"/>
  </g>
 </g>
</svg>
